# Blender 4.4.3
# www.blender.org
mtllib worship.mtl
o Cube.005
v -0.156094 -0.161279 2.687060
v -0.156094 -0.161279 0.109080
v -0.156094 0.230788 2.687060
v 3.796657 -0.161279 2.687060
v 3.796657 -0.161279 0.109080
v 3.796657 0.230788 2.687060
v 3.796657 0.230788 0.109080
v -0.156094 0.230788 0.109080
v 3.643360 -1.310834 2.518770
v 3.643360 -1.310834 2.124749
v 3.643360 -0.140765 2.518770
v 3.292832 -1.310834 2.518770
v 3.292832 -1.310834 2.124749
v 3.292832 -0.140765 2.518770
v 3.292832 -0.140765 2.124749
v 3.643360 -0.140765 2.124749
v -0.015774 -1.310834 0.379850
v -0.015774 -1.310834 0.773871
v -0.015774 -0.140765 0.379850
v 0.334754 -1.310834 0.379850
v 0.334754 -1.310834 0.773871
v 0.334754 -0.140765 0.379850
v 0.334754 -0.140765 0.773871
v -0.015774 -0.140765 0.773871
v -0.015774 -1.310834 2.518770
v -0.015774 -1.310834 2.124750
v -0.015774 -0.140765 2.518770
v 0.334754 -1.310834 2.518770
v 0.334754 -1.310834 2.124750
v 0.334754 -0.140765 2.518770
v 0.334754 -0.140765 2.124750
v -0.015774 -0.140765 2.124750
v 3.643360 -1.310834 0.379850
v 3.643360 -1.310834 0.773870
v 3.643360 -0.140765 0.379850
v 3.292832 -1.310834 0.379850
v 3.292832 -1.310834 0.773870
v 3.292832 -0.140765 0.379850
v 3.292832 -0.140765 0.773870
v 3.643360 -0.140765 0.773870
vn -1.0000 -0.0000 -0.0000
vn -0.0000 -1.0000 -0.0000
vn -0.0000 -0.0000 1.0000
vn 1.0000 -0.0000 -0.0000
vn -0.0000 1.0000 -0.0000
vn -0.0000 -0.0000 -1.0000
vt 0.183269 0.585362
vt 0.183269 0.629110
vt 0.432494 0.773126
vt 0.432494 0.729379
vt 0.814626 0.508562
vt 0.565400 0.364545
vt 0.565400 0.408292
vt 0.814626 0.552309
vt 0.566850 0.254241
vt 0.604942 0.276253
vt 0.604942 0.406810
vt 0.566850 0.384799
vt 0.532962 0.273823
vt 0.571054 0.295835
vt 0.532962 0.404381
vt 0.571054 0.426392
vt 0.381791 0.556133
vt 0.419883 0.578145
vt 0.453771 0.558563
vt 0.415679 0.536551
vt 0.381791 0.686691
vt 0.419883 0.708703
vt 0.453771 0.689121
vt 0.415679 0.667109
vt 0.251196 0.480667
vt 0.285083 0.461085
vt 0.246991 0.439074
vt 0.213104 0.458656
vt 0.213104 0.589213
vt 0.251196 0.611225
vt 0.246991 0.569632
vt 0.285083 0.591643
vt 0.773629 0.373730
vt 0.773629 0.504288
vt 0.735537 0.482276
vt 0.735537 0.351719
vt 0.701650 0.371301
vt 0.739742 0.393312
vt 0.739742 0.523870
vt 0.701650 0.501858
s 0
f 1/1/1 3/2/1 8/3/1 2/4/1
f 2/4/2 5/5/2 4/6/2 1/1/2
f 4/6/3 6/7/3 3/2/3 1/1/3
f 5/5/4 7/8/4 6/7/4 4/6/4
f 7/8/5 8/3/5 3/2/5 6/7/5
f 2/4/6 8/3/6 7/8/6 5/5/6
f 9/9/4 10/10/4 16/11/4 11/12/4
f 10/10/2 9/9/2 12/13/2 13/14/2
f 12/13/3 9/9/3 11/12/3 14/15/3
f 13/14/1 12/13/1 14/15/1 15/16/1
f 15/16/5 14/15/5 11/12/5 16/11/5
f 10/10/6 13/14/6 15/16/6 16/11/6
f 18/17/2 17/18/2 20/19/2 21/20/2
f 17/18/1 18/17/1 24/21/1 19/22/1
f 20/19/6 17/18/6 19/22/6 22/23/6
f 21/20/4 20/19/4 22/23/4 23/24/4
f 23/24/5 22/23/5 19/22/5 24/21/5
f 18/17/3 21/20/3 23/24/3 24/21/3
f 26/25/2 29/26/2 28/27/2 25/28/2
f 25/28/1 27/29/1 32/30/1 26/25/1
f 28/27/3 30/31/3 27/29/3 25/28/3
f 29/26/4 31/32/4 30/31/4 28/27/4
f 31/32/5 32/30/5 27/29/5 30/31/5
f 26/25/6 32/30/6 31/32/6 29/26/6
f 33/33/4 35/34/4 40/35/4 34/36/4
f 34/36/2 37/37/2 36/38/2 33/33/2
f 36/38/6 38/39/6 35/34/6 33/33/6
f 37/37/1 39/40/1 38/39/1 36/38/1
f 39/40/5 40/35/5 35/34/5 38/39/5
f 34/36/3 40/35/3 39/40/3 37/37/3
