# Blender 4.4.3
# www.blender.org
mtllib EngineRoom_machine_5.mtl
o Machine_5
v 2.815040 0.433864 -3.289801
v 2.833984 0.373554 -3.321013
v 2.815040 0.433864 -2.754825
v 2.833984 0.373554 -2.723612
v 2.446222 0.433864 -3.289801
v 2.427277 0.373554 -3.321013
v 2.446222 0.433864 -2.754825
v 2.427277 0.373554 -2.723612
v 2.833984 0.437617 -2.723612
v 2.427277 0.437617 -2.723612
v 2.833984 0.437617 -3.321013
v 2.427277 0.437617 -3.321013
v 2.833984 0.444705 -2.723612
v 2.427277 0.444705 -2.723612
v 2.833984 0.444705 -3.321013
v 2.427277 0.444705 -3.321013
v 2.815040 0.444705 -2.754825
v 2.446222 0.444705 -2.754825
v 2.815040 0.444705 -3.289801
v 2.446222 0.444705 -3.289801
v 2.899843 0.418348 -3.836775
v 2.899843 0.000412 -3.836775
v 2.899843 0.418348 -2.690202
v 2.899843 0.000412 -2.690202
v 2.361242 0.418348 -3.836775
v 2.361242 0.000412 -3.836775
v 2.361242 0.418348 -2.690202
v 2.361242 0.000412 -2.690202
v 2.923523 0.424315 -3.860075
v 2.923523 0.304295 -3.860075
v 2.923523 0.424315 -2.662957
v 2.923523 0.304295 -2.662957
v 2.337563 0.424315 -3.860075
v 2.337563 0.304295 -3.860075
v 2.337563 0.424315 -2.662957
v 2.337563 0.304295 -2.662957
v 2.905827 0.389525 -2.776948
v 2.905827 0.000384 -2.776948
v 2.905827 0.389525 -2.684298
v 2.905827 0.000384 -2.684298
v 2.799104 0.389525 -2.776948
v 2.799104 0.000384 -2.776948
v 2.799104 0.389525 -2.684298
v 2.799104 0.000384 -2.684298
v 2.438811 0.000384 -2.776948
v 2.438811 0.000384 -3.360651
v 2.355258 0.389525 -2.776948
v 2.355258 0.000384 -2.776948
v 2.355258 0.389525 -2.684298
v 2.355258 0.000384 -2.684298
v 2.461981 0.389525 -2.776948
v 2.461981 0.000384 -2.776948
v 2.461981 0.389525 -2.684298
v 2.461981 0.000384 -2.684298
v 2.822274 0.000384 -2.776948
v 2.822274 0.000384 -3.360651
v 2.438811 0.000384 -3.346533
v 2.438811 0.000384 -2.762830
v 2.822274 0.000384 -3.346533
v 2.822274 0.000385 -2.762830
v 2.761872 0.058540 -2.738202
v 2.761872 -0.001139 -2.738202
v 2.761872 0.058540 -2.660936
v 2.761872 -0.001139 -2.660936
v 2.499389 0.058540 -2.738202
v 2.499389 -0.001139 -2.738202
v 2.499389 0.058540 -2.660936
v 2.499389 -0.001139 -2.660936
v 2.761872 0.058540 -3.788775
v 2.761872 -0.001139 -3.788775
v 2.761872 0.058540 -3.866041
v 2.761872 -0.001139 -3.866041
v 2.499389 0.058540 -3.788775
v 2.499389 -0.001139 -3.788775
v 2.499389 0.058540 -3.866041
v 2.499389 -0.001139 -3.866041
v 2.761872 0.257552 -2.738202
v 2.761872 0.114431 -2.738202
v 2.761872 0.257552 -2.688218
v 2.761872 0.114431 -2.688218
v 2.499389 0.257552 -2.738202
v 2.499389 0.114431 -2.738202
v 2.499389 0.257552 -2.688218
v 2.499389 0.114431 -2.688218
v 2.761872 0.257552 -3.788774
v 2.761872 0.114431 -3.788774
v 2.761872 0.257552 -3.838759
v 2.761872 0.114431 -3.838759
v 2.499389 0.257552 -3.788774
v 2.499389 0.114431 -3.788774
v 2.499389 0.257552 -3.838759
v 2.499389 0.114431 -3.838759
v 2.835496 0.493337 -3.808729
v 2.835496 0.408635 -3.808729
v 2.835496 0.493337 -3.671790
v 2.835496 0.408635 -3.671790
v 2.425766 0.493337 -3.808729
v 2.425766 0.408635 -3.808729
v 2.425766 0.493337 -3.671790
v 2.425766 0.408635 -3.671790
vn -0.0000 1.0000 -0.0000
vn -0.0000 -0.0000 1.0000
vn -1.0000 -0.0000 -0.0000
vn -0.0000 -1.0000 -0.0000
vn 1.0000 -0.0000 -0.0000
vn -0.0000 -0.0000 -1.0000
vt 0.636645 0.513062
vt 0.863355 0.513062
vt 0.863355 0.736938
vt 0.636645 0.736938
vt 0.375000 0.750000
vt 0.625000 0.750000
vt 0.625000 1.000000
vt 0.375000 1.000000
vt 0.375000 0.000000
vt 0.625000 0.000000
vt 0.625000 0.250000
vt 0.375000 0.250000
vt 0.125000 0.500000
vt 0.375000 0.500000
vt 0.125000 0.750000
vt 0.625000 0.500000
vt 0.875000 0.750000
vt 0.875000 0.500000
s 0
usemtl Material
f 1/1/1 5/2/1 7/3/1 3/4/1
f 4/5/2 9/6/2 10/7/2 8/8/2
f 8/9/3 10/10/3 12/11/3 6/12/3
f 6/13/4 2/14/4 4/5/4 8/15/4
f 2/14/5 11/16/5 9/6/5 4/5/5
f 6/12/6 12/11/6 11/16/6 2/14/6
f 10/7/2 9/6/2 13/6/2 14/7/2
f 11/16/6 12/11/6 16/11/6 15/16/6
f 3/4/6 7/3/6 18/3/6 17/4/6
f 7/3/5 5/2/5 20/2/5 18/3/5
f 17/4/1 18/3/1 14/17/1 13/6/1
f 19/1/1 17/4/1 13/6/1 15/16/1
f 18/3/1 20/2/1 16/18/1 14/17/1
f 20/2/1 19/1/1 15/16/1 16/18/1
f 5/2/2 1/1/2 19/1/2 20/2/2
f 1/1/3 3/4/3 17/4/3 19/1/3
f 12/11/3 10/10/3 14/10/3 16/11/3
f 9/6/5 11/16/5 15/16/5 13/6/5
f 21/16/1 25/18/1 27/17/1 23/6/1
f 24/5/2 23/6/2 27/7/2 28/8/2
f 28/9/3 27/10/3 25/11/3 26/12/3
f 26/13/4 22/14/4 24/5/4 28/15/4
f 22/14/5 21/16/5 23/6/5 24/5/5
f 26/12/6 25/11/6 21/16/6 22/14/6
f 29/16/1 33/18/1 35/17/1 31/6/1
f 32/5/2 31/6/2 35/7/2 36/8/2
f 36/9/3 35/10/3 33/11/3 34/12/3
f 34/13/4 30/14/4 32/5/4 36/15/4
f 30/14/5 29/16/5 31/6/5 32/5/5
f 34/12/6 33/11/6 29/16/6 30/14/6
f 37/16/1 41/18/1 43/17/1 39/6/1
f 40/5/2 39/6/2 43/7/2 44/8/2
f 44/9/3 43/10/3 41/11/3 42/12/3
f 42/13/4 38/14/4 40/5/4 44/15/4
f 38/14/5 37/16/5 39/6/5 40/5/5
f 42/12/6 41/11/6 37/16/6 38/14/6
f 47/16/1 49/6/1 53/17/1 51/18/1
f 50/5/2 54/8/2 53/7/2 49/6/2
f 54/9/5 52/12/5 51/11/5 53/10/5
f 52/13/4 54/15/4 50/5/4 48/14/4
f 48/14/3 50/5/3 49/6/3 47/16/3
f 52/12/6 48/14/6 47/16/6 51/11/6
f 61/16/1 65/18/1 67/17/1 63/6/1
f 64/5/2 63/6/2 67/7/2 68/8/2
f 68/9/3 67/10/3 65/11/3 66/12/3
f 66/13/4 62/14/4 64/5/4 68/15/4
f 62/14/5 61/16/5 63/6/5 64/5/5
f 66/12/6 65/11/6 61/16/6 62/14/6
f 69/16/1 71/6/1 75/17/1 73/18/1
f 72/5/6 76/8/6 75/7/6 71/6/6
f 76/9/3 74/12/3 73/11/3 75/10/3
f 74/13/4 76/15/4 72/5/4 70/14/4
f 70/14/5 72/5/5 71/6/5 69/16/5
f 74/12/2 70/14/2 69/16/2 73/11/2
f 77/16/1 81/18/1 83/17/1 79/6/1
f 80/5/2 79/6/2 83/7/2 84/8/2
f 84/9/3 83/10/3 81/11/3 82/12/3
f 82/13/4 78/14/4 80/5/4 84/15/4
f 78/14/5 77/16/5 79/6/5 80/5/5
f 82/12/6 81/11/6 77/16/6 78/14/6
f 85/16/1 87/6/1 91/17/1 89/18/1
f 88/5/6 92/8/6 91/7/6 87/6/6
f 92/9/3 90/12/3 89/11/3 91/10/3
f 90/13/4 92/15/4 88/5/4 86/14/4
f 86/14/5 88/5/5 87/6/5 85/16/5
f 90/12/2 86/14/2 85/16/2 89/11/2
f 93/16/1 97/18/1 99/17/1 95/6/1
f 96/5/2 95/6/2 99/7/2 100/8/2
f 100/9/3 99/10/3 97/11/3 98/12/3
f 98/13/4 94/14/4 96/5/4 100/15/4
f 94/14/5 93/16/5 95/6/5 96/5/5
f 98/12/6 97/11/6 93/16/6 94/14/6
