# Blender 4.4.3
# www.blender.org
mtllib EngineRoom_machine_6.mtl
o Machine_6
v 2.762443 0.253405 -5.518595
v 2.754208 0.217379 -5.518595
v 2.762443 0.253405 -5.303382
v 2.754208 0.217379 -5.303382
v 2.677435 0.272835 -5.518595
v 2.669200 0.236810 -5.518595
v 2.677435 0.272835 -5.303382
v 2.669200 0.236810 -5.303382
v 2.911892 0.049800 -5.588491
v 2.911892 -0.001790 -5.588491
v 2.911892 0.049800 -4.512789
v 2.911892 -0.001790 -4.512789
v 2.349194 0.049800 -5.588491
v 2.349194 -0.001790 -5.588491
v 2.349194 0.049800 -4.512789
v 2.349194 -0.001790 -4.512789
v 2.899844 0.207098 -5.565458
v 2.899844 0.017775 -5.565458
v 2.899844 0.207098 -4.535822
v 2.899844 0.017775 -4.535822
v 2.361243 0.274351 -5.565458
v 2.361243 0.017775 -5.565458
v 2.361243 0.274351 -4.535822
v 2.361243 0.017775 -4.535822
v 2.627071 0.017775 -5.565458
v 2.627071 0.274351 -4.535822
v 2.627071 0.017775 -4.535822
v 2.627071 0.274351 -5.565458
v 2.627071 0.514592 -4.535822
v 2.361243 0.514592 -4.535822
v 2.361243 0.514592 -5.565458
v 2.627071 0.514592 -5.565458
v 2.416162 0.436518 -5.567774
v 2.416162 0.070401 -5.567774
v 2.416162 0.436518 -4.533506
v 2.416162 0.070401 -4.533506
v 2.358172 0.436518 -5.567774
v 2.358172 0.070401 -5.567774
v 2.358172 0.436518 -4.533506
v 2.358172 0.070401 -4.533506
v 2.867518 0.229387 -5.243898
v 2.859283 0.193361 -5.243898
v 2.867518 0.229387 -4.857382
v 2.859283 0.193361 -4.857382
v 2.670415 0.274440 -5.243898
v 2.662180 0.238414 -5.243898
v 2.670415 0.274440 -4.857382
v 2.662180 0.238414 -4.857382
v 2.713036 0.264244 -4.721441
v 2.705952 0.233252 -4.721441
v 2.834931 0.236381 -4.721441
v 2.827847 0.205390 -4.721441
v 2.713036 0.264244 -4.654078
v 2.705952 0.233252 -4.654078
v 2.834931 0.236381 -4.654078
v 2.827847 0.205390 -4.654078
v 2.713036 0.264244 -4.648230
v 2.705952 0.233252 -4.648230
v 2.834931 0.236381 -4.648230
v 2.827847 0.205390 -4.648230
v 2.713036 0.264244 -4.580867
v 2.705952 0.233252 -4.580867
v 2.834931 0.236381 -4.580867
v 2.827847 0.205390 -4.580867
v 2.713036 0.264244 -4.793889
v 2.705952 0.233252 -4.793889
v 2.834931 0.236381 -4.793889
v 2.827847 0.205390 -4.793889
v 2.713036 0.264244 -4.726526
v 2.705952 0.233252 -4.726526
v 2.834931 0.236381 -4.726526
v 2.827847 0.205390 -4.726526
v 2.811293 0.238993 -5.304081
v 2.805020 0.214167 -5.304081
v 2.818193 0.237250 -5.304711
v 2.811920 0.212424 -5.304711
v 2.824828 0.235573 -5.306575
v 2.818555 0.210747 -5.306575
v 2.830943 0.234028 -5.309602
v 2.824670 0.209202 -5.309602
v 2.836302 0.232674 -5.313677
v 2.830029 0.207848 -5.313677
v 2.840701 0.231562 -5.318641
v 2.834428 0.206737 -5.318641
v 2.843969 0.230737 -5.324305
v 2.837696 0.205910 -5.324305
v 2.845982 0.230228 -5.330450
v 2.839709 0.205402 -5.330450
v 2.846661 0.230056 -5.336841
v 2.840389 0.205230 -5.336841
v 2.845982 0.230228 -5.343232
v 2.839709 0.205402 -5.343232
v 2.843969 0.230737 -5.349377
v 2.837696 0.205910 -5.349377
v 2.840701 0.231562 -5.355041
v 2.834428 0.206737 -5.355041
v 2.836302 0.232674 -5.360005
v 2.830029 0.207848 -5.360005
v 2.830943 0.234028 -5.364079
v 2.824670 0.209202 -5.364079
v 2.824828 0.235573 -5.367106
v 2.818555 0.210747 -5.367106
v 2.818193 0.237250 -5.368971
v 2.811920 0.212424 -5.368971
v 2.811293 0.238993 -5.369600
v 2.805020 0.214167 -5.369600
v 2.804393 0.240737 -5.368971
v 2.798120 0.215911 -5.368971
v 2.797758 0.242413 -5.367106
v 2.791485 0.217587 -5.367106
v 2.791643 0.243959 -5.364079
v 2.785370 0.219132 -5.364079
v 2.786284 0.245313 -5.360005
v 2.780011 0.220487 -5.360005
v 2.781885 0.246424 -5.355041
v 2.775612 0.221598 -5.355041
v 2.778617 0.247250 -5.349377
v 2.772344 0.222424 -5.349377
v 2.776604 0.247759 -5.343232
v 2.770331 0.222932 -5.343232
v 2.775924 0.247930 -5.336841
v 2.769652 0.223104 -5.336841
v 2.776604 0.247759 -5.330450
v 2.770331 0.222932 -5.330450
v 2.778617 0.247250 -5.324305
v 2.772344 0.222424 -5.324305
v 2.781885 0.246424 -5.318641
v 2.775612 0.221598 -5.318641
v 2.786284 0.245313 -5.313677
v 2.780011 0.220487 -5.313677
v 2.791643 0.243959 -5.309602
v 2.785370 0.219132 -5.309602
v 2.797758 0.242413 -5.306575
v 2.791485 0.217587 -5.306575
v 2.804393 0.240737 -5.304711
v 2.798120 0.215911 -5.304711
v 2.811293 0.238993 -5.434576
v 2.805020 0.214167 -5.434576
v 2.818193 0.237250 -5.435205
v 2.811920 0.212424 -5.435205
v 2.824828 0.235573 -5.437069
v 2.818555 0.210747 -5.437069
v 2.830943 0.234028 -5.440096
v 2.824670 0.209202 -5.440096
v 2.836302 0.232674 -5.444170
v 2.830029 0.207848 -5.444170
v 2.840701 0.231562 -5.449135
v 2.834428 0.206737 -5.449135
v 2.843969 0.230737 -5.454799
v 2.837696 0.205910 -5.454799
v 2.845982 0.230228 -5.460944
v 2.839709 0.205402 -5.460944
v 2.846661 0.230056 -5.467335
v 2.840389 0.205230 -5.467335
v 2.845982 0.230228 -5.473726
v 2.839709 0.205402 -5.473726
v 2.843969 0.230737 -5.479871
v 2.837696 0.205910 -5.479871
v 2.840701 0.231562 -5.485535
v 2.834428 0.206737 -5.485535
v 2.836302 0.232674 -5.490499
v 2.830029 0.207848 -5.490499
v 2.830943 0.234028 -5.494574
v 2.824670 0.209202 -5.494574
v 2.824828 0.235573 -5.497601
v 2.818555 0.210747 -5.497601
v 2.818193 0.237250 -5.499465
v 2.811920 0.212424 -5.499465
v 2.811293 0.238993 -5.500094
v 2.805020 0.214167 -5.500094
v 2.804393 0.240737 -5.499465
v 2.798120 0.215911 -5.499465
v 2.797758 0.242413 -5.497601
v 2.791485 0.217587 -5.497601
v 2.791643 0.243959 -5.494574
v 2.785370 0.219132 -5.494574
v 2.786284 0.245313 -5.490499
v 2.780011 0.220487 -5.490499
v 2.781885 0.246424 -5.485535
v 2.775612 0.221598 -5.485535
v 2.778617 0.247250 -5.479871
v 2.772344 0.222424 -5.479871
v 2.776604 0.247759 -5.473726
v 2.770331 0.222932 -5.473726
v 2.775924 0.247930 -5.467335
v 2.769652 0.223104 -5.467335
v 2.776604 0.247759 -5.460944
v 2.770331 0.222932 -5.460944
v 2.778617 0.247250 -5.454799
v 2.772344 0.222424 -5.454799
v 2.781885 0.246424 -5.449135
v 2.775612 0.221598 -5.449135
v 2.786284 0.245313 -5.444170
v 2.780011 0.220487 -5.444170
v 2.791643 0.243959 -5.440096
v 2.785370 0.219132 -5.440096
v 2.797758 0.242413 -5.437069
v 2.791485 0.217587 -5.437069
v 2.804393 0.240737 -5.435205
v 2.798120 0.215911 -5.435205
v 2.632577 0.466500 -4.668742
v 2.632577 0.304013 -4.668742
v 2.632577 0.466500 -4.562513
v 2.632577 0.304013 -4.562513
v 2.594411 0.466500 -4.668742
v 2.594411 0.304013 -4.668742
v 2.594411 0.466500 -4.562513
v 2.594411 0.304013 -4.562513
v 2.632577 0.466500 -4.796823
v 2.632577 0.304013 -4.796823
v 2.632577 0.466500 -4.690593
v 2.632577 0.304013 -4.690593
v 2.594411 0.466500 -4.796823
v 2.594411 0.304013 -4.796823
v 2.594411 0.466500 -4.690593
v 2.594411 0.304013 -4.690593
v 2.632577 0.466500 -5.261676
v 2.632577 0.304013 -5.261676
v 2.632577 0.466500 -4.833651
v 2.632577 0.304013 -4.833651
v 2.594411 0.466500 -5.261676
v 2.594411 0.304013 -5.261676
v 2.594411 0.466500 -4.833651
v 2.594411 0.304013 -4.833651
v 2.632577 0.466500 -5.541113
v 2.632577 0.304013 -5.541113
v 2.632577 0.466500 -5.434885
v 2.632577 0.304013 -5.434885
v 2.594411 0.466500 -5.541113
v 2.594411 0.304013 -5.541113
v 2.594411 0.466500 -5.434885
v 2.594411 0.304013 -5.434885
v 2.635481 0.457540 -5.417913
v 2.635482 0.414605 -5.417913
v 2.635481 0.457540 -5.377625
v 2.635482 0.414605 -5.377625
v 2.623710 0.457540 -5.417913
v 2.623710 0.414605 -5.417913
v 2.623710 0.457540 -5.377625
v 2.623710 0.414605 -5.377625
v 2.635481 0.457540 -5.371185
v 2.635482 0.414605 -5.371185
v 2.635481 0.457540 -5.330897
v 2.635482 0.414605 -5.330897
v 2.623710 0.457540 -5.371185
v 2.623710 0.414605 -5.371185
v 2.623710 0.457540 -5.330897
v 2.623710 0.414605 -5.330897
v 2.635481 0.457540 -5.325287
v 2.635482 0.414605 -5.325287
v 2.635481 0.457540 -5.284998
v 2.635482 0.414605 -5.284998
v 2.623710 0.457540 -5.325287
v 2.623710 0.414605 -5.325287
v 2.623710 0.457540 -5.284998
v 2.623710 0.414605 -5.284998
v 2.635481 0.409950 -5.417913
v 2.635482 0.367014 -5.417913
v 2.635481 0.409950 -5.377625
v 2.635482 0.367014 -5.377625
v 2.623710 0.409950 -5.417913
v 2.623710 0.367014 -5.417913
v 2.623710 0.409950 -5.377625
v 2.623710 0.367014 -5.377625
v 2.635481 0.409950 -5.371185
v 2.635482 0.367014 -5.371185
v 2.635481 0.409950 -5.330897
v 2.635482 0.367014 -5.330897
v 2.623710 0.409950 -5.371185
v 2.623710 0.367014 -5.371185
v 2.623710 0.409950 -5.330897
v 2.623710 0.367014 -5.330897
v 2.635481 0.409950 -5.325287
v 2.635482 0.367014 -5.325287
v 2.635481 0.409950 -5.284998
v 2.635482 0.367014 -5.284998
v 2.623710 0.409950 -5.325287
v 2.623710 0.367014 -5.325287
v 2.623710 0.409950 -5.284998
v 2.623710 0.367014 -5.284998
v 2.635481 0.361308 -5.417913
v 2.635482 0.318373 -5.417913
v 2.635481 0.361308 -5.377625
v 2.635482 0.318373 -5.377625
v 2.623710 0.361308 -5.417913
v 2.623710 0.318373 -5.417913
v 2.623710 0.361308 -5.377625
v 2.623710 0.318373 -5.377625
v 2.635481 0.361308 -5.371185
v 2.635482 0.318373 -5.371185
v 2.635481 0.361308 -5.330897
v 2.635482 0.318373 -5.330897
v 2.623710 0.361308 -5.371185
v 2.623710 0.318373 -5.371185
v 2.623710 0.361308 -5.330897
v 2.623710 0.318373 -5.330897
v 2.635481 0.361308 -5.325287
v 2.635482 0.318373 -5.325287
v 2.635481 0.361308 -5.284998
v 2.635482 0.318373 -5.284998
v 2.623710 0.361308 -5.325287
v 2.623710 0.318373 -5.325287
v 2.623710 0.361308 -5.284998
v 2.623710 0.318373 -5.284998
vn 0.2228 0.9749 -0.0000
vn -0.0000 -0.0000 1.0000
vn -0.9749 0.2228 -0.0000
vn -0.2228 -0.9749 -0.0000
vn 0.9749 -0.2228 -0.0000
vn -0.0000 -0.0000 -1.0000
vn -0.0000 1.0000 -0.0000
vn -1.0000 -0.0000 -0.0000
vn -0.0000 -1.0000 -0.0000
vn 1.0000 -0.0000 -0.0000
vn 0.2394 0.9709 -0.0000
vn 0.0854 -0.0216 0.9961
vn 0.2548 -0.0644 0.9648
vn 0.4195 -0.1060 0.9015
vn 0.5752 -0.1453 0.8050
vn 0.7157 -0.1808 0.6746
vn 0.8331 -0.2105 0.5115
vn 0.9185 -0.2321 0.3200
vn 0.9637 -0.2435 0.1090
vn 0.9637 -0.2435 -0.1090
vn 0.9185 -0.2321 -0.3200
vn 0.8331 -0.2105 -0.5115
vn 0.7157 -0.1808 -0.6746
vn 0.5752 -0.1453 -0.8050
vn 0.4195 -0.1060 -0.9015
vn 0.2548 -0.0644 -0.9648
vn 0.0854 -0.0216 -0.9961
vn -0.0854 0.0216 -0.9961
vn -0.2548 0.0644 -0.9648
vn -0.4195 0.1060 -0.9015
vn -0.5752 0.1453 -0.8050
vn -0.7157 0.1808 -0.6746
vn -0.8331 0.2105 -0.5115
vn -0.9185 0.2321 -0.3200
vn -0.9637 0.2435 -0.1090
vn -0.9637 0.2435 0.1090
vn -0.9185 0.2321 0.3200
vn -0.8331 0.2105 0.5115
vn -0.7157 0.1808 0.6746
vn -0.5752 0.1453 0.8050
vn -0.4195 0.1060 0.9015
vn -0.2450 -0.9695 -0.0000
vn -0.2548 0.0644 0.9648
vn -0.0854 0.0216 0.9961
vn 0.2450 0.9695 -0.0000
vt 0.625000 0.500000
vt 0.875000 0.500000
vt 0.875000 0.750000
vt 0.625000 0.750000
vt 0.375000 0.750000
vt 0.625000 1.000000
vt 0.375000 1.000000
vt 0.375000 0.000000
vt 0.625000 0.000000
vt 0.625000 0.250000
vt 0.375000 0.250000
vt 0.125000 0.500000
vt 0.375000 0.500000
vt 0.125000 0.750000
vt 0.751612 0.750000
vt 0.751612 0.500000
vt 0.375000 0.876612
vt 0.625000 0.876612
vt 0.248388 0.500000
vt 0.248388 0.750000
vt 0.375000 0.373388
vt 0.625000 0.373388
vt 1.000000 0.500000
vt 1.000000 1.000000
vt 0.968750 1.000000
vt 0.968750 0.500000
vt 0.937500 1.000000
vt 0.937500 0.500000
vt 0.906250 1.000000
vt 0.906250 0.500000
vt 0.875000 1.000000
vt 0.843750 1.000000
vt 0.843750 0.500000
vt 0.812500 1.000000
vt 0.812500 0.500000
vt 0.781250 1.000000
vt 0.781250 0.500000
vt 0.750000 1.000000
vt 0.750000 0.500000
vt 0.718750 1.000000
vt 0.718750 0.500000
vt 0.687500 1.000000
vt 0.687500 0.500000
vt 0.656250 1.000000
vt 0.656250 0.500000
vt 0.593750 1.000000
vt 0.593750 0.500000
vt 0.562500 1.000000
vt 0.562500 0.500000
vt 0.531250 1.000000
vt 0.531250 0.500000
vt 0.500000 1.000000
vt 0.500000 0.500000
vt 0.468750 1.000000
vt 0.468750 0.500000
vt 0.437500 1.000000
vt 0.437500 0.500000
vt 0.406250 1.000000
vt 0.406250 0.500000
vt 0.343750 1.000000
vt 0.343750 0.500000
vt 0.312500 1.000000
vt 0.312500 0.500000
vt 0.281250 1.000000
vt 0.281250 0.500000
vt 0.250000 1.000000
vt 0.250000 0.500000
vt 0.218750 1.000000
vt 0.218750 0.500000
vt 0.187500 1.000000
vt 0.187500 0.500000
vt 0.156250 1.000000
vt 0.156250 0.500000
vt 0.125000 1.000000
vt 0.093750 1.000000
vt 0.093750 0.500000
vt 0.062500 1.000000
vt 0.062500 0.500000
vt 0.296822 0.485388
vt 0.250000 0.490000
vt 0.203178 0.485388
vt 0.158156 0.471731
vt 0.116663 0.449553
vt 0.080294 0.419706
vt 0.050447 0.383337
vt 0.028269 0.341844
vt 0.014612 0.296822
vt 0.010000 0.250000
vt 0.014612 0.203178
vt 0.028269 0.158156
vt 0.050447 0.116663
vt 0.080294 0.080294
vt 0.116663 0.050447
vt 0.158156 0.028269
vt 0.203178 0.014612
vt 0.250000 0.010000
vt 0.296822 0.014612
vt 0.341844 0.028269
vt 0.383337 0.050447
vt 0.419706 0.080294
vt 0.449553 0.116663
vt 0.471731 0.158156
vt 0.485388 0.203178
vt 0.490000 0.250000
vt 0.485388 0.296822
vt 0.471731 0.341844
vt 0.449553 0.383337
vt 0.419706 0.419706
vt 0.383337 0.449553
vt 0.341844 0.471731
vt 0.031250 1.000000
vt 0.031250 0.500000
vt 0.000000 1.000000
vt 0.000000 0.500000
vt 0.750000 0.490000
vt 0.796822 0.485388
vt 0.841844 0.471731
vt 0.883337 0.449553
vt 0.919706 0.419706
vt 0.949553 0.383337
vt 0.971731 0.341844
vt 0.985388 0.296822
vt 0.990000 0.250000
vt 0.985388 0.203178
vt 0.971731 0.158156
vt 0.949553 0.116663
vt 0.919706 0.080294
vt 0.883337 0.050447
vt 0.841844 0.028269
vt 0.796822 0.014612
vt 0.750000 0.010000
vt 0.703178 0.014612
vt 0.658156 0.028269
vt 0.616663 0.050447
vt 0.580294 0.080294
vt 0.550447 0.116663
vt 0.528269 0.158156
vt 0.514612 0.203178
vt 0.510000 0.250000
vt 0.514612 0.296822
vt 0.528269 0.341844
vt 0.550447 0.383337
vt 0.580294 0.419706
vt 0.616663 0.449553
vt 0.658156 0.471731
vt 0.703178 0.485388
s 0
usemtl Material
f 1/1/1 5/2/1 7/3/1 3/4/1
f 4/5/2 3/4/2 7/6/2 8/7/2
f 8/8/3 7/9/3 5/10/3 6/11/3
f 6/12/4 2/13/4 4/5/4 8/14/4
f 2/13/5 1/1/5 3/4/5 4/5/5
f 6/11/6 5/10/6 1/1/6 2/13/6
f 9/1/7 13/2/7 15/3/7 11/4/7
f 12/5/2 11/4/2 15/6/2 16/7/2
f 16/8/8 15/9/8 13/10/8 14/11/8
f 14/12/9 10/13/9 12/5/9 16/14/9
f 10/13/10 9/1/10 11/4/10 12/5/10
f 14/11/6 13/10/6 9/1/6 10/13/6
f 26/15/10 28/16/10 32/16/10 29/15/10
f 27/17/2 26/18/2 23/6/2 24/7/2
f 24/8/8 23/9/8 21/10/8 22/11/8
f 25/19/9 18/13/9 20/5/9 27/20/9
f 18/13/10 17/1/10 19/4/10 20/5/10
f 25/21/6 28/22/6 17/1/6 18/13/6
f 22/11/6 21/10/6 28/22/6 25/21/6
f 22/12/9 25/19/9 27/20/9 24/14/9
f 20/5/2 19/4/2 26/18/2 27/17/2
f 17/1/11 28/16/11 26/15/11 19/4/11
f 32/16/7 31/2/7 30/3/7 29/15/7
f 23/6/2 26/18/2 29/18/2 30/6/2
f 28/22/6 21/10/6 31/10/6 32/22/6
f 21/10/8 23/9/8 30/9/8 31/10/8
f 33/1/7 37/2/7 39/3/7 35/4/7
f 36/5/2 35/4/2 39/6/2 40/7/2
f 40/8/8 39/9/8 37/10/8 38/11/8
f 38/12/9 34/13/9 36/5/9 40/14/9
f 34/13/10 33/1/10 35/4/10 36/5/10
f 38/11/6 37/10/6 33/1/6 34/13/6
f 41/1/1 45/2/1 47/3/1 43/4/1
f 44/5/2 43/4/2 47/6/2 48/7/2
f 48/8/3 47/9/3 45/10/3 46/11/3
f 46/12/4 42/13/4 44/5/4 48/14/4
f 42/13/5 41/1/5 43/4/5 44/5/5
f 46/11/6 45/10/6 41/1/6 42/13/6
f 49/1/1 53/2/1 55/3/1 51/4/1
f 52/5/5 51/4/5 55/6/5 56/7/5
f 56/8/2 55/9/2 53/10/2 54/11/2
f 54/12/4 50/13/4 52/5/4 56/14/4
f 50/13/6 49/1/6 51/4/6 52/5/6
f 54/11/3 53/10/3 49/1/3 50/13/3
f 57/1/1 61/2/1 63/3/1 59/4/1
f 60/5/5 59/4/5 63/6/5 64/7/5
f 64/8/2 63/9/2 61/10/2 62/11/2
f 62/12/4 58/13/4 60/5/4 64/14/4
f 58/13/6 57/1/6 59/4/6 60/5/6
f 62/11/3 61/10/3 57/1/3 58/13/3
f 65/1/1 69/2/1 71/3/1 67/4/1
f 68/5/5 67/4/5 71/6/5 72/7/5
f 72/8/2 71/9/2 69/10/2 70/11/2
f 70/12/4 66/13/4 68/5/4 72/14/4
f 66/13/6 65/1/6 67/4/6 68/5/6
f 70/11/3 69/10/3 65/1/3 66/13/3
f 201/1/7 205/2/7 207/3/7 203/4/7
f 204/5/2 203/4/2 207/6/2 208/7/2
f 208/8/8 207/9/8 205/10/8 206/11/8
f 206/12/9 202/13/9 204/5/9 208/14/9
f 202/13/10 201/1/10 203/4/10 204/5/10
f 206/11/6 205/10/6 201/1/6 202/13/6
f 209/1/7 213/2/7 215/3/7 211/4/7
f 212/5/2 211/4/2 215/6/2 216/7/2
f 216/8/8 215/9/8 213/10/8 214/11/8
f 214/12/9 210/13/9 212/5/9 216/14/9
f 210/13/10 209/1/10 211/4/10 212/5/10
f 214/11/6 213/10/6 209/1/6 210/13/6
f 217/1/7 221/2/7 223/3/7 219/4/7
f 220/5/2 219/4/2 223/6/2 224/7/2
f 224/8/8 223/9/8 221/10/8 222/11/8
f 222/12/9 218/13/9 220/5/9 224/14/9
f 218/13/10 217/1/10 219/4/10 220/5/10
f 222/11/6 221/10/6 217/1/6 218/13/6
f 225/1/7 229/2/7 231/3/7 227/4/7
f 228/5/2 227/4/2 231/6/2 232/7/2
f 232/8/8 231/9/8 229/10/8 230/11/8
f 230/12/9 226/13/9 228/5/9 232/14/9
f 226/13/10 225/1/10 227/4/10 228/5/10
f 230/11/6 229/10/6 225/1/6 226/13/6
f 233/1/7 237/2/7 239/3/7 235/4/7
f 236/5/2 235/4/2 239/6/2 240/7/2
f 240/8/8 239/9/8 237/10/8 238/11/8
f 238/12/9 234/13/9 236/5/9 240/14/9
f 234/13/10 233/1/10 235/4/10 236/5/10
f 238/11/6 237/10/6 233/1/6 234/13/6
f 241/1/7 245/2/7 247/3/7 243/4/7
f 244/5/2 243/4/2 247/6/2 248/7/2
f 248/8/8 247/9/8 245/10/8 246/11/8
f 246/12/9 242/13/9 244/5/9 248/14/9
f 242/13/10 241/1/10 243/4/10 244/5/10
f 246/11/6 245/10/6 241/1/6 242/13/6
f 249/1/7 253/2/7 255/3/7 251/4/7
f 252/5/2 251/4/2 255/6/2 256/7/2
f 256/8/8 255/9/8 253/10/8 254/11/8
f 254/12/9 250/13/9 252/5/9 256/14/9
f 250/13/10 249/1/10 251/4/10 252/5/10
f 254/11/6 253/10/6 249/1/6 250/13/6
f 257/1/7 261/2/7 263/3/7 259/4/7
f 260/5/2 259/4/2 263/6/2 264/7/2
f 264/8/8 263/9/8 261/10/8 262/11/8
f 262/12/9 258/13/9 260/5/9 264/14/9
f 258/13/10 257/1/10 259/4/10 260/5/10
f 262/11/6 261/10/6 257/1/6 258/13/6
f 265/1/7 269/2/7 271/3/7 267/4/7
f 268/5/2 267/4/2 271/6/2 272/7/2
f 272/8/8 271/9/8 269/10/8 270/11/8
f 270/12/9 266/13/9 268/5/9 272/14/9
f 266/13/10 265/1/10 267/4/10 268/5/10
f 270/11/6 269/10/6 265/1/6 266/13/6
f 273/1/7 277/2/7 279/3/7 275/4/7
f 276/5/2 275/4/2 279/6/2 280/7/2
f 280/8/8 279/9/8 277/10/8 278/11/8
f 278/12/9 274/13/9 276/5/9 280/14/9
f 274/13/10 273/1/10 275/4/10 276/5/10
f 278/11/6 277/10/6 273/1/6 274/13/6
f 281/1/7 285/2/7 287/3/7 283/4/7
f 284/5/2 283/4/2 287/6/2 288/7/2
f 288/8/8 287/9/8 285/10/8 286/11/8
f 286/12/9 282/13/9 284/5/9 288/14/9
f 282/13/10 281/1/10 283/4/10 284/5/10
f 286/11/6 285/10/6 281/1/6 282/13/6
f 289/1/7 293/2/7 295/3/7 291/4/7
f 292/5/2 291/4/2 295/6/2 296/7/2
f 296/8/8 295/9/8 293/10/8 294/11/8
f 294/12/9 290/13/9 292/5/9 296/14/9
f 290/13/10 289/1/10 291/4/10 292/5/10
f 294/11/6 293/10/6 289/1/6 290/13/6
f 297/1/7 301/2/7 303/3/7 299/4/7
f 300/5/2 299/4/2 303/6/2 304/7/2
f 304/8/8 303/9/8 301/10/8 302/11/8
f 302/12/9 298/13/9 300/5/9 304/14/9
f 298/13/10 297/1/10 299/4/10 300/5/10
f 302/11/6 301/10/6 297/1/6 298/13/6
usemtl 
f 73/23/12 74/24/12 76/25/12 75/26/12
f 75/26/13 76/25/13 78/27/13 77/28/13
f 77/28/14 78/27/14 80/29/14 79/30/14
f 79/30/15 80/29/15 82/31/15 81/2/15
f 81/2/16 82/31/16 84/32/16 83/33/16
f 83/33/17 84/32/17 86/34/17 85/35/17
f 85/35/18 86/34/18 88/36/18 87/37/18
f 87/37/19 88/36/19 90/38/19 89/39/19
f 89/39/20 90/38/20 92/40/20 91/41/20
f 91/41/21 92/40/21 94/42/21 93/43/21
f 93/43/22 94/42/22 96/44/22 95/45/22
f 95/45/23 96/44/23 98/6/23 97/1/23
f 97/1/24 98/6/24 100/46/24 99/47/24
f 99/47/25 100/46/25 102/48/25 101/49/25
f 101/49/26 102/48/26 104/50/26 103/51/26
f 103/51/27 104/50/27 106/52/27 105/53/27
f 105/53/28 106/52/28 108/54/28 107/55/28
f 107/55/29 108/54/29 110/56/29 109/57/29
f 109/57/30 110/56/30 112/58/30 111/59/30
f 111/59/31 112/58/31 114/7/31 113/13/31
f 113/13/32 114/7/32 116/60/32 115/61/32
f 115/61/33 116/60/33 118/62/33 117/63/33
f 117/63/34 118/62/34 120/64/34 119/65/34
f 119/65/35 120/64/35 122/66/35 121/67/35
f 121/67/36 122/66/36 124/68/36 123/69/36
f 123/69/37 124/68/37 126/70/37 125/71/37
f 125/71/38 126/70/38 128/72/38 127/73/38
f 127/73/39 128/72/39 130/74/39 129/12/39
f 129/12/40 130/74/40 132/75/40 131/76/40
f 131/76/41 132/75/41 134/77/41 133/78/41
f 76/79/42 74/80/42 136/81/42 134/82/42 132/83/42 130/84/42 128/85/42 126/86/42 124/87/42 122/88/42 120/89/42 118/90/42 116/91/42 114/92/42 112/93/42 110/94/42 108/95/42 106/96/42 104/97/42 102/98/42 100/99/42 98/100/42 96/101/42 94/102/42 92/103/42 90/104/42 88/105/42 86/106/42 84/107/42 82/108/42 80/109/42 78/110/42
f 133/78/43 134/77/43 136/111/43 135/112/43
f 135/112/44 136/111/44 74/113/44 73/114/44
f 73/115/45 75/116/45 77/117/45 79/118/45 81/119/45 83/120/45 85/121/45 87/122/45 89/123/45 91/124/45 93/125/45 95/126/45 97/127/45 99/128/45 101/129/45 103/130/45 105/131/45 107/132/45 109/133/45 111/134/45 113/135/45 115/136/45 117/137/45 119/138/45 121/139/45 123/140/45 125/141/45 127/142/45 129/143/45 131/144/45 133/145/45 135/146/45
f 137/23/12 138/24/12 140/25/12 139/26/12
f 139/26/13 140/25/13 142/27/13 141/28/13
f 141/28/14 142/27/14 144/29/14 143/30/14
f 143/30/15 144/29/15 146/31/15 145/2/15
f 145/2/16 146/31/16 148/32/16 147/33/16
f 147/33/17 148/32/17 150/34/17 149/35/17
f 149/35/18 150/34/18 152/36/18 151/37/18
f 151/37/19 152/36/19 154/38/19 153/39/19
f 153/39/20 154/38/20 156/40/20 155/41/20
f 155/41/21 156/40/21 158/42/21 157/43/21
f 157/43/22 158/42/22 160/44/22 159/45/22
f 159/45/23 160/44/23 162/6/23 161/1/23
f 161/1/24 162/6/24 164/46/24 163/47/24
f 163/47/25 164/46/25 166/48/25 165/49/25
f 165/49/26 166/48/26 168/50/26 167/51/26
f 167/51/27 168/50/27 170/52/27 169/53/27
f 169/53/28 170/52/28 172/54/28 171/55/28
f 171/55/29 172/54/29 174/56/29 173/57/29
f 173/57/30 174/56/30 176/58/30 175/59/30
f 175/59/31 176/58/31 178/7/31 177/13/31
f 177/13/32 178/7/32 180/60/32 179/61/32
f 179/61/33 180/60/33 182/62/33 181/63/33
f 181/63/34 182/62/34 184/64/34 183/65/34
f 183/65/35 184/64/35 186/66/35 185/67/35
f 185/67/36 186/66/36 188/68/36 187/69/36
f 187/69/37 188/68/37 190/70/37 189/71/37
f 189/71/38 190/70/38 192/72/38 191/73/38
f 191/73/39 192/72/39 194/74/39 193/12/39
f 193/12/40 194/74/40 196/75/40 195/76/40
f 195/76/41 196/75/41 198/77/41 197/78/41
f 140/79/42 138/80/42 200/81/42 198/82/42 196/83/42 194/84/42 192/85/42 190/86/42 188/87/42 186/88/42 184/89/42 182/90/42 180/91/42 178/92/42 176/93/42 174/94/42 172/95/42 170/96/42 168/97/42 166/98/42 164/99/42 162/100/42 160/101/42 158/102/42 156/103/42 154/104/42 152/105/42 150/106/42 148/107/42 146/108/42 144/109/42 142/110/42
f 197/78/43 198/77/43 200/111/43 199/112/43
f 199/112/44 200/111/44 138/113/44 137/114/44
f 137/115/45 139/116/45 141/117/45 143/118/45 145/119/45 147/120/45 149/121/45 151/122/45 153/123/45 155/124/45 157/125/45 159/126/45 161/127/45 163/128/45 165/129/45 167/130/45 169/131/45 171/132/45 173/133/45 175/134/45 177/135/45 179/136/45 181/137/45 183/138/45 185/139/45 187/140/45 189/141/45 191/142/45 193/143/45 195/144/45 197/145/45 199/146/45
