# Blender 4.4.3
# www.blender.org
mtllib Crane.mtl
o Cargo_Machine_3.008
v -7.425568 -1.243135 -16.694786
v -7.425568 -5.132368 -16.694786
v -7.425568 -1.243135 -16.190187
v -7.669261 -1.243135 -16.694786
v -7.669261 -5.132368 -16.694786
v -7.669260 -1.243135 -16.190187
v -7.669260 -5.132368 -16.190187
v -7.425568 -5.132368 -16.190187
v 0.708615 -1.011550 -16.669104
v 0.708615 -1.312011 -16.669104
v 0.853314 -1.011550 -16.669104
v 0.708614 -1.011550 -17.482756
v 0.708614 -1.312011 -17.482756
v 0.853313 -1.011550 -17.482756
v 0.853313 -1.312011 -17.482756
v 0.853314 -1.312011 -16.669104
v -0.101701 -1.011550 -16.669104
v -0.101701 -1.312011 -16.669104
v 0.042998 -1.011550 -16.669104
v -0.101702 -1.011550 -17.482756
v -0.101702 -1.312011 -17.482756
v 0.042997 -1.011550 -17.482756
v 0.042997 -1.312011 -17.482756
v 0.042998 -1.312011 -16.669104
v -0.912017 -1.011550 -16.669104
v -0.912017 -1.312011 -16.669104
v -0.767318 -1.011550 -16.669104
v -0.912018 -1.011550 -17.482756
v -0.912018 -1.312011 -17.482756
v -0.767319 -1.011550 -17.482756
v -0.767319 -1.312011 -17.482756
v -0.767318 -1.312011 -16.669104
v -1.723441 -1.011550 -16.669104
v -1.723441 -1.312011 -16.669104
v -1.578741 -1.011550 -16.669104
v -1.723441 -1.011550 -17.482756
v -1.723441 -1.312011 -17.482756
v -1.578742 -1.011550 -17.482756
v -1.578742 -1.312011 -17.482756
v -1.578741 -1.312011 -16.669104
v -2.533757 -1.011550 -16.669102
v -2.533757 -1.312011 -16.669102
v -2.389058 -1.011550 -16.669102
v -2.533757 -1.011550 -17.482754
v -2.533757 -1.312011 -17.482754
v -2.389058 -1.011550 -17.482754
v -2.389058 -1.312011 -17.482754
v -2.389058 -1.312011 -16.669102
v -3.344073 -1.011550 -16.669102
v -3.344073 -1.312011 -16.669102
v -3.199374 -1.011550 -16.669102
v -3.344073 -1.011550 -17.482754
v -3.344073 -1.312011 -17.482754
v -3.199374 -1.011550 -17.482754
v -3.199374 -1.312011 -17.482754
v -3.199374 -1.312011 -16.669102
v -4.154389 -1.011550 -16.669102
v -4.154389 -1.312011 -16.669102
v -4.009690 -1.011550 -16.669102
v -4.154389 -1.011550 -17.482754
v -4.154389 -1.312011 -17.482754
v -4.009690 -1.011550 -17.482754
v -4.009690 -1.312011 -17.482754
v -4.009690 -1.312011 -16.669102
v -4.254012 -0.930196 -16.001963
v -4.254012 -0.682595 -16.001963
v -7.913578 -0.930196 -16.001961
v -4.254012 -0.930196 -16.191612
v -4.254012 -1.701926 -16.001963
v -7.913578 -1.701926 -16.001961
v -4.254012 -1.701926 -16.191612
v -7.913578 -1.701926 -16.191610
v -7.913578 -0.930196 -16.191610
v -7.913578 -0.682595 -16.191610
v -7.911833 -0.930196 -17.984026
v -7.913579 -0.930196 -18.143896
v -7.913579 -0.682595 -17.984026
v -4.254013 -0.930196 -17.984028
v -7.911833 -1.701926 -17.984026
v -7.913579 -1.701926 -18.143896
v -4.254013 -1.701926 -17.984028
v -4.254842 -1.701926 -18.143898
v -4.254013 -0.930196 -18.143898
v -4.254013 -0.682595 -18.143898
v -7.913579 -0.682595 -18.143896
v -4.254013 -0.682595 -17.984028
v -4.254012 -0.682595 -16.191612
v -7.913578 -0.682595 -16.001961
v -7.647636 -4.237522 -18.070559
v -7.647636 -4.985434 -18.070559
v -7.470193 -4.237522 -18.070559
v -7.647636 -4.237522 -17.962759
v -7.672937 -4.237522 -18.070486
v -7.672937 -4.985434 -18.070486
v -7.672937 -4.237522 -17.962910
v -7.811570 -4.237522 -18.070486
v -7.811570 -4.985434 -18.070486
v -7.811570 -4.237522 -17.962910
v -7.811570 -4.985434 -17.962910
v -7.811569 -4.237522 -16.189699
v -7.811569 -4.237522 -16.085548
v -7.672936 -4.237522 -16.189701
v -7.811569 -4.985434 -16.189699
v -7.811569 -4.985434 -16.085548
v -7.672936 -4.985434 -16.189701
v -7.672936 -4.985434 -16.085550
v -7.672937 -4.985434 -17.962910
v -7.647635 -4.985434 -16.189289
v -7.647635 -4.985434 -16.085590
v -7.647635 -4.237522 -16.189289
v -7.470192 -4.985434 -16.189289
v -7.470192 -4.237522 -16.189289
v -7.470192 -4.985434 -16.085590
v -7.470192 -4.237522 -16.085590
v -7.647635 -4.237522 -16.085590
v -7.672936 -4.237522 -16.085550
v -7.647636 -4.985434 -17.962759
v -7.470193 -4.985434 -17.962759
v -7.470193 -4.237522 -17.962759
v -7.470193 -4.985434 -18.070559
v -4.493215 -4.237522 -18.070559
v -4.493215 -4.985434 -18.070559
v -4.670657 -4.237522 -18.070559
v -4.493215 -4.237522 -17.962759
v -4.467914 -4.237522 -18.070488
v -4.467914 -4.985434 -18.070488
v -4.467914 -4.237522 -17.962912
v -4.329280 -4.237522 -18.070488
v -4.329280 -4.985434 -18.070488
v -4.329280 -4.237522 -17.962912
v -4.329280 -4.985434 -17.962912
v -4.329279 -4.237522 -16.189701
v -4.329279 -4.237522 -16.085550
v -4.467913 -4.237522 -16.189701
v -4.329279 -4.985434 -16.189701
v -4.329279 -4.985434 -16.085550
v -4.467913 -4.985434 -16.189701
v -4.467913 -4.985434 -16.085550
v -4.467914 -4.985434 -17.962912
v -4.493214 -4.985434 -16.189291
v -4.493214 -4.985434 -16.085590
v -4.493214 -4.237522 -16.189291
v -4.670656 -4.985434 -16.189291
v -4.670656 -4.237522 -16.189291
v -4.670656 -4.985434 -16.085590
v -4.670656 -4.237522 -16.085590
v -4.493214 -4.237522 -16.085590
v -4.467913 -4.237522 -16.085550
v -4.493215 -4.985434 -17.962759
v -4.670657 -4.985434 -17.962759
v -4.670657 -4.237522 -17.962759
v -4.670657 -4.985434 -18.070559
v -4.402853 -0.880897 -16.142467
v -4.402853 -1.376699 -16.142467
v -7.737998 -0.880897 -16.142466
v -4.402853 -0.880897 -18.021667
v -4.402853 -1.376699 -18.021667
v -7.737999 -0.880897 -18.021666
v -7.737999 -1.376699 -18.021666
v -7.737998 -1.376699 -16.142466
v -6.941035 -0.016513 -17.881647
v -6.941035 -0.875936 -17.881647
v -7.445633 -0.016513 -17.881647
v -6.941035 -0.016513 -17.679699
v -6.941035 -0.875936 -17.679699
v -7.445633 -0.016513 -17.679699
v -7.445633 -0.875936 -17.679699
v -7.445633 -0.875936 -17.881647
v -4.549911 -4.420904 -16.278893
v -4.549911 -4.912737 -16.278893
v -7.455166 -4.420903 -16.278891
v -4.549911 -4.420904 -16.505466
v -4.549911 -4.912737 -16.505466
v -7.455166 -4.420903 -16.505465
v -7.455167 -4.912737 -16.505465
v -7.455167 -4.912737 -16.278891
v -4.660663 -4.536187 -16.313723
v -4.894868 -4.726952 -16.320694
v -7.253131 -1.355919 -16.263752
v -4.659420 -4.533258 -16.435640
v -4.893625 -4.724023 -16.442612
v -7.251888 -1.352990 -16.385672
v -7.486093 -1.543754 -16.392641
v -7.487336 -1.546683 -16.270723
v -4.549912 -4.420904 -17.880630
v -4.549912 -4.912737 -17.880630
v -7.455167 -4.420903 -17.880629
v -4.549912 -4.420904 -17.654057
v -4.549912 -4.912737 -17.654057
v -7.455167 -4.420903 -17.654055
v -7.455168 -4.912737 -17.654055
v -7.455168 -4.912737 -17.880629
v -4.660664 -4.536187 -17.845800
v -4.894869 -4.726952 -17.838829
v -7.253132 -1.355919 -17.895767
v -4.659420 -4.533258 -17.723881
v -4.893626 -4.724023 -17.716909
v -7.251889 -1.352990 -17.773849
v -7.486094 -1.543754 -17.766878
v -7.487337 -1.546683 -17.888796
v 1.442216 -0.947558 -16.534687
v 1.442216 -1.352328 -16.534687
v 1.442215 -0.947558 -16.733780
v 1.286611 -0.947558 -16.534687
v 1.286611 -1.352328 -16.534687
v 1.286610 -0.947558 -16.733780
v -8.492105 -0.947558 -16.534683
v -8.674260 -0.947558 -16.534683
v -8.492105 -1.352328 -16.534683
v -8.492105 -0.947558 -16.733776
v -8.674260 -0.947558 -16.733776
v -8.492105 -1.352328 -16.733776
v -8.492105 -0.947558 -17.426971
v 1.286610 -0.947558 -17.426975
v -8.674260 -0.947558 -17.426971
v -8.492105 -1.352328 -17.426971
v -8.492105 -0.947558 -17.626064
v -8.674260 -0.947558 -17.626064
v 1.286610 -0.947558 -17.626068
v -8.492105 -1.352328 -17.626064
v 1.286610 -1.352328 -17.626068
v -8.674260 -1.352328 -17.626064
v -8.674260 -1.352328 -17.426971
v -8.674260 -1.352328 -16.733776
v -8.674260 -1.352328 -16.534683
v 1.442215 -1.352328 -17.626068
v 1.286610 -1.352328 -17.426975
v 1.442215 -1.352328 -17.426975
v 1.286610 -1.352328 -16.733780
v 1.442215 -1.352328 -16.733780
v 1.442215 -0.947558 -17.426975
v 1.442215 -0.947558 -17.626068
v -8.506422 -0.343025 -17.651028
v -8.506422 -1.334489 -17.651028
v -8.506422 -0.343025 -16.481871
v -9.312283 -0.343025 -17.651028
v -9.312283 -1.334489 -17.651028
v -9.312283 -0.343025 -16.481869
v -9.312283 -1.334489 -16.481869
v -8.506422 -1.334489 -16.481871
v -8.495008 -0.358936 -17.501699
v -8.495008 -0.698055 -17.501699
v -8.495008 -0.358936 -16.959721
v -8.732273 -0.358936 -17.501698
v -8.732273 -0.698055 -17.501698
v -8.732273 -0.358936 -16.959721
v -8.732273 -0.698055 -16.959721
v -8.495008 -0.698055 -16.959721
v -8.425255 -0.076128 -17.699244
v -8.425255 -0.415763 -17.699244
v -8.425255 -0.076128 -16.433655
v -9.393452 -0.076128 -17.699244
v -9.393452 -0.415763 -17.699244
v -9.393452 -0.076128 -16.433653
v -9.393452 -0.415763 -16.433653
v -8.425255 -0.415763 -16.433655
v -8.467501 -1.221491 -17.687458
v -8.467501 -1.521843 -17.687458
v -8.467501 -1.221491 -16.437515
v -9.365767 -1.221491 -17.687456
v -9.365767 -1.521843 -17.687456
v -9.365767 -1.221491 -16.437515
v -9.365767 -1.521843 -16.437515
v -8.467501 -1.521843 -16.437515
v -8.499919 -0.484843 -16.772337
v -8.499919 -0.823962 -16.772337
v -8.499919 -0.484843 -16.604708
v -8.737185 -0.484843 -16.772337
v -8.737185 -0.823962 -16.772337
v -8.737185 -0.484843 -16.604708
v -8.737185 -0.823962 -16.604708
v -8.499919 -0.823962 -16.604708
v -4.782885 -0.113379 -16.631119
v -4.782885 -0.114126 -16.621204
v -7.734870 -0.113379 -16.631117
v -4.782885 -0.114126 -16.641033
v -1.132590 -0.961388 -16.631121
v -1.132590 -0.962135 -16.621206
v -1.132590 -0.962135 -16.641035
v -1.132590 -0.964347 -16.650568
v -1.132590 -0.967941 -16.659355
v -4.782885 -0.116338 -16.650566
v -4.782885 -0.119932 -16.659353
v -7.734870 -0.116339 -16.650566
v -7.734870 -0.119932 -16.659351
v -7.734870 -0.114126 -16.641031
v -8.479567 -0.320966 -16.650564
v -8.479567 -0.324559 -16.659351
v -8.479567 -0.318753 -16.641031
v -8.479567 -0.318006 -16.631117
v -8.479567 -0.318753 -16.621202
v -8.479567 -0.320966 -16.611670
v -7.734870 -0.114126 -16.621202
v -7.734870 -0.116339 -16.611670
v -4.782885 -0.116338 -16.611671
v -7.734870 -0.119932 -16.602884
v -4.782885 -0.119932 -16.602884
v -7.734870 -0.124768 -16.595182
v -8.479567 -0.324559 -16.602882
v -8.479567 -0.329395 -16.595182
v -8.479567 -0.335287 -16.588861
v -8.479567 -0.342010 -16.584166
v -7.734870 -0.130660 -16.588863
v -4.782885 -0.130660 -16.588863
v -7.734869 -0.137383 -16.584166
v -4.782885 -0.137383 -16.584167
v -7.734869 -0.144677 -16.581274
v -4.782885 -0.144677 -16.581276
v -7.734869 -0.152263 -16.580297
v -8.479567 -0.349304 -16.581274
v -8.479567 -0.356890 -16.580297
v -8.479567 -0.364476 -16.581274
v -8.479567 -0.371771 -16.584166
v -7.734869 -0.159849 -16.581274
v -4.782885 -0.159849 -16.581276
v -7.734869 -0.167143 -16.584166
v -4.782885 -0.167143 -16.584167
v -7.734870 -0.173866 -16.588863
v -4.782885 -0.173866 -16.588863
v -7.734870 -0.179759 -16.595182
v -8.479567 -0.378493 -16.588861
v -8.479567 -0.384385 -16.595182
v -8.479567 -0.389221 -16.602882
v -8.479567 -0.392815 -16.611670
v -7.734870 -0.184594 -16.602884
v -4.782885 -0.184594 -16.602884
v -7.734870 -0.188188 -16.611670
v -4.782885 -0.188188 -16.611671
v -7.734870 -0.190400 -16.621202
v -4.782885 -0.190400 -16.621204
v -7.734870 -0.191148 -16.631117
v -8.479567 -0.395027 -16.621202
v -8.479567 -0.395774 -16.631117
v -8.479567 -0.395027 -16.641031
v -8.479567 -0.392815 -16.650564
v -7.734870 -0.190400 -16.641031
v -4.782885 -0.190400 -16.641033
v -7.734870 -0.188188 -16.650566
v -4.782885 -0.188188 -16.650566
v -7.734870 -0.184594 -16.659351
v -4.782885 -0.184594 -16.659353
v -7.734870 -0.179759 -16.667053
v -8.479567 -0.389221 -16.659351
v -8.479567 -0.384385 -16.667051
v -8.479567 -0.378493 -16.673372
v -8.479567 -0.371771 -16.678068
v -7.734870 -0.173866 -16.673372
v -4.782885 -0.173866 -16.673374
v -7.734870 -0.167143 -16.678068
v -4.782885 -0.167143 -16.678070
v -7.734870 -0.159849 -16.680960
v -4.782885 -0.159849 -16.680962
v -7.734870 -0.152263 -16.681936
v -8.479567 -0.364476 -16.680960
v -8.479567 -0.356890 -16.681936
v -8.479567 -0.349304 -16.680960
v -8.479567 -0.342010 -16.678068
v -7.734870 -0.144677 -16.680960
v -4.782885 -0.144677 -16.680962
v -7.734870 -0.137383 -16.678068
v -4.782885 -0.137383 -16.678070
v -7.734870 -0.130660 -16.673372
v -4.782885 -0.130660 -16.673374
v -7.734870 -0.124768 -16.667053
v -8.479567 -0.335287 -16.673372
v -8.479567 -0.329395 -16.667051
v -4.782885 -0.124768 -16.667053
v -1.132590 -0.972777 -16.667055
v -1.132590 -0.978669 -16.673376
v -1.132590 -0.985391 -16.678072
v -1.132590 -0.992686 -16.680964
v -1.132590 -1.000272 -16.681940
v -1.132590 -1.007858 -16.680964
v -4.782885 -0.152263 -16.681938
v -1.132590 -1.015152 -16.678072
v -1.132590 -1.021875 -16.673376
v -1.132590 -1.027767 -16.667055
v -1.132590 -1.032603 -16.659355
v -4.782885 -0.179759 -16.667053
v -1.132590 -1.036196 -16.650568
v -1.132590 -1.038409 -16.641035
v -1.132590 -1.039156 -16.631121
v -1.132590 -1.038409 -16.621206
v -4.782885 -0.191148 -16.631119
v -1.132590 -1.036196 -16.611673
v -1.132590 -1.032603 -16.602886
v -1.132590 -1.027767 -16.595186
v -1.132590 -1.021875 -16.588865
v -4.782885 -0.179759 -16.595184
v -1.132590 -1.015152 -16.584169
v -1.132590 -1.007858 -16.581278
v -1.132590 -1.000272 -16.580301
v -1.132590 -0.992686 -16.581278
v -4.782885 -0.152263 -16.580299
v -1.132590 -0.985391 -16.584169
v -1.132590 -0.978669 -16.588865
v -1.132590 -0.972777 -16.595186
v -1.132590 -0.967941 -16.602886
v -4.782885 -0.124768 -16.595184
v -1.132590 -0.964347 -16.611673
v -1.179094 -0.985916 -17.500593
v -1.181243 -1.007743 -17.500593
v -1.179094 -0.985916 -17.451000
v -1.181243 -0.964089 -17.500593
v -1.187610 -0.943100 -17.500593
v -1.181243 -0.964089 -17.451000
v -1.187610 -0.943100 -17.451000
v -1.197949 -0.923758 -17.451000
v -1.211863 -0.906803 -17.451000
v -1.197949 -0.923758 -17.500593
v -1.211863 -0.906803 -17.500593
v -1.228817 -0.892890 -17.500593
v -1.248160 -0.882551 -17.500593
v -1.228817 -0.892890 -17.451000
v -1.248160 -0.882551 -17.451000
v -1.269148 -0.876184 -17.451000
v -1.290975 -0.874034 -17.451000
v -1.269148 -0.876184 -17.500593
v -1.290975 -0.874034 -17.500593
v -1.312802 -0.876184 -17.500593
v -1.333790 -0.882551 -17.500593
v -1.312802 -0.876184 -17.451000
v -1.333790 -0.882551 -17.451000
v -1.353133 -0.892890 -17.451000
v -1.370087 -0.906803 -17.451000
v -1.353133 -0.892890 -17.500593
v -1.370087 -0.906803 -17.500593
v -1.384001 -0.923758 -17.500593
v -1.394340 -0.943100 -17.500593
v -1.384001 -0.923758 -17.451000
v -1.394340 -0.943100 -17.451000
v -1.400706 -0.964089 -17.451000
v -1.402856 -0.985916 -17.451000
v -1.400706 -0.964089 -17.500593
v -1.402856 -0.985916 -17.500593
v -1.400706 -1.007743 -17.500593
v -1.394340 -1.028731 -17.500593
v -1.400706 -1.007743 -17.451000
v -1.394340 -1.028731 -17.451000
v -1.384001 -1.048074 -17.451000
v -1.370087 -1.065028 -17.451000
v -1.384001 -1.048074 -17.500593
v -1.370087 -1.065028 -17.500593
v -1.353133 -1.078941 -17.500593
v -1.333790 -1.089280 -17.500593
v -1.353133 -1.078941 -17.451000
v -1.333790 -1.089280 -17.451000
v -1.312802 -1.095647 -17.451000
v -1.290975 -1.097797 -17.451000
v -1.312802 -1.095647 -17.500593
v -1.290975 -1.097797 -17.500593
v -1.269148 -1.095647 -17.500593
v -1.248160 -1.089280 -17.500593
v -1.269148 -1.095647 -17.451000
v -1.248160 -1.089280 -17.451000
v -1.228817 -1.078941 -17.451000
v -1.211863 -1.065028 -17.451000
v -1.228817 -1.078941 -17.500593
v -1.211863 -1.065028 -17.500593
v -1.197949 -1.048074 -17.500593
v -1.187610 -1.028731 -17.500593
v -1.197949 -1.048074 -17.451000
v -1.187610 -1.028731 -17.451000
v -1.181243 -1.007743 -17.451000
v -1.179094 -0.985916 -17.618229
v -1.181243 -1.007743 -17.618229
v -1.179094 -0.985916 -17.568636
v -1.181243 -0.964089 -17.618229
v -1.187610 -0.943100 -17.618229
v -1.181243 -0.964089 -17.568636
v -1.187610 -0.943100 -17.568636
v -1.197949 -0.923758 -17.568636
v -1.211863 -0.906803 -17.568636
v -1.197949 -0.923758 -17.618229
v -1.211863 -0.906803 -17.618229
v -1.228817 -0.892890 -17.618229
v -1.248160 -0.882551 -17.618229
v -1.228817 -0.892890 -17.568636
v -1.248160 -0.882551 -17.568636
v -1.269148 -0.876184 -17.568636
v -1.290975 -0.874034 -17.568636
v -1.269148 -0.876184 -17.618229
v -1.290975 -0.874034 -17.618229
v -1.312802 -0.876184 -17.618229
v -1.333790 -0.882551 -17.618229
v -1.312802 -0.876184 -17.568636
v -1.333790 -0.882551 -17.568636
v -1.353133 -0.892890 -17.568636
v -1.370087 -0.906803 -17.568636
v -1.353133 -0.892890 -17.618229
v -1.370087 -0.906803 -17.618229
v -1.384001 -0.923758 -17.618229
v -1.394340 -0.943100 -17.618229
v -1.384001 -0.923758 -17.568636
v -1.394340 -0.943100 -17.568636
v -1.400706 -0.964089 -17.568636
v -1.402856 -0.985916 -17.568634
v -1.400706 -0.964089 -17.618229
v -1.402856 -0.985916 -17.618229
v -1.400706 -1.007743 -17.618229
v -1.394340 -1.028731 -17.618229
v -1.400706 -1.007743 -17.568636
v -1.394340 -1.028731 -17.568636
v -1.384001 -1.048074 -17.568636
v -1.370087 -1.065028 -17.568636
v -1.384001 -1.048074 -17.618229
v -1.370087 -1.065028 -17.618229
v -1.353133 -1.078941 -17.618229
v -1.333790 -1.089280 -17.618229
v -1.353133 -1.078941 -17.568636
v -1.333790 -1.089280 -17.568636
v -1.312802 -1.095647 -17.568636
v -1.290975 -1.097797 -17.568636
v -1.312802 -1.095647 -17.618229
v -1.290975 -1.097797 -17.618229
v -1.269148 -1.095647 -17.618229
v -1.248160 -1.089280 -17.618229
v -1.269148 -1.095647 -17.568636
v -1.248160 -1.089280 -17.568636
v -1.228817 -1.078941 -17.568636
v -1.211863 -1.065028 -17.568636
v -1.228817 -1.078941 -17.618229
v -1.211863 -1.065028 -17.618229
v -1.197949 -1.048074 -17.618229
v -1.187610 -1.028731 -17.618229
v -1.197949 -1.048074 -17.568636
v -1.187610 -1.028731 -17.568636
v -1.181243 -1.007743 -17.568636
v -1.179093 -0.985916 -16.594509
v -1.181243 -1.007743 -16.594509
v -1.179093 -0.985916 -16.544916
v -1.181243 -0.964089 -16.594509
v -1.187609 -0.943100 -16.594509
v -1.181243 -0.964089 -16.544916
v -1.187609 -0.943100 -16.544916
v -1.197948 -0.923758 -16.544916
v -1.211862 -0.906803 -16.544916
v -1.197948 -0.923758 -16.594509
v -1.211862 -0.906803 -16.594509
v -1.228816 -0.892890 -16.594509
v -1.248159 -0.882551 -16.594509
v -1.228816 -0.892890 -16.544916
v -1.248159 -0.882551 -16.544916
v -1.269147 -0.876184 -16.544916
v -1.290974 -0.874034 -16.544916
v -1.269147 -0.876184 -16.594509
v -1.290974 -0.874034 -16.594509
v -1.312801 -0.876184 -16.594509
v -1.333790 -0.882551 -16.594509
v -1.312801 -0.876184 -16.544916
v -1.333790 -0.882551 -16.544916
v -1.353132 -0.892890 -16.544916
v -1.370086 -0.906803 -16.544916
v -1.353132 -0.892890 -16.594509
v -1.370086 -0.906803 -16.594509
v -1.384000 -0.923758 -16.594509
v -1.394339 -0.943100 -16.594509
v -1.384000 -0.923758 -16.544916
v -1.394339 -0.943100 -16.544916
v -1.400706 -0.964089 -16.544916
v -1.402856 -0.985916 -16.544916
v -1.400706 -0.964089 -16.594509
v -1.402856 -0.985916 -16.594509
v -1.400706 -1.007743 -16.594509
v -1.394339 -1.028731 -16.594509
v -1.400706 -1.007743 -16.544916
v -1.394339 -1.028731 -16.544916
v -1.384000 -1.048074 -16.544916
v -1.370086 -1.065028 -16.544916
v -1.384000 -1.048074 -16.594509
v -1.370086 -1.065028 -16.594509
v -1.353132 -1.078941 -16.594509
v -1.333790 -1.089280 -16.594509
v -1.353132 -1.078941 -16.544916
v -1.333790 -1.089280 -16.544916
v -1.312801 -1.095647 -16.544916
v -1.290974 -1.097797 -16.544916
v -1.312801 -1.095647 -16.594509
v -1.290974 -1.097797 -16.594509
v -1.269147 -1.095647 -16.594509
v -1.248159 -1.089280 -16.594509
v -1.269147 -1.095647 -16.544916
v -1.248159 -1.089280 -16.544916
v -1.228816 -1.078941 -16.544916
v -1.211862 -1.065028 -16.544916
v -1.228816 -1.078941 -16.594509
v -1.211862 -1.065028 -16.594509
v -1.197948 -1.048074 -16.594509
v -1.187609 -1.028731 -16.594509
v -1.197948 -1.048074 -16.544916
v -1.187609 -1.028731 -16.544916
v -1.181243 -1.007743 -16.544916
v -1.179093 -0.985916 -16.712143
v -1.181243 -1.007743 -16.712143
v -1.179093 -0.985916 -16.662550
v -1.181243 -0.964089 -16.712143
v -1.187609 -0.943100 -16.712143
v -1.181243 -0.964089 -16.662550
v -1.187609 -0.943100 -16.662550
v -1.197948 -0.923758 -16.662550
v -1.211862 -0.906803 -16.662550
v -1.197949 -0.923758 -16.712143
v -1.211862 -0.906803 -16.712143
v -1.228816 -0.892890 -16.712143
v -1.248160 -0.882551 -16.712143
v -1.228816 -0.892890 -16.662550
v -1.248159 -0.882551 -16.662550
v -1.269147 -0.876184 -16.662550
v -1.290974 -0.874034 -16.662550
v -1.269148 -0.876184 -16.712143
v -1.290974 -0.874034 -16.712143
v -1.312801 -0.876184 -16.712143
v -1.333790 -0.882551 -16.712143
v -1.312801 -0.876184 -16.662550
v -1.333790 -0.882551 -16.662550
v -1.353132 -0.892890 -16.662550
v -1.370086 -0.906803 -16.662550
v -1.353132 -0.892890 -16.712143
v -1.370087 -0.906803 -16.712143
v -1.384001 -0.923758 -16.712143
v -1.394339 -0.943100 -16.712143
v -1.384000 -0.923758 -16.662550
v -1.394339 -0.943100 -16.662550
v -1.400706 -0.964089 -16.662550
v -1.402856 -0.985916 -16.662550
v -1.400706 -0.964089 -16.712143
v -1.402856 -0.985916 -16.712143
v -1.400706 -1.007743 -16.712143
v -1.394339 -1.028731 -16.712143
v -1.400706 -1.007743 -16.662550
v -1.394339 -1.028731 -16.662550
v -1.384000 -1.048074 -16.662550
v -1.370086 -1.065028 -16.662550
v -1.384001 -1.048074 -16.712143
v -1.370087 -1.065028 -16.712143
v -1.353132 -1.078941 -16.712143
v -1.333790 -1.089280 -16.712143
v -1.353132 -1.078941 -16.662550
v -1.333790 -1.089280 -16.662550
v -1.312801 -1.095647 -16.662550
v -1.290974 -1.097797 -16.662550
v -1.312801 -1.095647 -16.712143
v -1.290974 -1.097797 -16.712143
v -1.269148 -1.095647 -16.712143
v -1.248160 -1.089280 -16.712143
v -1.269147 -1.095647 -16.662550
v -1.248159 -1.089280 -16.662550
v -1.228816 -1.078941 -16.662550
v -1.211862 -1.065028 -16.662550
v -1.228816 -1.078941 -16.712143
v -1.211862 -1.065028 -16.712143
v -1.197949 -1.048074 -16.712143
v -1.187609 -1.028731 -16.712143
v -1.197948 -1.048074 -16.662550
v -1.187609 -1.028731 -16.662550
v -1.181243 -1.007743 -16.662550
v -4.782886 -0.113379 -17.535006
v -4.782886 -0.114126 -17.544920
v -7.734871 -0.113379 -17.535004
v -4.782886 -0.114126 -17.525091
v -1.132590 -0.961388 -17.535007
v -1.132590 -0.962135 -17.544922
v -1.132590 -0.962135 -17.525093
v -1.132590 -0.964347 -17.515560
v -1.132590 -0.967941 -17.506773
v -4.782886 -0.116338 -17.515558
v -4.782886 -0.119932 -17.506771
v -7.734871 -0.116338 -17.515556
v -7.734871 -0.119932 -17.506771
v -7.734871 -0.114126 -17.525089
v -8.479568 -0.320966 -17.515556
v -8.479568 -0.324559 -17.506771
v -8.479568 -0.318753 -17.525089
v -8.479568 -0.318006 -17.535004
v -8.479568 -0.318753 -17.544918
v -8.479568 -0.320966 -17.554451
v -7.734871 -0.114126 -17.544918
v -7.734871 -0.116338 -17.554453
v -4.782886 -0.116338 -17.554453
v -7.734871 -0.119932 -17.563238
v -4.782886 -0.119932 -17.563240
v -7.734871 -0.124768 -17.570940
v -8.479568 -0.324559 -17.563238
v -8.479568 -0.329395 -17.570938
v -8.479568 -0.335287 -17.577259
v -8.479568 -0.342010 -17.581955
v -7.734871 -0.130660 -17.577259
v -4.782886 -0.130660 -17.577261
v -7.734871 -0.137383 -17.581955
v -4.782886 -0.137383 -17.581957
v -7.734871 -0.144677 -17.584848
v -4.782886 -0.144677 -17.584848
v -7.734871 -0.152263 -17.585823
v -8.479568 -0.349304 -17.584846
v -8.479568 -0.356890 -17.585823
v -8.479568 -0.364476 -17.584846
v -8.479568 -0.371771 -17.581955
v -7.734871 -0.159849 -17.584848
v -4.782886 -0.159849 -17.584848
v -7.734871 -0.167143 -17.581955
v -4.782886 -0.167143 -17.581957
v -7.734871 -0.173866 -17.577259
v -4.782886 -0.173866 -17.577261
v -7.734871 -0.179758 -17.570940
v -8.479568 -0.378493 -17.577259
v -8.479568 -0.384385 -17.570938
v -8.479568 -0.389221 -17.563238
v -8.479568 -0.392815 -17.554451
v -7.734871 -0.184594 -17.563238
v -4.782886 -0.184594 -17.563240
v -7.734871 -0.188188 -17.554453
v -4.782886 -0.188188 -17.554453
v -7.734871 -0.190400 -17.544918
v -4.782886 -0.190400 -17.544920
v -7.734871 -0.191147 -17.535004
v -8.479568 -0.395027 -17.544918
v -8.479568 -0.395774 -17.535004
v -8.479568 -0.395027 -17.525089
v -8.479568 -0.392815 -17.515556
v -7.734871 -0.190400 -17.525089
v -4.782886 -0.190400 -17.525091
v -7.734871 -0.188188 -17.515556
v -4.782886 -0.188188 -17.515558
v -7.734871 -0.184594 -17.506771
v -4.782886 -0.184594 -17.506771
v -7.734871 -0.179758 -17.499069
v -8.479568 -0.389221 -17.506771
v -8.479568 -0.384385 -17.499069
v -8.479568 -0.378493 -17.492748
v -8.479568 -0.371771 -17.488052
v -7.734871 -0.173866 -17.492750
v -4.782886 -0.173866 -17.492750
v -7.734871 -0.167143 -17.488052
v -4.782886 -0.167143 -17.488054
v -7.734871 -0.159849 -17.485161
v -4.782886 -0.159849 -17.485163
v -7.734871 -0.152263 -17.484184
v -8.479568 -0.364476 -17.485161
v -8.479568 -0.356890 -17.484184
v -8.479568 -0.349304 -17.485161
v -8.479568 -0.342010 -17.488052
v -7.734871 -0.144677 -17.485161
v -4.782886 -0.144677 -17.485163
v -7.734871 -0.137383 -17.488052
v -4.782886 -0.137383 -17.488054
v -7.734871 -0.130660 -17.492750
v -4.782886 -0.130660 -17.492750
v -7.734871 -0.124768 -17.499069
v -8.479568 -0.335287 -17.492748
v -8.479568 -0.329395 -17.499069
v -4.782886 -0.124768 -17.499071
v -1.132590 -0.972777 -17.499073
v -1.132590 -0.978669 -17.492752
v -1.132590 -0.985391 -17.488056
v -1.132590 -0.992686 -17.485165
v -1.132590 -1.000272 -17.484188
v -1.132590 -1.007858 -17.485165
v -4.782886 -0.152263 -17.484186
v -1.132590 -1.015152 -17.488056
v -1.132590 -1.021875 -17.492752
v -1.132590 -1.027767 -17.499073
v -1.132590 -1.032603 -17.506773
v -4.782886 -0.179758 -17.499071
v -1.132590 -1.036196 -17.515560
v -1.132590 -1.038409 -17.525093
v -1.132590 -1.039156 -17.535007
v -1.132590 -1.038409 -17.544922
v -4.782886 -0.191147 -17.535006
v -1.132590 -1.036196 -17.554455
v -1.132590 -1.032603 -17.563242
v -1.132590 -1.027767 -17.570942
v -1.132590 -1.021875 -17.577263
v -4.782886 -0.179758 -17.570940
v -1.132590 -1.015152 -17.581959
v -1.132590 -1.007858 -17.584850
v -1.132590 -1.000272 -17.585827
v -1.132590 -0.992686 -17.584850
v -4.782886 -0.152263 -17.585825
v -1.132590 -0.985391 -17.581959
v -1.132590 -0.978669 -17.577263
v -1.132590 -0.972777 -17.570942
v -1.132590 -0.967941 -17.563242
v -4.782886 -0.124768 -17.570940
v -1.132590 -0.964347 -17.554455
v -7.425568 -1.243135 -17.462170
v -7.425568 -5.132368 -17.462170
v -7.425569 -1.243135 -17.966768
v -7.669261 -1.243135 -17.462170
v -7.669261 -5.132368 -17.462170
v -7.669261 -1.243135 -17.966768
v -7.669261 -5.132368 -17.966768
v -7.425569 -5.132368 -17.966768
v -4.715281 -1.243135 -16.694788
v -4.715281 -5.132368 -16.694788
v -4.715281 -1.243135 -16.190189
v -4.471589 -1.243135 -16.694788
v -4.471589 -5.132368 -16.694788
v -4.471589 -1.243135 -16.190189
v -4.471589 -5.132368 -16.190189
v -4.715281 -5.132368 -16.190189
v -4.549911 -4.722024 -16.283077
v -4.549911 -4.980654 -16.283077
v -7.455166 -4.722024 -16.283075
v -4.549911 -4.722024 -16.501282
v -4.549911 -4.980654 -16.501282
v -7.455166 -4.722024 -16.501280
v -7.455167 -4.980655 -16.501280
v -7.455167 -4.980655 -16.283075
v -4.474410 -1.243135 -17.462172
v -4.474410 -5.132368 -17.462172
v -4.474411 -1.243135 -17.966770
v -4.718102 -1.243135 -17.462172
v -4.718102 -5.132368 -17.462172
v -4.718102 -1.243135 -17.966770
v -4.718102 -5.132368 -17.966770
v -4.474411 -5.132368 -17.966770
v -4.699380 -0.016513 -17.881649
v -4.699380 -0.875936 -17.881649
v -5.203978 -0.016513 -17.881649
v -4.699380 -0.016513 -17.679701
v -4.699380 -0.875936 -17.679701
v -5.203978 -0.016513 -17.679701
v -5.203978 -0.875936 -17.679701
v -5.203978 -0.875936 -17.881649
v -4.699379 -0.016513 -16.268421
v -4.699379 -0.875936 -16.268421
v -5.203977 -0.016513 -16.268421
v -4.699379 -0.016513 -16.445585
v -4.699379 -0.875936 -16.445585
v -5.203977 -0.016513 -16.445585
v -5.203977 -0.875936 -16.445585
v -5.203977 -0.875936 -16.268421
v -4.565449 0.216343 -16.003002
v -4.565449 -0.057510 -16.003002
v -5.337931 0.216343 -16.003002
v -4.565450 0.216343 -18.148853
v -4.565450 -0.057510 -18.148853
v -5.337932 0.216343 -18.148853
v -5.337932 -0.057510 -18.148853
v -5.337931 -0.057510 -16.003002
v -4.629775 -0.047277 -16.154686
v -4.629775 -0.254480 -16.154686
v -5.293049 -0.047277 -16.154686
v -4.629776 -0.047277 -17.997169
v -4.629776 -0.254480 -17.997169
v -5.293050 -0.047277 -17.997169
v -5.293050 -0.254480 -17.997169
v -5.293049 -0.254480 -16.154686
v -6.941034 -0.016513 -16.268421
v -6.941034 -0.875936 -16.268421
v -7.445632 -0.016513 -16.268421
v -6.941034 -0.016513 -16.445585
v -6.941034 -0.875936 -16.445585
v -7.445632 -0.016513 -16.445585
v -7.445632 -0.875936 -16.445585
v -7.445632 -0.875936 -16.268421
v -6.807104 0.216343 -16.003000
v -6.807104 -0.057510 -16.003000
v -7.579586 0.216343 -16.003000
v -6.807105 0.216343 -18.148851
v -6.807105 -0.057510 -18.148851
v -7.579587 0.216343 -18.148851
v -7.579587 -0.057510 -18.148851
v -7.579586 -0.057510 -16.003000
v -6.871432 -0.047277 -16.154684
v -6.871432 -0.254481 -16.154684
v -7.534705 -0.047277 -16.154684
v -6.871433 -0.047277 -17.997168
v -6.871433 -0.254481 -17.997168
v -7.534706 -0.047277 -17.997168
v -7.534706 -0.254481 -17.997168
v -7.534705 -0.254481 -16.154684
v -7.709681 -1.222125 -16.782522
v -7.709681 -1.413375 -16.782522
v -7.709680 -1.222125 -16.483240
v -8.607949 -1.222125 -16.782522
v -8.607949 -1.413375 -16.782522
v -8.607949 -1.222125 -16.483240
v -8.607949 -1.413375 -16.483240
v -7.709680 -1.413375 -16.483240
v -7.709681 -1.222125 -17.378223
v -7.709681 -1.413375 -17.378223
v -7.709681 -1.222125 -17.677507
v -8.607949 -1.222125 -17.378223
v -8.607949 -1.413375 -17.378223
v -8.607949 -1.222125 -17.677505
v -8.607949 -1.413375 -17.677505
v -7.709681 -1.413375 -17.677507
vn -0.0000 -0.0000 -1.0000
vn 1.0000 -0.0000 -0.0000
vn -0.0000 1.0000 -0.0000
vn -1.0000 -0.0000 -0.0000
vn -0.0000 -0.0000 1.0000
vn -0.0000 -1.0000 -0.0000
vn -1.0000 -0.0035 -0.0005
vn -1.0000 -0.0035 0.0055
vn -0.9999 -0.0000 0.0109
vn 1.0000 -0.0005 -0.0026
vn -0.0028 -0.0000 -1.0000
vn 0.0162 -0.0000 -0.9999
vn 0.0016 -0.0000 1.0000
vn -0.0060 -0.0000 1.0000
vn 0.0028 -0.0000 -1.0000
vn -0.0162 -0.0000 -0.9999
vn -0.0016 -0.0000 1.0000
vn 0.0060 -0.0000 1.0000
vn 0.6317 -0.7751 -0.0122
vn -0.0102 -0.0240 0.9997
vn 0.7751 0.6315 0.0231
vn 0.0102 0.0240 -0.9997
vn -0.6317 0.7751 0.0122
vn -0.7751 -0.6315 -0.0231
vn 0.6317 -0.7751 0.0122
vn -0.0102 -0.0240 -0.9997
vn 0.7751 0.6315 -0.0231
vn 0.0102 0.0240 0.9997
vn -0.6317 0.7751 -0.0122
vn -0.7751 -0.6315 0.0231
vn 0.2257 0.9714 0.0732
vn -0.0000 0.9972 0.0751
vn -0.0000 0.9972 -0.0751
vn 0.2257 0.9714 -0.0732
vn 0.2207 0.9501 -0.2205
vn 0.2102 0.9049 -0.3701
vn -0.0000 0.9256 -0.3785
vn -0.0000 0.9741 -0.2261
vn -0.2465 0.8970 -0.3669
vn -0.2586 0.9410 -0.2184
vn -0.2643 0.9617 -0.0725
vn -0.2643 0.9617 0.0725
vn -0.2586 0.9410 0.2184
vn -0.0000 0.9741 0.2261
vn -0.0000 0.9256 0.3785
vn -0.2465 0.8970 0.3669
vn -0.0000 0.8469 0.5318
vn -0.2266 0.8248 0.5180
vn -0.1970 0.7171 0.6685
vn -0.1554 0.5657 0.8098
vn -0.0000 0.7314 0.6819
vn -0.0000 0.5727 0.8198
vn -0.0000 0.3685 0.9296
vn -0.1008 0.3667 0.9249
vn -0.0000 0.1277 0.9918
vn -0.0351 0.1276 0.9912
vn 0.0351 -0.1276 0.9912
vn 0.1008 -0.3667 0.9249
vn -0.0000 -0.1277 0.9918
vn -0.0000 -0.3685 0.9296
vn -0.0000 -0.5727 0.8198
vn 0.1554 -0.5657 0.8098
vn -0.0000 -0.7314 0.6819
vn 0.1970 -0.7171 0.6686
vn 0.2266 -0.8248 0.5179
vn 0.2465 -0.8970 0.3669
vn -0.0000 -0.8469 0.5318
vn -0.0000 -0.9256 0.3785
vn -0.0000 -0.9741 0.2261
vn 0.2586 -0.9410 0.2184
vn -0.0000 -0.9972 0.0752
vn 0.2643 -0.9617 0.0725
vn 0.2643 -0.9617 -0.0725
vn 0.2586 -0.9410 -0.2184
vn -0.0000 -0.9972 -0.0752
vn -0.0000 -0.9741 -0.2261
vn -0.0000 -0.9256 -0.3785
vn 0.2465 -0.8970 -0.3669
vn -0.0000 -0.8469 -0.5318
vn 0.2266 -0.8248 -0.5180
vn 0.1970 -0.7171 -0.6686
vn 0.1554 -0.5657 -0.8098
vn -0.0000 -0.7314 -0.6819
vn -0.0000 -0.5727 -0.8198
vn -0.0000 -0.3685 -0.9296
vn 0.1008 -0.3667 -0.9249
vn -0.0000 -0.1277 -0.9918
vn 0.0351 -0.1276 -0.9912
vn -0.0351 0.1276 -0.9912
vn -0.1008 0.3667 -0.9249
vn -0.0000 0.1277 -0.9918
vn -0.0000 0.3685 -0.9296
vn -0.0000 0.5727 -0.8198
vn -0.1554 0.5657 -0.8098
vn -0.0000 0.7314 -0.6819
vn -0.1970 0.7171 -0.6686
vn -0.2266 0.8248 -0.5180
vn -0.0000 0.8469 -0.5318
vn 0.1675 0.7211 -0.6723
vn 0.1930 0.8309 -0.5218
vn 0.1319 0.5677 -0.8126
vn 0.0853 0.3672 -0.9262
vn 0.0296 0.1276 -0.9914
vn -0.0296 -0.1276 -0.9914
vn -0.0853 -0.3672 -0.9262
vn -0.1319 -0.5677 -0.8126
vn -0.1675 -0.7211 -0.6723
vn -0.1930 -0.8309 -0.5218
vn -0.2102 -0.9049 -0.3701
vn -0.2207 -0.9501 -0.2205
vn -0.2257 -0.9714 -0.0732
vn -0.2257 -0.9714 0.0732
vn -0.2207 -0.9501 0.2205
vn -0.2102 -0.9049 0.3701
vn -0.1930 -0.8309 0.5218
vn -0.1675 -0.7211 0.6723
vn -0.1319 -0.5677 0.8126
vn -0.0853 -0.3672 0.9262
vn -0.0296 -0.1276 0.9914
vn 0.0296 0.1276 0.9914
vn 0.0853 0.3672 0.9262
vn 0.1319 0.5677 0.8126
vn 0.1675 0.7211 0.6723
vn 0.1930 0.8309 0.5218
vn 0.2102 0.9049 0.3701
vn 0.2207 0.9501 0.2205
vn 0.9952 -0.0980 -0.0000
vn 0.9952 0.0980 -0.0000
vn 0.9569 0.2903 -0.0000
vn 0.8819 0.4714 -0.0000
vn 0.7730 0.6344 -0.0000
vn 0.6344 0.7730 -0.0000
vn 0.4714 0.8819 -0.0000
vn 0.2903 0.9569 -0.0000
vn 0.0980 0.9952 -0.0000
vn -0.0980 0.9952 -0.0000
vn -0.2903 0.9569 -0.0000
vn -0.4714 0.8819 -0.0000
vn -0.6344 0.7730 -0.0000
vn -0.7730 0.6344 -0.0000
vn -0.8819 0.4714 -0.0000
vn -0.9569 0.2903 -0.0000
vn -0.9952 0.0980 -0.0000
vn -0.9952 -0.0980 -0.0000
vn -0.9569 -0.2903 -0.0000
vn -0.8819 -0.4714 -0.0000
vn -0.7730 -0.6344 -0.0000
vn -0.6344 -0.7730 -0.0000
vn -0.4714 -0.8819 -0.0000
vn -0.2903 -0.9569 -0.0000
vn -0.0980 -0.9952 -0.0000
vn 0.0980 -0.9952 -0.0000
vn 0.2903 -0.9569 -0.0000
vn 0.4714 -0.8819 -0.0000
vn 0.6344 -0.7730 -0.0000
vn 0.7730 -0.6344 -0.0000
vn 0.8819 -0.4714 -0.0000
vn 0.9569 -0.2903 -0.0000
vn -0.0000 0.3686 -0.9296
vn -0.0000 -0.3686 -0.9296
vn 0.2266 -0.8248 -0.5179
vn -0.0000 -0.9972 -0.0751
vn -0.0000 -0.9972 0.0751
vn -0.0000 -0.3686 0.9296
vn -0.0000 0.3686 0.9296
vn -0.1970 0.7171 0.6686
vt 0.242840 0.314992
vt 0.242840 0.593078
vt 0.257937 0.584354
vt 0.257937 0.306269
vt 0.226678 0.566291
vt 0.226677 0.288205
vt 0.211581 0.575014
vt 0.211581 0.296929
vt 0.810658 0.316451
vt 0.760253 0.287324
vt 0.760253 0.308807
vt 0.810658 0.337934
vt 0.769217 0.282144
vt 0.769217 0.303627
vt 0.819622 0.332754
vt 0.819622 0.311271
vt 0.760459 0.345458
vt 0.710054 0.316331
vt 0.710054 0.337815
vt 0.760459 0.366942
vt 0.719018 0.311151
vt 0.719018 0.332635
vt 0.769423 0.361762
vt 0.769423 0.340278
vt 0.710261 0.374466
vt 0.659856 0.345339
vt 0.659856 0.366822
vt 0.710261 0.395949
vt 0.668820 0.340159
vt 0.668820 0.361642
vt 0.719225 0.390769
vt 0.719225 0.369286
vt 0.659994 0.403513
vt 0.609589 0.374386
vt 0.609589 0.395870
vt 0.659994 0.424997
vt 0.618553 0.369206
vt 0.618553 0.390690
vt 0.668958 0.419817
vt 0.668958 0.398333
vt 0.609795 0.432521
vt 0.559390 0.403394
vt 0.559390 0.424877
vt 0.609795 0.454004
vt 0.568354 0.398214
vt 0.568354 0.419697
vt 0.618759 0.448824
vt 0.618759 0.427341
vt 0.559597 0.461528
vt 0.509191 0.432401
vt 0.509191 0.453885
vt 0.559597 0.483012
vt 0.518155 0.427221
vt 0.518155 0.448705
vt 0.568561 0.477832
vt 0.568561 0.456348
vt 0.509398 0.490536
vt 0.458993 0.461409
vt 0.458993 0.482892
vt 0.509398 0.512019
vt 0.467957 0.456229
vt 0.467957 0.477712
vt 0.518362 0.506839
vt 0.518362 0.485356
vt 0.411493 0.486097
vt 0.184785 0.617102
vt 0.184785 0.599398
vt 0.411493 0.468393
vt 0.423241 0.492886
vt 0.423241 0.475182
vt 0.184785 0.544218
vt 0.411493 0.413214
vt 0.423241 0.420003
vt 0.196534 0.551007
vt 0.196534 0.606187
vt 0.196534 0.623891
vt 0.307573 0.688055
vt 0.307681 0.670289
vt 0.534280 0.539347
vt 0.317476 0.693778
vt 0.317476 0.676075
vt 0.317476 0.620895
vt 0.307681 0.615109
vt 0.534280 0.484167
vt 0.544133 0.489920
vt 0.544184 0.545070
vt 0.544184 0.562774
vt 0.534280 0.557051
vt 0.329408 0.427451
vt 0.329408 0.373974
vt 0.327836 0.374877
vt 0.327836 0.428354
vt 0.340401 0.421099
vt 0.340401 0.367622
vt 0.322730 0.423592
vt 0.333722 0.417240
vt 0.321172 0.424503
vt 0.319248 0.379840
vt 0.319248 0.433317
vt 0.312584 0.429466
vt 0.312584 0.375989
vt 0.202735 0.312512
vt 0.202735 0.365988
vt 0.211323 0.361026
vt 0.196283 0.362260
vt 0.204871 0.357297
vt 0.196283 0.308783
vt 0.321172 0.371026
vt 0.211323 0.307549
vt 0.204871 0.303820
vt 0.212865 0.306628
vt 0.206441 0.302916
vt 0.212865 0.360105
vt 0.223857 0.300276
vt 0.217433 0.296564
vt 0.223857 0.353753
vt 0.217433 0.350041
vt 0.206441 0.356393
vt 0.322730 0.370115
vt 0.333722 0.363763
vt 0.524822 0.314529
vt 0.526385 0.313621
vt 0.526385 0.260144
vt 0.524822 0.261052
vt 0.513830 0.267404
vt 0.513830 0.320881
vt 0.507152 0.317022
vt 0.518144 0.310670
vt 0.519721 0.309770
vt 0.534973 0.308658
vt 0.534973 0.255181
vt 0.528309 0.304807
vt 0.528309 0.251330
vt 0.418460 0.241330
vt 0.418460 0.187853
vt 0.409872 0.246293
vt 0.412008 0.237602
vt 0.403420 0.242564
vt 0.412008 0.184125
vt 0.409872 0.192816
vt 0.519721 0.256293
vt 0.403420 0.189088
vt 0.401855 0.189995
vt 0.408279 0.193707
vt 0.408279 0.247184
vt 0.390862 0.196347
vt 0.397287 0.200059
vt 0.397287 0.253536
vt 0.390862 0.249824
vt 0.401855 0.243472
vt 0.518144 0.257193
vt 0.507152 0.263545
vt 0.527391 0.514097
vt 0.527391 0.549548
vt 0.410976 0.482276
vt 0.410976 0.446826
vt 0.204366 0.601667
vt 0.204366 0.566217
vt 0.320781 0.668939
vt 0.320781 0.633488
vt 0.348968 0.628522
vt 0.361479 0.635751
vt 0.361479 0.697201
vt 0.348968 0.689972
vt 0.330219 0.653815
vt 0.330219 0.715265
vt 0.317709 0.708036
vt 0.317709 0.646586
vt 0.424354 0.212253
vt 0.424354 0.247420
vt 0.410318 0.239309
vt 0.410318 0.204142
vt 0.230339 0.343311
vt 0.230339 0.308144
vt 0.244375 0.351422
vt 0.244375 0.316255
vt 0.399167 0.235800
vt 0.413244 0.240807
vt 0.405614 0.236277
vt 0.391537 0.231271
vt 0.241917 0.554687
vt 0.227840 0.549681
vt 0.249547 0.559216
vt 0.235470 0.554210
vt 0.495508 0.253370
vt 0.509544 0.261481
vt 0.509544 0.296648
vt 0.495508 0.288537
vt 0.329565 0.365483
vt 0.329565 0.400649
vt 0.315529 0.392539
vt 0.315529 0.357372
vt 0.478109 0.281418
vt 0.485585 0.285617
vt 0.500525 0.291123
vt 0.493049 0.286923
vt 0.328079 0.607604
vt 0.343019 0.613110
vt 0.335543 0.608910
vt 0.320603 0.603405
vt 0.797372 0.253368
vt 0.797372 0.282310
vt 0.787732 0.287880
vt 0.787732 0.258938
vt 0.809705 0.260495
vt 0.809705 0.289437
vt 0.800066 0.295007
vt 0.181947 0.637937
vt 0.181947 0.608995
vt 0.194281 0.645064
vt 0.170663 0.644458
vt 0.170663 0.615516
vt 0.182997 0.651585
vt 0.194281 0.616122
vt 0.800066 0.266065
vt 0.237224 0.669879
vt 0.225940 0.676400
vt 0.237224 0.640937
vt 0.855342 0.326949
vt 0.249558 0.677006
vt 0.843009 0.319822
vt 0.843009 0.290880
vt 0.238273 0.683527
vt 0.249558 0.648064
vt 0.238273 0.654585
vt 0.855342 0.298007
vt 0.225940 0.647458
vt 0.182997 0.622643
vt 0.852648 0.285310
vt 0.864982 0.292437
vt 0.864982 0.321379
vt 0.852648 0.314252
vt 0.200295 0.679594
vt 0.200295 0.750485
vt 0.250217 0.721637
vt 0.250217 0.650746
vt 0.177789 0.679784
vt 0.177789 0.608893
vt 0.127866 0.708632
vt 0.127866 0.637741
vt 0.226975 0.698991
vt 0.226975 0.723239
vt 0.241674 0.714745
vt 0.241674 0.690498
vt 0.208098 0.695343
vt 0.208098 0.671096
vt 0.193400 0.703837
vt 0.193400 0.679590
vt 0.198253 0.749916
vt 0.198253 0.774200
vt 0.258232 0.739541
vt 0.258232 0.715257
vt 0.179830 0.694236
vt 0.179830 0.669951
vt 0.119851 0.728895
vt 0.119851 0.704611
vt 0.199238 0.669417
vt 0.199238 0.690892
vt 0.254885 0.658736
vt 0.254885 0.637261
vt 0.177452 0.613991
vt 0.177452 0.592515
vt 0.121805 0.646147
vt 0.121805 0.624672
vt 0.181487 0.664055
vt 0.181487 0.688302
vt 0.196186 0.679809
vt 0.196186 0.655561
vt 0.185801 0.673808
vt 0.185801 0.649561
vt 0.171103 0.682302
vt 0.171103 0.658054
vt 0.417705 0.568252
vt 0.417091 0.567844
vt 0.643224 0.376537
vt 0.643838 0.376945
vt 0.234832 0.673927
vt 0.234217 0.673518
vt 0.418319 0.568553
vt 0.235446 0.674228
vt 0.644453 0.377247
vt 0.642634 0.376038
vt 0.642089 0.375466
vt 0.641612 0.374845
vt 0.641221 0.374197
vt 0.640930 0.373548
vt 0.640751 0.372923
vt 0.640690 0.372346
vt 0.640751 0.371838
vt 0.640930 0.371420
vt 0.641221 0.371108
vt 0.641612 0.370913
vt 0.642089 0.370843
vt 0.642634 0.370900
vt 0.643224 0.371083
vt 0.643838 0.371385
vt 0.644453 0.371793
vt 0.645043 0.372293
vt 0.645587 0.372864
vt 0.646065 0.373486
vt 0.646456 0.374133
vt 0.646747 0.374782
vt 0.646926 0.375407
vt 0.646987 0.375984
vt 0.646926 0.376492
vt 0.646747 0.376910
vt 0.646456 0.377222
vt 0.646065 0.377417
vt 0.645587 0.377488
vt 0.645043 0.377430
vt 0.418910 0.568736
vt 0.419454 0.568794
vt 0.236581 0.674469
vt 0.236037 0.674411
vt 0.190447 0.686496
vt 0.189903 0.686439
vt 0.189312 0.686255
vt 0.188084 0.685546
vt 0.188698 0.685954
vt 0.190924 0.686426
vt 0.191316 0.686231
vt 0.191607 0.685918
vt 0.191786 0.685500
vt 0.191846 0.684993
vt 0.191786 0.684416
vt 0.191607 0.683790
vt 0.191316 0.683142
vt 0.190924 0.682494
vt 0.190447 0.681873
vt 0.189903 0.681301
vt 0.189312 0.680802
vt 0.188698 0.680393
vt 0.188084 0.680092
vt 0.187494 0.679909
vt 0.186949 0.679851
vt 0.186472 0.679921
vt 0.186081 0.680116
vt 0.185790 0.680429
vt 0.185611 0.680847
vt 0.185550 0.681355
vt 0.185611 0.681932
vt 0.185790 0.682557
vt 0.186081 0.683206
vt 0.186472 0.683853
vt 0.186949 0.684475
vt 0.187494 0.685046
vt 0.233627 0.673019
vt 0.416500 0.567344
vt 0.233083 0.672447
vt 0.415956 0.566773
vt 0.232606 0.671826
vt 0.415479 0.566151
vt 0.232214 0.671178
vt 0.231923 0.670529
vt 0.415087 0.565504
vt 0.414797 0.564855
vt 0.231744 0.669904
vt 0.414617 0.564230
vt 0.231683 0.669327
vt 0.414557 0.563652
vt 0.231744 0.668820
vt 0.231923 0.668402
vt 0.414617 0.563145
vt 0.414797 0.562727
vt 0.232214 0.668089
vt 0.415087 0.562414
vt 0.232606 0.667894
vt 0.415479 0.562219
vt 0.233083 0.667824
vt 0.233627 0.667881
vt 0.415956 0.562149
vt 0.416500 0.562207
vt 0.234217 0.668065
vt 0.417091 0.562390
vt 0.234832 0.668366
vt 0.417705 0.562691
vt 0.235446 0.668774
vt 0.236037 0.669274
vt 0.418319 0.563100
vt 0.418910 0.563599
vt 0.236581 0.669845
vt 0.419454 0.564171
vt 0.237058 0.670467
vt 0.419931 0.564792
vt 0.237449 0.671114
vt 0.237740 0.671763
vt 0.420323 0.565440
vt 0.420614 0.566088
vt 0.237919 0.672388
vt 0.420793 0.566713
vt 0.237980 0.672966
vt 0.420853 0.567291
vt 0.237919 0.673473
vt 0.237740 0.673891
vt 0.420793 0.567798
vt 0.420614 0.568216
vt 0.237449 0.674204
vt 0.420323 0.568529
vt 0.237058 0.674399
vt 0.419931 0.568724
vt 0.694821 0.407982
vt 0.694687 0.406498
vt 0.694293 0.405225
vt 0.693653 0.404212
vt 0.692791 0.403498
vt 0.691740 0.403110
vt 0.690542 0.403063
vt 0.689242 0.403359
vt 0.687890 0.403987
vt 0.686538 0.404922
vt 0.685237 0.406129
vt 0.684039 0.407560
vt 0.682989 0.409162
vt 0.682127 0.410872
vt 0.681486 0.412626
vt 0.681092 0.414354
vt 0.680959 0.415992
vt 0.681092 0.417475
vt 0.681486 0.418748
vt 0.682127 0.419761
vt 0.682989 0.420475
vt 0.684039 0.420863
vt 0.685237 0.420910
vt 0.686538 0.420614
vt 0.687890 0.419986
vt 0.689242 0.419051
vt 0.690542 0.417845
vt 0.691740 0.416413
vt 0.692791 0.414811
vt 0.693653 0.413101
vt 0.694293 0.411348
vt 0.694687 0.409619
vt 0.691748 0.406206
vt 0.691615 0.404722
vt 0.691615 0.407844
vt 0.691221 0.409572
vt 0.690580 0.411326
vt 0.689718 0.413036
vt 0.688668 0.414638
vt 0.687470 0.416069
vt 0.686170 0.417276
vt 0.684817 0.418211
vt 0.683465 0.418839
vt 0.682165 0.419135
vt 0.680967 0.419088
vt 0.679917 0.418700
vt 0.679055 0.417986
vt 0.678414 0.416973
vt 0.678020 0.415700
vt 0.677886 0.414216
vt 0.678020 0.412579
vt 0.678414 0.410850
vt 0.679055 0.409097
vt 0.679917 0.407387
vt 0.680967 0.405785
vt 0.682165 0.404353
vt 0.683465 0.403147
vt 0.684817 0.402212
vt 0.686170 0.401584
vt 0.687470 0.401288
vt 0.688668 0.401335
vt 0.689718 0.401723
vt 0.690580 0.402437
vt 0.691221 0.403450
vt 0.702108 0.412193
vt 0.701975 0.410709
vt 0.701581 0.409436
vt 0.700940 0.408423
vt 0.700078 0.407709
vt 0.699028 0.407321
vt 0.697830 0.407274
vt 0.696529 0.407570
vt 0.695177 0.408198
vt 0.693825 0.409133
vt 0.692525 0.410340
vt 0.691327 0.411771
vt 0.690276 0.413373
vt 0.689414 0.415083
vt 0.688774 0.416837
vt 0.688379 0.418565
vt 0.688246 0.420203
vt 0.688379 0.421687
vt 0.688774 0.422959
vt 0.689414 0.423972
vt 0.690276 0.424686
vt 0.691327 0.425074
vt 0.692525 0.425121
vt 0.693825 0.424825
vt 0.695177 0.424197
vt 0.696529 0.423262
vt 0.697830 0.422056
vt 0.699028 0.420624
vt 0.700078 0.419022
vt 0.700940 0.417312
vt 0.701581 0.415559
vt 0.701975 0.413830
vt 0.699036 0.410417
vt 0.698903 0.408934
vt 0.698903 0.412055
vt 0.698508 0.413784
vt 0.697868 0.415537
vt 0.697006 0.417247
vt 0.695956 0.418849
vt 0.694757 0.420280
vt 0.693457 0.421487
vt 0.692105 0.422422
vt 0.690753 0.423050
vt 0.689453 0.423346
vt 0.688254 0.423299
vt 0.687204 0.422911
vt 0.686342 0.422197
vt 0.685702 0.421184
vt 0.685307 0.419911
vt 0.685174 0.418427
vt 0.685307 0.416790
vt 0.685702 0.415061
vt 0.686342 0.413308
vt 0.687204 0.411598
vt 0.688254 0.409996
vt 0.689453 0.408564
vt 0.690753 0.407358
vt 0.692105 0.406423
vt 0.693457 0.405795
vt 0.694757 0.405499
vt 0.695956 0.405546
vt 0.697006 0.405934
vt 0.697868 0.406648
vt 0.698508 0.407661
vt 0.638689 0.375546
vt 0.638556 0.374062
vt 0.638162 0.372789
vt 0.637521 0.371776
vt 0.636659 0.371062
vt 0.635609 0.370674
vt 0.634411 0.370627
vt 0.633111 0.370923
vt 0.631758 0.371551
vt 0.630406 0.372486
vt 0.629106 0.373693
vt 0.627908 0.375124
vt 0.626858 0.376726
vt 0.625996 0.378437
vt 0.625355 0.380190
vt 0.624961 0.381918
vt 0.624827 0.383556
vt 0.624961 0.385040
vt 0.625355 0.386312
vt 0.625996 0.387325
vt 0.626858 0.388039
vt 0.627908 0.388427
vt 0.629106 0.388474
vt 0.630406 0.388178
vt 0.631758 0.387550
vt 0.633111 0.386615
vt 0.634411 0.385409
vt 0.635609 0.383977
vt 0.636659 0.382375
vt 0.637521 0.380665
vt 0.638162 0.378912
vt 0.638556 0.377183
vt 0.635617 0.373770
vt 0.635484 0.372287
vt 0.635484 0.375408
vt 0.635090 0.377137
vt 0.634449 0.378890
vt 0.633587 0.380600
vt 0.632537 0.382202
vt 0.631339 0.383633
vt 0.630038 0.384840
vt 0.628686 0.385775
vt 0.627334 0.386403
vt 0.626034 0.386699
vt 0.624836 0.386652
vt 0.623785 0.386264
vt 0.622923 0.385550
vt 0.622283 0.384537
vt 0.621888 0.383264
vt 0.621755 0.381781
vt 0.621888 0.380143
vt 0.622283 0.378414
vt 0.622923 0.376661
vt 0.623785 0.374951
vt 0.624836 0.373349
vt 0.626034 0.371917
vt 0.627334 0.370711
vt 0.628686 0.369776
vt 0.630038 0.369148
vt 0.631339 0.368852
vt 0.632537 0.368899
vt 0.633587 0.369287
vt 0.634449 0.370001
vt 0.635090 0.371014
vt 0.645977 0.379757
vt 0.645844 0.378273
vt 0.645449 0.377000
vt 0.644809 0.375987
vt 0.643947 0.375273
vt 0.642896 0.374885
vt 0.641698 0.374838
vt 0.640398 0.375135
vt 0.639046 0.375762
vt 0.637694 0.376697
vt 0.636393 0.377904
vt 0.635195 0.379335
vt 0.634145 0.380937
vt 0.633283 0.382648
vt 0.632642 0.384401
vt 0.632248 0.386129
vt 0.632115 0.387767
vt 0.632248 0.389251
vt 0.632642 0.390523
vt 0.633283 0.391536
vt 0.634145 0.392250
vt 0.635195 0.392638
vt 0.636393 0.392685
vt 0.637694 0.392389
vt 0.639046 0.391762
vt 0.640398 0.390826
vt 0.641698 0.389620
vt 0.642896 0.388188
vt 0.643947 0.386586
vt 0.644809 0.384876
vt 0.645449 0.383123
vt 0.645844 0.381394
vt 0.642904 0.377981
vt 0.642771 0.376498
vt 0.642771 0.379619
vt 0.642377 0.381348
vt 0.641736 0.383101
vt 0.640875 0.384811
vt 0.639824 0.386413
vt 0.638626 0.387845
vt 0.637326 0.389051
vt 0.635974 0.389986
vt 0.634621 0.390614
vt 0.633321 0.390910
vt 0.632123 0.390863
vt 0.631073 0.390475
vt 0.630211 0.389761
vt 0.629570 0.388748
vt 0.629176 0.387475
vt 0.629043 0.385992
vt 0.629176 0.384354
vt 0.629570 0.382625
vt 0.630211 0.380872
vt 0.631073 0.379162
vt 0.632123 0.377560
vt 0.633321 0.376128
vt 0.634621 0.374922
vt 0.635974 0.373987
vt 0.637326 0.373359
vt 0.638626 0.373063
vt 0.639824 0.373110
vt 0.640875 0.373498
vt 0.641736 0.374212
vt 0.642377 0.375225
vt 0.473700 0.600609
vt 0.699833 0.409303
vt 0.700448 0.409604
vt 0.474314 0.600911
vt 0.291441 0.706585
vt 0.290827 0.706284
vt 0.473086 0.600201
vt 0.290213 0.705876
vt 0.699219 0.408894
vt 0.698629 0.408395
vt 0.698084 0.407823
vt 0.697607 0.407202
vt 0.697216 0.406554
vt 0.696925 0.405906
vt 0.696746 0.405280
vt 0.696685 0.404703
vt 0.696746 0.404196
vt 0.696925 0.403778
vt 0.697216 0.403465
vt 0.697607 0.403270
vt 0.698084 0.403200
vt 0.698629 0.403257
vt 0.699219 0.403440
vt 0.699833 0.403742
vt 0.700448 0.404150
vt 0.701038 0.404650
vt 0.701583 0.405221
vt 0.702060 0.405843
vt 0.702451 0.406490
vt 0.702742 0.407139
vt 0.702921 0.407764
vt 0.702982 0.408342
vt 0.702921 0.408849
vt 0.702742 0.409267
vt 0.702451 0.409580
vt 0.702060 0.409775
vt 0.701583 0.409845
vt 0.701038 0.409787
vt 0.472495 0.599701
vt 0.471951 0.599130
vt 0.289622 0.705376
vt 0.289078 0.704805
vt 0.243488 0.717403
vt 0.242944 0.716832
vt 0.244079 0.717903
vt 0.245307 0.718613
vt 0.245898 0.718796
vt 0.246442 0.718853
vt 0.246919 0.718783
vt 0.247311 0.718588
vt 0.247602 0.718276
vt 0.247781 0.717858
vt 0.247842 0.717350
vt 0.247781 0.716773
vt 0.247602 0.716148
vt 0.247311 0.715499
vt 0.246919 0.714851
vt 0.246442 0.714230
vt 0.245898 0.713658
vt 0.245307 0.713159
vt 0.244693 0.712751
vt 0.244079 0.712449
vt 0.243488 0.712266
vt 0.242944 0.712209
vt 0.242467 0.712279
vt 0.242076 0.712474
vt 0.241785 0.712786
vt 0.241606 0.713204
vt 0.241545 0.713712
vt 0.241606 0.714289
vt 0.241785 0.714914
vt 0.242076 0.715563
vt 0.242467 0.716211
vt 0.244693 0.718311
vt 0.292032 0.706769
vt 0.474905 0.601094
vt 0.475449 0.601151
vt 0.292576 0.706826
vt 0.475926 0.601081
vt 0.293053 0.706756
vt 0.293444 0.706561
vt 0.293735 0.706248
vt 0.476318 0.600886
vt 0.476609 0.600574
vt 0.476788 0.600155
vt 0.293915 0.705830
vt 0.476848 0.599648
vt 0.293975 0.705323
vt 0.293915 0.704745
vt 0.293735 0.704120
vt 0.476788 0.599071
vt 0.476609 0.598446
vt 0.476318 0.597797
vt 0.293444 0.703472
vt 0.475926 0.597149
vt 0.293053 0.702824
vt 0.292576 0.702203
vt 0.292032 0.701631
vt 0.475449 0.596528
vt 0.474905 0.595956
vt 0.474314 0.595457
vt 0.291441 0.701132
vt 0.473700 0.595048
vt 0.290827 0.700723
vt 0.290213 0.700422
vt 0.289622 0.700239
vt 0.473086 0.594747
vt 0.472495 0.594564
vt 0.471951 0.594506
vt 0.289078 0.700181
vt 0.471474 0.594577
vt 0.288601 0.700251
vt 0.288209 0.700446
vt 0.287918 0.700759
vt 0.471083 0.594771
vt 0.470792 0.595084
vt 0.470612 0.595502
vt 0.287739 0.701177
vt 0.470552 0.596010
vt 0.287679 0.701684
vt 0.287739 0.702262
vt 0.287918 0.702887
vt 0.470612 0.596587
vt 0.470792 0.597212
vt 0.471083 0.597861
vt 0.288209 0.703536
vt 0.471474 0.598508
vt 0.288601 0.704183
vt 0.305476 0.333739
vt 0.336735 0.351803
vt 0.336735 0.629889
vt 0.305476 0.611825
vt 0.290379 0.342463
vt 0.290379 0.620549
vt 0.321639 0.638612
vt 0.321639 0.360526
vt 0.425837 0.209246
vt 0.394578 0.191183
vt 0.394578 0.469268
vt 0.425837 0.487332
vt 0.440934 0.200523
vt 0.440934 0.478608
vt 0.409674 0.460545
vt 0.409674 0.182459
vt 0.424094 0.207247
vt 0.424094 0.225739
vt 0.410577 0.217928
vt 0.410577 0.199436
vt 0.230598 0.321930
vt 0.230598 0.303438
vt 0.244116 0.329741
vt 0.244116 0.311249
vt 0.488298 0.228094
vt 0.519558 0.246158
vt 0.519558 0.524243
vt 0.488298 0.506180
vt 0.473201 0.236818
vt 0.473201 0.514904
vt 0.504461 0.532967
vt 0.504461 0.254881
vt 0.487837 0.548276
vt 0.500348 0.555505
vt 0.500348 0.616955
vt 0.487837 0.609726
vt 0.469088 0.573569
vt 0.469088 0.635019
vt 0.456578 0.627789
vt 0.456578 0.566339
vt 0.400409 0.497755
vt 0.400409 0.559205
vt 0.369150 0.577268
vt 0.369150 0.515818
vt 0.411385 0.504097
vt 0.411385 0.565547
vt 0.380125 0.583610
vt 0.380125 0.522161
vt 0.392264 0.541978
vt 0.392264 0.561559
vt 0.344409 0.589212
vt 0.344409 0.569631
vt 0.525198 0.618795
vt 0.525198 0.638375
vt 0.477343 0.666029
vt 0.477343 0.646448
vt 0.397676 0.535627
vt 0.397676 0.550442
vt 0.356586 0.574186
vt 0.356586 0.559370
vt 0.511816 0.601584
vt 0.511816 0.616399
vt 0.470727 0.640143
vt 0.470727 0.625327
vt 0.261540 0.578001
vt 0.261540 0.639451
vt 0.230281 0.657515
vt 0.230281 0.596065
vt 0.272516 0.584343
vt 0.272516 0.645793
vt 0.241256 0.663857
vt 0.241256 0.602407
vt 0.253395 0.622224
vt 0.253395 0.641805
vt 0.205540 0.669458
vt 0.205540 0.649877
vt 0.386329 0.699041
vt 0.386329 0.718622
vt 0.338474 0.746275
vt 0.338474 0.726694
vt 0.258806 0.615873
vt 0.258806 0.630688
vt 0.217717 0.654432
vt 0.217717 0.639617
vt 0.372947 0.681830
vt 0.372947 0.696645
vt 0.331858 0.720389
vt 0.331858 0.705574
vt 0.190124 0.617649
vt 0.190124 0.631324
vt 0.245772 0.599168
vt 0.245772 0.585493
vt 0.227231 0.588454
vt 0.227231 0.574780
vt 0.171584 0.620610
vt 0.171584 0.606936
vt 0.227028 0.638974
vt 0.282675 0.606818
vt 0.282675 0.620493
vt 0.227028 0.652649
vt 0.301215 0.617532
vt 0.301215 0.631206
vt 0.245568 0.663363
vt 0.245568 0.649688
s 0
g Cargo_Machine_3.008_Material
usemtl Material
f 5/1/1 4/2/1 1/3/1 2/4/1
f 2/4/2 1/3/2 3/5/2 8/6/2
f 1/3/3 4/2/3 6/7/3 3/5/3
f 7/8/4 6/7/4 4/2/4 5/1/4
f 8/6/5 3/5/5 6/7/5 7/8/5
f 5/1/6 2/4/6 8/6/6 7/8/6
f 13/9/4 10/10/4 9/11/4 12/12/4
f 10/10/5 16/13/5 11/14/5 9/11/5
f 9/11/3 11/14/3 14/15/3 12/12/3
f 15/16/1 13/9/1 12/12/1 14/15/1
f 16/13/2 15/16/2 14/15/2 11/14/2
f 13/9/6 15/16/6 16/13/6 10/10/6
f 21/17/4 18/18/4 17/19/4 20/20/4
f 18/18/5 24/21/5 19/22/5 17/19/5
f 17/19/3 19/22/3 22/23/3 20/20/3
f 23/24/1 21/17/1 20/20/1 22/23/1
f 24/21/2 23/24/2 22/23/2 19/22/2
f 21/17/6 23/24/6 24/21/6 18/18/6
f 29/25/4 26/26/4 25/27/4 28/28/4
f 26/26/5 32/29/5 27/30/5 25/27/5
f 25/27/3 27/30/3 30/31/3 28/28/3
f 31/32/1 29/25/1 28/28/1 30/31/1
f 32/29/2 31/32/2 30/31/2 27/30/2
f 29/25/6 31/32/6 32/29/6 26/26/6
f 37/33/4 34/34/4 33/35/4 36/36/4
f 34/34/5 40/37/5 35/38/5 33/35/5
f 33/35/3 35/38/3 38/39/3 36/36/3
f 39/40/1 37/33/1 36/36/1 38/39/1
f 40/37/2 39/40/2 38/39/2 35/38/2
f 37/33/6 39/40/6 40/37/6 34/34/6
f 45/41/4 42/42/4 41/43/4 44/44/4
f 42/42/5 48/45/5 43/46/5 41/43/5
f 41/43/3 43/46/3 46/47/3 44/44/3
f 47/48/1 45/41/1 44/44/1 46/47/1
f 48/45/2 47/48/2 46/47/2 43/46/2
f 45/41/6 47/48/6 48/45/6 42/42/6
f 53/49/4 50/50/4 49/51/4 52/52/4
f 50/50/5 56/53/5 51/54/5 49/51/5
f 49/51/3 51/54/3 54/55/3 52/52/3
f 55/56/1 53/49/1 52/52/1 54/55/1
f 56/53/2 55/56/2 54/55/2 51/54/2
f 53/49/6 55/56/6 56/53/6 50/50/6
f 61/57/4 58/58/4 57/59/4 60/60/4
f 58/58/5 64/61/5 59/62/5 57/59/5
f 57/59/3 59/62/3 62/63/3 60/60/3
f 63/64/1 61/57/1 60/60/1 62/63/1
f 64/61/2 63/64/2 62/63/2 59/62/2
f 61/57/6 63/64/6 64/61/6 58/58/6
f 66/65/5 88/66/5 67/67/5 65/68/5
f 87/69/2 66/65/2 65/68/2 68/70/2
f 67/67/5 70/71/5 69/72/5 65/68/5
f 65/68/2 69/72/2 71/73/2 68/70/2
f 69/72/6 70/71/6 72/74/6 71/73/6
f 68/70/1 71/73/1 72/74/1 73/75/1
f 73/75/4 72/74/4 70/71/4 67/67/4
f 88/66/4 74/76/4 73/75/4 67/67/4
f 74/76/7 77/77/7 75/78/7 73/75/7
f 68/70/6 73/75/6 75/78/6 78/79/6
f 77/77/8 85/80/8 76/81/8 75/78/8
f 76/81/9 80/82/9 79/83/9 75/78/9
f 75/78/5 79/83/5 81/84/5 78/79/5
f 81/84/6 79/83/6 80/82/6 82/85/6
f 78/79/10 81/84/10 82/85/10 83/86/10
f 83/86/1 82/85/1 80/82/1 76/81/1
f 85/80/1 84/87/1 83/86/1 76/81/1
f 84/87/2 86/88/2 78/79/2 83/86/2
f 84/87/3 85/80/3 77/77/3 86/88/3
f 86/88/2 87/69/2 68/70/2 78/79/2
f 86/88/3 77/77/3 74/76/3 87/69/3
f 87/69/3 74/76/3 88/66/3 66/65/3
f 89/89/11 90/90/11 94/91/11 93/92/11
f 90/90/1 89/89/1 91/93/1 120/94/1
f 89/89/3 92/95/3 119/96/3 91/93/3
f 89/89/3 93/92/3 95/97/3 92/95/3
f 94/91/1 97/98/1 96/99/1 93/92/1
f 98/100/3 95/97/3 93/92/3 96/99/3
f 97/98/4 99/101/4 98/100/4 96/99/4
f 99/101/4 103/102/4 100/103/4 98/100/4
f 100/103/3 102/104/3 95/97/3 98/100/3
f 101/105/3 116/106/3 102/104/3 100/103/3
f 103/102/4 104/107/4 101/105/4 100/103/4
f 99/101/6 107/108/6 105/109/6 103/102/6
f 103/102/6 105/109/6 106/110/6 104/107/6
f 106/110/6 105/109/6 108/111/6 109/112/6
f 102/104/2 105/109/2 107/108/2 95/97/2
f 108/111/12 105/109/12 102/104/12 110/113/12
f 109/112/6 108/111/6 111/114/6 113/115/6
f 108/111/1 110/113/1 112/116/1 111/114/1
f 111/114/2 112/116/2 114/117/2 113/115/2
f 113/115/5 114/117/5 115/118/5 109/112/5
f 110/113/3 115/118/3 114/117/3 112/116/3
f 106/110/13 109/112/13 115/118/13 116/106/13
f 110/113/3 102/104/3 116/106/3 115/118/3
f 104/107/5 106/110/5 116/106/5 101/105/5
f 117/119/6 107/108/6 94/91/6 90/90/6
f 97/98/6 94/91/6 107/108/6 99/101/6
f 92/95/14 95/97/14 107/108/14 117/119/14
f 117/119/6 90/90/6 120/94/6 118/120/6
f 118/120/5 119/96/5 92/95/5 117/119/5
f 120/94/2 91/93/2 119/96/2 118/120/2
f 121/121/15 125/122/15 126/123/15 122/124/15
f 122/124/1 152/125/1 123/126/1 121/121/1
f 121/121/3 123/126/3 151/127/3 124/128/3
f 121/121/3 124/128/3 127/129/3 125/122/3
f 126/123/1 125/122/1 128/130/1 129/131/1
f 130/132/3 128/130/3 125/122/3 127/129/3
f 129/131/2 128/130/2 130/132/2 131/133/2
f 131/133/2 130/132/2 132/134/2 135/135/2
f 132/134/3 130/132/3 127/129/3 134/136/3
f 133/137/3 132/134/3 134/136/3 148/138/3
f 135/135/2 132/134/2 133/137/2 136/139/2
f 131/133/6 135/135/6 137/140/6 139/141/6
f 135/135/6 136/139/6 138/142/6 137/140/6
f 138/142/6 141/143/6 140/144/6 137/140/6
f 134/136/4 127/129/4 139/141/4 137/140/4
f 140/144/16 142/145/16 134/136/16 137/140/16
f 141/143/6 145/146/6 143/147/6 140/144/6
f 140/144/1 143/147/1 144/148/1 142/145/1
f 143/147/4 145/146/4 146/149/4 144/148/4
f 145/146/5 141/143/5 147/150/5 146/149/5
f 142/145/3 144/148/3 146/149/3 147/150/3
f 138/142/17 148/138/17 147/150/17 141/143/17
f 142/145/3 147/150/3 148/138/3 134/136/3
f 136/139/5 133/137/5 148/138/5 138/142/5
f 149/151/6 122/124/6 126/123/6 139/141/6
f 129/131/6 131/133/6 139/141/6 126/123/6
f 124/128/18 149/151/18 139/141/18 127/129/18
f 149/151/6 150/152/6 152/125/6 122/124/6
f 150/152/5 149/151/5 124/128/5 151/127/5
f 152/125/4 150/152/4 151/127/4 123/126/4
f 157/153/2 156/154/2 153/155/2 154/156/2
f 154/156/5 153/155/5 155/157/5 160/158/5
f 153/155/3 156/154/3 158/159/3 155/157/3
f 159/160/1 158/159/1 156/154/1 157/153/1
f 160/158/4 155/157/4 158/159/4 159/160/4
f 157/153/6 154/156/6 160/158/6 159/160/6
f 165/161/2 162/162/2 161/163/2 164/164/2
f 162/162/1 168/165/1 163/166/1 161/163/1
f 161/163/3 163/166/3 166/167/3 164/164/3
f 167/168/5 165/161/5 164/164/5 166/167/5
f 168/165/4 167/168/4 166/167/4 163/166/4
f 165/161/6 167/168/6 168/165/6 162/162/6
f 173/169/2 172/170/2 169/171/2 170/172/2
f 170/172/5 169/171/5 171/173/5 176/174/5
f 169/171/3 172/170/3 174/175/3 171/173/3
f 175/176/1 174/175/1 172/170/1 173/169/1
f 176/174/4 171/173/4 174/175/4 175/176/4
f 173/169/6 170/172/6 176/174/6 175/176/6
f 181/177/19 180/178/19 177/179/19 178/180/19
f 178/180/20 177/179/20 179/181/20 184/182/20
f 177/179/21 180/178/21 182/183/21 179/181/21
f 183/184/22 182/183/22 180/178/22 181/177/22
f 184/182/23 179/181/23 182/183/23 183/184/23
f 181/177/24 178/180/24 184/182/24 183/184/24
f 189/185/2 186/186/2 185/187/2 188/188/2
f 186/186/1 192/189/1 187/190/1 185/187/1
f 185/187/3 187/190/3 190/191/3 188/188/3
f 191/192/5 189/185/5 188/188/5 190/191/5
f 192/189/4 191/192/4 190/191/4 187/190/4
f 189/185/6 191/192/6 192/189/6 186/186/6
f 197/193/25 194/194/25 193/195/25 196/196/25
f 194/194/26 200/197/26 195/198/26 193/195/26
f 193/195/27 195/198/27 198/199/27 196/196/27
f 199/200/28 197/193/28 196/196/28 198/199/28
f 200/197/29 199/200/29 198/199/29 195/198/29
f 197/193/30 199/200/30 200/197/30 194/194/30
f 202/201/5 201/202/5 204/203/5 205/204/5
f 230/205/2 203/206/2 201/202/2 202/201/2
f 201/202/3 203/206/3 206/207/3 204/203/3
f 205/204/5 204/203/5 207/208/5 209/209/5
f 204/203/3 206/207/3 210/210/3 207/208/3
f 209/209/5 207/208/5 208/211/5 225/212/5
f 207/208/3 210/210/3 211/213/3 208/211/3
f 212/214/1 210/210/1 206/207/1 229/215/1
f 210/210/3 213/216/3 215/217/3 211/213/3
f 212/214/2 216/218/2 213/216/2 210/210/2
f 219/219/3 217/220/3 213/216/3 214/221/3
f 216/218/5 227/222/5 214/221/5 213/216/5
f 217/220/3 218/223/3 215/217/3 213/216/3
f 220/224/1 222/225/1 218/223/1 217/220/1
f 221/226/1 220/224/1 217/220/1 219/219/1
f 227/222/6 216/218/6 220/224/6 221/226/6
f 216/218/6 223/227/6 222/225/6 220/224/6
f 222/225/4 223/227/4 215/217/4 218/223/4
f 224/228/6 223/227/6 216/218/6 212/214/6
f 211/213/4 215/217/4 223/227/4 224/228/4
f 212/214/6 209/209/6 225/212/6 224/228/6
f 225/212/4 208/211/4 211/213/4 224/228/4
f 228/229/6 227/222/6 221/226/6 226/230/6
f 226/230/1 221/226/1 219/219/1 232/231/1
f 229/215/6 227/222/6 228/229/6 230/205/6
f 229/215/4 206/207/4 214/221/4 227/222/4
f 230/205/6 202/201/6 205/204/6 229/215/6
f 229/215/6 205/204/6 209/209/6 212/214/6
f 230/205/2 228/229/2 231/232/2 203/206/2
f 228/229/2 226/230/2 232/231/2 231/232/2
f 232/231/3 219/219/3 214/221/3 231/232/3
f 203/206/3 231/232/3 214/221/3 206/207/3
f 237/233/1 236/234/1 233/235/1 234/236/1
f 234/236/2 233/235/2 235/237/2 240/238/2
f 233/235/3 236/234/3 238/239/3 235/237/3
f 239/240/4 238/239/4 236/234/4 237/233/4
f 240/238/5 235/237/5 238/239/5 239/240/5
f 237/233/6 234/236/6 240/238/6 239/240/6
f 245/241/1 244/242/1 241/243/1 242/244/1
f 242/244/2 241/243/2 243/245/2 248/246/2
f 241/243/3 244/242/3 246/247/3 243/245/3
f 247/248/4 246/247/4 244/242/4 245/241/4
f 248/246/5 243/245/5 246/247/5 247/248/5
f 245/241/6 242/244/6 248/246/6 247/248/6
f 253/249/1 252/250/1 249/251/1 250/252/1
f 250/252/2 249/251/2 251/253/2 256/254/2
f 249/251/3 252/250/3 254/255/3 251/253/3
f 255/256/4 254/255/4 252/250/4 253/249/4
f 256/254/5 251/253/5 254/255/5 255/256/5
f 253/249/6 250/252/6 256/254/6 255/256/6
f 261/257/1 260/258/1 257/259/1 258/260/1
f 258/260/2 257/259/2 259/261/2 264/262/2
f 257/259/3 260/258/3 262/263/3 259/261/3
f 263/264/4 262/263/4 260/258/4 261/257/4
f 264/262/5 259/261/5 262/263/5 263/264/5
f 261/257/6 258/260/6 264/262/6 263/264/6
f 269/265/1 268/266/1 265/267/1 266/268/1
f 266/268/2 265/267/2 267/269/2 272/270/2
f 265/267/3 268/266/3 270/271/3 267/269/3
f 271/272/4 270/271/4 268/266/4 269/265/4
f 272/270/5 267/269/5 270/271/5 271/272/5
f 269/265/6 266/268/6 272/270/6 271/272/6
f 273/273/31 274/274/31 278/275/31 277/276/31
f 273/273/32 275/277/32 293/278/32 274/274/32
f 276/279/33 286/280/33 275/277/33 273/273/33
f 276/279/34 273/273/34 277/276/34 279/281/34
f 277/276/2 278/275/2 400/282/2 398/283/2 397/284/2 396/285/2 395/286/2 393/287/2 392/288/2 391/289/2 390/290/2 388/291/2 387/292/2 386/293/2 385/294/2 383/295/2 382/296/2 381/297/2 380/298/2 378/299/2 377/300/2 376/301/2 375/302/2 373/303/2 372/304/2 371/305/2 370/306/2 369/307/2 368/308/2 281/309/2 280/310/2 279/281/2
f 282/311/35 276/279/35 279/281/35 280/310/35
f 283/312/36 282/311/36 280/310/36 281/309/36
f 283/312/37 285/313/37 284/314/37 282/311/37
f 282/311/38 284/314/38 286/280/38 276/279/38
f 284/314/39 285/313/39 288/315/39 287/316/39
f 286/280/40 284/314/40 287/316/40 289/317/40
f 291/318/4 290/319/4 289/317/4 287/316/4 288/315/4 366/320/4 365/321/4 357/322/4 356/323/4 355/324/4 354/325/4 346/326/4 345/327/4 344/328/4 343/329/4 335/330/4 334/331/4 333/332/4 332/333/4 324/334/4 323/335/4 322/336/4 321/337/4 313/338/4 312/339/4 311/340/4 310/341/4 302/342/4 301/343/4 300/344/4 299/345/4 292/346/4
f 275/277/41 286/280/41 289/317/41 290/319/41
f 293/278/42 275/277/42 290/319/42 291/318/42
f 294/347/43 293/278/43 291/318/43 292/346/43
f 274/274/44 293/278/44 294/347/44 295/348/44
f 295/348/45 294/347/45 296/349/45 297/350/45
f 296/349/46 294/347/46 292/346/46 299/345/46
f 297/350/47 296/349/47 298/351/47 399/352/47
f 298/351/48 296/349/48 299/345/48 300/344/48
f 303/353/49 298/351/49 300/344/49 301/343/49
f 305/354/50 303/353/50 301/343/50 302/342/50
f 399/352/51 298/351/51 303/353/51 304/355/51
f 304/355/52 303/353/52 305/354/52 306/356/52
f 306/356/53 305/354/53 307/357/53 308/358/53
f 307/357/54 305/354/54 302/342/54 310/341/54
f 308/358/55 307/357/55 309/359/55 394/360/55
f 309/359/56 307/357/56 310/341/56 311/340/56
f 314/361/57 309/359/57 311/340/57 312/339/57
f 316/362/58 314/361/58 312/339/58 313/338/58
f 394/360/59 309/359/59 314/361/59 315/363/59
f 315/363/60 314/361/60 316/362/60 317/364/60
f 317/364/61 316/362/61 318/365/61 319/366/61
f 318/365/62 316/362/62 313/338/62 321/337/62
f 319/366/63 318/365/63 320/367/63 389/368/63
f 320/367/64 318/365/64 321/337/64 322/336/64
f 325/369/65 320/367/65 322/336/65 323/335/65
f 327/370/66 325/369/66 323/335/66 324/334/66
f 389/368/67 320/367/67 325/369/67 326/371/67
f 326/371/68 325/369/68 327/370/68 328/372/68
f 328/372/69 327/370/69 329/373/69 330/374/69
f 329/373/70 327/370/70 324/334/70 332/333/70
f 330/374/71 329/373/71 331/375/71 384/376/71
f 331/375/72 329/373/72 332/333/72 333/332/72
f 336/377/73 331/375/73 333/332/73 334/331/73
f 338/378/74 336/377/74 334/331/74 335/330/74
f 384/376/75 331/375/75 336/377/75 337/379/75
f 337/379/76 336/377/76 338/378/76 339/380/76
f 339/380/77 338/378/77 340/381/77 341/382/77
f 340/381/78 338/378/78 335/330/78 343/329/78
f 341/382/79 340/381/79 342/383/79 379/384/79
f 342/383/80 340/381/80 343/329/80 344/328/80
f 347/385/81 342/383/81 344/328/81 345/327/81
f 349/386/82 347/385/82 345/327/82 346/326/82
f 379/384/83 342/383/83 347/385/83 348/387/83
f 348/387/84 347/385/84 349/386/84 350/388/84
f 350/388/85 349/386/85 351/389/85 352/390/85
f 351/389/86 349/386/86 346/326/86 354/325/86
f 352/390/87 351/389/87 353/391/87 374/392/87
f 353/391/88 351/389/88 354/325/88 355/324/88
f 358/393/89 353/391/89 355/324/89 356/323/89
f 360/394/90 358/393/90 356/323/90 357/322/90
f 374/392/91 353/391/91 358/393/91 359/395/91
f 359/395/92 358/393/92 360/394/92 361/396/92
f 361/396/93 360/394/93 362/397/93 363/398/93
f 362/397/94 360/394/94 357/322/94 365/321/94
f 363/398/95 362/397/95 364/399/95 367/400/95
f 364/399/96 362/397/96 365/321/96 366/320/96
f 285/313/97 364/399/97 366/320/97 288/315/97
f 367/400/98 364/399/98 285/313/98 283/312/98
f 363/398/99 367/400/99 368/308/99 369/307/99
f 367/400/100 283/312/100 281/309/100 368/308/100
f 361/396/101 363/398/101 369/307/101 370/306/101
f 359/395/102 361/396/102 370/306/102 371/305/102
f 374/392/103 359/395/103 371/305/103 372/304/103
f 352/390/104 374/392/104 372/304/104 373/303/104
f 350/388/105 352/390/105 373/303/105 375/302/105
f 348/387/106 350/388/106 375/302/106 376/301/106
f 379/384/107 348/387/107 376/301/107 377/300/107
f 341/382/108 379/384/108 377/300/108 378/299/108
f 339/380/109 341/382/109 378/299/109 380/298/109
f 337/379/110 339/380/110 380/298/110 381/297/110
f 384/376/111 337/379/111 381/297/111 382/296/111
f 330/374/112 384/376/112 382/296/112 383/295/112
f 328/372/113 330/374/113 383/295/113 385/294/113
f 326/371/114 328/372/114 385/294/114 386/293/114
f 389/368/115 326/371/115 386/293/115 387/292/115
f 319/366/116 389/368/116 387/292/116 388/291/116
f 317/364/117 319/366/117 388/291/117 390/290/117
f 315/363/118 317/364/118 390/290/118 391/289/118
f 394/360/119 315/363/119 391/289/119 392/288/119
f 308/358/120 394/360/120 392/288/120 393/287/120
f 306/356/121 308/358/121 393/287/121 395/286/121
f 304/355/122 306/356/122 395/286/122 396/285/122
f 399/352/123 304/355/123 396/285/123 397/284/123
f 297/350/124 399/352/124 397/284/124 398/283/124
f 295/348/125 297/350/125 398/283/125 400/282/125
f 274/274/126 295/348/126 400/282/126 278/275/126
f 401/401/1 402/402/1 461/403/1 460/404/1 459/405/1 458/406/1 453/407/1 452/408/1 451/409/1 450/410/1 445/411/1 444/412/1 443/413/1 442/414/1 437/415/1 436/416/1 435/417/1 434/418/1 429/419/1 428/420/1 427/421/1 426/422/1 421/423/1 420/424/1 419/425/1 418/426/1 413/427/1 412/428/1 411/429/1 410/430/1 405/431/1 404/432/1
f 401/401/127 403/433/127 464/434/127 402/402/127
f 404/432/128 406/435/128 403/433/128 401/401/128
f 405/431/129 407/436/129 406/435/129 404/432/129
f 464/434/5 403/433/5 406/435/5 407/436/5 408/437/5 409/438/5 414/439/5 415/440/5 416/441/5 417/442/5 422/443/5 423/444/5 424/445/5 425/446/5 430/447/5 431/448/5 432/449/5 433/450/5 438/451/5 439/452/5 440/453/5 441/454/5 446/455/5 447/456/5 448/457/5 449/458/5 454/459/5 455/460/5 456/461/5 457/462/5 462/463/5 463/464/5
f 410/430/130 408/437/130 407/436/130 405/431/130
f 411/429/131 409/438/131 408/437/131 410/430/131
f 412/428/132 414/439/132 409/438/132 411/429/132
f 413/427/133 415/440/133 414/439/133 412/428/133
f 418/426/134 416/441/134 415/440/134 413/427/134
f 419/425/135 417/442/135 416/441/135 418/426/135
f 420/424/136 422/443/136 417/442/136 419/425/136
f 421/423/137 423/444/137 422/443/137 420/424/137
f 426/422/138 424/445/138 423/444/138 421/423/138
f 427/421/139 425/446/139 424/445/139 426/422/139
f 428/420/140 430/447/140 425/446/140 427/421/140
f 429/419/141 431/448/141 430/447/141 428/420/141
f 434/418/142 432/449/142 431/448/142 429/419/142
f 435/417/143 433/450/143 432/449/143 434/418/143
f 436/416/144 438/451/144 433/450/144 435/417/144
f 437/415/145 439/452/145 438/451/145 436/416/145
f 442/414/146 440/453/146 439/452/146 437/415/146
f 443/413/147 441/454/147 440/453/147 442/414/147
f 444/412/148 446/455/148 441/454/148 443/413/148
f 445/411/149 447/456/149 446/455/149 444/412/149
f 450/410/150 448/457/150 447/456/150 445/411/150
f 451/409/151 449/458/151 448/457/151 450/410/151
f 452/408/152 454/459/152 449/458/152 451/409/152
f 453/407/153 455/460/153 454/459/153 452/408/153
f 458/406/154 456/461/154 455/460/154 453/407/154
f 459/405/155 457/462/155 456/461/155 458/406/155
f 460/404/156 462/463/156 457/462/156 459/405/156
f 461/403/157 463/464/157 462/463/157 460/404/157
f 402/402/158 464/434/158 463/464/158 461/403/158
f 465/465/1 466/466/1 525/467/1 524/468/1 523/469/1 522/470/1 517/471/1 516/472/1 515/473/1 514/474/1 509/475/1 508/476/1 507/477/1 506/478/1 501/479/1 500/480/1 499/481/1 498/482/1 493/483/1 492/484/1 491/485/1 490/486/1 485/487/1 484/488/1 483/489/1 482/490/1 477/491/1 476/492/1 475/493/1 474/494/1 469/495/1 468/496/1
f 465/465/127 467/497/127 528/498/127 466/466/127
f 468/496/128 470/499/128 467/497/128 465/465/128
f 469/495/129 471/500/129 470/499/129 468/496/129
f 528/498/5 467/497/5 470/499/5 471/500/5 472/501/5 473/502/5 478/503/5 479/504/5 480/505/5 481/506/5 486/507/5 487/508/5 488/509/5 489/510/5 494/511/5 495/512/5 496/513/5 497/514/5 502/515/5 503/516/5 504/517/5 505/518/5 510/519/5 511/520/5 512/521/5 513/522/5 518/523/5 519/524/5 520/525/5 521/526/5 526/527/5 527/528/5
f 474/494/130 472/501/130 471/500/130 469/495/130
f 475/493/131 473/502/131 472/501/131 474/494/131
f 476/492/132 478/503/132 473/502/132 475/493/132
f 477/491/133 479/504/133 478/503/133 476/492/133
f 482/490/134 480/505/134 479/504/134 477/491/134
f 483/489/135 481/506/135 480/505/135 482/490/135
f 484/488/136 486/507/136 481/506/136 483/489/136
f 485/487/137 487/508/137 486/507/137 484/488/137
f 490/486/138 488/509/138 487/508/138 485/487/138
f 491/485/139 489/510/139 488/509/139 490/486/139
f 492/484/140 494/511/140 489/510/140 491/485/140
f 493/483/141 495/512/141 494/511/141 492/484/141
f 498/482/142 496/513/142 495/512/142 493/483/142
f 499/481/143 497/514/143 496/513/143 498/482/143
f 500/480/144 502/515/144 497/514/144 499/481/144
f 501/479/145 503/516/145 502/515/145 500/480/145
f 506/478/146 504/517/146 503/516/146 501/479/146
f 507/477/147 505/518/147 504/517/147 506/478/147
f 508/476/148 510/519/148 505/518/148 507/477/148
f 509/475/149 511/520/149 510/519/149 508/476/149
f 514/474/150 512/521/150 511/520/150 509/475/150
f 515/473/151 513/522/151 512/521/151 514/474/151
f 516/472/152 518/523/152 513/522/152 515/473/152
f 517/471/153 519/524/153 518/523/153 516/472/153
f 522/470/154 520/525/154 519/524/154 517/471/154
f 523/469/155 521/526/155 520/525/155 522/470/155
f 524/468/156 526/527/156 521/526/156 523/469/156
f 525/467/157 527/528/157 526/527/157 524/468/157
f 466/466/158 528/498/158 527/528/158 525/467/158
f 529/529/1 530/530/1 589/531/1 588/532/1 587/533/1 586/534/1 581/535/1 580/536/1 579/537/1 578/538/1 573/539/1 572/540/1 571/541/1 570/542/1 565/543/1 564/544/1 563/545/1 562/546/1 557/547/1 556/548/1 555/549/1 554/550/1 549/551/1 548/552/1 547/553/1 546/554/1 541/555/1 540/556/1 539/557/1 538/558/1 533/559/1 532/560/1
f 529/529/127 531/561/127 592/562/127 530/530/127
f 532/560/128 534/563/128 531/561/128 529/529/128
f 533/559/129 535/564/129 534/563/129 532/560/129
f 592/562/5 531/561/5 534/563/5 535/564/5 536/565/5 537/566/5 542/567/5 543/568/5 544/569/5 545/570/5 550/571/5 551/572/5 552/573/5 553/574/5 558/575/5 559/576/5 560/577/5 561/578/5 566/579/5 567/580/5 568/581/5 569/582/5 574/583/5 575/584/5 576/585/5 577/586/5 582/587/5 583/588/5 584/589/5 585/590/5 590/591/5 591/592/5
f 538/558/130 536/565/130 535/564/130 533/559/130
f 539/557/131 537/566/131 536/565/131 538/558/131
f 540/556/132 542/567/132 537/566/132 539/557/132
f 541/555/133 543/568/133 542/567/133 540/556/133
f 546/554/134 544/569/134 543/568/134 541/555/134
f 547/553/135 545/570/135 544/569/135 546/554/135
f 548/552/136 550/571/136 545/570/136 547/553/136
f 549/551/137 551/572/137 550/571/137 548/552/137
f 554/550/138 552/573/138 551/572/138 549/551/138
f 555/549/139 553/574/139 552/573/139 554/550/139
f 556/548/140 558/575/140 553/574/140 555/549/140
f 557/547/141 559/576/141 558/575/141 556/548/141
f 562/546/142 560/577/142 559/576/142 557/547/142
f 563/545/143 561/578/143 560/577/143 562/546/143
f 564/544/144 566/579/144 561/578/144 563/545/144
f 565/543/145 567/580/145 566/579/145 564/544/145
f 570/542/146 568/581/146 567/580/146 565/543/146
f 571/541/147 569/582/147 568/581/147 570/542/147
f 572/540/148 574/583/148 569/582/148 571/541/148
f 573/539/149 575/584/149 574/583/149 572/540/149
f 578/538/150 576/585/150 575/584/150 573/539/150
f 579/537/151 577/586/151 576/585/151 578/538/151
f 580/536/152 582/587/152 577/586/152 579/537/152
f 581/535/153 583/588/153 582/587/153 580/536/153
f 586/534/154 584/589/154 583/588/154 581/535/154
f 587/533/155 585/590/155 584/589/155 586/534/155
f 588/532/156 590/591/156 585/590/156 587/533/156
f 589/531/157 591/592/157 590/591/157 588/532/157
f 530/530/158 592/562/158 591/592/158 589/531/158
f 593/593/1 594/594/1 653/595/1 652/596/1 651/597/1 650/598/1 645/599/1 644/600/1 643/601/1 642/602/1 637/603/1 636/604/1 635/605/1 634/606/1 629/607/1 628/608/1 627/609/1 626/610/1 621/611/1 620/612/1 619/613/1 618/614/1 613/615/1 612/616/1 611/617/1 610/618/1 605/619/1 604/620/1 603/621/1 602/622/1 597/623/1 596/624/1
f 593/593/127 595/625/127 656/626/127 594/594/127
f 596/624/128 598/627/128 595/625/128 593/593/128
f 597/623/129 599/628/129 598/627/129 596/624/129
f 656/626/5 595/625/5 598/627/5 599/628/5 600/629/5 601/630/5 606/631/5 607/632/5 608/633/5 609/634/5 614/635/5 615/636/5 616/637/5 617/638/5 622/639/5 623/640/5 624/641/5 625/642/5 630/643/5 631/644/5 632/645/5 633/646/5 638/647/5 639/648/5 640/649/5 641/650/5 646/651/5 647/652/5 648/653/5 649/654/5 654/655/5 655/656/5
f 602/622/130 600/629/130 599/628/130 597/623/130
f 603/621/131 601/630/131 600/629/131 602/622/131
f 604/620/132 606/631/132 601/630/132 603/621/132
f 605/619/133 607/632/133 606/631/133 604/620/133
f 610/618/134 608/633/134 607/632/134 605/619/134
f 611/617/135 609/634/135 608/633/135 610/618/135
f 612/616/136 614/635/136 609/634/136 611/617/136
f 613/615/137 615/636/137 614/635/137 612/616/137
f 618/614/138 616/637/138 615/636/138 613/615/138
f 619/613/139 617/638/139 616/637/139 618/614/139
f 620/612/140 622/639/140 617/638/140 619/613/140
f 621/611/141 623/640/141 622/639/141 620/612/141
f 626/610/142 624/641/142 623/640/142 621/611/142
f 627/609/143 625/642/143 624/641/143 626/610/143
f 628/608/144 630/643/144 625/642/144 627/609/144
f 629/607/145 631/644/145 630/643/145 628/608/145
f 634/606/146 632/645/146 631/644/146 629/607/146
f 635/605/147 633/646/147 632/645/147 634/606/147
f 636/604/148 638/647/148 633/646/148 635/605/148
f 637/603/149 639/648/149 638/647/149 636/604/149
f 642/602/150 640/649/150 639/648/150 637/603/150
f 643/601/151 641/650/151 640/649/151 642/602/151
f 644/600/152 646/651/152 641/650/152 643/601/152
f 645/599/153 647/652/153 646/651/153 644/600/153
f 650/598/154 648/653/154 647/652/154 645/599/154
f 651/597/155 649/654/155 648/653/155 650/598/155
f 652/596/156 654/655/156 649/654/156 651/597/156
f 653/595/157 655/656/157 654/655/157 652/596/157
f 594/594/158 656/626/158 655/656/158 653/595/158
f 657/657/34 661/658/34 662/659/34 658/660/34
f 657/657/33 658/660/33 677/661/33 659/662/33
f 660/663/32 657/657/32 659/662/32 670/664/32
f 660/663/31 663/665/31 661/658/31 657/657/31
f 661/658/2 663/665/2 664/666/2 665/667/2 752/668/2 753/669/2 754/670/2 755/671/2 756/672/2 757/673/2 759/674/2 760/675/2 761/676/2 762/677/2 764/678/2 765/679/2 766/680/2 767/681/2 769/682/2 770/683/2 771/684/2 772/685/2 774/686/2 775/687/2 776/688/2 777/689/2 779/690/2 780/691/2 781/692/2 782/693/2 784/694/2 662/659/2
f 666/695/126 664/666/126 663/665/126 660/663/126
f 667/696/125 665/667/125 664/666/125 666/695/125
f 667/696/45 666/695/45 668/697/45 669/698/45
f 666/695/44 660/663/44 670/664/44 668/697/44
f 668/697/46 671/699/46 672/700/46 669/698/46
f 670/664/43 673/701/43 671/699/43 668/697/43
f 675/702/4 676/703/4 683/704/4 684/705/4 685/706/4 686/707/4 694/708/4 695/709/4 696/710/4 697/711/4 705/712/4 706/713/4 707/714/4 708/715/4 716/716/4 717/717/4 718/718/4 719/719/4 727/720/4 728/721/4 729/722/4 730/723/4 738/724/4 739/725/4 740/726/4 741/727/4 749/728/4 750/729/4 672/700/4 671/699/4 673/701/4 674/730/4
f 659/662/42 674/730/42 673/701/42 670/664/42
f 677/661/41 675/702/41 674/730/41 659/662/41
f 678/731/40 676/703/40 675/702/40 677/661/40
f 658/660/38 679/732/38 678/731/38 677/661/38
f 679/732/37 681/733/37 680/734/37 678/731/37
f 680/734/39 683/704/39 676/703/39 678/731/39
f 681/733/98 783/735/98 682/736/98 680/734/98
f 682/736/97 684/705/97 683/704/97 680/734/97
f 687/737/96 685/706/96 684/705/96 682/736/96
f 689/738/94 686/707/94 685/706/94 687/737/94
f 783/735/95 688/739/95 687/737/95 682/736/95
f 688/739/93 690/740/93 689/738/93 687/737/93
f 690/740/159 692/741/159 691/742/159 689/738/159
f 691/742/90 694/708/90 686/707/90 689/738/90
f 692/741/91 778/743/91 693/744/91 691/742/91
f 693/744/89 695/709/89 694/708/89 691/742/89
f 698/745/88 696/710/88 695/709/88 693/744/88
f 700/746/86 697/711/86 696/710/86 698/745/86
f 778/743/87 699/747/87 698/745/87 693/744/87
f 699/747/160 701/748/160 700/746/160 698/745/160
f 701/748/84 703/749/84 702/750/84 700/746/84
f 702/750/82 705/712/82 697/711/82 700/746/82
f 703/749/83 773/751/83 704/752/83 702/750/83
f 704/752/81 706/713/81 705/712/81 702/750/81
f 709/753/161 707/714/161 706/713/161 704/752/161
f 711/754/78 708/715/78 707/714/78 709/753/78
f 773/751/79 710/755/79 709/753/79 704/752/79
f 710/755/77 712/756/77 711/754/77 709/753/77
f 712/756/76 714/757/76 713/758/76 711/754/76
f 713/758/74 716/716/74 708/715/74 711/754/74
f 714/757/162 768/759/162 715/760/162 713/758/162
f 715/760/73 717/717/73 716/716/73 713/758/73
f 720/761/72 718/718/72 717/717/72 715/760/72
f 722/762/70 719/719/70 718/718/70 720/761/70
f 768/759/163 721/763/163 720/761/163 715/760/163
f 721/763/69 723/764/69 722/762/69 720/761/69
f 723/764/68 725/765/68 724/766/68 722/762/68
f 724/766/66 727/720/66 719/719/66 722/762/66
f 725/765/67 763/767/67 726/768/67 724/766/67
f 726/768/65 728/721/65 727/720/65 724/766/65
f 731/769/64 729/722/64 728/721/64 726/768/64
f 733/770/62 730/723/62 729/722/62 731/769/62
f 763/767/63 732/771/63 731/769/63 726/768/63
f 732/771/61 734/772/61 733/770/61 731/769/61
f 734/772/164 736/773/164 735/774/164 733/770/164
f 735/774/58 738/724/58 730/723/58 733/770/58
f 736/773/59 758/775/59 737/776/59 735/774/59
f 737/776/57 739/725/57 738/724/57 735/774/57
f 742/777/56 740/726/56 739/725/56 737/776/56
f 744/778/54 741/727/54 740/726/54 742/777/54
f 758/775/55 743/779/55 742/777/55 737/776/55
f 743/779/165 745/780/165 744/778/165 742/777/165
f 745/780/52 747/781/52 746/782/52 744/778/52
f 746/782/50 749/728/50 741/727/50 744/778/50
f 747/781/51 751/783/51 748/784/51 746/782/51
f 748/784/166 750/729/166 749/728/166 746/782/166
f 669/698/48 672/700/48 750/729/48 748/784/48
f 751/783/47 667/696/47 669/698/47 748/784/47
f 747/781/123 753/669/123 752/668/123 751/783/123
f 751/783/124 752/668/124 665/667/124 667/696/124
f 745/780/122 754/670/122 753/669/122 747/781/122
f 743/779/121 755/671/121 754/670/121 745/780/121
f 758/775/120 756/672/120 755/671/120 743/779/120
f 736/773/119 757/673/119 756/672/119 758/775/119
f 734/772/118 759/674/118 757/673/118 736/773/118
f 732/771/117 760/675/117 759/674/117 734/772/117
f 763/767/116 761/676/116 760/675/116 732/771/116
f 725/765/115 762/677/115 761/676/115 763/767/115
f 723/764/114 764/678/114 762/677/114 725/765/114
f 721/763/113 765/679/113 764/678/113 723/764/113
f 768/759/112 766/680/112 765/679/112 721/763/112
f 714/757/111 767/681/111 766/680/111 768/759/111
f 712/756/110 769/682/110 767/681/110 714/757/110
f 710/755/109 770/683/109 769/682/109 712/756/109
f 773/751/108 771/684/108 770/683/108 710/755/108
f 703/749/107 772/685/107 771/684/107 773/751/107
f 701/748/106 774/686/106 772/685/106 703/749/106
f 699/747/105 775/687/105 774/686/105 701/748/105
f 778/743/104 776/688/104 775/687/104 699/747/104
f 692/741/103 777/689/103 776/688/103 778/743/103
f 690/740/102 779/690/102 777/689/102 692/741/102
f 688/739/101 780/691/101 779/690/101 690/740/101
f 783/735/99 781/692/99 780/691/99 688/739/99
f 681/733/100 782/693/100 781/692/100 783/735/100
f 679/732/36 784/694/36 782/693/36 681/733/36
f 658/660/35 662/659/35 784/694/35 679/732/35
f 786/785/2 792/786/2 787/787/2 785/788/2
f 789/789/5 786/785/5 785/788/5 788/790/5
f 785/788/3 787/787/3 790/791/3 788/790/3
f 791/792/4 789/789/4 788/790/4 790/791/4
f 792/786/1 791/792/1 790/791/1 787/787/1
f 789/789/6 791/792/6 792/786/6 786/785/6
f 794/793/4 800/794/4 795/795/4 793/796/4
f 797/797/1 794/793/1 793/796/1 796/798/1
f 793/796/3 795/795/3 798/799/3 796/798/3
f 799/800/2 797/797/2 796/798/2 798/799/2
f 800/794/5 799/800/5 798/799/5 795/795/5
f 797/797/6 799/800/6 800/794/6 794/793/6
f 805/801/2 804/802/2 801/803/2 802/804/2
f 802/804/5 801/803/5 803/805/5 808/806/5
f 801/803/3 804/802/3 806/807/3 803/805/3
f 807/808/1 806/807/1 804/802/1 805/801/1
f 808/806/4 803/805/4 806/807/4 807/808/4
f 805/801/6 802/804/6 808/806/6 807/808/6
f 810/809/2 816/810/2 811/811/2 809/812/2
f 813/813/5 810/809/5 809/812/5 812/814/5
f 809/812/3 811/811/3 814/815/3 812/814/3
f 815/816/4 813/813/4 812/814/4 814/815/4
f 816/810/1 815/816/1 814/815/1 811/811/1
f 813/813/6 815/816/6 816/810/6 810/809/6
f 821/817/2 818/818/2 817/819/2 820/820/2
f 818/818/1 824/821/1 819/822/1 817/819/1
f 817/819/3 819/822/3 822/823/3 820/820/3
f 823/824/5 821/817/5 820/820/5 822/823/5
f 824/821/4 823/824/4 822/823/4 819/822/4
f 821/817/6 823/824/6 824/821/6 818/818/6
f 826/825/5 825/826/5 827/827/5 832/828/5
f 829/829/2 828/830/2 825/826/2 826/825/2
f 825/826/3 828/830/3 830/831/3 827/827/3
f 831/832/1 830/831/1 828/830/1 829/829/1
f 832/828/4 827/827/4 830/831/4 831/832/4
f 829/829/6 826/825/6 832/828/6 831/832/6
f 834/833/5 833/834/5 835/835/5 840/836/5
f 837/837/2 836/838/2 833/834/2 834/833/2
f 833/834/3 836/838/3 838/839/3 835/835/3
f 839/840/1 838/839/1 836/838/1 837/837/1
f 840/836/4 835/835/4 838/839/4 839/840/4
f 837/837/6 834/833/6 840/836/6 839/840/6
f 842/841/5 841/842/5 843/843/5 848/844/5
f 845/845/2 844/846/2 841/842/2 842/841/2
f 841/842/3 844/846/3 846/847/3 843/843/3
f 847/848/1 846/847/1 844/846/1 845/845/1
f 848/844/4 843/843/4 846/847/4 847/848/4
f 845/845/6 842/841/6 848/844/6 847/848/6
f 850/849/5 849/850/5 851/851/5 856/852/5
f 853/853/2 852/854/2 849/850/2 850/849/2
f 849/850/3 852/854/3 854/855/3 851/851/3
f 855/856/1 854/855/1 852/854/1 853/853/1
f 856/852/4 851/851/4 854/855/4 855/856/4
f 853/853/6 850/849/6 856/852/6 855/856/6
f 858/857/5 857/858/5 859/859/5 864/860/5
f 861/861/2 860/862/2 857/858/2 858/857/2
f 857/858/3 860/862/3 862/863/3 859/859/3
f 863/864/1 862/863/1 860/862/1 861/861/1
f 864/860/4 859/859/4 862/863/4 863/864/4
f 861/861/6 858/857/6 864/860/6 863/864/6
f 866/865/5 865/866/5 867/867/5 872/868/5
f 869/869/2 868/870/2 865/866/2 866/865/2
f 865/866/3 868/870/3 870/871/3 867/867/3
f 871/872/1 870/871/1 868/870/1 869/869/1
f 872/868/4 867/867/4 870/871/4 871/872/4
f 869/869/6 866/865/6 872/868/6 871/872/6
f 877/873/1 876/874/1 873/875/1 874/876/1
f 874/876/2 873/875/2 875/877/2 880/878/2
f 873/875/3 876/874/3 878/879/3 875/877/3
f 879/880/4 878/879/4 876/874/4 877/873/4
f 880/878/5 875/877/5 878/879/5 879/880/5
f 877/873/6 874/876/6 880/878/6 879/880/6
f 885/881/5 882/882/5 881/883/5 884/884/5
f 882/882/2 888/885/2 883/886/2 881/883/2
f 881/883/3 883/886/3 886/887/3 884/884/3
f 887/888/4 885/881/4 884/884/4 886/887/4
f 888/885/1 887/888/1 886/887/1 883/886/1
f 885/881/6 887/888/6 888/885/6 882/882/6
