# Blender 4.4.3
# www.blender.org
mtllib BigBucket.mtl
o Cube
v -26.989868 -3.826548 -3.533095
v -26.989868 -3.826548 -6.520347
v -21.256090 -3.826548 -3.533095
v -21.256090 -3.826548 -6.520347
v -27.070595 -3.779010 -6.562406
v -27.070595 -3.779010 -3.491037
v -21.175362 -3.779010 -6.562406
v -21.175362 -3.779010 -3.491037
v -27.054962 -3.281824 -6.554261
v -27.054962 -3.281825 -3.499181
v -21.190994 -3.281824 -6.554261
v -21.190994 -3.281824 -3.499181
v -21.912560 -3.824059 -6.519383
v -22.544107 -3.824059 -6.519383
v -23.175655 -3.824059 -6.519383
v -23.807205 -3.824059 -6.519383
v -24.438753 -3.824059 -6.519383
v -25.070301 -3.824059 -6.519383
v -25.701849 -3.824059 -6.519383
v -26.333397 -3.824059 -6.519383
v -25.667994 -6.633753 -6.475615
v -25.049988 -6.633753 -6.475615
v -23.195969 -6.633753 -6.475615
v -22.577963 -6.633753 -6.475615
v -26.333397 -3.824059 -3.534059
v -25.701849 -3.824059 -3.534059
v -25.070301 -3.824059 -3.534059
v -24.438753 -3.824059 -3.534059
v -23.807205 -3.824059 -3.534059
v -23.175655 -3.824059 -3.534059
v -22.544107 -3.824059 -3.534059
v -21.912560 -3.824059 -3.534059
v -22.577963 -6.633753 -3.577828
v -23.195971 -6.633753 -3.577828
v -25.049988 -6.633753 -3.577828
v -25.667995 -6.633753 -3.577828
v -21.888861 -3.781266 -6.590631
v -22.527180 -3.781266 -6.590631
v -23.165499 -3.781266 -6.590631
v -23.803820 -3.781266 -6.590631
v -24.442139 -3.781266 -6.590631
v -25.080458 -3.781266 -6.590631
v -25.718777 -3.781266 -6.590631
v -26.357096 -3.781266 -6.590631
v -26.357096 -3.781266 -3.462811
v -25.718777 -3.781266 -3.462811
v -25.080458 -3.781266 -3.462811
v -24.442139 -3.781266 -3.462811
v -23.803820 -3.781266 -3.462811
v -23.165499 -3.781266 -3.462811
v -22.527180 -3.781266 -3.462811
v -21.888861 -3.781266 -3.462811
v -21.888861 -3.267981 -6.565950
v -22.527180 -3.267981 -6.565950
v -23.165499 -3.267981 -6.565950
v -23.803820 -3.267981 -6.565950
v -24.442139 -3.267981 -6.565950
v -25.080458 -3.267981 -6.565950
v -25.718777 -3.267981 -6.565950
v -26.357096 -3.267981 -6.565950
v -26.357096 -3.267981 -3.487493
v -25.718777 -3.267981 -3.487493
v -25.080458 -3.267981 -3.487493
v -24.442139 -3.267981 -3.487493
v -23.803820 -3.267981 -3.487493
v -23.165499 -3.267981 -3.487493
v -22.527180 -3.267981 -3.487493
v -21.888861 -3.267981 -3.487493
v -26.988018 -3.824059 -5.915106
v -26.988018 -3.824059 -5.322850
v -26.988018 -3.824059 -4.730593
v -26.988018 -3.824059 -4.138336
v -26.904007 -6.633753 -4.736942
v -26.904007 -6.633753 -5.316500
v -21.257938 -3.824059 -4.138336
v -21.257938 -3.824059 -4.730593
v -21.257938 -3.824059 -5.322850
v -21.257938 -3.824059 -5.915106
v -21.341951 -6.633753 -5.316500
v -21.341951 -6.633753 -4.736942
v -27.124773 -3.781266 -5.924631
v -27.124773 -3.781266 -5.326025
v -27.124773 -3.781266 -4.727418
v -27.124773 -3.781266 -4.128811
v -21.121185 -3.781266 -4.128811
v -21.121185 -3.781266 -4.727418
v -21.121185 -3.781266 -5.326025
v -21.121185 -3.781266 -5.924631
v -27.077398 -3.267981 -5.924631
v -27.077398 -3.267981 -5.326025
v -27.077398 -3.267981 -4.727418
v -27.077398 -3.267981 -4.128811
v -21.168560 -3.267981 -4.128811
v -21.168560 -3.267981 -4.727418
v -21.168560 -3.267981 -5.326025
v -21.168560 -3.267981 -5.924631
v -26.357096 -3.233035 -5.924631
v -26.357096 -3.233035 -5.326025
v -26.357096 -3.233035 -4.727418
v -26.357096 -3.233035 -4.128811
v -25.718777 -3.233035 -5.924631
v -25.718777 -3.233035 -5.326025
v -25.718777 -3.233035 -4.727418
v -25.718777 -3.233035 -4.128811
v -25.080458 -3.233035 -5.924631
v -25.080458 -3.233035 -5.326025
v -25.080458 -3.233035 -4.727418
v -25.080458 -3.233035 -4.128811
v -24.442139 -3.233035 -5.924631
v -24.442139 -3.233035 -5.326025
v -24.442139 -3.233035 -4.727418
v -24.442139 -3.233035 -4.128811
v -23.803820 -3.233035 -5.924631
v -23.803820 -3.233035 -5.326025
v -23.803820 -3.233035 -4.727418
v -23.803820 -3.233035 -4.128811
v -23.165499 -3.233035 -5.924631
v -23.165499 -3.233035 -5.326025
v -23.165499 -3.233035 -4.727418
v -23.165499 -3.233035 -4.128811
v -22.527180 -3.233035 -5.924631
v -22.527180 -3.233035 -5.326025
v -22.527180 -3.233035 -4.727418
v -22.527180 -3.233035 -4.128811
v -21.888861 -3.233035 -5.924631
v -21.888861 -3.233035 -5.326025
v -21.888861 -3.233035 -4.727418
v -21.888861 -3.233035 -4.128811
v -21.959957 -6.633753 -5.316500
v -21.959957 -6.633753 -4.736942
v -22.577963 -6.633753 -5.896057
v -22.577963 -6.633753 -5.316500
v -22.577963 -6.633753 -4.736942
v -22.577963 -6.633753 -4.157385
v -23.195969 -6.633753 -5.896057
v -23.195969 -6.633753 -5.316500
v -23.195969 -6.633753 -4.736942
v -23.195971 -6.633753 -4.157385
v -23.813976 -6.633753 -5.316500
v -23.813976 -6.633753 -4.736942
v -24.431982 -6.633753 -5.316500
v -24.431982 -6.633753 -4.736942
v -25.049988 -6.633753 -5.896057
v -25.049988 -6.633753 -5.316500
v -25.049988 -6.633753 -4.736942
v -25.049988 -6.633753 -4.157385
v -25.667994 -6.633753 -5.896057
v -25.667994 -6.633753 -5.316500
v -25.667994 -6.633753 -4.736942
v -25.667994 -6.633753 -4.157385
v -26.286001 -6.633753 -5.316500
v -26.286001 -6.633753 -4.736942
v -26.886223 -6.651994 -3.590214
v -26.880234 -6.651994 -6.466349
v -21.365725 -6.651994 -3.587093
v -21.359735 -6.651994 -6.463228
v -26.282072 -6.658239 -6.466396
v -24.435911 -6.658239 -6.466396
v -23.812672 -6.660019 -6.464622
v -21.963886 -6.658239 -6.466396
v -21.963886 -6.658239 -3.587046
v -23.810047 -6.658239 -3.587046
v -24.433287 -6.660019 -3.588821
v -26.282072 -6.658239 -3.587046
v -26.886314 -6.658239 -4.159432
v -26.886314 -6.658239 -5.894010
v -21.363050 -6.660019 -5.895378
v -21.359644 -6.658239 -4.159432
v -21.963638 -6.656672 -5.891526
v -21.963638 -6.656672 -4.161916
v -23.810295 -6.656672 -5.891526
v -23.810295 -6.656672 -4.161916
v -24.435663 -6.656672 -5.891526
v -24.435663 -6.656672 -4.161916
v -26.282320 -6.656672 -5.891526
v -26.282320 -6.656672 -4.161916
v -26.861004 -7.170443 -5.918461
v -26.861004 -7.170443 -6.453210
v -21.916954 -7.170443 -6.453210
v -21.384954 -7.170443 -6.453210
v -21.384954 -7.170443 -4.134981
v -21.384954 -7.170443 -3.600232
v -26.329002 -7.170443 -3.600232
v -26.861004 -7.170443 -3.600232
v -26.329002 -7.170443 -6.453210
v -24.388979 -7.170443 -6.453210
v -23.856979 -7.170443 -6.453210
v -21.916954 -7.170443 -3.600232
v -23.856979 -7.170443 -3.600232
v -24.388979 -7.170443 -3.600232
v -21.916954 -7.170443 -4.134981
v -23.856979 -7.170443 -4.134981
v -24.388979 -7.170443 -4.134981
v -26.329002 -7.170443 -4.134981
v -26.861004 -7.170443 -4.134981
v -21.384954 -7.170443 -5.918461
v -21.916954 -7.170443 -5.918461
v -23.856979 -7.170443 -5.918461
v -24.388979 -7.170443 -5.918461
v -26.329002 -7.170443 -5.918461
vn -0.3803 -0.9247 0.0158
vn -0.0121 -0.7873 -0.6165
vn 0.3803 -0.9247 -0.0158
vn 0.0121 -0.7873 0.6165
vn -0.9962 0.0626 -0.0608
vn 0.0285 0.0329 -0.9991
vn -0.0285 0.0329 0.9991
vn 0.9962 0.0626 0.0608
vn 0.0347 0.9986 0.0389
vn -0.0347 0.9986 0.0389
vn -0.0000 0.9985 0.0544
vn 0.0285 0.0329 0.9991
vn -0.0000 0.0480 0.9988
vn -0.0285 0.0329 -0.9991
vn -0.0000 0.0480 -0.9988
vn -0.0121 -0.7873 0.6165
vn -0.0000 -0.8573 0.5149
vn 0.0121 -0.7873 -0.6165
vn -0.0000 -0.8573 -0.5149
vn -0.0000 -1.0000 -0.0000
vn -0.0000 -0.0156 0.9999
vn -0.0000 -0.0156 -0.9999
vn -0.0000 0.9985 -0.0544
vn -0.0000 1.0000 -0.0000
vn -0.0347 0.9986 -0.0389
vn -0.0485 0.9988 -0.0000
vn 0.0347 0.9986 -0.0389
vn 0.0485 0.9988 -0.0000
vn 0.9962 0.0626 -0.0608
vn 0.9958 0.0919 -0.0000
vn -0.9962 0.0626 0.0608
vn -0.9958 0.0919 -0.0000
vn 0.3803 -0.9247 0.0158
vn 0.2986 -0.9544 -0.0000
vn -0.3803 -0.9247 -0.0158
vn -0.2986 -0.9544 -0.0000
vn 0.9996 -0.0299 -0.0000
vn -0.9996 -0.0299 -0.0000
vn -0.9993 -0.0362 -0.0014
vn -0.9988 -0.0490 0.0004
vn -0.0018 -0.0195 0.9998
vn -0.0029 -0.0224 0.9997
vn -0.9991 -0.0431 -0.0057
vn -0.9993 -0.0374 -0.0037
vn 0.0007 -0.0189 -0.9998
vn -0.0002 -0.0255 -0.9997
vn 0.9991 -0.0431 0.0057
vn 0.9993 -0.0374 0.0037
vn -0.0007 -0.0189 0.9998
vn 0.0002 -0.0255 0.9997
vn 0.0029 -0.0224 -0.9997
vn 0.0018 -0.0195 -0.9998
vn 0.9993 -0.0368 0.0042
vn 0.9989 -0.0458 0.0027
vn -0.0071 -0.0172 -0.9998
vn 0.0386 -0.9993 0.0014
vn 0.9959 -0.0909 0.0004
vn -0.0386 -0.9993 0.0014
vn 0.0014 -0.0190 -0.9998
vn 0.0071 -0.0171 -0.9998
vn -0.9959 -0.0909 0.0004
vn 0.0015 -0.0240 -0.9997
vn -0.0084 -0.0174 -0.9998
vn 0.0400 -0.9992 0.0028
vn 0.9961 -0.0885 -0.0019
vn 0.0071 -0.0172 -0.9998
vn 0.0071 -0.0172 0.9998
vn -0.0386 -0.9993 -0.0014
vn -0.9959 -0.0909 -0.0004
vn -0.0071 -0.0171 0.9998
vn -0.0015 -0.0240 0.9997
vn 0.0386 -0.9993 -0.0014
vn -0.0014 -0.0190 0.9998
vn 0.9959 -0.0909 -0.0004
vn 0.0084 -0.0174 0.9998
vn -0.0400 -0.9992 -0.0028
vn -0.9961 -0.0885 0.0019
vn -0.0071 -0.0172 0.9998
vn -0.0021 -0.0500 -0.9987
vn -0.9994 -0.0330 0.0144
vn 0.0012 -0.9992 -0.0411
vn 0.0012 -0.9992 0.0411
vn -0.0021 -0.0500 0.9987
vn -0.9994 -0.0330 -0.0144
vn 0.0033 -0.0487 0.9988
vn 0.9993 -0.0336 -0.0173
vn -0.0026 -0.9991 0.0426
vn -0.0012 -0.9992 -0.0411
vn 0.0021 -0.0500 -0.9987
vn 0.9994 -0.0330 0.0144
vn -0.0187 -0.9996 0.0199
vn -0.0187 -0.9996 -0.0199
vn 0.0187 -0.9996 0.0199
vn -0.0000 -0.9992 0.0398
vn -0.0000 -0.0524 0.9986
vn -0.0000 -0.9992 -0.0398
vn -0.0000 -0.0524 -0.9986
vn 0.0187 -0.9996 -0.0199
vt 0.129063 0.766777
vt 0.072642 0.728372
vt 0.084513 0.720908
vt 0.143205 0.754895
vt 0.441287 0.861423
vt 0.369578 0.899959
vt 0.373316 0.887795
vt 0.436689 0.851344
vt 0.883099 0.531705
vt 0.939520 0.570613
vt 0.927649 0.567469
vt 0.868957 0.534037
vt 0.570876 0.437059
vt 0.642585 0.399027
vt 0.638846 0.400582
vt 0.575473 0.437588
vt 0.302680 0.867103
vt 0.370301 0.954109
vt 0.307261 0.921732
vt 0.873269 0.611799
vt 0.937221 0.626510
vt 0.870883 0.667695
vt 0.138893 0.686683
vt 0.074941 0.783433
vt 0.141280 0.745337
vt 0.709481 0.431378
vt 0.641861 0.455834
vt 0.704901 0.491300
vt 0.635264 0.535441
vt 0.573262 0.495713
vt 0.133643 0.821406
vt 0.203281 0.785065
vt 0.264993 0.749404
vt 0.202991 0.709677
vt 0.326705 0.713744
vt 0.264703 0.674016
vt 0.388416 0.678083
vt 0.326415 0.638356
vt 0.450128 0.642423
vt 0.388126 0.602695
vt 0.511840 0.606762
vt 0.449838 0.567034
vt 0.573552 0.571101
vt 0.511550 0.531374
vt 0.509164 0.472719
vt 0.447452 0.508380
vt 0.385740 0.544041
vt 0.324029 0.579701
vt 0.262317 0.615362
vt 0.200605 0.651023
vt 0.438900 0.917320
vt 0.502998 0.825763
vt 0.500612 0.881659
vt 0.564710 0.790102
vt 0.562324 0.845999
vt 0.626422 0.754441
vt 0.624035 0.810338
vt 0.688133 0.718781
vt 0.685747 0.774677
vt 0.749845 0.683120
vt 0.747459 0.739017
vt 0.811557 0.647460
vt 0.809171 0.703356
vt 0.148073 0.684565
vt 0.209130 0.649282
vt 0.270187 0.614000
vt 0.331244 0.578717
vt 0.392301 0.543435
vt 0.453358 0.508153
vt 0.514416 0.472870
vt 0.864089 0.604367
vt 0.803032 0.639650
vt 0.741975 0.674932
vt 0.680918 0.710215
vt 0.619861 0.745497
vt 0.558804 0.780779
vt 0.497747 0.816061
vt 0.571405 0.196063
vt 0.511657 0.230589
vt 0.455626 0.198211
vt 0.515374 0.163685
vt 0.332413 0.334166
vt 0.272665 0.368692
vt 0.216634 0.336314
vt 0.276382 0.301789
vt 0.496788 0.498203
vt 0.556536 0.463678
vt 0.735780 0.360100
vt 0.795528 0.325574
vt 0.384727 0.433448
vt 0.324978 0.467974
vt 0.268948 0.435596
vt 0.328696 0.401070
vt 0.440757 0.465826
vt 0.500505 0.431300
vt 0.444475 0.398922
vt 0.388444 0.366544
vt 0.504222 0.364396
vt 0.448192 0.332018
vt 0.563970 0.329870
vt 0.507939 0.297493
vt 0.623718 0.295345
vt 0.567688 0.262967
vt 0.679749 0.327722
vt 0.739497 0.293197
vt 0.683466 0.260819
vt 0.627435 0.228441
vt 0.743214 0.226293
vt 0.687183 0.193915
vt 0.802962 0.191767
vt 0.746931 0.159389
vt 0.808881 0.635767
vt 0.747169 0.671427
vt 0.751008 0.602325
vt 0.689297 0.637985
vt 0.693136 0.568883
vt 0.631424 0.604543
vt 0.685457 0.707088
vt 0.627585 0.673646
vt 0.569713 0.640204
vt 0.623745 0.742749
vt 0.565873 0.709307
vt 0.508000 0.675865
vt 0.562034 0.778409
vt 0.504161 0.744967
vt 0.446289 0.711525
vt 0.500322 0.814070
vt 0.442449 0.780628
vt 0.384577 0.747186
vt 0.438610 0.849730
vt 0.380738 0.816288
vt 0.322865 0.782846
vt 0.376899 0.885391
vt 0.319026 0.851949
vt 0.261154 0.818507
vt 0.249388 0.888290
vt 0.191516 0.854848
vt 0.878518 0.591627
vt 0.820646 0.558185
vt 0.762774 0.524743
vt 0.825226 0.498263
vt 0.767354 0.464821
vt 0.186936 0.800220
vt 0.244808 0.833661
vt 0.697181 0.434776
vt 0.754440 0.467863
vt 0.811698 0.500950
vt 0.314981 0.854156
vt 0.257722 0.821069
vt 0.200464 0.787982
vt 0.265231 0.502499
vt 0.209200 0.470122
vt 0.100055 0.403029
vt 0.155078 0.434137
vt 0.103462 0.344328
vt 0.155161 0.374203
vt 0.158157 0.368404
vt 0.154895 0.314607
vt 0.378695 0.563374
vt 0.322774 0.531042
vt 0.327585 0.473840
vt 0.379284 0.503714
vt 0.436529 0.529263
vt 0.430717 0.473993
vt 0.633467 0.094444
vt 0.689388 0.125382
vt 0.684577 0.068276
vt 0.632878 0.038401
vt 0.575633 0.127162
vt 0.581445 0.068122
vt 0.912107 0.254789
vt 0.854005 0.288021
vt 0.857267 0.227508
vt 0.908700 0.197787
vt 0.856887 0.222355
vt 0.857001 0.167912
vt 0.380927 0.497335
vt 0.379018 0.444119
vt 0.615013 0.426124
vt 0.559459 0.394169
vt 0.675095 0.391008
vt 0.566577 0.335736
vt 0.618275 0.365611
vt 0.669708 0.335890
vt 0.619919 0.359232
vt 0.618010 0.306015
vt 0.798451 0.256066
vt 0.805568 0.197633
vt 0.631235 0.159439
vt 0.633144 0.097997
vt 0.397149 0.230300
vt 0.337067 0.265019
vt 0.393887 0.176504
vt 0.342454 0.206225
vt 0.452703 0.262605
vt 0.445585 0.206379
vt 0.392243 0.297542
vt 0.394152 0.236100
vt 0.213711 0.400708
vt 0.206594 0.344482
s 0
g Cube_Material.001
usemtl Material.001
f 84/1/1 72/4/1 1/3/1 6/2/1
f 44/5/2 20/8/2 2/7/2 5/6/2
f 88/9/3 78/12/3 4/11/3 7/10/3
f 52/13/4 32/16/4 3/15/4 8/14/4
f 81/17/5 89/19/5 9/18/5 5/6/5
f 37/20/6 53/22/6 11/21/6 7/10/6
f 45/23/7 61/25/7 10/24/7 6/2/7
f 85/26/8 93/28/8 12/27/8 8/14/8
f 128/29/9 68/30/9 12/27/9 93/28/9
f 92/31/10 10/24/10 61/25/10 100/32/10
f 100/32/11 61/25/11 62/34/11 104/33/11
f 104/33/11 62/34/11 63/36/11 108/35/11
f 108/35/11 63/36/11 64/38/11 112/37/11
f 112/37/11 64/38/11 65/40/11 116/39/11
f 116/39/11 65/40/11 66/42/11 120/41/11
f 120/41/11 66/42/11 67/44/11 124/43/11
f 124/43/11 67/44/11 68/30/11 128/29/11
f 8/14/12 12/27/12 68/30/12 52/13/12
f 52/13/13 68/30/13 67/44/13 51/45/13
f 51/45/13 67/44/13 66/42/13 50/46/13
f 50/46/13 66/42/13 65/40/13 49/47/13
f 49/47/13 65/40/13 64/38/13 48/48/13
f 48/48/13 64/38/13 63/36/13 47/49/13
f 47/49/13 63/36/13 62/34/13 46/50/13
f 46/50/13 62/34/13 61/25/13 45/23/13
f 5/6/14 9/18/14 60/51/14 44/5/14
f 44/5/15 60/51/15 59/53/15 43/52/15
f 43/52/15 59/53/15 58/55/15 42/54/15
f 42/54/15 58/55/15 57/57/15 41/56/15
f 41/56/15 57/57/15 56/59/15 40/58/15
f 40/58/15 56/59/15 55/61/15 39/60/15
f 39/60/15 55/61/15 54/63/15 38/62/15
f 38/62/15 54/63/15 53/22/15 37/20/15
f 6/2/16 1/3/16 25/64/16 45/23/16
f 45/23/17 25/64/17 26/65/17 46/50/17
f 46/50/17 26/65/17 27/66/17 47/49/17
f 47/49/17 27/66/17 28/67/17 48/48/17
f 48/48/17 28/67/17 29/68/17 49/47/17
f 49/47/17 29/68/17 30/69/17 50/46/17
f 50/46/17 30/69/17 31/70/17 51/45/17
f 51/45/17 31/70/17 32/16/17 52/13/17
f 7/10/18 4/11/18 13/71/18 37/20/18
f 37/20/19 13/71/19 14/72/19 38/62/19
f 38/62/19 14/72/19 15/73/19 39/60/19
f 39/60/19 15/73/19 16/74/19 40/58/19
f 40/58/19 16/74/19 17/75/19 41/56/19
f 41/56/19 17/75/19 18/76/19 42/54/19
f 42/54/19 18/76/19 19/77/19 43/52/19
f 43/52/19 19/77/19 20/8/19 44/5/19
f 134/78/20 33/81/20 34/80/20 138/79/20
f 146/82/20 35/85/20 36/84/20 150/83/20
f 31/70/21 30/69/21 34/80/21 33/81/21
f 27/66/21 26/65/21 36/84/21 35/85/21
f 19/77/22 18/76/22 22/87/22 21/86/22
f 15/73/22 14/72/22 24/89/22 23/88/22
f 148/90/20 149/93/20 152/92/20 151/91/20
f 22/87/20 143/95/20 147/94/20 21/86/20
f 143/95/20 144/96/20 148/90/20 147/94/20
f 144/96/20 145/97/20 149/93/20 148/90/20
f 145/97/20 146/82/20 150/83/20 149/93/20
f 141/98/20 142/99/20 145/97/20 144/96/20
f 139/100/20 140/101/20 142/99/20 141/98/20
f 136/102/20 137/103/20 140/101/20 139/100/20
f 24/89/20 131/105/20 135/104/20 23/88/20
f 131/105/20 132/106/20 136/102/20 135/104/20
f 132/106/20 133/107/20 137/103/20 136/102/20
f 133/107/20 134/78/20 138/79/20 137/103/20
f 129/108/20 130/109/20 133/107/20 132/106/20
f 79/110/20 80/111/20 130/109/20 129/108/20
f 54/63/23 121/113/23 125/112/23 53/22/23
f 121/113/24 122/115/24 126/114/24 125/112/24
f 122/115/24 123/117/24 127/116/24 126/114/24
f 123/117/24 124/43/24 128/29/24 127/116/24
f 55/61/23 117/118/23 121/113/23 54/63/23
f 117/118/24 118/119/24 122/115/24 121/113/24
f 118/119/24 119/120/24 123/117/24 122/115/24
f 119/120/24 120/41/24 124/43/24 123/117/24
f 56/59/23 113/121/23 117/118/23 55/61/23
f 113/121/24 114/122/24 118/119/24 117/118/24
f 114/122/24 115/123/24 119/120/24 118/119/24
f 115/123/24 116/39/24 120/41/24 119/120/24
f 57/57/23 109/124/23 113/121/23 56/59/23
f 109/124/24 110/125/24 114/122/24 113/121/24
f 110/125/24 111/126/24 115/123/24 114/122/24
f 111/126/24 112/37/24 116/39/24 115/123/24
f 58/55/23 105/127/23 109/124/23 57/57/23
f 105/127/24 106/128/24 110/125/24 109/124/24
f 106/128/24 107/129/24 111/126/24 110/125/24
f 107/129/24 108/35/24 112/37/24 111/126/24
f 59/53/23 101/130/23 105/127/23 58/55/23
f 101/130/24 102/131/24 106/128/24 105/127/24
f 102/131/24 103/132/24 107/129/24 106/128/24
f 103/132/24 104/33/24 108/35/24 107/129/24
f 60/51/23 97/133/23 101/130/23 59/53/23
f 97/133/24 98/134/24 102/131/24 101/130/24
f 98/134/24 99/135/24 103/132/24 102/131/24
f 99/135/24 100/32/24 104/33/24 103/132/24
f 9/18/25 89/19/25 97/133/25 60/51/25
f 89/19/26 90/136/26 98/134/26 97/133/26
f 90/136/26 91/137/26 99/135/26 98/134/26
f 91/137/26 92/31/26 100/32/26 99/135/26
f 53/22/27 125/112/27 96/138/27 11/21/27
f 125/112/28 126/114/28 95/139/28 96/138/28
f 126/114/28 127/116/28 94/140/28 95/139/28
f 127/116/28 128/29/28 93/28/28 94/140/28
f 7/10/29 11/21/29 96/138/29 88/9/29
f 88/9/30 96/138/30 95/139/30 87/141/30
f 87/141/30 95/139/30 94/140/30 86/142/30
f 86/142/30 94/140/30 93/28/30 85/26/30
f 6/2/31 10/24/31 92/31/31 84/1/31
f 84/1/32 92/31/32 91/137/32 83/143/32
f 83/143/32 91/137/32 90/136/32 82/144/32
f 82/144/32 90/136/32 89/19/32 81/17/32
f 8/14/33 3/15/33 75/145/33 85/26/33
f 85/26/34 75/145/34 76/146/34 86/142/34
f 86/142/34 76/146/34 77/147/34 87/141/34
f 87/141/34 77/147/34 78/12/34 88/9/34
f 5/6/35 2/7/35 69/148/35 81/17/35
f 81/17/36 69/148/36 70/149/36 82/144/36
f 82/144/36 70/149/36 71/150/36 83/143/36
f 83/143/36 71/150/36 72/4/36 84/1/36
f 151/91/20 152/92/20 73/152/20 74/151/20
f 77/147/37 76/146/37 80/111/37 79/110/37
f 71/150/38 70/149/38 74/151/38 73/152/38
f 1/3/39 72/4/39 165/154/39 153/153/39
f 165/154/40 195/156/40 184/155/40 153/153/40
f 25/64/41 1/3/41 153/153/41 164/157/41
f 153/153/42 184/155/42 183/158/42 164/157/42
f 154/159/43 178/162/43 177/161/43 166/160/43
f 69/148/44 2/7/44 154/159/44 166/160/44
f 2/7/45 20/8/45 157/163/45 154/159/45
f 157/163/46 185/164/46 178/162/46 154/159/46
f 155/165/47 182/168/47 181/167/47 168/166/47
f 75/145/48 3/15/48 155/165/48 168/166/48
f 3/15/49 32/16/49 161/169/49 155/165/49
f 161/169/50 188/170/50 182/168/50 155/165/50
f 156/171/51 180/174/51 179/173/51 160/172/51
f 13/71/52 4/11/52 156/171/52 160/172/52
f 4/11/53 78/12/53 167/175/53 156/171/53
f 167/175/54 196/176/54 180/174/54 156/171/54
f 20/8/55 19/77/55 21/86/55 157/163/55
f 21/86/56 147/94/56 175/177/56 157/163/56
f 175/177/57 200/178/57 185/164/57 157/163/57
f 158/179/58 173/180/58 143/95/58 22/87/58
f 17/75/59 16/74/59 159/181/59 158/179/59
f 18/76/60 17/75/60 158/179/60 22/87/60
f 158/179/61 186/183/61 199/182/61 173/180/61
f 159/181/62 187/184/62 186/183/62 158/179/62
f 16/74/63 15/73/63 23/88/63 159/181/63
f 23/88/64 135/104/64 171/185/64 159/181/64
f 171/185/65 198/186/65 187/184/65 159/181/65
f 160/172/58 169/187/58 131/105/58 24/89/58
f 14/72/66 13/71/66 160/172/66 24/89/66
f 160/172/61 179/173/61 197/188/61 169/187/61
f 32/16/67 31/70/67 33/81/67 161/169/67
f 170/189/68 161/169/68 33/81/68 134/78/68
f 170/189/69 191/190/69 188/170/69 161/169/69
f 30/69/70 29/68/70 162/191/70 34/80/70
f 163/192/71 190/194/71 189/193/71 162/191/71
f 138/79/72 34/80/72 162/191/72 172/195/72
f 29/68/73 28/67/73 163/192/73 162/191/73
f 162/191/74 189/193/74 192/196/74 172/195/74
f 28/67/75 27/66/75 35/85/75 163/192/75
f 174/197/76 163/192/76 35/85/76 146/82/76
f 174/197/77 193/198/77 190/194/77 163/192/77
f 150/83/72 36/84/72 164/157/72 176/199/72
f 164/157/74 183/158/74 194/200/74 176/199/74
f 26/65/78 25/64/78 164/157/78 36/84/78
f 176/199/79 194/200/79 195/156/79 165/154/79
f 72/4/80 71/150/80 73/152/80 165/154/80
f 152/92/81 176/199/81 165/154/81 73/152/81
f 175/177/82 151/91/82 74/151/82 166/160/82
f 166/160/83 177/161/83 200/178/83 175/177/83
f 70/149/84 69/148/84 166/160/84 74/151/84
f 169/187/85 197/188/85 196/176/85 167/175/85
f 78/12/86 77/147/86 79/110/86 167/175/86
f 167/175/87 79/110/87 129/108/87 169/187/87
f 80/111/88 168/166/88 170/189/88 130/109/88
f 168/166/89 181/167/89 191/190/89 170/189/89
f 76/146/90 75/145/90 168/166/90 80/111/90
f 169/187/91 129/108/91 132/106/91 131/105/91
f 130/109/92 170/189/92 134/78/92 133/107/92
f 135/104/93 136/102/93 139/100/93 171/185/93
f 171/185/94 139/100/94 141/98/94 173/180/94
f 173/180/95 199/182/95 198/186/95 171/185/95
f 140/101/96 172/195/96 174/197/96 142/99/96
f 172/195/97 192/196/97 193/198/97 174/197/97
f 137/103/98 138/79/98 172/195/98 140/101/98
f 173/180/91 141/98/91 144/96/91 143/95/91
f 142/99/92 174/197/92 146/82/92 145/97/92
f 147/94/93 148/90/93 151/91/93 175/177/93
f 149/93/98 150/83/98 176/199/98 152/92/98
f 185/164/20 200/178/20 177/161/20 178/162/20
f 180/174/20 196/176/20 197/188/20 179/173/20
f 181/167/20 182/168/20 188/170/20 191/190/20
f 194/200/20 183/158/20 184/155/20 195/156/20
f 187/184/20 198/186/20 199/182/20 186/183/20
f 192/196/20 189/193/20 190/194/20 193/198/20
