# Blender 4.2.3 LTS
# www.blender.org
o office_3
v -2.112003 0.688785 1.508307
v -2.112003 1.116335 1.508307
v -2.112003 0.688785 -1.509510
v -2.112003 1.116335 -1.509510
v 2.005847 0.688785 1.508307
v 2.005847 1.116335 1.508307
v 2.005847 0.688785 -1.509510
v 2.005847 1.116335 -1.509510
v -2.112003 0.998577 1.508307
v -2.112003 0.998577 -1.509510
v 2.005847 0.998577 -1.509510
v 2.005847 0.998577 1.508307
v -2.112003 0.688785 -0.000601
v -2.112003 1.363556 -0.000601
v 2.005847 0.688785 -0.000601
v 2.005847 1.363556 -0.000601
v 2.005847 0.998577 -0.000601
v -2.112003 0.998577 -0.000601
v -2.157379 0.688785 -0.000601
v -2.157379 0.688785 1.541561
v 2.051224 0.688785 -1.542765
v -2.157379 0.688785 -1.542765
v 2.051224 0.688785 -0.000601
v 2.051224 0.688785 1.541561
v -2.157379 0.510013 -0.000601
v -2.157379 0.510013 1.541561
v 2.051224 0.510013 -1.542765
v -2.157379 0.510013 -1.542765
v 2.051224 0.510013 -0.000601
v 2.051224 0.510013 1.541561
v -2.112067 0.510013 -0.000601
v -2.112067 0.510013 1.508354
v 2.005911 0.510013 -1.509557
v -2.112067 0.510013 -1.509557
v 2.005911 0.510013 -0.000601
v 2.005911 0.510013 1.508354
v -2.112067 -0.002006 -0.000601
v -2.112067 -0.002006 1.508354
v 2.005911 -0.002006 -1.509557
v -2.112067 -0.002006 -1.509557
v 2.005911 -0.002006 -0.000601
v 2.005911 -0.002006 1.508354
v -0.053078 0.688785 -1.509510
v -0.053078 1.116335 -1.509510
v -0.053078 0.688785 1.508307
v -0.053078 1.116335 1.508307
v -0.053078 0.998577 1.508307
v -0.053078 0.688785 -1.542765
v -0.053078 0.688785 1.541561
v -0.053078 0.510013 -1.542765
v -0.053078 0.510013 1.541561
v -0.053078 0.510013 -1.509557
v -0.053078 0.510013 1.508354
v -0.053078 -0.002006 -1.509557
v -0.053078 -0.002006 1.508354
v -0.202184 0.688785 -1.509510
v -1.945395 0.688785 -1.509510
v -0.202184 1.116335 1.508307
v -1.945395 1.116335 1.508307
v -0.202184 0.998577 1.508307
v -1.945395 0.998577 1.508307
v -0.240602 0.688785 -1.542765
v -2.022231 0.688785 -1.542765
v -0.240602 0.510013 -1.542765
v -2.022231 0.510013 -1.542765
v -0.202238 0.510013 -1.509557
v -1.945503 0.510013 -1.509557
v -0.202238 -0.002006 -1.509557
v -1.945503 -0.002006 -1.509557
v -1.945395 1.116335 -1.509510
v -0.202184 1.116335 -1.509510
v -1.945395 0.688785 1.508307
v -0.202184 0.688785 1.508307
v -2.022231 0.688785 1.541561
v -0.240602 0.688785 1.541561
v -2.022231 0.510013 1.541561
v -0.240602 0.510013 1.541561
v -1.945502 0.510013 1.508354
v -0.202238 0.510013 1.508354
v -1.945502 -0.002006 1.508354
v -0.202238 -0.002006 1.508354
v 0.097580 1.116335 -1.509510
v 1.837739 1.116335 -1.509510
v 0.097580 0.688785 1.508307
v 1.837739 0.688785 1.508307
v 1.837739 1.363556 -0.000601
v 0.135931 0.688785 1.541561
v 1.914440 0.688785 1.541561
v 0.135931 0.510013 1.541561
v 1.914440 0.510013 1.541561
v 0.097634 0.510013 1.508354
v 1.837847 0.510013 1.508354
v 0.097634 -0.002006 1.508354
v 1.837847 -0.002006 1.508354
v 1.837739 0.688785 -1.509510
v 0.097580 0.688785 -1.509510
v 1.837739 1.116335 1.508307
v 0.097580 1.116335 1.508307
v 1.837739 0.998577 1.508307
v 0.097580 0.998577 1.508307
v 1.914440 0.688785 -1.542765
v 0.135931 0.688785 -1.542765
v 1.914440 0.510013 -1.542765
v 0.135931 0.510013 -1.542765
v 1.837846 0.510013 -1.509557
v 0.097634 0.510013 -1.509557
v 1.837846 -0.002006 -1.509557
v 0.097634 -0.002006 -1.509557
v -0.492719 0.688785 -1.509510
v -0.783254 0.688785 -1.509510
v -1.073789 0.688785 -1.509510
v -1.364325 0.688785 -1.509510
v -1.654860 0.688785 -1.509510
v -0.492719 1.116335 1.508307
v -0.783254 1.116335 1.508307
v -1.073789 1.116335 1.508307
v -1.364325 1.116335 1.508307
v -1.654860 1.116335 1.508307
v -0.492719 0.998577 1.508307
v -0.783254 0.998577 1.508307
v -1.073789 0.998577 1.508307
v -1.364325 0.998577 1.508307
v -1.654860 0.998577 1.508307
v -0.537540 0.688785 -1.542765
v -0.834478 0.688785 -1.542765
v -1.131417 0.688785 -1.542765
v -1.428355 0.688785 -1.542765
v -1.725293 0.688785 -1.542765
v -0.537540 0.510013 -1.542765
v -0.834478 0.510013 -1.542765
v -1.131417 0.510013 -1.542765
v -1.428355 0.510013 -1.542765
v -1.725293 0.510013 -1.542765
v -0.492782 0.510013 -1.509557
v -0.783326 0.510013 -1.509557
v -1.073871 0.510013 -1.509557
v -1.364415 0.510013 -1.509557
v -1.654959 0.510013 -1.509557
v -0.492782 -0.002006 -1.509557
v -0.783326 -0.002006 -1.509557
v -1.073871 -0.002006 -1.509557
v -1.364415 -0.002006 -1.509557
v -1.654959 -0.002006 -1.509557
v -1.654860 1.116335 -1.509510
v -1.364324 1.116335 -1.509510
v -1.073789 1.116335 -1.509510
v -0.783254 1.116335 -1.509510
v -0.492719 1.116335 -1.509510
v -1.654860 0.688785 1.508307
v -1.364324 0.688785 1.508307
v -1.073789 0.688785 1.508307
v -0.783254 0.688785 1.508307
v -0.492719 0.688785 1.508307
v -1.654860 0.998577 -1.509510
v -1.364324 0.998577 -1.509510
v -1.073789 0.998577 -1.509510
v -0.783254 0.998577 -1.509510
v -0.492719 0.998577 -1.509510
v -1.725293 0.688785 1.541561
v -1.428355 0.688785 1.541561
v -1.131417 0.688785 1.541561
v -0.834478 0.688785 1.541561
v -0.537540 0.688785 1.541561
v -1.725293 0.510013 1.541561
v -1.428355 0.510013 1.541561
v -1.131417 0.510013 1.541561
v -0.834478 0.510013 1.541561
v -0.537540 0.510013 1.541561
v -1.654958 0.510013 1.508354
v -1.364414 0.510013 1.508354
v -1.073870 0.510013 1.508354
v -0.783326 0.510013 1.508354
v -0.492782 0.510013 1.508354
v -1.654958 -0.002006 1.508354
v -1.364414 -0.002006 1.508354
v -1.073870 -0.002006 1.508354
v -0.783326 -0.002006 1.508354
v -0.492782 -0.002006 1.508354
v 0.387607 1.116335 -1.509510
v 0.677633 1.116335 -1.509510
v 0.967660 1.116335 -1.509510
v 1.257686 1.116335 -1.509510
v 1.547712 1.116335 -1.509510
v 0.387607 0.688785 1.508307
v 0.677633 0.688785 1.508307
v 0.967660 0.688785 1.508307
v 1.257686 0.688785 1.508307
v 1.547712 0.688785 1.508307
v 0.387607 0.998577 -1.509510
v 0.677633 0.998577 -1.509510
v 0.967660 0.998577 -1.509510
v 1.257686 0.998577 -1.509510
v 1.547712 0.998577 -1.509510
v 0.432349 0.688785 1.541561
v 0.728767 0.688785 1.541561
v 1.025186 0.688785 1.541561
v 1.321604 0.688785 1.541561
v 1.618022 0.688785 1.541561
v 0.432349 0.510013 1.541561
v 0.728767 0.510013 1.541561
v 1.025186 0.510013 1.541561
v 1.321604 0.510013 1.541561
v 1.618022 0.510013 1.541561
v 0.387669 0.510013 1.508354
v 0.677705 0.510013 1.508354
v 0.967740 0.510013 1.508354
v 1.257776 0.510013 1.508354
v 1.547811 0.510013 1.508354
v 0.387669 -0.002006 1.508354
v 0.677705 -0.002006 1.508354
v 0.967740 -0.002006 1.508354
v 1.257776 -0.002006 1.508354
v 1.547811 -0.002006 1.508354
v 1.547712 0.688785 -1.509510
v 1.257686 0.688785 -1.509510
v 0.967659 0.688785 -1.509510
v 0.677633 0.688785 -1.509510
v 0.387606 0.688785 -1.509510
v 1.547712 1.116335 1.508307
v 1.257686 1.116335 1.508307
v 0.967659 1.116335 1.508307
v 0.677633 1.116335 1.508307
v 0.387606 1.116335 1.508307
v 1.547712 0.998577 1.508307
v 1.257686 0.998577 1.508307
v 0.967659 0.998577 1.508307
v 0.677633 0.998577 1.508307
v 0.387606 0.998577 1.508307
v 1.618022 0.688785 -1.542765
v 1.321604 0.688785 -1.542765
v 1.025186 0.688785 -1.542765
v 0.728767 0.688785 -1.542765
v 0.432349 0.688785 -1.542765
v 1.618022 0.510013 -1.542765
v 1.321604 0.510013 -1.542765
v 1.025186 0.510013 -1.542765
v 0.728767 0.510013 -1.542765
v 0.432349 0.510013 -1.542765
v 1.547811 0.510013 -1.509557
v 1.257775 0.510013 -1.509557
v 0.967740 0.510013 -1.509557
v 0.677705 0.510013 -1.509557
v 0.387669 0.510013 -1.509557
v 1.547811 -0.002006 -1.509557
v 1.257775 -0.002006 -1.509557
v 0.967740 -0.002006 -1.509557
v 0.677705 -0.002006 -1.509557
v 0.387669 -0.002006 -1.509557
v -0.521895 0.708902 1.508307
v -0.521895 0.978460 1.508307
v -0.754079 0.978460 1.508307
v -0.754079 0.708902 1.508307
v -0.812430 0.708902 1.508307
v -0.812430 0.978460 1.508307
v -1.044614 0.978460 1.508307
v -1.044614 0.708902 1.508307
v -1.102965 0.708902 1.508307
v -1.102965 0.978460 1.508307
v -1.335149 0.978460 1.508307
v -1.335149 0.708902 1.508307
v -1.393500 0.708902 1.508307
v -1.393500 0.978460 1.508307
v -1.625684 0.978460 1.508307
v -1.625684 0.708902 1.508307
v -1.625684 0.708902 -1.509510
v -1.625684 0.978460 -1.509510
v -1.393500 0.978460 -1.509510
v -1.393500 0.708902 -1.509510
v -1.335149 0.708902 -1.509510
v -1.335149 0.978460 -1.509510
v -1.102965 0.978460 -1.509510
v -1.102965 0.708902 -1.509510
v -1.044614 0.708902 -1.509510
v -1.044614 0.978460 -1.509510
v -0.812430 0.978460 -1.509510
v -0.812430 0.708902 -1.509510
v -0.754079 0.708902 -1.509510
v -0.754079 0.978460 -1.509510
v -0.521895 0.978460 -1.509510
v -0.521895 0.708902 -1.509510
v 0.416782 0.708902 -1.509510
v 0.416782 0.978460 -1.509510
v 0.648457 0.978460 -1.509510
v 0.648457 0.708902 -1.509510
v 0.706809 0.708902 -1.509510
v 0.706809 0.978460 -1.509510
v 0.938484 0.978460 -1.509510
v 0.938484 0.708902 -1.509510
v 0.996835 0.708902 -1.509510
v 0.996835 0.978460 -1.509510
v 1.228510 0.978460 -1.509510
v 1.228510 0.708902 -1.509510
v 1.286862 0.708902 -1.509510
v 1.286862 0.978460 -1.509510
v 1.518537 0.978460 -1.509510
v 1.518537 0.708902 -1.509510
v 1.518537 0.708902 1.508307
v 1.518537 0.978460 1.508307
v 1.286862 0.978460 1.508307
v 1.286862 0.708902 1.508307
v 1.228510 0.708902 1.508307
v 1.228510 0.978460 1.508307
v 0.996835 0.978460 1.508307
v 0.996835 0.708902 1.508307
v 0.938484 0.708902 1.508307
v 0.938484 0.978460 1.508307
v 0.706809 0.978460 1.508307
v 0.706809 0.708902 1.508307
v 0.648457 0.708902 1.508307
v 0.648457 0.978460 1.508307
v 0.416782 0.978460 1.508307
v 0.416782 0.708902 1.508307
v -0.521895 0.978460 1.461078
v -0.521895 0.708902 1.461078
v -0.754079 0.708902 1.461078
v -0.754079 0.978460 1.461078
v -0.812430 0.978460 1.461078
v -0.812430 0.708902 1.461078
v -1.044614 0.708902 1.461078
v -1.044614 0.978460 1.461078
v -1.102965 0.978460 1.461078
v -1.102965 0.708902 1.461078
v -1.335149 0.708902 1.461078
v -1.335149 0.978460 1.461078
v -1.393500 0.978460 1.461078
v -1.393500 0.708902 1.461078
v -1.625684 0.708902 1.461078
v -1.625684 0.978460 1.461078
v -1.625684 0.978460 -1.462281
v -1.625684 0.708902 -1.462281
v -1.393500 0.708902 -1.462281
v -1.393500 0.978460 -1.462281
v -1.335149 0.978460 -1.462281
v -1.335149 0.708902 -1.462281
v -1.102965 0.708902 -1.462281
v -1.102965 0.978460 -1.462281
v -1.044614 0.978460 -1.462281
v -1.044614 0.708902 -1.462281
v -0.812430 0.708902 -1.462281
v -0.812430 0.978460 -1.462281
v -0.754079 0.978460 -1.462281
v -0.754079 0.708902 -1.462281
v -0.521895 0.708902 -1.462281
v -0.521895 0.978460 -1.462281
v 0.416782 0.978460 -1.462281
v 0.416782 0.708902 -1.462281
v 0.648457 0.708902 -1.462281
v 0.648457 0.978460 -1.462281
v 0.706809 0.978460 -1.462281
v 0.706809 0.708902 -1.462281
v 0.938484 0.708902 -1.462281
v 0.938484 0.978460 -1.462281
v 0.996835 0.978460 -1.462281
v 0.996835 0.708902 -1.462281
v 1.228510 0.708902 -1.462281
v 1.228510 0.978460 -1.462281
v 1.286862 0.978460 -1.462281
v 1.286862 0.708902 -1.462281
v 1.518537 0.708902 -1.462281
v 1.518537 0.978460 -1.462281
v 1.518537 0.978460 1.461078
v 1.518537 0.708902 1.461078
v 1.286862 0.708902 1.461078
v 1.286862 0.978460 1.461078
v 1.228510 0.978460 1.461078
v 1.228510 0.708902 1.461078
v 0.996835 0.708902 1.461078
v 0.996835 0.978460 1.461078
v 0.938484 0.978460 1.461078
v 0.938484 0.708902 1.461078
v 0.706809 0.708902 1.461078
v 0.706809 0.978460 1.461078
v 0.648457 0.978460 1.461078
v 0.648457 0.708902 1.461078
v 0.416782 0.708902 1.461078
v 0.416782 0.978460 1.461078
v 2.005911 0.395137 1.508354
v 2.005911 0.395137 -0.000601
v -2.112067 0.395137 1.508354
v 2.005911 0.395137 -1.509557
v -2.112067 0.395137 -1.509557
v -2.112067 0.395137 -0.000601
v -0.053078 0.395137 -1.509557
v -0.053078 0.395137 1.508354
v -1.945503 0.395137 -1.509557
v -0.202238 0.395137 -1.509557
v -0.202238 0.395137 1.508354
v -1.945502 0.395137 1.508354
v 1.837847 0.395137 1.508354
v 0.097634 0.395137 1.508354
v 0.097634 0.395137 -1.509557
v 1.837846 0.395137 -1.509557
v -0.492782 0.395137 1.508354
v -0.783326 0.395137 1.508354
v -1.073870 0.395137 1.508354
v -1.364414 0.395137 1.508354
v -1.654958 0.395137 1.508354
v -1.654959 0.395137 -1.509557
v -1.364415 0.395137 -1.509557
v -1.073871 0.395137 -1.509557
v -0.783326 0.395137 -1.509557
v -0.492782 0.395137 -1.509557
v 0.387669 0.395137 -1.509557
v 0.677705 0.395137 -1.509557
v 0.967740 0.395137 -1.509557
v 1.257775 0.395137 -1.509557
v 1.547811 0.395137 -1.509557
v 1.547811 0.395137 1.508354
v 1.257776 0.395137 1.508354
v 0.967740 0.395137 1.508354
v 0.677705 0.395137 1.508354
v 0.387669 0.395137 1.508354
v -0.492782 -0.002006 -1.448666
v -0.783326 -0.002006 -1.448666
v -1.073871 -0.002006 -1.448666
v -1.364415 -0.002006 -1.448666
v -1.654959 -0.002006 -1.448666
v -1.654958 -0.002006 1.447463
v -1.364414 -0.002006 1.447463
v -1.073870 -0.002006 1.447463
v -0.783326 -0.002006 1.447463
v -0.492782 -0.002006 1.447463
v -0.492782 0.395137 1.447463
v -0.783326 0.395137 1.447463
v -1.073870 0.395137 1.447463
v -1.364414 0.395137 1.447463
v -1.654958 0.395137 1.447463
v -1.654959 0.395137 -1.448666
v -1.364415 0.395137 -1.448666
v -1.073871 0.395137 -1.448666
v -0.783326 0.395137 -1.448666
v -0.492782 0.395137 -1.448666
v 0.387669 -0.002006 1.447463
v 0.677705 -0.002006 1.447463
v 0.967740 -0.002006 1.447463
v 1.257776 -0.002006 1.447463
v 1.547811 -0.002006 1.447463
v 1.547811 -0.002006 -1.448666
v 1.257775 -0.002006 -1.448666
v 0.967740 -0.002006 -1.448666
v 0.677705 -0.002006 -1.448666
v 0.387669 -0.002006 -1.448666
v 0.387669 0.395137 -1.448666
v 0.677705 0.395137 -1.448666
v 0.967740 0.395137 -1.448666
v 1.257775 0.395137 -1.448666
v 1.547811 0.395137 -1.448666
v 1.547811 0.395137 1.447463
v 1.257776 0.395137 1.447463
v 0.967740 0.395137 1.447463
v 0.677705 0.395137 1.447463
v 0.387669 0.395137 1.447463
v -2.112003 1.314112 -0.302383
v -2.112003 1.264668 -0.604165
v -2.112003 1.215224 -0.905947
v -2.112003 1.165779 -1.207728
v 2.005847 0.688785 -0.302383
v 2.005847 0.688785 -0.604165
v 2.005847 0.688785 -0.905947
v 2.005847 0.688785 -1.207728
v -2.112003 0.998577 -0.302383
v -2.112003 0.998577 -0.604165
v -2.112003 0.998577 -0.905947
v -2.112003 0.998577 -1.207728
v -2.112003 0.688785 -1.207728
v -2.112003 0.688785 -0.905947
v -2.112003 0.688785 -0.604165
v -2.112003 0.688785 -0.302383
v 2.005847 1.165779 -1.207728
v 2.005847 1.215224 -0.905947
v 2.005847 1.264668 -0.604165
v 2.005847 1.314112 -0.302383
v 2.005847 0.998577 -1.207728
v 2.005847 0.998577 -0.905947
v 2.005847 0.998577 -0.604165
v 2.005847 0.998577 -0.302383
v 2.051224 0.688785 -0.309034
v 2.051224 0.688785 -0.617467
v 2.051224 0.688785 -0.925899
v 2.051224 0.688785 -1.234332
v -2.157379 0.688785 -1.234332
v -2.157379 0.688785 -0.925899
v -2.157379 0.688785 -0.617467
v -2.157379 0.688785 -0.309034
v 2.051224 0.510013 -0.309034
v 2.051224 0.510013 -0.617467
v 2.051224 0.510013 -0.925899
v 2.051224 0.510013 -1.234332
v -2.157379 0.510013 -1.234332
v -2.157379 0.510013 -0.925899
v -2.157379 0.510013 -0.617467
v -2.157379 0.510013 -0.309034
v 2.005911 0.510013 -0.302393
v 2.005911 0.510013 -0.604184
v 2.005911 0.510013 -0.905975
v 2.005911 0.510013 -1.207766
v -2.112067 0.510013 -1.207766
v -2.112067 0.510013 -0.905975
v -2.112067 0.510013 -0.604183
v -2.112067 0.510013 -0.302392
v 2.005911 -0.002006 -0.302393
v 2.005911 -0.002006 -0.604184
v 2.005911 -0.002006 -0.905975
v 2.005911 -0.002006 -1.207766
v -2.112067 -0.002006 -1.207766
v -2.112067 -0.002006 -0.905975
v -2.112067 -0.002006 -0.604183
v -2.112067 -0.002006 -0.302392
v 1.837739 1.165779 -1.207728
v 1.837739 1.215224 -0.905947
v 1.837739 1.264668 -0.604165
v 1.837739 1.314112 -0.302383
v 2.005911 0.395137 -0.302393
v 2.005911 0.395137 -0.604184
v 2.005911 0.395137 -0.905975
v 2.005911 0.395137 -1.207766
v -2.112067 0.395137 -1.207766
v -2.112067 0.395137 -0.905975
v -2.112067 0.395137 -0.604183
v -2.112067 0.395137 -0.302392
v -2.112003 0.688785 0.301180
v -2.112003 0.688785 0.602962
v -2.112003 0.688785 0.904744
v -2.112003 0.688785 1.206525
v 2.005847 1.314112 0.301180
v 2.005847 1.264668 0.602962
v 2.005847 1.215224 0.904744
v 2.005847 1.165779 1.206525
v 2.005847 0.998577 0.301180
v 2.005847 0.998577 0.602962
v 2.005847 0.998577 0.904744
v 2.005847 0.998577 1.206525
v -2.112003 1.165779 1.206525
v -2.112003 1.215224 0.904744
v -2.112003 1.264668 0.602962
v -2.112003 1.314112 0.301180
v 2.005847 0.688785 1.206525
v 2.005847 0.688785 0.904744
v 2.005847 0.688785 0.602962
v 2.005847 0.688785 0.301180
v -2.112003 0.998577 1.206525
v -2.112003 0.998577 0.904744
v -2.112003 0.998577 0.602962
v -2.112003 0.998577 0.301180
v -2.157379 0.688785 0.307831
v -2.157379 0.688785 0.616264
v -2.157379 0.688785 0.924696
v -2.157379 0.688785 1.233129
v 2.051224 0.688785 1.233129
v 2.051224 0.688785 0.924696
v 2.051224 0.688785 0.616264
v 2.051224 0.688785 0.307831
v -2.157379 0.510013 0.307831
v -2.157379 0.510013 0.616264
v -2.157379 0.510013 0.924696
v -2.157379 0.510013 1.233129
v 2.051224 0.510013 1.233129
v 2.051224 0.510013 0.924696
v 2.051224 0.510013 0.616264
v 2.051224 0.510013 0.307831
v -2.112067 0.510013 0.301190
v -2.112067 0.510013 0.602981
v -2.112067 0.510013 0.904772
v -2.112067 0.510013 1.206563
v 2.005911 0.510013 1.206563
v 2.005911 0.510013 0.904772
v 2.005911 0.510013 0.602981
v 2.005911 0.510013 0.301190
v -2.112067 -0.002006 0.301190
v -2.112067 -0.002006 0.602981
v -2.112067 -0.002006 0.904772
v -2.112067 -0.002006 1.206563
v 2.005911 -0.002006 1.206563
v 2.005911 -0.002006 0.904772
v 2.005911 -0.002006 0.602981
v 2.005911 -0.002006 0.301190
v 1.837739 1.314112 0.301180
v 1.837739 1.264668 0.602962
v 1.837739 1.215224 0.904744
v 1.837739 1.165779 1.206525
v -2.112067 0.395137 0.301190
v -2.112067 0.395137 0.602981
v -2.112067 0.395137 0.904772
v -2.112067 0.395137 1.206563
v 2.005911 0.395137 1.206563
v 2.005911 0.395137 0.904772
v 2.005911 0.395137 0.602981
v 2.005911 0.395137 0.301190
v -2.051322 0.998577 -0.302383
v -2.051322 0.998577 -0.604165
v -2.051322 0.998577 -0.905947
v -2.051322 0.998577 -1.207728
v -2.051322 0.688785 -1.207728
v -2.051322 0.688785 -0.905947
v -2.051322 0.688785 -0.604165
v -2.051322 0.688785 -0.302383
v -2.051322 0.688785 0.301180
v -2.051322 0.688785 0.602962
v -2.051322 0.688785 0.904744
v -2.051322 0.688785 1.206525
v -2.051322 0.998577 1.206525
v -2.051322 0.998577 0.904744
v -2.051322 0.998577 0.602962
v -2.051322 0.998577 0.301180
v -2.051642 -0.002006 -0.905975
v -2.051642 -0.002006 -0.604183
v -2.051642 -0.002006 -0.302392
v -2.051642 0.395137 -0.905975
v -2.051642 0.395137 -0.604183
v -2.051642 0.395137 -0.302392
v -2.051642 -0.002006 0.301190
v -2.051642 -0.002006 0.602981
v -2.051642 -0.002006 0.904772
v -2.051642 0.395137 0.301190
v -2.051642 0.395137 0.602981
v -2.051642 0.395137 0.904772
v -1.752130 1.425542 -0.389393
v -0.693230 1.425542 -0.389393
v -1.752130 1.425542 0.388190
v -0.693230 1.425542 0.388190
v -1.752130 1.462558 0.380719
v -0.693230 1.462558 0.380719
v -1.752130 1.498152 0.358595
v -0.693230 1.498152 0.358595
v -1.752130 1.530955 0.322667
v -0.693230 1.530955 0.322667
v -1.752130 1.559707 0.274316
v -0.693230 1.559707 0.274316
v -1.752130 1.583304 0.215399
v -0.693230 1.583304 0.215399
v -1.752130 1.600837 0.148183
v -0.693230 1.600838 0.148183
v -1.752130 1.611635 0.075248
v -0.693230 1.611635 0.075248
v -1.752130 1.615281 -0.000601
v -0.693230 1.615281 -0.000601
v -1.752130 1.611635 -0.076451
v -0.693230 1.611635 -0.076451
v -1.752130 1.600837 -0.149386
v -0.693230 1.600838 -0.149386
v -1.752130 1.583304 -0.216602
v -0.693230 1.583304 -0.216602
v -1.752130 1.559707 -0.275519
v -0.693230 1.559707 -0.275519
v -1.752130 1.530955 -0.323870
v -0.693230 1.530955 -0.323870
v -1.752130 1.498152 -0.359798
v -0.693230 1.498152 -0.359798
v -1.752130 1.462558 -0.381922
v -0.693230 1.462558 -0.381922
v -1.752130 1.340736 -0.389393
v -0.693230 1.340736 -0.389393
v -0.693230 1.340736 0.388190
v -1.752130 1.340736 0.388190
v 1.899807 0.003439 1.595688
v 1.899807 1.135106 1.595688
v 1.899807 0.003439 1.426069
v 1.899807 1.135106 1.426069
v 2.069426 0.003439 1.595688
v 2.069426 1.135106 1.595688
v 2.069426 0.003439 1.426069
v 2.069426 1.135106 1.426069
v -2.272611 0.003439 1.595688
v -2.272611 1.135106 1.595688
v -2.272611 0.003439 1.426069
v -2.272611 1.135106 1.426069
v -2.102992 0.003439 1.595688
v -2.102992 1.135106 1.595688
v -2.102992 0.003439 1.426069
v -2.102992 1.135106 1.426069
v -0.132910 0.003439 1.595688
v -0.132910 1.135106 1.595688
v -0.132910 0.003439 1.426069
v -0.132910 1.135106 1.426069
v 0.036709 0.003439 1.595688
v 0.036709 1.135106 1.595688
v 0.036709 0.003439 1.426069
v 0.036709 1.135106 1.426069
v 1.899807 0.003439 -1.596891
v 1.899807 1.135106 -1.596891
v 1.899807 0.003439 -1.427272
v 1.899807 1.135106 -1.427272
v 2.069426 0.003439 -1.596891
v 2.069426 1.135106 -1.596891
v 2.069426 0.003439 -1.427272
v 2.069426 1.135106 -1.427272
v -2.272611 0.003439 -1.596891
v -2.272611 1.135106 -1.596891
v -2.272611 0.003439 -1.427272
v -2.272611 1.135106 -1.427272
v -2.102992 0.003439 -1.596891
v -2.102992 1.135106 -1.596891
v -2.102992 0.003439 -1.427272
v -2.102992 1.135106 -1.427272
v -0.132910 0.003439 -1.596891
v -0.132910 1.135106 -1.596891
v -0.132910 0.003439 -1.427272
v -0.132910 1.135106 -1.427272
v 0.036709 0.003439 -1.596891
v 0.036709 1.135106 -1.596891
v 0.036709 0.003439 -1.427272
v 0.036709 1.135106 -1.427272
v -2.366623 1.061448 1.694908
v -2.366623 1.061448 -1.696111
v 2.260467 1.061448 1.694908
v 2.260467 1.061448 -1.696111
v -2.366623 1.339242 -0.000601
v 2.260467 1.339242 -0.000601
v -2.366623 1.471143 -0.000601
v -2.366623 1.193349 -1.696111
v 2.260467 1.193349 -1.696111
v 2.260467 1.471143 -0.000601
v 2.260467 1.193349 1.694908
v -2.366623 1.193349 1.694908
v 2.260467 1.082291 1.567692
v -2.366623 1.082291 1.567692
v 2.260467 1.214192 1.567692
v -2.366623 1.214192 1.567692
v -2.366623 1.085401 -1.549914
v 2.260467 1.085401 -1.549914
v -2.366623 1.217302 -1.549914
v 2.260467 1.217302 -1.549914
v -2.366623 1.324802 0.087534
v -2.366623 1.456702 0.087534
v 2.260467 1.324802 0.087534
v 2.260467 1.456702 0.087534
v 2.260467 1.324592 -0.090016
v 2.260467 1.456493 -0.090016
v -2.366623 1.324592 -0.090016
v -2.366623 1.456493 -0.090016
v 2.147492 1.444108 0.164406
v -2.253647 1.444108 0.164406
v -2.253647 1.226787 1.490819
v 2.147492 1.226787 1.490819
v 2.147492 1.229897 -1.473041
v -2.253647 1.229897 -1.473041
v -2.253647 1.443898 -0.166889
v 2.147492 1.443898 -0.166889
v -2.253647 1.408705 0.164406
v 2.147492 1.408705 0.164406
v 2.147492 1.191384 1.490819
v -2.253647 1.191384 1.490819
v -2.253647 1.194494 -1.473041
v 2.147492 1.194494 -1.473041
v 2.147492 1.408495 -0.166889
v -2.253647 1.408495 -0.166889
v -0.053078 1.061448 -1.696111
v -0.053078 1.061448 1.694908
v -0.053078 1.193349 -1.696111
v -0.053078 1.193349 1.694908
v -0.053078 1.471143 -0.000601
v -0.053078 1.214192 1.567692
v -0.053078 1.082291 1.567692
v -0.053078 1.217302 -1.549914
v -0.053078 1.085401 -1.549914
v -0.053078 1.444108 0.164406
v -0.053078 1.226787 1.490819
v -0.053078 1.229897 -1.473041
v -0.053078 1.443898 -0.166889
v -0.053078 1.408705 0.164406
v -0.053078 1.191384 1.490819
v -0.053078 1.194494 -1.473041
v -0.053078 1.408495 -0.166889
v 0.409631 1.061448 -1.696111
v 0.872341 1.061448 -1.696111
v 1.335050 1.061448 -1.696111
v 1.797759 1.061448 -1.696111
v 1.797759 1.339242 -0.000601
v 0.409631 1.193349 -1.696111
v 0.872341 1.193349 -1.696111
v 1.335050 1.193349 -1.696111
v 1.797759 1.193349 -1.696111
v 0.409631 1.471143 -0.000601
v 0.872341 1.471143 -0.000601
v 1.335050 1.471143 -0.000601
v 1.797759 1.471143 -0.000601
v 0.409631 1.214192 1.567692
v 0.872341 1.214192 1.567692
v 1.335050 1.214192 1.567692
v 1.797759 1.214192 1.567692
v 0.409631 1.217302 -1.549914
v 0.872341 1.217302 -1.549914
v 1.335050 1.217302 -1.549914
v 1.797759 1.217302 -1.549914
v 0.387036 1.444108 0.164406
v 0.827150 1.444108 0.164406
v 1.267264 1.444108 0.164406
v 1.707378 1.444108 0.164406
v 0.387036 1.226787 1.490819
v 0.827150 1.226787 1.490819
v 1.267264 1.226787 1.490819
v 1.707378 1.226787 1.490819
v 0.387036 1.229897 -1.473041
v 0.827150 1.229897 -1.473041
v 1.267264 1.229897 -1.473041
v 1.707378 1.229897 -1.473041
v 0.387036 1.443898 -0.166889
v 0.827150 1.443898 -0.166889
v 1.267264 1.443898 -0.166889
v 1.707378 1.443898 -0.166889
v 0.387036 1.408705 0.164406
v 0.827150 1.408705 0.164406
v 1.267264 1.408705 0.164406
v 1.707378 1.408705 0.164406
v 0.387036 1.191384 1.490819
v 0.827150 1.191384 1.490819
v 1.267264 1.191384 1.490819
v 1.707378 1.191384 1.490819
v 0.387036 1.194494 -1.473041
v 0.827150 1.194494 -1.473041
v 1.267264 1.194494 -1.473041
v 1.707378 1.194494 -1.473041
v 0.387036 1.408495 -0.166889
v 0.827150 1.408495 -0.166889
v 1.267264 1.408495 -0.166889
v 1.707378 1.408495 -0.166889
v 1.797759 1.061448 1.694908
v 1.335050 1.061448 1.694908
v 0.872341 1.061448 1.694908
v 0.409631 1.061448 1.694908
v 1.797759 1.193349 1.694908
v 1.335050 1.193349 1.694908
v 0.872341 1.193349 1.694908
v 0.409631 1.193349 1.694908
v 1.797759 1.082291 1.567692
v 1.335050 1.082291 1.567692
v 0.872341 1.082291 1.567692
v 0.409631 1.082291 1.567692
v 1.797759 1.085401 -1.549914
v 1.335050 1.085401 -1.549914
v 0.872341 1.085401 -1.549914
v 0.409631 1.085401 -1.549914
v 1.797759 1.324802 0.087534
v 1.797759 1.324592 -0.090016
v 2.260467 1.290018 0.299834
v 2.260467 1.209181 0.793221
v 2.260467 1.421919 0.299834
v 2.260467 1.341082 0.793221
v -2.366623 1.209181 0.793221
v -2.366623 1.290018 0.299834
v -2.366623 1.341082 0.793221
v -2.366623 1.421919 0.299834
v 2.147492 1.412937 0.354655
v 2.147492 1.340497 0.796793
v -2.253647 1.340497 0.796793
v -2.253647 1.412937 0.354655
v 2.147492 1.377534 0.354655
v 2.147492 1.305094 0.796793
v -2.253647 1.305094 0.796793
v -2.253647 1.377534 0.354655
v -0.053078 1.377534 0.354655
v -0.053078 1.305094 0.796793
v 1.797759 1.209181 0.793221
v 1.797759 1.290018 0.299834
v 1.707378 1.377534 0.354655
v 1.707378 1.305094 0.796793
v 1.267264 1.377534 0.354655
v 1.267264 1.305094 0.796793
v 0.827150 1.377534 0.354655
v 0.827150 1.305094 0.796793
v 0.387036 1.377534 0.354655
v 0.387036 1.305094 0.796793
v -2.366623 1.290141 -0.300289
v -2.366623 1.210410 -0.786922
v -2.366623 1.422041 -0.300289
v -2.366623 1.342311 -0.786922
v 2.260467 1.210410 -0.786922
v 2.260467 1.290141 -0.300289
v 2.260467 1.342311 -0.786922
v 2.260467 1.422041 -0.300289
v 2.147492 1.341741 -0.790402
v 2.147492 1.413075 -0.355018
v -2.253647 1.413075 -0.355018
v -2.253647 1.341741 -0.790402
v 2.147492 1.306338 -0.790402
v 2.147492 1.377672 -0.355018
v -2.253647 1.377672 -0.355018
v -2.253647 1.306338 -0.790402
v -0.053078 1.306338 -0.790402
v -0.053078 1.377672 -0.355018
v 1.797759 1.290141 -0.300289
v 1.797759 1.210410 -0.786922
v 1.707378 1.306338 -0.790402
v 1.707378 1.377672 -0.355018
v 1.267264 1.306338 -0.790402
v 1.267264 1.377672 -0.355018
v 0.827150 1.306338 -0.790402
v 0.827150 1.377672 -0.355018
v 0.387036 1.306338 -0.790402
v 0.387036 1.377672 -0.355018
v -0.053078 1.418259 0.354655
v -0.053078 1.345818 0.796793
v 1.267264 1.418259 0.354655
v 1.267264 1.345818 0.796793
v 0.827150 1.418259 0.354655
v 0.827150 1.345818 0.796793
v 0.387036 1.418259 0.354655
v 0.387036 1.345818 0.796793
v -0.053078 1.347063 -0.790402
v -0.053078 1.418396 -0.355018
v 1.267264 1.347063 -0.790402
v 1.267264 1.418396 -0.355018
v 0.827150 1.347063 -0.790402
v 0.827150 1.418396 -0.355018
v 0.387036 1.347063 -0.790402
v 0.387036 1.418396 -0.355018
v 1.203784 1.411182 0.397849
v 0.890630 1.411182 0.397849
v 0.890630 1.352895 0.753599
v 1.203784 1.352895 0.753599
v 0.323556 1.411182 0.397849
v 0.010402 1.411182 0.397849
v 0.010402 1.352895 0.753599
v 0.323556 1.352895 0.753599
v 1.203784 1.354140 -0.747208
v 0.890630 1.354140 -0.747208
v 0.890630 1.411319 -0.398212
v 1.203784 1.411319 -0.398212
v 0.323556 1.354140 -0.747208
v 0.010402 1.354140 -0.747208
v 0.010402 1.411319 -0.398212
v 0.323556 1.411319 -0.398212
v 0.890630 1.454348 0.397849
v 1.203784 1.454348 0.397849
v 1.203784 1.396061 0.753599
v 0.890630 1.396061 0.753599
v 0.010402 1.454348 0.397849
v 0.323556 1.454348 0.397849
v 0.323556 1.396061 0.753599
v 0.010402 1.396061 0.753599
v 0.890630 1.397306 -0.747208
v 1.203784 1.397306 -0.747208
v 1.203784 1.454486 -0.398212
v 0.890630 1.454486 -0.398212
v 0.010402 1.397306 -0.747208
v 0.323556 1.397306 -0.747208
v 0.323556 1.454486 -0.398212
v 0.010402 1.454486 -0.398212
v 2.005847 0.706263 -0.284905
v 2.005847 0.981099 -0.284905
v 2.005847 0.981099 -0.018080
v 2.005847 0.706263 -0.018080
v 2.005847 0.706263 -1.190250
v 2.005847 0.981099 -1.190250
v 2.005847 0.981099 -0.923425
v 2.005847 0.706263 -0.923425
v 2.005847 0.706263 -0.888469
v 2.005847 0.981099 -0.888468
v 2.005847 0.981099 -0.621643
v 2.005847 0.706263 -0.621643
v 2.005847 0.706263 0.016877
v 2.005847 0.981099 0.016877
v 2.005847 0.981099 0.283702
v 2.005847 0.706263 0.283702
v 2.005847 0.706263 0.620440
v 2.005847 0.981099 0.620440
v 2.005847 0.981099 0.887266
v 2.005847 0.706263 0.887266
v 2.005847 0.706263 0.922222
v 2.005847 0.981099 0.922222
v 2.005847 0.981099 1.189047
v 2.005847 0.706263 1.189047
v 1.978524 0.981099 -0.284905
v 1.978524 0.706263 -0.284905
v 1.978524 0.706263 -0.018080
v 1.978524 0.981099 -0.018080
v 1.978524 0.981099 -1.190250
v 1.978524 0.706263 -1.190250
v 1.978524 0.706263 -0.923425
v 1.978524 0.981099 -0.923425
v 1.978524 0.981099 -0.888468
v 1.978524 0.706263 -0.888469
v 1.978524 0.706263 -0.621643
v 1.978524 0.981099 -0.621643
v 1.978524 0.981099 0.016877
v 1.978524 0.706263 0.016877
v 1.978524 0.706263 0.283702
v 1.978524 0.981099 0.283702
v 1.978524 0.981099 0.620440
v 1.978524 0.706263 0.620440
v 1.978524 0.706263 0.887266
v 1.978524 0.981099 0.887266
v 1.978524 0.981099 0.922222
v 1.978524 0.706263 0.922222
v 1.978524 0.706263 1.189047
v 1.978524 0.981099 1.189047
v 1.974987 -0.002006 0.301190
v 1.974987 -0.002006 -0.000601
v 1.974987 0.395137 -0.000601
v 1.974987 0.395137 0.301190
v 1.974987 -0.002006 -0.302393
v 1.974987 -0.002006 -0.604184
v 1.974987 -0.002006 -0.905975
v 1.974987 -0.002006 -1.207766
v 1.974987 0.395137 -0.302393
v 1.974987 0.395137 -0.604184
v 1.974987 0.395137 -0.905975
v 1.974987 0.395137 -1.207766
v 1.974987 -0.002006 1.206563
v 1.974987 -0.002006 0.904772
v 1.974987 -0.002006 0.602981
v 1.974987 0.395137 1.206563
v 1.974987 0.395137 0.904772
v 1.974987 0.395137 0.602981
vn -0.0000 -0.0000 1.0000
vn -0.0000 1.0000 -0.0000
vn 1.0000 -0.0000 -0.0000
vn -1.0000 -0.0000 -0.0000
vn -0.0000 -1.0000 -0.0000
vn -0.0000 -0.0000 -1.0000
vn -0.0000 0.9868 0.1617
vn -0.0000 0.9868 -0.1617
vn -0.0000 -0.9868 -0.1617
vn -0.0000 0.3774 -0.9260
vn -0.0000 0.3774 0.9260
vn -0.0000 0.8075 0.5898
vn -0.0000 0.9507 0.3100
vn -0.0000 0.9953 0.0966
vn -0.0000 0.9953 -0.0966
vn -0.0000 0.9507 -0.3100
vn -0.0000 0.8075 -0.5898
vn -0.0000 -0.9868 0.1617
vt 0.084464 0.550780
vt 0.084464 0.567310
vt 0.064202 0.579018
vt 0.064202 0.562489
vt 0.601697 0.250825
vt 0.564996 0.229617
vt 0.566470 0.224091
vt 0.603980 0.245766
vt 0.084464 0.507296
vt 0.064202 0.519004
vt 0.601697 0.294310
vt 0.564996 0.273102
vt 0.394514 0.709877
vt 0.394514 0.753362
vt 0.431215 0.774570
vt 0.431215 0.731085
vt 0.211007 0.603837
vt 0.247709 0.625045
vt 0.284410 0.646253
vt 0.321111 0.667461
vt 0.357813 0.688669
vt 0.429741 0.736611
vt 0.392231 0.714936
vt 0.354721 0.693260
vt 0.317211 0.671585
vt 0.279701 0.649909
vt 0.242190 0.628234
vt 0.204680 0.606558
vt 0.167170 0.584883
vt 0.129660 0.563207
vt 0.092150 0.541532
vt 0.054640 0.519856
vt 0.100904 0.540212
vt 0.137605 0.561420
vt 0.174306 0.582629
vt 0.860732 0.402963
vt 0.893182 0.421715
vt 0.889859 0.423635
vt 0.857409 0.404884
vt 0.911564 0.453512
vt 0.932009 0.441698
vt 0.941572 0.440846
vt 0.924937 0.450459
vt 0.210999 0.578747
vt 0.247701 0.599956
vt 0.284403 0.621164
vt 0.321106 0.642373
vt 0.357808 0.663582
vt 0.394511 0.684791
vt 0.431213 0.705999
vt 0.431213 0.689875
vt 0.394511 0.668666
vt 0.357808 0.647457
vt 0.321106 0.626248
vt 0.284403 0.605039
vt 0.247701 0.583831
vt 0.210999 0.562622
vt 0.174296 0.541413
vt 0.137594 0.520204
vt 0.100891 0.498996
vt 0.064189 0.477787
vt 0.064189 0.493912
vt 0.100891 0.515120
vt 0.137594 0.536329
vt 0.174296 0.557538
vt 0.785204 0.356865
vt 0.748502 0.335657
vt 0.754021 0.332468
vt 0.791531 0.354144
vt 0.791531 0.329050
vt 0.754021 0.307375
vt 0.748510 0.310559
vt 0.785213 0.331768
vt 0.392231 0.689842
vt 0.429741 0.711518
vt 0.941572 0.415752
vt 0.924937 0.425365
vt 0.332922 0.322497
vt 0.314594 0.333089
vt 0.296453 0.343571
vt 0.261119 0.363989
vt 0.261119 0.308243
vt 0.296453 0.287825
vt 0.314594 0.277343
vt 0.332922 0.266751
vt 0.368195 0.246368
vt 0.368195 0.302114
vt 0.601701 0.209599
vt 0.564998 0.188390
vt 0.564998 0.132644
vt 0.601701 0.153853
vt 0.204680 0.581464
vt 0.242190 0.603140
vt 0.603980 0.220673
vt 0.566470 0.198997
vt 0.564998 0.204515
vt 0.601701 0.225724
vt 0.071076 0.485265
vt 0.054640 0.494762
vt 0.084446 0.482206
vt 0.932022 0.416603
vt 0.911583 0.428414
vt 0.663478 0.555659
vt 0.681618 0.545176
vt 0.699947 0.534585
vt 0.735219 0.514202
vt 0.735219 0.458456
vt 0.699947 0.478839
vt 0.681618 0.489430
vt 0.663478 0.499913
vt 0.628143 0.520331
vt 0.628143 0.576077
vt 0.284403 0.549293
vt 0.247701 0.528085
vt 0.210999 0.506876
vt 0.821915 0.281106
vt 0.858617 0.302315
vt 0.854857 0.304488
vt 0.818154 0.283279
vt 0.137594 0.464458
vt 0.100891 0.443250
vt 0.064189 0.422041
vt 0.662850 0.576813
vt 0.685656 0.563635
vt 0.681618 0.561301
vt 0.663478 0.571784
vt 0.333541 0.333597
vt 0.310555 0.346880
vt 0.314594 0.349213
vt 0.332922 0.338622
vt 0.663478 0.596870
vt 0.681612 0.586392
vt 0.685656 0.588729
vt 0.662850 0.601907
vt 0.332922 0.363723
vt 0.332922 0.407208
vt 0.314599 0.417795
vt 0.314599 0.374310
vt 0.332922 0.423737
vt 0.314599 0.434325
vt 0.451477 0.719377
vt 0.446177 0.727113
vt 0.628145 0.617288
vt 0.626738 0.622775
vt 0.446177 0.702020
vt 0.451470 0.694294
vt 0.626738 0.597681
vt 0.628143 0.592202
vt 0.841038 0.469179
vt 0.876310 0.448797
vt 0.932022 0.400478
vt 0.911583 0.412289
vt 0.876310 0.432672
vt 0.841038 0.453054
vt 0.805765 0.473437
vt 0.770492 0.493820
vt 0.592808 0.596496
vt 0.557474 0.616914
vt 0.522139 0.637332
vt 0.486804 0.657751
vt 0.451470 0.678169
vt 0.486804 0.673876
vt 0.522139 0.653457
vt 0.557474 0.633039
vt 0.592808 0.612620
vt 0.699947 0.550710
vt 0.735219 0.530327
vt 0.770492 0.509944
vt 0.805765 0.489562
vt 0.287749 0.360058
vt 0.296453 0.359696
vt 0.107188 0.464397
vt 0.119780 0.461788
vt 0.296466 0.428274
vt 0.296466 0.384789
vt 0.119798 0.486878
vt 0.119798 0.530363
vt 0.296466 0.444803
vt 0.119798 0.546892
vt 0.564996 0.289631
vt 0.544551 0.301445
vt 0.544551 0.284916
vt 0.368193 0.386826
vt 0.368193 0.403355
vt 0.601697 0.317779
vt 0.581253 0.329593
vt 0.544551 0.241431
vt 0.368193 0.343341
vt 0.785204 0.444641
vt 0.764759 0.456455
vt 0.728058 0.442187
vt 0.748502 0.430373
vt 0.549835 0.233703
vt 0.549835 0.208610
vt 0.026015 0.587960
vt 0.010543 0.576094
vt 0.010543 0.594609
vt 0.026015 0.606475
vt 0.120202 0.678713
vt 0.180205 0.724733
vt 0.206025 0.744535
vt 0.216743 0.752756
vt 0.216743 0.734242
vt 0.206025 0.726021
vt 0.180205 0.706219
vt 0.120202 0.660198
vt 0.544559 0.200201
vt 0.544559 0.144455
vt 0.544559 0.216326
vt 0.369590 0.312766
vt 0.368195 0.318239
vt 0.708643 0.550352
vt 0.888888 0.446196
vt 0.699934 0.575804
vt 0.708643 0.575446
vt 0.876293 0.473894
vt 0.888888 0.471290
vt 0.261132 0.465221
vt 0.261132 0.448692
vt 0.225799 0.485639
vt 0.225799 0.469109
vt 0.190465 0.506057
vt 0.190465 0.489527
vt 0.155131 0.526474
vt 0.155131 0.509945
vt 0.261132 0.405207
vt 0.505732 0.266687
vt 0.505732 0.304524
vt 0.511475 0.307843
vt 0.511475 0.270006
vt 0.399917 0.365670
vt 0.371741 0.381951
vt 0.377485 0.385271
vt 0.405660 0.368989
vt 0.158680 0.467233
vt 0.186917 0.450916
vt 0.192661 0.454236
vt 0.164424 0.470553
vt 0.553930 0.700835
vt 0.553930 0.662998
vt 0.548186 0.659679
vt 0.548186 0.697516
vt 0.474013 0.185221
vt 0.509286 0.164838
vt 0.516691 0.169117
vt 0.481419 0.189500
vt 0.190450 0.349080
vt 0.225784 0.328662
vt 0.233189 0.332941
vt 0.197855 0.353359
vt 0.190450 0.404826
vt 0.155115 0.425245
vt 0.155115 0.369498
vt 0.876310 0.376926
vt 0.868905 0.372647
vt 0.868905 0.428393
vt 0.251637 0.380926
vt 0.261119 0.380114
vt 0.215525 0.401794
vt 0.225784 0.400533
vt 0.179412 0.422661
vt 0.190450 0.420951
vt 0.143300 0.443529
vt 0.155115 0.441369
vt 0.119780 0.445663
vt 0.127186 0.449942
vt 0.162520 0.429524
vt 0.557474 0.561168
vt 0.522139 0.581586
vt 0.841038 0.397308
vt 0.833632 0.448775
vt 0.833632 0.393029
vt 0.438741 0.261349
vt 0.403468 0.281732
vt 0.410873 0.286011
vt 0.446146 0.265628
vt 0.482289 0.681152
vt 0.518402 0.660284
vt 0.554514 0.639417
vt 0.590626 0.618549
vt 0.486811 0.698959
vt 0.482289 0.706246
vt 0.522144 0.678541
vt 0.518402 0.685378
vt 0.557478 0.658123
vt 0.554514 0.664510
vt 0.592811 0.637706
vt 0.590626 0.643643
vt 0.638399 0.315518
vt 0.675100 0.336726
vt 0.711801 0.357934
vt 0.748502 0.379142
vt 0.785204 0.400350
vt 0.821905 0.421558
vt 0.858606 0.442766
vt 0.895308 0.463975
vt 0.932009 0.485183
vt 0.932009 0.501712
vt 0.895308 0.487444
vt 0.858606 0.473177
vt 0.821905 0.458909
vt 0.711801 0.402225
vt 0.675100 0.374076
vt 0.638399 0.345928
vt 0.371741 0.344114
vt 0.399917 0.327833
vt 0.405660 0.331152
vt 0.377485 0.347433
vt 0.186917 0.488754
vt 0.192661 0.492073
vt 0.525693 0.717152
vt 0.519949 0.713833
vt 0.525693 0.679315
vt 0.519949 0.675996
vt 0.766930 0.577751
vt 0.766930 0.539914
vt 0.761186 0.536595
vt 0.761186 0.574432
vt 0.738754 0.594033
vt 0.733010 0.590714
vt 0.735206 0.555422
vt 0.744692 0.554615
vt 0.770478 0.535040
vt 0.780741 0.533783
vt 0.805749 0.514658
vt 0.816790 0.512952
vt 0.841021 0.494276
vt 0.852839 0.492121
vt 0.744692 0.529521
vt 0.780741 0.508690
vt 0.816790 0.487859
vt 0.852839 0.467027
vt 0.486804 0.602005
vt 0.451470 0.622423
vt 0.431213 0.634128
vt 0.403468 0.225986
vt 0.438741 0.205603
vt 0.446146 0.209882
vt 0.410873 0.230265
vt 0.119780 0.389917
vt 0.162520 0.373778
vt 0.127186 0.394196
vt 0.805765 0.417691
vt 0.798360 0.413412
vt 0.798360 0.469158
vt 0.513786 0.229441
vt 0.509286 0.236709
vt 0.477737 0.250272
vt 0.474013 0.257091
vt 0.441688 0.271103
vt 0.438741 0.277474
vt 0.405639 0.291935
vt 0.403468 0.297857
vt 0.509286 0.220584
vt 0.375600 0.306394
vt 0.474013 0.240967
vt 0.514734 0.633053
vt 0.479399 0.653471
vt 0.375600 0.250648
vt 0.084446 0.466081
vt 0.084446 0.410335
vt 0.509280 0.305298
vt 0.509280 0.261813
vt 0.738754 0.556195
vt 0.733010 0.552876
vt 0.872744 0.516605
vt 0.872744 0.478768
vt 0.867001 0.475449
vt 0.867001 0.513286
vt 0.844569 0.532887
vt 0.838825 0.529568
vt 0.509280 0.321827
vt 0.474008 0.342209
vt 0.474008 0.325680
vt 0.438736 0.362591
vt 0.438736 0.346062
vt 0.403465 0.382973
vt 0.403465 0.366444
vt 0.257584 0.447918
vt 0.257584 0.410081
vt 0.229347 0.464235
vt 0.225799 0.425625
vt 0.229347 0.426398
vt 0.222250 0.468336
vt 0.222250 0.430499
vt 0.194013 0.484653
vt 0.190465 0.446042
vt 0.194013 0.446816
vt 0.158680 0.505071
vt 0.155131 0.466460
vt 0.151583 0.509171
vt 0.151583 0.471334
vt 0.123346 0.525489
vt 0.123346 0.487651
vt 0.486811 0.742444
vt 0.490359 0.737570
vt 0.490359 0.699732
vt 0.522144 0.722026
vt 0.518596 0.721253
vt 0.518596 0.683415
vt 0.557478 0.701608
vt 0.561026 0.696734
vt 0.561026 0.658897
vt 0.592811 0.681191
vt 0.589263 0.680417
vt 0.589263 0.642580
vt 0.596360 0.676316
vt 0.596360 0.638479
vt 0.628145 0.660773
vt 0.624597 0.659999
vt 0.624597 0.622162
vt 0.735206 0.598907
vt 0.770478 0.578525
vt 0.774026 0.573651
vt 0.774026 0.535813
vt 0.805749 0.558143
vt 0.802201 0.557369
vt 0.802201 0.519532
vt 0.809298 0.553269
vt 0.809298 0.515431
vt 0.841021 0.537761
vt 0.837473 0.536987
vt 0.837473 0.499150
vt 0.844569 0.495049
vt 0.876293 0.517379
vt 0.477556 0.320805
vt 0.474008 0.282195
vt 0.477556 0.282968
vt 0.470460 0.324906
vt 0.470460 0.287069
vt 0.442285 0.341187
vt 0.438736 0.302577
vt 0.442285 0.303350
vt 0.435188 0.345288
vt 0.435188 0.307451
vt 0.407013 0.361569
vt 0.403465 0.322959
vt 0.407013 0.323732
vt 0.263328 0.413400
vt 0.263328 0.451237
vt 0.235091 0.467554
vt 0.235091 0.429717
vt 0.227994 0.433818
vt 0.227994 0.471655
vt 0.199757 0.487972
vt 0.199757 0.450135
vt 0.164424 0.508390
vt 0.157327 0.474653
vt 0.157327 0.512491
vt 0.129090 0.528808
vt 0.129090 0.490970
vt 0.484615 0.696413
vt 0.484615 0.734251
vt 0.512852 0.717934
vt 0.512852 0.680096
vt 0.555282 0.655578
vt 0.555282 0.693415
vt 0.583519 0.677098
vt 0.583519 0.639261
vt 0.590616 0.635160
vt 0.590616 0.672997
vt 0.618853 0.656680
vt 0.618853 0.618843
vt 0.768282 0.532494
vt 0.768282 0.570332
vt 0.796457 0.554050
vt 0.796457 0.516213
vt 0.803554 0.512112
vt 0.803554 0.549950
vt 0.831729 0.533668
vt 0.831729 0.495831
vt 0.838825 0.491730
vt 0.483300 0.324125
vt 0.483300 0.286287
vt 0.476204 0.290388
vt 0.476204 0.328225
vt 0.448029 0.344507
vt 0.448029 0.306669
vt 0.440932 0.310770
vt 0.440932 0.348607
vt 0.412757 0.364889
vt 0.412757 0.327051
vt 0.911564 0.513526
vt 0.431215 0.791100
vt 0.451477 0.779391
vt 0.486811 0.758973
vt 0.522144 0.738555
vt 0.557478 0.718138
vt 0.592811 0.697720
vt 0.628145 0.677302
vt 0.663478 0.656884
vt 0.681612 0.646406
vt 0.699934 0.635818
vt 0.735206 0.615436
vt 0.770478 0.595054
vt 0.805749 0.574672
vt 0.841021 0.554290
vt 0.876293 0.533908
vt 0.394511 0.612920
vt 0.357808 0.591711
vt 0.225784 0.384408
vt 0.071076 0.510358
vt 0.513786 0.254535
vt 0.477737 0.275366
vt 0.441688 0.296197
vt 0.405639 0.317028
vt 0.369590 0.337859
vt 0.333541 0.358691
vt 0.310555 0.371973
vt 0.287749 0.385152
vt 0.251637 0.406020
vt 0.215525 0.426887
vt 0.179412 0.447755
vt 0.143300 0.468623
vt 0.107188 0.489491
vt 0.268524 0.368269
vt 0.233189 0.388687
vt 0.268524 0.312523
vt 0.197855 0.409105
vt 0.514734 0.577307
vt 0.479399 0.597725
vt 0.550068 0.612635
vt 0.585403 0.592216
vt 0.585403 0.536470
vt 0.550068 0.556889
vt 0.620738 0.571798
vt 0.620738 0.516052
vt 0.727814 0.509923
vt 0.763087 0.489540
vt 0.763087 0.433794
vt 0.727814 0.454177
vt 0.516691 0.224863
vt 0.481419 0.245246
vt 0.592808 0.540749
vt 0.770492 0.438074
vt 0.874863 0.499258
vt 0.838162 0.484991
vt 0.801460 0.470723
vt 0.895320 0.379269
vt 0.895320 0.323523
vt 0.932022 0.344732
vt 0.675105 0.196271
vt 0.675105 0.252017
vt 0.671345 0.254190
vt 0.671345 0.198444
vt 0.785213 0.259897
vt 0.785213 0.315643
vt 0.781452 0.317816
vt 0.781452 0.262070
vt 0.821915 0.336852
vt 0.181645 0.537167
vt 0.144942 0.515958
vt 0.365157 0.587465
vt 0.365157 0.643211
vt 0.711808 0.289350
vt 0.675105 0.268142
vt 0.638403 0.246933
vt 0.638403 0.230808
vt 0.711808 0.273225
vt 0.748510 0.294434
vt 0.858617 0.358061
vt 0.895320 0.395394
vt 0.858617 0.374185
vt 0.821915 0.352977
vt 0.279701 0.624815
vt 0.317211 0.646491
vt 0.354721 0.668167
vt 0.904061 0.394077
vt 0.866551 0.372401
vt 0.829041 0.350726
vt 0.895308 0.420490
vt 0.904061 0.419171
vt 0.858606 0.399282
vt 0.866551 0.397495
vt 0.821905 0.378074
vt 0.829041 0.375819
vt 0.682927 0.335023
vt 0.588740 0.262785
vt 0.532467 0.295303
vt 0.626655 0.367541
vt 0.686658 0.413561
vt 0.712477 0.433363
vt 0.723196 0.441584
vt 0.779468 0.409067
vt 0.768750 0.400846
vt 0.742931 0.381044
vt 0.856481 0.400507
vt 0.856481 0.439085
vt 0.853158 0.441005
vt 0.853158 0.402427
vt 0.750628 0.339339
vt 0.783078 0.358091
vt 0.779755 0.360011
vt 0.747305 0.341259
vt 0.321111 0.710946
vt 0.328491 0.663197
vt 0.328491 0.706681
vt 0.357813 0.732154
vt 0.365192 0.684405
vt 0.401894 0.705613
vt 0.691357 0.414039
vt 0.654655 0.385890
vt 0.617954 0.357742
vt 0.328454 0.622002
vt 0.144942 0.460212
vt 0.716511 0.285699
vt 0.679001 0.264024
vt 0.641491 0.242348
vt 0.092150 0.516438
vt 0.129660 0.538113
vt 0.167170 0.559789
vt 0.748510 0.238688
vt 0.744749 0.240861
vt 0.711808 0.217479
vt 0.708047 0.219653
vt 0.708047 0.275399
vt 0.818154 0.339025
vt 0.211008 0.647321
vt 0.247709 0.668530
vt 0.284410 0.689738
vt 0.100904 0.583697
vt 0.218387 0.599572
vt 0.218387 0.643057
vt 0.137605 0.604905
vt 0.174306 0.626113
vt 0.291790 0.685473
vt 0.291790 0.641988
vt 0.893182 0.460293
vt 0.889859 0.462213
vt 0.711801 0.314449
vt 0.675100 0.293241
vt 0.783078 0.396669
vt 0.779755 0.398589
vt 0.603823 0.293085
vt 0.603823 0.254507
vt 0.600500 0.256427
vt 0.600500 0.295005
vt 0.716511 0.310793
vt 0.679001 0.289117
vt 0.638399 0.272033
vt 0.641491 0.267442
vt 0.365192 0.727890
vt 0.401894 0.749098
vt 0.108283 0.535948
vt 0.108283 0.579433
vt 0.144985 0.600641
vt 0.144985 0.557156
vt 0.181686 0.578364
vt 0.181686 0.621849
vt 0.291752 0.600793
vt 0.328454 0.566256
vt 0.291752 0.545047
vt 0.181645 0.481421
vt 0.218347 0.558375
vt 0.218347 0.502629
vt 0.174296 0.485667
vt 0.321106 0.570502
vt 0.335159 0.738606
vt 0.463937 0.664190
vt 0.466628 0.660749
vt 0.467536 0.656078
vt 0.338758 0.730494
vt 0.337849 0.735165
vt 0.244192 0.675848
vt 0.372970 0.601433
vt 0.373879 0.607153
vt 0.376570 0.613704
vt 0.247791 0.688120
vt 0.245100 0.681569
vt 0.380939 0.620834
vt 0.386819 0.628268
vt 0.258041 0.702683
vt 0.252160 0.695249
vt 0.393984 0.635720
vt 0.402159 0.642905
vt 0.273380 0.717321
vt 0.265206 0.710136
vt 0.411029 0.649546
vt 0.420253 0.655389
vt 0.291475 0.729804
vt 0.282250 0.723962
vt 0.429478 0.660207
vt 0.438348 0.663817
vt 0.309569 0.738233
vt 0.300699 0.734623
vt 0.446522 0.666080
vt 0.453687 0.666908
vt 0.324909 0.741324
vt 0.317744 0.740495
vt 0.459568 0.666270
vt 0.338758 0.718590
vt 0.244192 0.663944
vt 0.330789 0.740686
vt 0.467536 0.644174
vt 0.372970 0.589529
vt 0.541473 0.134728
vt 0.541473 0.293577
vt 0.562101 0.305497
vt 0.562101 0.146648
vt 0.582730 0.293577
vt 0.582730 0.134728
vt 0.562101 0.281657
vt 0.562101 0.122808
vt 0.034043 0.427950
vt 0.034043 0.586799
vt 0.054671 0.598720
vt 0.054671 0.439870
vt 0.075300 0.586799
vt 0.075300 0.427950
vt 0.054671 0.574879
vt 0.054671 0.416030
vt 0.294264 0.277580
vt 0.294264 0.436429
vt 0.314892 0.448349
vt 0.314892 0.289500
vt 0.335520 0.436429
vt 0.335520 0.277580
vt 0.314892 0.424509
vt 0.314892 0.265659
vt 0.929740 0.359090
vt 0.909111 0.347170
vt 0.909111 0.506020
vt 0.929740 0.517940
vt 0.929740 0.335250
vt 0.929740 0.494099
vt 0.950368 0.347170
vt 0.950368 0.506020
vt 0.422310 0.652313
vt 0.401681 0.640393
vt 0.401681 0.799242
vt 0.422310 0.811162
vt 0.422310 0.628472
vt 0.422310 0.787322
vt 0.442938 0.640393
vt 0.442938 0.799242
vt 0.682530 0.501942
vt 0.661902 0.490022
vt 0.661902 0.648872
vt 0.682530 0.660792
vt 0.682530 0.478102
vt 0.682530 0.636951
vt 0.703158 0.490022
vt 0.703158 0.648872
vt 0.307377 0.425373
vt 0.291906 0.413507
vt 0.307377 0.443887
vt 0.291906 0.432021
vt 0.348178 0.399504
vt 0.404451 0.366986
vt 0.460723 0.334469
vt 0.516996 0.301951
vt 0.573268 0.269434
vt 0.588740 0.281300
vt 0.532467 0.313817
vt 0.476195 0.346335
vt 0.419922 0.378852
vt 0.363650 0.411370
vt 0.530824 0.327339
vt 0.584349 0.296409
vt 0.584349 0.291440
vt 0.530824 0.322370
vt 0.394514 0.776832
vt 0.100904 0.607167
vt 0.137605 0.635315
vt 0.174306 0.663464
vt 0.211008 0.691612
vt 0.247709 0.719761
vt 0.284410 0.734029
vt 0.321111 0.748296
vt 0.357813 0.762564
vt 0.704306 0.651815
vt 0.686526 0.644903
vt 0.405163 0.807491
vt 0.422943 0.814403
vt 0.227617 0.738469
vt 0.227617 0.756984
vt 0.253190 0.766925
vt 0.312372 0.789932
vt 0.405163 0.826005
vt 0.422943 0.832917
vt 0.312372 0.771418
vt 0.253190 0.748410
vt 0.779468 0.427581
vt 0.768750 0.419360
vt 0.742931 0.399558
vt 0.682927 0.353538
vt 0.573268 0.250919
vt 0.861780 0.472861
vt 0.944800 0.505135
vt 0.944800 0.500166
vt 0.861780 0.467892
vt 0.875097 0.464757
vt 0.967888 0.500830
vt 0.808831 0.452277
vt 0.785952 0.443382
vt 0.790342 0.431809
vt 0.815915 0.441750
vt 0.722524 0.402384
vt 0.745661 0.420130
vt 0.745661 0.415160
vt 0.722524 0.397415
vt 0.273585 0.761573
vt 0.250706 0.752678
vt 0.250706 0.747709
vt 0.273585 0.756604
vt 0.677177 0.659783
vt 0.409554 0.814431
vt 0.409554 0.809462
vt 0.677177 0.654814
vt 0.133507 0.670440
vt 0.049103 0.605705
vt 0.049103 0.600736
vt 0.133507 0.665471
vt 0.732427 0.474312
vt 0.785952 0.438413
vt 0.732427 0.469343
vt 0.478038 0.574778
vt 0.210415 0.729426
vt 0.210415 0.724456
vt 0.478038 0.569808
vt 0.531563 0.543848
vt 0.531563 0.538879
vt 0.518329 0.598030
vt 0.518329 0.593061
vt 0.730702 0.628854
vt 0.730702 0.623884
vt 0.187278 0.711680
vt 0.760578 0.619298
vt 0.742798 0.612386
vt 0.316726 0.451057
vt 0.316726 0.446088
vt 0.363650 0.392855
vt 0.348178 0.380989
vt 0.516996 0.283437
vt 0.460723 0.315954
vt 0.476195 0.327820
vt 0.404451 0.348472
vt 0.419922 0.360338
vt 0.686526 0.663418
vt 0.784226 0.597924
vt 0.837751 0.566994
vt 0.891275 0.536065
vt 0.911616 0.533348
vt 0.855343 0.565865
vt 0.799071 0.598383
vt 0.742798 0.630900
vt 0.985668 0.489228
vt 0.967888 0.482316
vt 0.911616 0.514833
vt 0.929396 0.521745
vt 0.855343 0.547351
vt 0.873123 0.554263
vt 0.799071 0.579868
vt 0.816851 0.586780
vt 0.790342 0.413294
vt 0.734070 0.445811
vt 0.759642 0.455753
vt 0.818824 0.478760
vt 0.875097 0.446243
vt 0.815915 0.423235
vt 0.498106 0.590169
vt 0.554378 0.557651
vt 0.610651 0.525134
vt 0.666923 0.492616
vt 0.723196 0.460099
vt 0.678903 0.505242
vt 0.625378 0.536171
vt 0.571853 0.567101
vt 0.985668 0.507742
vt 0.891275 0.531096
vt 0.837751 0.562025
vt 0.784226 0.592955
vt 0.692137 0.451059
vt 0.692137 0.446090
vt 0.638612 0.481989
vt 0.638612 0.477020
vt 0.585087 0.512918
vt 0.585087 0.507949
vt 0.571853 0.562132
vt 0.625378 0.531202
vt 0.678903 0.500272
vt 0.370251 0.420128
vt 0.370251 0.415158
vt 0.423775 0.389198
vt 0.423775 0.384229
vt 0.477300 0.358269
vt 0.477300 0.353299
vt 0.561950 0.490204
vt 0.508426 0.521133
vt 0.454655 0.479893
vt 0.508179 0.448964
vt 0.401130 0.510823
vt 0.454655 0.485610
vt 0.401130 0.516539
vt 0.187278 0.706711
vt 0.454901 0.552063
vt 0.615475 0.459274
vt 0.668999 0.428345
vt 0.454901 0.557779
vt 0.508426 0.526850
vt 0.668753 0.361144
vt 0.668753 0.356175
vt 0.326535 0.782157
vt 0.704306 0.670330
vt 0.760578 0.637812
vt 0.816851 0.605295
vt 0.873123 0.572777
vt 0.929396 0.540260
vt 0.701207 0.560681
vt 0.647682 0.591610
vt 0.594733 0.571026
vt 0.648257 0.540096
vt 0.541208 0.601956
vt 0.808831 0.447308
vt 0.755306 0.478237
vt 0.701782 0.509167
vt 0.808256 0.498821
vt 0.754731 0.529751
vt 0.561704 0.418034
vt 0.561704 0.423750
vt 0.508179 0.454680
vt 0.326535 0.777188
vt 0.594158 0.622540
vt 0.661231 0.543394
vt 0.699315 0.521386
vt 0.699315 0.527445
vt 0.661231 0.549453
vt 0.596625 0.621753
vt 0.554181 0.605253
vt 0.554181 0.611312
vt 0.596625 0.627812
vt 0.414103 0.516107
vt 0.452188 0.494100
vt 0.452188 0.500159
vt 0.414103 0.522166
vt 0.703674 0.559894
vt 0.703674 0.565953
vt 0.561950 0.495920
vt 0.647682 0.597327
vt 0.594733 0.576742
vt 0.701207 0.566397
vt 0.754731 0.535467
vt 0.701782 0.514883
vt 0.648257 0.545813
vt 0.594158 0.628256
vt 0.541208 0.607672
vt 0.615475 0.464991
vt 0.564417 0.487430
vt 0.602502 0.465423
vt 0.521153 0.454248
vt 0.559237 0.432240
vt 0.457368 0.549289
vt 0.495452 0.527282
vt 0.741758 0.537886
vt 0.634709 0.599746
vt 0.592266 0.583246
vt 0.602502 0.471482
vt 0.564417 0.493489
vt 0.521153 0.460307
vt 0.559237 0.438300
vt 0.495452 0.533341
vt 0.457368 0.555348
vt 0.741758 0.543945
vt 0.634709 0.605805
vt 0.592266 0.589305
vt 0.750628 0.377917
vt 0.860732 0.441541
vt 0.824031 0.420333
vt 0.824031 0.381755
vt 0.746377 0.375460
vt 0.746377 0.336882
vt 0.713927 0.356709
vt 0.713927 0.318131
vt 0.672974 0.333044
vt 0.672974 0.294466
vt 0.640524 0.314293
vt 0.640524 0.275715
vt 0.636273 0.311836
vt 0.636273 0.273258
vt 0.747305 0.379837
vt 0.857409 0.443462
vt 0.820708 0.422253
vt 0.820708 0.383675
vt 0.743054 0.338803
vt 0.743054 0.377381
vt 0.710604 0.358629
vt 0.710604 0.320051
vt 0.669651 0.296386
vt 0.669651 0.334964
vt 0.637201 0.316213
vt 0.637201 0.277635
vt 0.632950 0.275178
vt 0.632950 0.313756
vt 0.744749 0.296607
vt 0.891559 0.381443
vt 0.854857 0.360234
vt 0.891559 0.325696
vt 0.634642 0.232981
vt 0.634642 0.177235
vt 0.597940 0.211772
vt 0.597940 0.156026
vt 0.638403 0.175062
vt 0.615229 0.387104
vt 0.911583 0.356543
s 0
f 61/1/1 59/2/1 2/3/1 9/4/1
f 537/5/2 5/6/2 24/7/2 549/8/2
f 72/9/1 61/1/1 9/4/1 1/10/1
f 537/5/3 532/11/3 12/12/3 5/6/3
f 465/13/4 464/14/4 10/15/4 3/16/4
f 521/17/2 13/18/2 468/19/2 467/20/2 466/21/2 465/13/2 3/16/2 22/22/2 481/23/2 482/24/2 483/25/2 484/26/2 19/27/2 545/28/2 546/29/2 547/30/2 548/31/2 20/32/2 1/10/2 524/33/2 523/34/2 522/35/2
f 946/36/2 943/37/2 968/38/2 969/39/2
f 95/40/2 7/41/2 21/42/2 101/43/2
f 561/44/4 31/45/4 500/46/4 499/47/4 498/48/4 497/49/4 34/50/4 381/51/4 517/52/4 518/53/4 519/54/4 520/55/4 382/56/4 581/57/4 582/58/4 583/59/4 584/60/4 379/61/4 32/62/4 564/63/4 563/64/4 562/65/4
f 457/66/2 15/67/2 23/68/2 477/69/2
f 485/70/5 29/71/5 35/72/5 493/73/5
f 489/74/5 28/75/5 34/50/5 497/49/5
f 101/43/6 21/42/6 27/76/6 103/77/6
f 390/78/1 384/79/1 387/80/1 393/81/1 178/82/1 81/83/1 55/84/1 93/85/1 209/86/1 412/87/1
f 585/88/3 377/89/3 42/90/3 573/91/3
f 553/92/5 25/93/5 31/45/5 561/44/5
f 557/94/5 30/95/5 36/96/5 565/97/5
f 76/98/5 26/99/5 32/62/5 78/100/5
f 103/77/5 27/76/5 33/101/5 105/102/5
f 386/103/6 383/104/6 391/105/6 403/106/6 248/107/6 108/108/6 54/109/6 68/110/6 139/111/6 402/112/6
f 581/57/4 382/56/4 520/55/4 508/113/4 37/114/4 569/115/4
f 502/116/2 503/117/2 993/118/2 992/119/2
f 379/61/4 584/60/4 583/59/4 571/120/4 572/121/4 38/122/4
f 64/123/5 50/124/5 52/125/5 66/126/5
f 89/127/5 51/128/5 53/129/5 91/130/5
f 56/131/2 43/132/2 48/133/2 62/134/2
f 84/135/1 100/136/1 47/137/1 45/138/1
f 100/136/1 98/139/1 46/140/1 47/137/1
f 3/16/2 57/141/2 63/142/2 22/22/2
f 109/143/2 56/131/2 62/134/2 124/144/2
f 28/75/5 65/145/5 67/146/5 34/50/5
f 129/147/5 64/123/5 66/126/5 134/148/5
f 240/149/6 239/150/6 105/102/6 33/101/6 380/151/6 392/152/6 407/153/6 406/154/6 405/155/6 404/156/6 403/106/6 391/105/6 383/104/6 386/103/6 402/112/6 401/157/6 400/158/6 399/159/6 398/160/6 385/161/6 381/51/6 34/50/6 67/146/6 138/162/6 137/163/6 136/164/6 135/165/6 134/148/6 66/126/6 52/125/6 106/166/6 243/167/6 242/168/6 241/169/6
f 51/128/5 77/170/5 79/171/5 53/129/5
f 164/172/5 76/98/5 78/100/5 169/173/5
f 45/138/1 47/137/1 60/174/1 73/175/1
f 149/176/1 123/177/1 61/1/1 72/9/1
f 47/137/1 46/140/1 58/178/1 60/174/1
f 123/177/1 118/179/1 59/2/1 61/1/1
f 12/12/1 6/180/1 97/181/1 99/182/1
f 228/183/1 223/184/1 98/139/1 100/136/1
f 528/185/7 580/186/7 97/181/7 6/180/7
f 5/6/1 12/12/1 99/182/1 85/187/1
f 184/188/1 228/183/1 100/136/1 84/135/1
f 472/189/8 512/190/8 86/191/8 16/192/8
f 24/7/1 88/193/1 90/194/1 30/95/1
f 716/195/4 703/196/4 714/197/4 718/198/4 841/199/4 842/200/4 724/201/4 709/202/4 707/203/4 723/204/4 840/205/4 839/206/4
f 377/89/1 389/207/1 94/208/1 42/90/1
f 30/95/5 90/194/5 92/209/5 36/96/5
f 199/210/5 89/127/5 91/130/5 204/211/5
f 50/124/5 104/212/5 106/166/5 52/125/5
f 234/213/5 103/77/5 105/102/5 239/150/5
f 43/132/2 96/214/2 102/215/2 48/133/2
f 214/216/2 95/40/2 101/43/2 229/217/2
f 60/174/1 58/178/1 114/218/1 119/219/1
f 119/219/1 114/218/1 115/220/1 120/221/1
f 120/221/1 115/220/1 116/222/1 121/223/1
f 121/223/1 116/222/1 117/224/1 122/225/1
f 122/225/1 117/224/1 118/179/1 123/177/1
f 73/175/1 60/174/1 119/219/1 153/226/1
f 297/227/4 298/228/4 361/229/4 362/230/4
f 310/231/5 311/232/5 376/233/5 373/234/5
f 260/235/2 257/236/2 322/237/2 323/238/2
f 271/239/4 272/240/4 335/241/4 336/242/4
f 212/243/2 213/244/2 437/245/2 436/246/2
f 176/247/2 177/248/2 421/249/2 420/250/2
f 395/251/1 396/252/1 175/253/1 176/247/1
f 407/153/4 244/254/4 438/255/4 447/256/4
f 77/170/5 168/257/5 173/258/5 79/171/5
f 168/257/5 167/259/5 172/260/5 173/258/5
f 167/259/5 166/261/5 171/262/5 172/260/5
f 166/261/5 165/263/5 170/264/5 171/262/5
f 165/263/5 164/172/5 169/173/5 170/264/5
f 396/252/5 397/265/5 427/266/5 426/267/5
f 399/159/6 400/158/6 141/268/6 142/269/6
f 245/270/3 406/154/3 446/271/3 439/272/3
f 410/273/5 411/274/5 451/275/5 450/276/5
f 65/145/5 133/277/5 138/162/5 67/146/5
f 133/277/5 132/278/5 137/163/5 138/162/5
f 132/278/5 131/279/5 136/164/5 137/163/5
f 131/279/5 130/280/5 135/165/5 136/164/5
f 130/280/5 129/147/5 134/148/5 135/165/5
f 57/141/2 113/281/2 128/282/2 63/142/2
f 113/281/2 112/283/2 127/284/2 128/282/2
f 112/283/2 111/285/2 126/286/2 127/284/2
f 111/285/2 110/287/2 125/288/2 126/286/2
f 110/287/2 109/143/2 124/144/2 125/288/2
f 528/185/3 6/180/3 12/12/3 532/11/3 531/289/3 530/290/3 529/291/3 17/292/3 476/293/3 475/294/3 474/295/3 473/296/3 11/297/3 8/298/3 469/299/3 470/300/3 471/301/3 472/189/3 16/192/3 525/302/3 526/303/3 527/304/3
f 312/305/2 309/306/2 374/307/2 375/308/2
f 257/236/4 258/309/4 321/310/4 322/237/4
f 270/311/5 271/239/5 336/242/5 333/312/5
f 309/306/4 310/231/4 373/234/4 374/307/4
f 272/240/2 269/313/2 334/314/2 335/241/2
f 283/315/4 284/316/4 347/317/4 348/318/4
f 269/313/3 270/311/3 333/312/3 334/314/3
f 282/319/5 283/315/5 348/318/5 345/320/5
f 96/214/2 218/321/2 233/322/2 102/215/2
f 218/321/2 217/323/2 232/324/2 233/322/2
f 217/323/2 216/325/2 231/326/2 232/324/2
f 216/325/2 215/327/2 230/328/2 231/326/2
f 215/327/2 214/216/2 229/217/2 230/328/2
f 104/212/5 238/329/5 243/167/5 106/166/5
f 238/329/5 237/330/5 242/168/5 243/167/5
f 237/330/5 236/331/5 241/169/5 242/168/5
f 236/331/5 235/332/5 240/149/5 241/169/5
f 235/332/5 234/213/5 239/150/5 240/149/5
f 381/51/6 385/161/6 398/160/6 143/333/6 69/334/6 40/335/6
f 210/336/2 211/337/2 435/338/2 434/339/2
f 174/340/2 175/253/2 419/341/2 418/342/2
f 405/155/6 406/154/6 245/270/6 246/343/6
f 405/155/4 246/343/4 440/344/4 445/345/4
f 90/194/5 203/346/5 208/347/5 92/209/5
f 203/346/5 202/348/5 207/349/5 208/347/5
f 202/348/5 201/350/5 206/351/5 207/349/5
f 201/350/5 200/352/5 205/353/5 206/351/5
f 200/352/5 199/210/5 204/211/5 205/353/5
f 389/207/1 408/354/1 213/244/1 94/208/1
f 411/274/5 412/87/5 452/355/5 451/275/5
f 409/356/1 410/273/1 211/337/1 212/243/1
f 398/160/5 399/159/5 429/357/5 428/358/5
f 209/86/2 210/336/2 434/339/2 433/359/2
f 388/360/1 379/61/1 38/122/1 80/361/1 174/340/1 397/265/1
f 85/187/1 99/182/1 224/362/1 188/363/1
f 284/316/2 281/364/2 346/365/2 347/317/2
f 295/366/4 296/367/4 359/368/4 360/369/4
f 281/364/3 282/319/3 345/320/3 346/365/3
f 294/370/5 295/366/5 360/369/5 357/371/5
f 99/182/1 97/181/1 219/372/1 224/362/1
f 224/362/1 219/372/1 220/373/1 225/374/1
f 225/374/1 220/373/1 221/375/1 226/376/1
f 226/376/1 221/375/1 222/377/1 227/378/1
f 227/378/1 222/377/1 223/184/1 228/183/1
f 153/226/1 119/219/1 250/379/1 249/380/1
f 119/219/1 120/221/1 251/381/1 250/379/1
f 120/221/1 152/382/1 252/383/1 251/381/1
f 152/382/1 153/226/1 249/380/1 252/383/1
f 152/382/1 120/221/1 254/384/1 253/385/1
f 120/221/1 121/223/1 255/386/1 254/384/1
f 121/223/1 151/387/1 256/388/1 255/386/1
f 151/387/1 152/382/1 253/385/1 256/388/1
f 151/387/1 121/223/1 258/309/1 257/236/1
f 121/223/1 122/225/1 259/389/1 258/309/1
f 122/225/1 150/390/1 260/235/1 259/389/1
f 150/390/1 151/387/1 257/236/1 260/235/1
f 150/390/1 122/225/1 262/391/1 261/392/1
f 122/225/1 123/177/1 263/393/1 262/391/1
f 123/177/1 149/176/1 264/394/1 263/393/1
f 149/176/1 150/390/1 261/392/1 264/394/1
f 113/281/6 154/395/6 266/396/6 265/397/6
f 154/395/6 155/398/6 267/399/6 266/396/6
f 155/398/6 112/283/6 268/400/6 267/399/6
f 112/283/6 113/281/6 265/397/6 268/400/6
f 112/283/6 155/398/6 270/311/6 269/313/6
f 155/398/6 156/401/6 271/239/6 270/311/6
f 156/401/6 111/285/6 272/240/6 271/239/6
f 111/285/6 112/283/6 269/313/6 272/240/6
f 111/285/6 156/401/6 274/402/6 273/403/6
f 156/401/6 157/404/6 275/405/6 274/402/6
f 157/404/6 110/287/6 276/406/6 275/405/6
f 110/287/6 111/285/6 273/403/6 276/406/6
f 110/287/6 157/404/6 278/407/6 277/408/6
f 157/404/6 158/409/6 279/410/6 278/407/6
f 158/409/6 109/143/6 280/411/6 279/410/6
f 109/143/6 110/287/6 277/408/6 280/411/6
f 218/321/6 189/412/6 282/319/6 281/364/6
f 189/412/6 190/413/6 283/315/6 282/319/6
f 190/413/6 217/323/6 284/316/6 283/315/6
f 217/323/6 218/321/6 281/364/6 284/316/6
f 217/323/6 190/413/6 286/414/6 285/415/6
f 190/413/6 191/416/6 287/417/6 286/414/6
f 191/416/6 216/325/6 288/418/6 287/417/6
f 216/325/6 217/323/6 285/415/6 288/418/6
f 216/325/6 191/416/6 290/419/6 289/420/6
f 191/416/6 192/421/6 291/422/6 290/419/6
f 192/421/6 215/327/6 292/423/6 291/422/6
f 215/327/6 216/325/6 289/420/6 292/423/6
f 215/327/6 192/421/6 294/370/6 293/424/6
f 192/421/6 193/425/6 295/366/6 294/370/6
f 193/425/6 214/216/6 296/367/6 295/366/6
f 214/216/6 215/327/6 293/424/6 296/367/6
f 188/363/1 224/362/1 298/228/1 297/227/1
f 224/362/1 225/374/1 299/426/1 298/228/1
f 225/374/1 187/427/1 300/428/1 299/426/1
f 187/427/1 188/363/1 297/227/1 300/428/1
f 187/427/1 225/374/1 302/429/1 301/430/1
f 225/374/1 226/376/1 303/431/1 302/429/1
f 226/376/1 186/432/1 304/433/1 303/431/1
f 186/432/1 187/427/1 301/430/1 304/433/1
f 186/432/1 226/376/1 306/434/1 305/435/1
f 226/376/1 227/378/1 307/436/1 306/434/1
f 227/378/1 185/437/1 308/438/1 307/436/1
f 185/437/1 186/432/1 305/435/1 308/438/1
f 185/437/1 227/378/1 310/231/1 309/306/1
f 227/378/1 228/183/1 311/232/1 310/231/1
f 228/183/1 184/188/1 312/305/1 311/232/1
f 184/188/1 185/437/1 309/306/1 312/305/1
f 314/439/1 313/440/1 316/441/1 315/442/1
f 318/443/1 317/444/1 320/445/1 319/446/1
f 322/237/1 321/310/1 324/447/1 323/238/1
f 326/448/1 325/449/1 328/450/1 327/451/1
f 330/452/6 329/453/6 332/454/6 331/455/6
f 334/314/6 333/312/6 336/242/6 335/241/6
f 338/456/6 337/457/6 340/458/6 339/459/6
f 342/460/6 341/461/6 344/462/6 343/463/6
f 346/365/6 345/320/6 348/318/6 347/317/6
f 350/464/6 349/465/6 352/466/6 351/467/6
f 354/468/6 353/469/6 356/470/6 355/471/6
f 358/472/6 357/371/6 360/369/6 359/368/6
f 362/230/1 361/229/1 364/473/1 363/474/1
f 366/475/1 365/476/1 368/477/1 367/478/1
f 370/479/1 369/480/1 372/481/1 371/482/1
f 374/307/1 373/234/1 376/233/1 375/308/1
f 258/309/5 259/389/5 324/447/5 321/310/5
f 311/232/3 312/305/3 375/308/3 376/233/3
f 300/428/2 297/227/2 362/230/2 363/474/2
f 259/389/3 260/235/3 323/238/3 324/447/3
f 298/228/5 299/426/5 364/473/5 361/229/5
f 285/415/3 286/414/3 349/465/3 350/464/3
f 299/426/3 300/428/3 363/474/3 364/473/3
f 288/418/2 285/415/2 350/464/2 351/467/2
f 286/414/5 287/417/5 352/466/5 349/465/5
f 273/403/3 274/402/3 337/457/3 338/456/3
f 287/417/4 288/418/4 351/467/4 352/466/4
f 276/406/2 273/403/2 338/456/2 339/459/2
f 274/402/5 275/405/5 340/458/5 337/457/5
f 261/392/4 262/391/4 325/449/4 326/448/4
f 275/405/4 276/406/4 339/459/4 340/458/4
f 264/394/2 261/392/2 326/448/2 327/451/2
f 301/430/4 302/429/4 365/476/4 366/475/4
f 262/391/5 263/393/5 328/450/5 325/449/5
f 249/380/4 250/379/4 313/440/4 314/439/4
f 304/433/2 301/430/2 366/475/2 367/478/2
f 263/393/3 264/394/3 327/451/3 328/450/3
f 252/383/2 249/380/2 314/439/2 315/442/2
f 302/429/5 303/431/5 368/477/5 365/476/5
f 289/420/3 290/419/3 353/469/3 354/468/3
f 250/379/5 251/381/5 316/441/5 313/440/5
f 303/431/3 304/433/3 367/478/3 368/477/3
f 292/423/2 289/420/2 354/468/2 355/471/2
f 251/381/3 252/383/3 315/442/3 316/441/3
f 290/419/5 291/422/5 356/470/5 353/469/5
f 277/408/3 278/407/3 341/461/3 342/460/3
f 291/422/4 292/423/4 355/471/4 356/470/4
f 280/411/2 277/408/2 342/460/2 343/463/2
f 278/407/5 279/410/5 344/462/5 341/461/5
f 265/397/3 266/396/3 329/453/3 330/452/3
f 279/410/4 280/411/4 343/463/4 344/462/4
f 268/400/2 265/397/2 330/452/2 331/455/2
f 305/435/4 306/434/4 369/480/4 370/479/4
f 266/396/5 267/399/5 332/454/5 329/453/5
f 253/385/4 254/384/4 317/444/4 318/443/4
f 308/438/2 305/435/2 370/479/2 371/482/2
f 267/399/4 268/400/4 331/455/4 332/454/4
f 256/388/2 253/385/2 318/443/2 319/446/2
f 306/434/5 307/436/5 372/481/5 369/480/5
f 293/424/3 294/370/3 357/371/3 358/472/3
f 254/384/5 255/386/5 320/445/5 317/444/5
f 307/436/3 308/438/3 371/482/3 372/481/3
f 296/367/2 293/424/2 358/472/2 359/368/2
f 255/386/3 256/388/3 319/446/3 320/445/3
f 36/96/1 92/209/1 389/207/1 377/89/1
f 83/483/6 8/298/6 11/297/6 7/41/6 95/40/6 214/216/6 193/425/6 192/421/6 191/416/6 190/413/6 189/412/6 218/321/6 96/214/6 43/132/6 56/131/6 109/143/6 158/409/6 157/404/6 156/401/6 155/398/6 154/395/6 113/281/6 57/141/6 3/16/6 10/15/6 4/484/6 70/485/6 144/486/6 145/487/6 146/488/6 147/489/6 148/490/6 71/491/6 44/492/6 82/493/6 179/494/6 180/495/6 181/496/6 182/497/6 183/498/6
f 517/52/4 381/51/4 40/335/4 505/499/4 506/500/4 518/53/4
f 205/353/1 204/211/1 91/130/1 53/129/1 79/171/1 173/258/1 172/260/1 171/262/1 170/264/1 169/173/1 78/100/1 32/62/1 379/61/1 388/360/1 397/265/1 396/252/1 395/251/1 394/501/1 393/81/1 387/80/1 384/79/1 390/78/1 412/87/1 411/274/1 410/273/1 409/356/1 408/354/1 389/207/1 92/209/1 208/347/1 207/349/1 206/351/1
f 74/502/1 20/32/1 26/99/1 76/98/1 164/172/1 165/263/1 166/261/1 167/259/1 168/257/1 77/170/1 51/128/1 89/127/1 199/210/1 200/352/1 201/350/1 202/348/1 203/346/1 90/194/1 88/193/1 198/503/1 197/504/1 196/505/1 195/506/1 194/507/1 87/508/1 49/509/1 75/510/1 163/511/1 162/512/1 161/513/1 160/514/1 159/515/1
f 423/516/1 424/517/1 421/249/1 422/518/1
f 424/517/1 425/519/1 420/250/1 421/249/1
f 426/267/1 427/266/1 418/342/1 419/341/1
f 428/358/6 429/357/6 416/520/6 417/521/6
f 430/522/6 431/523/6 414/524/6 415/525/6
f 431/523/6 432/526/6 413/527/6 414/524/6
f 443/528/6 444/529/6 441/530/6 442/531/6
f 444/529/6 445/345/6 440/344/6 441/530/6
f 446/271/6 447/256/6 438/255/6 439/272/6
f 448/532/1 449/533/1 436/246/1 437/245/1
f 450/276/1 451/275/1 434/339/1 435/338/1
f 451/275/1 452/355/1 433/359/1 434/339/1
f 408/354/5 409/356/5 449/533/5 448/532/5
f 177/248/2 178/82/2 422/518/2 421/249/2
f 394/501/5 395/251/5 425/519/5 424/517/5
f 143/333/3 398/160/3 428/358/3 417/521/3
f 393/81/5 394/501/5 424/517/5 423/516/5
f 399/159/4 142/269/4 416/520/4 429/357/4
f 406/154/5 407/153/5 447/256/5 446/271/5
f 141/268/3 400/158/3 430/522/3 415/525/3
f 404/156/5 405/155/5 445/345/5 444/529/5
f 178/82/4 393/81/4 423/516/4 422/518/4
f 244/254/2 245/270/2 439/272/2 438/255/2
f 402/112/4 139/111/4 413/527/4 432/526/4
f 403/106/5 404/156/5 444/529/5 443/528/5
f 213/244/4 408/354/4 448/532/4 437/245/4
f 139/111/2 140/534/2 414/524/2 413/527/2
f 409/356/3 212/243/3 436/246/3 449/533/3
f 395/251/3 176/247/3 420/250/3 425/519/3
f 246/343/2 247/535/2 441/530/2 440/344/2
f 140/534/2 141/268/2 415/525/2 414/524/2
f 401/157/5 402/112/5 432/526/5 431/523/5
f 211/337/4 410/273/4 450/276/4 435/338/4
f 175/253/4 396/252/4 426/267/4 419/341/4
f 247/535/2 248/107/2 442/531/2 441/530/2
f 400/158/5 401/157/5 431/523/5 430/522/5
f 397/265/3 174/340/3 418/342/3 427/266/3
f 248/107/3 403/106/3 443/528/3 442/531/3
f 142/269/2 143/333/2 417/521/2 416/520/2
f 412/87/3 209/86/3 433/359/3 452/355/3
f 8/298/8 83/483/8 509/536/8 469/299/8
f 469/299/8 509/536/8 510/537/8 470/300/8
f 470/300/8 510/537/8 511/538/8 471/301/8
f 471/301/8 511/538/8 512/190/8 472/189/8
f 380/151/3 516/539/3 504/540/3 39/541/3
f 575/542/1 587/543/1 1004/544/1 1001/545/1
f 501/546/1 513/547/1 995/548/1 991/549/1
f 514/550/3 513/547/3 501/546/3 502/116/3
f 583/59/5 582/58/5 615/551/5 616/552/5
f 518/53/1 506/500/1 605/553/1 608/554/1
f 493/73/3 35/72/3 568/555/3 567/556/3 566/557/3 565/97/3 36/96/3 377/89/3 585/88/3 586/558/3 587/543/3 588/559/3 378/560/3 513/547/3 514/550/3 515/561/3 516/539/3 380/151/3 33/101/3 496/562/3 495/563/3 494/564/3
f 25/93/5 492/565/5 500/46/5 31/45/5
f 492/565/5 491/566/5 499/47/5 500/46/5
f 491/566/5 490/567/5 498/48/5 499/47/5
f 490/567/5 489/74/5 497/49/5 498/48/5
f 27/76/5 488/568/5 496/562/5 33/101/5
f 488/568/5 487/569/5 495/563/5 496/562/5
f 487/569/5 486/570/5 494/564/5 495/563/5
f 486/570/5 485/70/5 493/73/5 494/564/5
f 7/41/2 460/571/2 480/572/2 21/42/2
f 460/571/2 459/573/2 479/574/2 480/572/2
f 459/573/2 458/575/2 478/576/2 479/574/2
f 458/575/2 457/66/2 477/69/2 478/576/2
f 836/577/9 715/578/9 825/579/9 853/580/9 854/581/9 833/582/9 768/583/9 708/584/9 725/585/9 835/586/9
f 7/41/3 11/297/3 473/296/3 460/571/3
f 947/587/1 948/588/1 971/589/1 972/590/1
f 942/591/2 939/592/2 964/593/2 965/594/2
f 458/575/3 475/294/3 476/293/3 457/66/3
f 462/595/1 467/20/1 595/596/1 590/597/1
f 467/20/4 462/595/4 463/598/4 466/21/4
f 465/13/2 466/21/2 594/599/2 593/600/2
f 16/192/7 86/191/7 577/601/7 525/302/7
f 525/302/7 577/601/7 578/602/7 526/303/7
f 526/303/7 578/602/7 579/603/7 527/304/7
f 527/304/7 579/603/7 580/186/7 528/185/7
f 519/54/5 518/53/5 608/554/5 609/604/5
f 571/120/6 583/59/6 616/552/6 613/605/6
f 29/71/5 560/606/5 568/555/5 35/72/5
f 560/606/5 559/607/5 567/556/5 568/555/5
f 559/607/5 558/608/5 566/557/5 567/556/5
f 558/608/5 557/94/5 565/97/5 566/557/5
f 26/99/5 556/609/5 564/63/5 32/62/5
f 556/609/5 555/610/5 563/64/5 564/63/5
f 555/610/5 554/611/5 562/65/5 563/64/5
f 554/611/5 553/92/5 561/44/5 562/65/5
f 41/612/2 501/546/2 991/549/2 988/613/2
f 588/559/3 587/543/3 575/542/3 576/614/3
f 588/559/6 576/614/6 987/615/6 990/616/6
f 514/550/6 502/116/6 992/119/6 996/617/6
f 521/17/4 544/618/4 18/619/4 461/620/4 468/19/4 13/18/4
f 481/23/4 22/22/4 28/75/4 489/74/4 490/567/4 491/566/4 492/565/4 25/93/4 553/92/4 554/611/4 555/610/4 556/609/4 26/99/4 20/32/4 548/31/4 547/30/4 546/29/4 545/28/4 19/27/4 484/26/4 483/25/4 482/24/4
f 1/10/4 9/4/4 541/621/4 524/33/4
f 544/618/1 521/17/1 597/622/1 604/623/1
f 523/34/4 542/624/4 543/625/4 522/35/4
f 468/19/6 461/620/6 589/626/6 596/627/6
f 943/37/1 944/628/1 967/629/1 968/38/1
f 540/630/3 529/291/3 530/290/3 539/631/3
f 939/592/1 940/632/1 963/633/1 964/593/1
f 961/634/6 962/635/6 985/636/6 986/637/6
f 15/67/2 540/630/2 552/638/2 23/68/2
f 540/630/2 539/631/2 551/639/2 552/638/2
f 539/631/2 538/640/2 550/641/2 551/639/2
f 538/640/2 537/5/2 549/8/2 550/641/2
f 596/627/4 589/626/4 590/597/4 595/596/4
f 594/599/4 591/642/4 592/643/4 593/600/4
f 600/644/4 601/645/4 602/646/4 599/647/4
f 598/648/4 603/649/4 604/623/4 597/622/4
f 543/625/5 544/618/5 604/623/5 603/649/5
f 521/17/2 522/35/2 598/648/2 597/622/2
f 466/21/6 463/598/6 591/642/6 594/599/6
f 467/20/2 468/19/2 596/627/2 595/596/2
f 464/14/1 465/13/1 593/600/1 592/643/1
f 523/34/2 524/33/2 600/644/2 599/647/2
f 461/620/5 462/595/5 590/597/5 589/626/5
f 524/33/6 541/621/6 601/645/6 600/644/6
f 542/624/1 523/34/1 599/647/1 602/646/1
f 463/598/5 464/14/5 592/643/5 591/642/5
f 522/35/6 543/625/6 603/649/6 598/648/6
f 541/621/5 542/624/5 602/646/5 601/645/5
f 610/650/4 609/604/4 606/651/4 607/652/4
f 609/604/4 608/554/4 605/553/4 606/651/4
f 616/552/4 615/551/4 612/653/4 613/605/4
f 615/551/4 614/654/4 611/655/4 612/653/4
f 569/115/2 570/656/2 612/653/2 611/655/2
f 520/55/5 519/54/5 609/604/5 610/650/5
f 506/500/2 507/657/2 606/651/2 605/553/2
f 570/656/2 571/120/2 613/605/2 612/653/2
f 508/113/6 520/55/6 610/650/6 607/652/6
f 581/57/1 569/115/1 611/655/1 614/654/1
f 507/657/2 508/113/2 607/652/2 606/651/2
f 582/58/5 581/57/5 614/654/5 615/551/5
f 647/658/10 648/659/10 650/660/10 618/661/10 617/662/10 649/663/10
f 619/664/11 620/665/11 622/666/11 624/667/11 623/668/11 621/669/11
f 623/668/12 624/667/12 626/670/12 628/671/12 627/672/12 625/673/12
f 627/672/13 628/671/13 630/674/13 632/675/13 631/676/13 629/677/13
f 631/676/14 632/675/14 634/678/14 636/679/14 635/680/14 633/681/14
f 635/680/15 636/679/15 638/682/15 640/683/15 639/684/15 637/685/15
f 639/684/16 640/683/16 642/686/16 644/687/16 643/688/16 641/689/16
f 620/665/3 618/661/3 650/660/3 648/659/3 646/690/3 644/687/3 642/686/3 640/683/3 638/682/3 636/679/3 634/678/3 632/675/3 630/674/3 628/671/3 626/670/3 624/667/3 622/666/3
f 619/664/4 617/662/4 651/691/4 654/692/4
f 617/662/4 619/664/4 621/669/4 623/668/4 625/673/4 627/672/4 629/677/4 631/676/4 633/681/4 635/680/4 637/685/4 639/684/4 641/689/4 643/688/4 645/693/4 647/658/4 649/663/4
f 651/691/5 652/694/5 653/695/5 654/692/5
f 617/662/6 618/661/6 652/694/6 651/691/6
f 620/665/1 619/664/1 654/692/1 653/695/1
f 618/661/3 620/665/3 653/695/3 652/694/3
f 643/688/17 644/687/17 646/690/17 648/659/17 647/658/17 645/693/17
f 655/696/4 656/697/4 658/698/4 657/699/4
f 657/699/6 658/698/6 662/700/6 661/701/6
f 661/701/3 662/700/3 660/702/3 659/703/3
f 659/703/1 660/702/1 656/697/1 655/696/1
f 657/699/5 661/701/5 659/703/5 655/696/5
f 663/704/4 664/705/4 666/706/4 665/707/4
f 665/707/6 666/706/6 670/708/6 669/709/6
f 669/709/3 670/708/3 668/710/3 667/711/3
f 667/711/1 668/710/1 664/705/1 663/704/1
f 665/707/5 669/709/5 667/711/5 663/704/5
f 671/712/4 672/713/4 674/714/4 673/715/4
f 673/715/6 674/714/6 678/716/6 677/717/6
f 677/717/3 678/716/3 676/718/3 675/719/3
f 675/719/1 676/718/1 672/713/1 671/712/1
f 673/715/5 677/717/5 675/719/5 671/712/5
f 679/720/4 681/721/4 682/722/4 680/723/4
f 681/721/1 685/724/1 686/725/1 682/722/1
f 685/724/3 683/726/3 684/727/3 686/725/3
f 683/726/6 679/720/6 680/723/6 684/727/6
f 681/721/5 679/720/5 683/726/5 685/724/5
f 687/728/4 689/729/4 690/730/4 688/731/4
f 689/729/1 693/732/1 694/733/1 690/730/1
f 693/732/3 691/734/3 692/735/3 694/733/3
f 691/734/6 687/728/6 688/731/6 692/735/6
f 689/729/5 687/728/5 691/734/5 693/732/5
f 695/736/4 697/737/4 698/738/4 696/739/4
f 697/737/1 701/740/1 702/741/1 698/738/1
f 701/740/3 699/742/3 700/743/3 702/741/3
f 699/742/6 695/736/6 696/739/6 700/743/6
f 697/737/5 695/736/5 699/742/5 701/740/5
f 753/744/9 748/745/9 703/196/9 716/195/9
f 752/746/7 718/198/7 714/197/7 750/747/7 824/748/7 823/749/7 822/750/7 821/751/7 713/752/7 717/753/7 780/754/7 779/755/7 778/756/7 777/757/7
f 792/758/6 734/759/6 741/760/6 808/761/6
f 456/762/4 4/484/4 10/15/4 464/14/4 463/598/4 462/595/4 461/620/4 18/619/4 544/618/4 543/625/4 542/624/4 541/621/4 9/4/4 2/3/4 533/763/4 534/764/4 535/765/4 536/766/4 14/767/4 453/768/4 454/769/4 455/770/4
f 747/771/18 755/772/18 719/773/18 704/774/18
f 729/775/4 707/203/4 709/202/4 730/776/4 865/777/4 866/778/4 721/779/4 710/780/4 704/774/4 719/773/4 864/781/4 863/782/4
f 725/585/3 708/584/3 712/783/3 726/784/3 837/785/3 838/786/3 717/753/3 713/752/3 705/787/3 715/578/3 836/577/3 835/586/3
f 871/788/4 735/789/4 744/790/4 875/791/4
f 869/792/8 722/793/8 735/789/8 871/788/8 872/794/8 738/795/8 728/796/8 870/797/8
f 843/798/4 731/799/4 740/800/4 847/801/4
f 873/802/3 737/803/3 746/804/3 877/805/3
f 758/806/1 736/807/1 743/808/1 762/809/1
f 845/810/3 733/811/3 742/812/3 849/813/3
f 800/814/6 738/795/6 745/815/6 816/816/6
f 756/817/1 732/818/1 739/819/1 760/820/1
f 785/821/1 756/817/1 760/820/1 801/822/1
f 737/803/6 759/823/6 763/824/6 746/804/6
f 793/825/1 758/806/1 762/809/1 809/826/1
f 841/199/7 718/198/7 733/811/7 845/810/7 846/827/7 732/818/7 724/201/7 842/200/7
f 764/828/18 832/829/18 755/772/18 747/771/18
f 733/811/6 757/830/6 761/831/6 742/812/6
f 549/8/3 24/7/3 30/95/3 557/94/3 558/608/3 559/607/3 560/606/3 29/71/3 485/70/3 486/570/3 487/569/3 488/568/3 27/76/3 21/42/3 480/572/3 479/574/3 478/576/3 477/69/3 23/68/3 552/638/3 551/639/3 550/641/3
f 828/832/9 820/833/9 748/745/9 753/744/9
f 715/578/9 705/787/9 817/834/9 825/579/9
f 825/579/9 817/834/9 818/835/9 826/836/9
f 826/836/9 818/835/9 819/837/9 827/838/9
f 827/838/9 819/837/9 820/833/9 828/832/9
f 817/834/1 705/787/1 713/752/1 821/751/1 822/750/1 823/749/1 824/748/1 750/747/1 714/197/1 703/196/1 748/745/1 820/833/1 819/837/1 818/835/1
f 62/134/6 48/133/6 102/215/6 233/322/6 232/324/6 231/326/6 230/328/6 229/217/6 101/43/6 103/77/6 234/213/6 235/332/6 236/331/6 237/330/6 238/329/6 104/212/6 50/124/6 64/123/6 129/147/6 130/280/6 131/279/6 132/278/6 133/277/6 65/145/6 28/75/6 22/22/6 63/142/6 128/282/6 127/284/6 126/286/6 125/288/6 124/144/6
f 754/839/8 721/779/8 736/807/8 758/806/8 793/825/8 794/840/8 795/841/8 796/842/8 735/789/8 722/793/8 784/843/8 783/844/8 782/845/8 781/846/8
f 706/847/18 720/848/18 829/849/18 767/850/18
f 767/850/18 829/849/18 830/851/18 766/852/18
f 766/852/18 830/851/18 831/853/18 765/854/18
f 765/854/18 831/853/18 832/829/18 764/828/18
f 727/855/18 708/584/18 768/583/18 834/856/18 881/857/18 882/858/18 829/849/18 720/848/18 867/859/18 868/860/18
f 730/776/8 709/202/8 751/861/8 773/862/8 774/863/8 775/864/8 776/865/8 712/783/8 728/796/8 738/795/8 800/814/8 799/866/8 798/867/8 797/868/8 759/823/8 737/803/8
f 720/848/3 706/847/3 711/869/3 722/793/3 869/792/3 870/797/3 728/796/3 712/783/3 708/584/3 727/855/3 868/860/3 867/859/3
f 735/789/1 796/842/1 812/870/1 744/790/1
f 796/842/1 795/841/1 811/871/1 812/870/1
f 795/841/1 794/840/1 810/872/1 811/871/1
f 794/840/1 793/825/1 809/826/1 810/872/1
f 731/799/1 788/873/1 804/874/1 740/800/1
f 788/873/1 787/875/1 803/876/1 804/874/1
f 787/875/1 786/877/1 802/878/1 803/876/1
f 786/877/1 785/821/1 801/822/1 802/878/1
f 759/823/6 797/868/6 813/879/6 763/824/6
f 797/868/6 798/867/6 814/880/6 813/879/6
f 798/867/6 799/866/6 815/881/6 814/880/6
f 799/866/6 800/814/6 816/816/6 815/881/6
f 757/830/6 789/882/6 805/883/6 761/831/6
f 789/882/6 790/884/6 806/885/6 805/883/6
f 790/884/6 791/886/6 807/887/6 806/885/6
f 791/886/6 792/758/6 808/761/6 807/887/6
f 859/888/7 861/889/7 862/890/7 860/891/7
f 852/892/1 862/890/1 898/893/1 892/894/1
f 802/878/7 801/822/7 760/820/7 739/819/7 850/895/7 851/896/7 861/889/7 859/888/7 857/897/7 855/898/7 847/801/7 740/800/7 804/874/7 803/876/7
f 751/861/7 709/202/7 724/201/7 732/818/7 756/817/7 785/821/7 786/877/7 787/875/7 788/873/7 731/799/7 726/784/7 712/783/7 776/865/7 775/864/7 774/863/7 773/862/7
f 861/889/6 851/896/6 891/899/6 897/900/6
f 732/818/3 846/827/3 850/895/3 739/819/3
f 846/827/3 845/810/3 849/813/3 850/895/3
f 734/759/4 844/901/4 848/902/4 741/760/4
f 844/901/4 843/798/4 847/801/4 848/902/4
f 851/896/7 850/895/7 849/813/7 852/892/7
f 780/754/7 717/753/7 734/759/7 792/758/7 791/886/7 790/884/7 789/882/7 757/830/7 733/811/7 718/198/7 752/746/7 777/757/7 778/756/7 779/755/7
f 865/777/8 730/776/8 737/803/8 873/802/8 874/903/8 736/807/8 721/779/8 866/778/8
f 747/771/6 704/774/6 710/780/6 749/904/6 769/905/6 770/906/6 771/907/6 772/908/6 711/869/6 706/847/6 767/850/6 766/852/6 765/854/6 764/828/6
f 887/909/8 889/910/8 890/911/8 888/912/8
f 851/896/4 852/892/4 892/894/4 891/899/4
f 880/913/8 877/805/8 746/804/8 763/824/8 813/879/8 814/880/8 815/881/8 816/816/8 745/815/8 876/914/8 884/915/8 886/916/8 888/912/8 890/911/8
f 883/917/8 885/918/8 886/916/8 884/915/8 876/914/8 875/791/8
f 860/891/1 858/919/1 894/920/1 896/921/1
f 736/807/3 874/903/3 878/922/3 743/808/3
f 874/903/3 873/802/3 877/805/3 878/922/3
f 879/923/8 878/922/8 877/805/8 880/913/8
f 837/785/7 726/784/7 731/799/7 843/798/7 844/901/7 734/759/7 717/753/7 838/786/7
f 749/904/8 710/780/8 721/779/8 754/839/8 781/846/8 782/845/8 783/844/8 784/843/8 722/793/8 711/869/8 772/908/8 771/907/8 770/906/8 769/905/8
f 738/795/4 872/794/4 876/914/4 745/815/4
f 872/794/4 871/788/4 875/791/4 876/914/4
f 917/924/1 918/925/1 933/926/1 934/927/1
f 920/928/4 921/929/4 938/930/4 935/931/4
f 913/932/1 914/933/1 929/934/1 930/935/1
f 916/936/4 917/924/4 934/927/4 931/937/4
f 859/888/4 860/891/4 896/921/4 895/938/4
f 890/911/3 889/910/3 905/939/3 906/940/3
f 862/890/3 861/889/3 897/900/3 898/893/3
f 885/918/6 887/909/6 903/941/6 901/942/6
f 886/916/3 885/918/3 901/942/3 902/943/3
f 888/912/1 886/916/1 902/943/1 904/944/1
f 889/910/6 879/923/6 899/945/6 905/939/6
f 879/923/4 880/913/4 900/946/4 899/945/4
f 857/897/6 859/888/6 895/938/6 893/947/6
f 880/913/1 890/911/1 906/940/1 900/946/1
f 887/909/4 888/912/4 904/944/4 903/941/4
f 858/919/3 857/897/3 893/947/3 894/920/3
f 893/947/7 895/938/7 908/948/7 907/949/7
f 895/938/7 896/921/7 909/950/7 908/948/7
f 896/921/7 894/920/7 910/951/7 909/950/7
f 894/920/7 893/947/7 907/949/7 910/951/7
f 897/900/7 891/899/7 912/952/7 911/953/7
f 891/899/7 892/894/7 913/932/7 912/952/7
f 892/894/7 898/893/7 914/933/7 913/932/7
f 898/893/7 897/900/7 911/953/7 914/933/7
f 901/942/8 903/941/8 916/936/8 915/954/8
f 903/941/8 904/944/8 917/924/8 916/936/8
f 904/944/8 902/943/8 918/925/8 917/924/8
f 902/943/8 901/942/8 915/954/8 918/925/8
f 905/939/8 899/945/8 920/928/8 919/955/8
f 899/945/8 900/946/8 921/929/8 920/928/8
f 900/946/8 906/940/8 922/956/8 921/929/8
f 906/940/8 905/939/8 919/955/8 922/956/8
f 924/957/7 923/958/7 926/959/7 925/960/7
f 928/961/7 927/962/7 930/935/7 929/934/7
f 932/963/8 931/937/8 934/927/8 933/926/8
f 936/964/8 935/931/8 938/930/8 937/965/8
f 921/929/1 922/956/1 937/965/1 938/930/1
f 907/949/6 908/948/6 923/958/6 924/957/6
f 911/953/6 912/952/6 927/962/6 928/961/6
f 910/951/3 907/949/3 924/957/3 925/960/3
f 915/954/6 916/936/6 931/937/6 932/963/6
f 914/933/3 911/953/3 928/961/3 929/934/3
f 919/955/6 920/928/6 935/931/6 936/964/6
f 908/948/4 909/950/4 926/959/4 923/958/4
f 918/925/3 915/954/3 932/963/3 933/926/3
f 912/952/4 913/932/4 930/935/4 927/962/4
f 922/956/3 919/955/3 936/964/3 937/965/3
f 909/950/1 910/951/1 925/960/1 926/959/1
f 457/66/3 476/293/3 940/632/3 939/592/3
f 476/293/3 17/292/3 941/966/3 940/632/3
f 17/292/3 15/67/3 942/591/3 941/966/3
f 15/67/3 457/66/3 939/592/3 942/591/3
f 460/571/3 473/296/3 944/628/3 943/37/3
f 473/296/3 474/295/3 945/967/3 944/628/3
f 474/295/3 459/573/3 946/36/3 945/967/3
f 459/573/3 460/571/3 943/37/3 946/36/3
f 459/573/3 474/295/3 948/588/3 947/587/3
f 474/295/3 475/294/3 949/968/3 948/588/3
f 475/294/3 458/575/3 950/969/3 949/968/3
f 458/575/3 459/573/3 947/587/3 950/969/3
f 15/67/3 17/292/3 952/970/3 951/971/3
f 17/292/3 529/291/3 953/972/3 952/970/3
f 529/291/3 540/630/3 954/973/3 953/972/3
f 540/630/3 15/67/3 951/971/3 954/973/3
f 539/631/3 530/290/3 956/974/3 955/975/3
f 530/290/3 531/289/3 957/976/3 956/974/3
f 531/289/3 538/640/3 958/977/3 957/976/3
f 538/640/3 539/631/3 955/975/3 958/977/3
f 538/640/3 531/289/3 960/978/3 959/979/3
f 531/289/3 532/11/3 961/634/3 960/978/3
f 532/11/3 537/5/3 962/635/3 961/634/3
f 537/5/3 538/640/3 959/979/3 962/635/3
f 964/593/3 963/633/3 966/980/3 965/594/3
f 968/38/3 967/629/3 970/981/3 969/39/3
f 972/590/3 971/589/3 974/982/3 973/983/3
f 976/984/3 975/985/3 978/986/3 977/987/3
f 980/988/3 979/989/3 982/990/3 981/991/3
f 984/992/3 983/993/3 986/637/3 985/636/3
f 951/971/1 952/970/1 975/985/1 976/984/1
f 940/632/5 941/966/5 966/980/5 963/633/5
f 950/969/2 947/587/2 972/590/2 973/983/2
f 955/975/1 956/974/1 979/989/1 980/988/1
f 944/628/5 945/967/5 970/981/5 967/629/5
f 954/973/2 951/971/2 976/984/2 977/987/2
f 959/979/1 960/978/1 983/993/1 984/992/1
f 941/966/6 942/591/6 965/594/6 966/980/6
f 948/588/5 949/968/5 974/982/5 971/589/5
f 958/977/2 955/975/2 980/988/2 981/991/2
f 945/967/6 946/36/6 969/39/6 970/981/6
f 952/970/5 953/972/5 978/986/5 975/985/5
f 962/635/2 959/979/2 984/992/2 985/636/2
f 949/968/6 950/969/6 973/983/6 974/982/6
f 956/974/5 957/976/5 982/990/5 979/989/5
f 953/972/6 954/973/6 977/987/6 978/986/6
f 960/978/5 961/634/5 986/637/5 983/993/5
f 957/976/6 958/977/6 981/991/6 982/990/6
f 995/548/3 989/994/3 988/613/3 991/549/3
f 998/995/3 997/996/3 993/118/3 994/997/3
f 997/996/3 996/617/3 992/119/3 993/118/3
f 989/994/3 990/616/3 987/615/3 988/613/3
f 1004/544/3 1003/998/3 1000/999/3 1001/545/3
f 1003/998/3 1002/1000/3 999/1001/3 1000/999/3
f 513/547/5 378/560/5 989/994/5 995/548/5
f 585/88/6 573/91/6 999/1001/6 1002/1000/6
f 503/117/2 504/540/2 994/997/2 993/118/2
f 573/91/2 574/1002/2 1000/999/2 999/1001/2
f 378/560/5 588/559/5 990/616/5 989/994/5
f 574/1002/2 575/542/2 1001/545/2 1000/999/2
f 576/614/2 41/612/2 988/613/2 987/615/2
f 515/561/5 514/550/5 996/617/5 997/996/5
f 504/540/1 516/539/1 998/995/1 994/997/1
f 586/558/5 585/88/5 1002/1000/5 1003/998/5
f 516/539/5 515/561/5 997/996/5 998/995/5
f 587/543/5 586/558/5 1003/998/5 1004/544/5
f 810/872/8 809/826/8 762/809/8 743/808/8 878/922/8 879/923/8 889/910/8 887/909/8 885/918/8 883/917/8 875/791/8 744/790/8 812/870/8 811/871/8
f 852/892/7 849/813/7 742/812/7 761/831/7 805/883/7 806/885/7 807/887/7 808/761/7 741/760/7 848/902/7 856/1003/7 858/919/7 860/891/7 862/890/7
f 855/898/7 857/897/7 858/919/7 856/1003/7 848/902/7 847/801/7
f 72/9/2 1/10/2 20/32/2 74/502/2 159/515/2 160/514/2 161/513/2 162/512/2 163/511/2 75/510/2 49/509/2 87/508/2 194/507/2 195/506/2 196/505/2 197/504/2 198/503/2 88/193/2 24/7/2 5/6/2 85/187/2 188/363/2 187/427/2 186/432/2 185/437/2 184/188/2 84/135/2 45/138/2 73/175/2 153/226/2 152/382/2 151/387/2 150/390/2 149/176/2
f 392/152/6 380/151/6 39/541/6 107/1004/6 244/254/6 407/153/6
