# Blender 4.2.3 LTS
# www.blender.org
o road
v -1.000000 0.238343 1.000000
v -1.000000 -0.238343 1.000000
v -1.000000 0.238343 -1.000000
v -1.000000 -0.238343 -1.000000
v 1.000000 0.238343 1.000000
v 1.000000 -0.238343 1.000000
v 1.000000 0.238343 -1.000000
v 1.000000 -0.238343 -1.000000
vn -1.0000 -0.0000 -0.0000
vn -0.0000 -0.0000 -1.0000
vn 1.0000 -0.0000 -0.0000
vn -0.0000 -0.0000 1.0000
vn -0.0000 1.0000 -0.0000
vn -0.0000 -1.0000 -0.0000
vt -0.309902 0.108075
vt -0.309902 0.539372
vt -0.207105 0.539372
vt -0.207105 0.108075
vt -0.309902 0.539372
vt -0.309902 0.970670
vt -0.207105 0.970670
vt -0.104308 0.539372
vt -0.104308 0.108075
vt -0.104308 0.970670
vt -0.104308 0.539372
vt 1.000994 -1.005570
vt -0.002576 -1.005570
vt -0.002576 -0.002000
vt 1.000994 -0.002000
vt 1.000994 -0.002000
vt -0.002576 -0.002000
vt -0.002576 1.001570
vt 1.000994 1.001570
s 1
f 1/1/1 3/2/1 4/3/1 2/4/1
f 3/5/2 7/6/2 8/7/2 4/3/2
f 7/4/3 5/3/3 6/8/3 8/9/3
f 5/3/4 1/7/4 2/10/4 6/11/4
f 3/12/5 1/13/5 5/14/5 7/15/5
f 8/16/6 6/17/6 2/18/6 4/19/6
