# Blender 4.4.3
# www.blender.org
mtllib Base_Floor.mtl
o Cube
v -89.344017 -2.312603 58.244827
v -89.344017 1.630312 58.244827
v -89.344017 -2.312603 -80.468628
v -89.344017 1.630312 -80.468628
v 62.813782 -2.312603 58.244827
v 62.813782 1.630312 58.244827
v 62.813782 -2.312603 -80.468628
v 62.813782 1.630312 -80.468628
v -89.344017 -2.312603 39.085670
v -89.344017 1.630312 39.085670
v 62.813782 -2.312603 39.085670
v 62.813782 1.630312 39.085670
v -89.344017 1.630312 16.810183
v 62.813782 -2.312603 16.810183
v -89.344017 -2.312603 16.810183
v 62.813782 1.630312 16.810183
v -89.344017 1.630312 -5.365074
v 62.813782 -2.312603 -5.365074
v -89.344017 -2.312603 -5.365074
v 62.813782 1.630312 -5.365074
v -89.344017 1.630312 -32.097450
v 62.813782 -2.312603 -32.097450
v -89.344017 -2.312603 -32.097450
v 62.813782 1.630312 -32.097450
v 109.920677 1.630312 -80.468628
v 109.920677 -2.312603 -80.468628
v 109.920677 -2.312603 -32.097450
v 109.920677 1.630312 -32.097450
v 109.914124 1.630312 -5.365074
v 109.914124 1.630312 16.810183
v 109.914124 -2.312603 16.810183
v 109.914124 -2.312603 -5.365074
v 108.514374 1.630312 39.085670
v 108.514374 1.630312 58.244827
v 108.514374 -2.312603 58.244827
v 108.514374 -2.312603 39.085670
v -89.344017 -2.312603 69.518730
v -89.344017 1.630312 69.518730
v 62.813782 1.630312 69.518730
v 62.813782 -2.312603 69.518730
v 70.899490 1.630312 58.244827
v 70.899490 -2.312603 58.244827
v 70.899490 1.630312 16.810183
v 70.899490 1.630312 39.085670
v 70.899490 -2.312603 39.085670
v 70.899490 -2.312603 16.810183
v 70.899490 1.630312 -32.097450
v 70.899490 1.630312 -5.365074
v 70.899490 -2.312603 -5.365074
v 70.899490 -2.312603 -32.097450
v 70.899490 1.630312 69.518730
v 70.899490 -2.312603 69.518730
vn -1.0000 -0.0000 -0.0000
vn -0.0000 -0.0000 -1.0000
vn -0.0000 -0.0000 1.0000
vn -0.0000 1.0000 -0.0000
vn -0.0000 -1.0000 -0.0000
vn 1.0000 -0.0000 -0.0000
vt 0.375000 0.151240
vt 0.625000 0.151240
vt 0.625000 0.250000
vt 0.375000 0.250000
vt 0.625000 0.500000
vt 0.375000 0.500000
vt 0.625000 0.750000
vt 0.375000 0.750000
vt 0.875000 0.750000
vt 0.125000 0.717926
vt 0.375000 0.717926
vt 0.125000 0.750000
vt 0.625000 0.717926
vt 0.875000 0.717926
vt 0.625000 0.680635
vt 0.875000 0.680635
vt 0.125000 0.680635
vt 0.375000 0.680635
vt 0.375000 0.000000
vt 0.625000 0.000000
vt 0.625000 0.032074
vt 0.375000 0.032074
vt 0.125000 0.643512
vt 0.375000 0.643512
vt 0.625000 0.643512
vt 0.875000 0.643512
vt 0.625000 0.069365
vt 0.375000 0.069365
vt 0.625000 0.598760
vt 0.875000 0.598760
vt 0.125000 0.598760
vt 0.375000 0.598760
vt 0.625000 0.106488
vt 0.375000 0.106488
vt 0.125000 0.500000
vt 0.875000 0.500000
vt 0.625000 1.000000
vt 0.375000 1.000000
s 0
f 23/1/1 21/2/1 4/3/1 3/4/1
f 3/4/2 4/3/2 8/5/2 7/6/2
f 6/7/3 5/8/3 35/8/3 34/7/3
f 6/7/4 2/9/4 38/9/4 39/7/4
f 9/10/5 11/11/5 5/8/5 1/12/5
f 12/13/4 10/14/4 2/9/4 6/7/4
f 16/15/4 13/16/4 10/14/4 12/13/4
f 15/17/5 14/18/5 11/11/5 9/10/5
f 40/8/5 5/8/5 42/8/5 52/8/5
f 1/19/1 2/20/1 10/21/1 9/22/1
f 16/15/3 14/18/3 31/18/3 30/15/3
f 19/23/5 18/24/5 14/18/5 15/17/5
f 20/25/4 17/26/4 13/16/4 16/15/4
f 9/22/1 10/21/1 13/27/1 15/28/1
f 24/29/4 21/30/4 17/26/4 20/25/4
f 23/31/5 22/32/5 18/24/5 19/23/5
f 5/8/2 6/7/2 41/7/2 42/8/2
f 15/28/1 13/27/1 17/33/1 19/34/1
f 7/6/2 8/5/2 25/5/2 26/6/2
f 3/35/5 7/6/5 22/32/5 23/31/5
f 8/5/4 4/36/4 21/30/4 24/29/4
f 19/34/1 17/33/1 21/2/1 23/1/1
f 26/6/6 25/5/6 28/29/6 27/32/6
f 8/5/4 24/29/4 28/29/4 25/5/4
f 22/32/5 7/6/5 26/6/5 27/32/5
f 24/29/3 22/32/3 27/32/3 28/29/3
f 32/24/6 29/25/6 30/15/6 31/18/6
f 14/18/5 18/24/5 32/24/5 31/18/5
f 20/25/4 16/15/4 30/15/4 29/25/4
f 18/24/2 20/25/2 29/25/2 32/24/2
f 36/11/6 33/13/6 34/7/6 35/8/6
f 11/11/2 12/13/2 33/13/2 36/11/2
f 5/8/5 11/11/5 36/11/5 35/8/5
f 12/13/4 6/7/4 34/7/4 33/13/4
f 40/8/3 39/7/3 38/37/3 37/38/3
f 6/7/4 39/7/4 51/7/4 41/7/4
f 2/20/1 1/19/1 37/19/1 38/20/1
f 1/12/5 5/8/5 40/8/5 37/12/5
f 46/18/6 43/15/6 44/13/6 45/11/6
f 50/32/6 47/29/6 48/25/6 49/24/6
f 42/8/6 41/7/6 51/7/6 52/8/6
f 22/32/2 24/29/2 47/29/2 50/32/2
f 18/24/5 22/32/5 50/32/5 49/24/5
f 20/25/3 18/24/3 49/24/3 48/25/3
f 14/18/2 16/15/2 43/15/2 46/18/2
f 24/29/4 20/25/4 48/25/4 47/29/4
f 11/11/5 14/18/5 46/18/5 45/11/5
f 39/7/3 40/8/3 52/8/3 51/7/3
f 12/13/3 11/11/3 45/11/3 44/13/3
f 16/15/4 12/13/4 44/13/4 43/15/4
