# Blender 4.4.3
# www.blender.org
mtllib door open.mtl
o Gate_opened.005
v 4.936218 0.068478 -0.283135
v 4.936218 0.068478 -0.458184
v 4.936218 0.173291 -0.283135
v 4.936218 0.173291 -0.458184
v 2.113286 0.173291 -0.283136
v 2.113286 0.173291 -0.458185
v 2.113286 0.068478 -0.283136
v 2.113286 0.068478 -0.458185
v 2.277958 0.145663 -0.434452
v 2.277958 0.145663 -0.315073
v 2.277959 1.967921 -0.434452
v 2.277959 1.967921 -0.315073
v 2.346726 1.967920 -0.434452
v 2.346726 1.967920 -0.315073
v 2.346726 0.145662 -0.434452
v 2.346726 0.145662 -0.315073
v 2.470508 0.145663 -0.434452
v 2.470508 0.145663 -0.315073
v 2.470508 1.967921 -0.434452
v 2.470508 1.967921 -0.315073
v 2.539276 1.967920 -0.434452
v 2.539276 1.967920 -0.315073
v 2.539276 0.145662 -0.434452
v 2.539276 0.145662 -0.315073
v 2.663058 0.145663 -0.434452
v 2.663058 0.145663 -0.315073
v 2.663058 1.967921 -0.434452
v 2.663058 1.967921 -0.315073
v 2.731826 1.967920 -0.434452
v 2.731826 1.967920 -0.315073
v 2.731826 0.145662 -0.434452
v 2.731826 0.145662 -0.315073
v 2.855608 0.145662 -0.434452
v 2.855608 0.145662 -0.315073
v 2.855608 1.967921 -0.434452
v 2.855608 1.967921 -0.315073
v 2.924376 1.967920 -0.434452
v 2.924376 1.967920 -0.315073
v 2.924376 0.145662 -0.434452
v 2.924376 0.145662 -0.315073
v 3.182942 0.145662 -0.434452
v 3.182942 0.145662 -0.315073
v 3.182942 1.967921 -0.434452
v 3.182942 1.967921 -0.315073
v 3.251710 1.967920 -0.434452
v 3.251710 1.967920 -0.315073
v 3.251710 0.145662 -0.434452
v 3.251710 0.145662 -0.315073
v 3.375492 0.145662 -0.434452
v 3.375492 0.145662 -0.315073
v 3.375492 1.967921 -0.434452
v 3.375492 1.967921 -0.315073
v 3.444260 1.967920 -0.434452
v 3.444260 1.967920 -0.315073
v 3.444260 0.145662 -0.434452
v 3.444260 0.145662 -0.315073
v 3.568042 0.145662 -0.434452
v 3.568042 0.145662 -0.315073
v 3.568042 1.967921 -0.434452
v 3.568042 1.967921 -0.315073
v 3.636810 1.967920 -0.434452
v 3.636809 1.967920 -0.315073
v 3.636809 0.145662 -0.434452
v 3.636809 0.145662 -0.315073
v 3.760591 0.145662 -0.434452
v 3.760591 0.145662 -0.315073
v 3.760592 1.967921 -0.434452
v 3.760592 1.967921 -0.315073
v 3.829359 1.967920 -0.434452
v 3.829359 1.967920 -0.315073
v 3.829359 0.145662 -0.434452
v 3.829359 0.145662 -0.315073
v 4.087926 0.145662 -0.434452
v 4.087926 0.145662 -0.315073
v 4.087926 1.967921 -0.434452
v 4.087926 1.967921 -0.315073
v 4.156694 1.967920 -0.434452
v 4.156694 1.967920 -0.315073
v 4.156693 0.145662 -0.434452
v 4.156693 0.145662 -0.315073
v 4.280476 0.145662 -0.434452
v 4.280476 0.145662 -0.315073
v 4.280476 1.967921 -0.434452
v 4.280476 1.967921 -0.315073
v 4.349244 1.967920 -0.434452
v 4.349244 1.967920 -0.315073
v 4.349244 0.145662 -0.434452
v 4.349244 0.145662 -0.315073
v 4.473025 0.145662 -0.434452
v 4.473025 0.145662 -0.315073
v 4.473025 1.967921 -0.434452
v 4.473025 1.967921 -0.315073
v 4.541793 1.967920 -0.434452
v 4.541793 1.967920 -0.315073
v 4.541793 0.145662 -0.434452
v 4.541793 0.145662 -0.315073
v 4.665575 0.145662 -0.434452
v 4.665575 0.145662 -0.315073
v 4.665575 1.967921 -0.434452
v 4.665575 1.967921 -0.315073
v 4.734343 1.967920 -0.434452
v 4.734343 1.967920 -0.315073
v 4.734343 0.145662 -0.434452
v 4.734343 0.145662 -0.315073
v 4.936218 1.922289 -0.283135
v 4.936218 1.922289 -0.458184
v 4.936218 2.027103 -0.283135
v 4.936218 2.027103 -0.458184
v 2.113286 2.027103 -0.283136
v 2.113286 2.027103 -0.458185
v 2.113286 1.922289 -0.283136
v 2.113286 1.922289 -0.458185
v 2.197567 0.125283 -0.283136
v 2.197567 0.125283 -0.458185
v 2.197567 2.000105 -0.283136
v 2.197567 2.000105 -0.458185
v 2.116381 2.000105 -0.283136
v 2.116381 2.000105 -0.458185
v 2.116381 0.125283 -0.283136
v 2.116381 0.125283 -0.458185
v 3.110913 0.125283 -0.283136
v 3.110914 0.125283 -0.458185
v 3.110913 2.000105 -0.283136
v 3.110914 2.000105 -0.458185
v 3.029727 2.000105 -0.283136
v 3.029727 2.000105 -0.458185
v 3.029727 0.125283 -0.283136
v 3.029727 0.125283 -0.458185
v 4.024260 0.125283 -0.283135
v 4.024260 0.125283 -0.458184
v 4.024260 2.000105 -0.283135
v 4.024260 2.000105 -0.458184
v 3.943073 2.000105 -0.283135
v 3.943073 2.000105 -0.458184
v 3.943073 0.125283 -0.283135
v 3.943073 0.125283 -0.458184
v 4.937605 0.125283 -0.283135
v 4.937605 0.125283 -0.458184
v 4.937605 2.000105 -0.283135
v 4.937605 2.000105 -0.458184
v 4.856419 2.000105 -0.283135
v 4.856419 2.000105 -0.458184
v 4.856419 0.125283 -0.283135
v 4.856419 0.125283 -0.458184
v 2.070661 -0.000000 -0.280053
v 2.070661 -0.000000 -0.466540
v 2.070661 2.070399 -0.280053
v 2.070661 2.070399 -0.466539
v 1.979624 2.070399 -0.277770
v 1.979624 2.070399 -0.468823
v 1.979624 -0.000000 -0.277770
v 1.979624 -0.000000 -0.468823
v 1.979626 0.000000 -6.405765
v 1.995546 0.231086 -0.449916
v 1.995546 0.427575 -0.449916
v 2.184151 0.231086 -0.449916
v 2.184151 0.427575 -0.449916
v 1.995546 0.231086 -0.300558
v 1.995546 0.427575 -0.300558
v 2.184151 0.231086 -0.300558
v 2.184151 0.427575 -0.300558
v 1.995546 1.589064 -0.449916
v 1.995546 1.785553 -0.449916
v 2.184151 1.589064 -0.449916
v 2.184151 1.785553 -0.449916
v 1.995546 1.589064 -0.300558
v 1.995546 1.785553 -0.300558
v 2.184151 1.589064 -0.300558
v 2.184151 1.785553 -0.300558
vn 1.0000 -0.0000 -0.0000
vn -0.0000 1.0000 -0.0000
vn -1.0000 -0.0000 -0.0000
vn -0.0000 -1.0000 -0.0000
vn -0.0000 -0.0000 -1.0000
vn -0.0000 -0.0000 1.0000
vn 0.0251 -0.0000 -0.9997
vn 0.0251 -0.0000 0.9997
vt 0.375000 0.000000
vt 0.625000 0.000000
vt 0.625000 0.250000
vt 0.375000 0.250000
vt 0.625000 0.500000
vt 0.375000 0.500000
vt 0.625000 0.750000
vt 0.375000 0.750000
vt 0.625000 1.000000
vt 0.375000 1.000000
vt 0.875000 0.000000
vt 0.875000 0.250000
vt 0.125000 0.000000
vt 0.125000 0.250000
vt 0.125000 0.500000
vt 0.125000 0.750000
vt 0.875000 0.500000
vt 0.875000 0.750000
s 1
usemtl initialShadingGroup.001
f 1/1/1 2/2/1 4/3/1 3/4/1
f 3/4/2 4/3/2 6/5/2 5/6/2
f 5/6/3 6/5/3 8/7/3 7/8/3
f 7/8/4 8/7/4 2/9/4 1/10/4
f 2/2/5 8/11/5 6/12/5 4/3/5
f 7/13/6 1/1/6 3/4/6 5/14/6
f 105/1/1 106/2/1 108/3/1 107/4/1
f 107/4/2 108/3/2 110/5/2 109/6/2
f 109/6/3 110/5/3 112/7/3 111/8/3
f 111/8/4 112/7/4 106/9/4 105/10/4
f 106/2/5 112/11/5 110/12/5 108/3/5
f 111/13/6 105/1/6 107/4/6 109/14/6
f 113/1/1 114/2/1 116/3/1 115/4/1
f 115/4/2 116/3/2 118/5/2 117/6/2
f 117/6/3 118/5/3 120/7/3 119/8/3
f 119/8/4 120/7/4 114/9/4 113/10/4
f 114/2/5 120/11/5 118/12/5 116/3/5
f 119/13/6 113/1/6 115/4/6 117/14/6
f 121/1/1 122/2/1 124/3/1 123/4/1
f 123/4/2 124/3/2 126/5/2 125/6/2
f 125/6/3 126/5/3 128/7/3 127/8/3
f 127/8/4 128/7/4 122/9/4 121/10/4
f 122/2/5 128/11/5 126/12/5 124/3/5
f 127/13/6 121/1/6 123/4/6 125/14/6
f 129/1/1 130/2/1 132/3/1 131/4/1
f 131/4/2 132/3/2 134/5/2 133/6/2
f 133/6/3 134/5/3 136/7/3 135/8/3
f 135/8/4 136/7/4 130/9/4 129/10/4
f 130/2/5 136/11/5 134/12/5 132/3/5
f 135/13/6 129/1/6 131/4/6 133/14/6
f 137/1/1 138/2/1 140/3/1 139/4/1
f 139/4/2 140/3/2 142/5/2 141/6/2
f 141/6/3 142/5/3 144/7/3 143/8/3
f 143/8/4 144/7/4 138/9/4 137/10/4
f 138/2/5 144/11/5 142/12/5 140/3/5
f 143/13/6 137/1/6 139/4/6 141/14/6
f 145/1/1 146/2/1 148/3/1 147/4/1
f 147/4/2 148/3/2 150/5/2 149/6/2
f 149/6/3 150/5/3 152/7/3 151/8/3
f 151/8/4 152/7/4 146/9/4 145/10/4
f 146/2/7 152/11/7 150/12/7 148/3/7
f 151/13/8 145/1/8 147/4/8 149/14/8
usemtl initialShadingGroup
f 9/1/3 10/2/3 12/3/3 11/4/3
f 11/4/2 12/3/2 14/5/2 13/6/2
f 13/6/1 14/5/1 16/7/1 15/8/1
f 15/8/4 16/7/4 10/9/4 9/10/4
f 10/2/6 16/11/6 14/12/6 12/3/6
f 15/13/5 9/1/5 11/4/5 13/14/5
f 17/1/3 18/2/3 20/3/3 19/4/3
f 19/4/2 20/3/2 22/5/2 21/6/2
f 21/6/1 22/5/1 24/7/1 23/8/1
f 23/8/4 24/7/4 18/9/4 17/10/4
f 18/2/6 24/11/6 22/12/6 20/3/6
f 23/13/5 17/1/5 19/4/5 21/14/5
f 25/1/3 26/2/3 28/3/3 27/4/3
f 27/4/2 28/3/2 30/5/2 29/6/2
f 29/6/1 30/5/1 32/7/1 31/8/1
f 31/8/4 32/7/4 26/9/4 25/10/4
f 26/2/6 32/11/6 30/12/6 28/3/6
f 31/13/5 25/1/5 27/4/5 29/14/5
f 33/1/3 34/2/3 36/3/3 35/4/3
f 35/4/2 36/3/2 38/5/2 37/6/2
f 37/6/1 38/5/1 40/7/1 39/8/1
f 39/8/4 40/7/4 34/9/4 33/10/4
f 34/2/6 40/11/6 38/12/6 36/3/6
f 39/13/5 33/1/5 35/4/5 37/14/5
f 41/1/3 42/2/3 44/3/3 43/4/3
f 43/4/2 44/3/2 46/5/2 45/6/2
f 45/6/1 46/5/1 48/7/1 47/8/1
f 47/8/4 48/7/4 42/9/4 41/10/4
f 42/2/6 48/11/6 46/12/6 44/3/6
f 47/13/5 41/1/5 43/4/5 45/14/5
f 49/1/3 50/2/3 52/3/3 51/4/3
f 51/4/2 52/3/2 54/5/2 53/6/2
f 53/6/1 54/5/1 56/7/1 55/8/1
f 55/8/4 56/7/4 50/9/4 49/10/4
f 50/2/6 56/11/6 54/12/6 52/3/6
f 55/13/5 49/1/5 51/4/5 53/14/5
f 57/1/3 58/2/3 60/3/3 59/4/3
f 59/4/2 60/3/2 62/5/2 61/6/2
f 61/6/1 62/5/1 64/7/1 63/8/1
f 63/8/4 64/7/4 58/9/4 57/10/4
f 58/2/6 64/11/6 62/12/6 60/3/6
f 63/13/5 57/1/5 59/4/5 61/14/5
f 65/1/3 66/2/3 68/3/3 67/4/3
f 67/4/2 68/3/2 70/5/2 69/6/2
f 69/6/1 70/5/1 72/7/1 71/8/1
f 71/8/4 72/7/4 66/9/4 65/10/4
f 66/2/6 72/11/6 70/12/6 68/3/6
f 71/13/5 65/1/5 67/4/5 69/14/5
f 73/1/3 74/2/3 76/3/3 75/4/3
f 75/4/2 76/3/2 78/5/2 77/6/2
f 77/6/1 78/5/1 80/7/1 79/8/1
f 79/8/4 80/7/4 74/9/4 73/10/4
f 74/2/6 80/11/6 78/12/6 76/3/6
f 79/13/5 73/1/5 75/4/5 77/14/5
f 81/1/3 82/2/3 84/3/3 83/4/3
f 83/4/2 84/3/2 86/5/2 85/6/2
f 85/6/1 86/5/1 88/7/1 87/8/1
f 87/8/4 88/7/4 82/9/4 81/10/4
f 82/2/6 88/11/6 86/12/6 84/3/6
f 87/13/5 81/1/5 83/4/5 85/14/5
f 89/1/3 90/2/3 92/3/3 91/4/3
f 91/4/2 92/3/2 94/5/2 93/6/2
f 93/6/1 94/5/1 96/7/1 95/8/1
f 95/8/4 96/7/4 90/9/4 89/10/4
f 90/2/6 96/11/6 94/12/6 92/3/6
f 95/13/5 89/1/5 91/4/5 93/14/5
f 97/1/3 98/2/3 100/3/3 99/4/3
f 99/4/2 100/3/2 102/5/2 101/6/2
f 101/6/1 102/5/1 104/7/1 103/8/1
f 103/8/4 104/7/4 98/9/4 97/10/4
f 98/2/6 104/11/6 102/12/6 100/3/6
f 103/13/5 97/1/5 99/4/5 101/14/5
s 0
usemtl 
f 154/1/5 155/2/5 157/3/5 156/4/5
f 156/4/1 157/3/1 161/5/1 160/6/1
f 160/6/6 161/5/6 159/7/6 158/8/6
f 158/8/3 159/7/3 155/9/3 154/10/3
f 156/15/4 160/6/4 158/8/4 154/16/4
f 161/5/2 157/17/2 155/18/2 159/7/2
f 162/1/5 163/2/5 165/3/5 164/4/5
f 164/4/1 165/3/1 169/5/1 168/6/1
f 168/6/6 169/5/6 167/7/6 166/8/6
f 166/8/3 167/7/3 163/9/3 162/10/3
f 164/15/4 168/6/4 166/8/4 162/16/4
f 169/5/2 165/17/2 163/18/2 167/7/2
