# Blender 4.4.3
# www.blender.org
mtllib rough map.mtl
o Cube.003
v -201.282516 33.376183 87.320511
v -201.282516 46.896572 87.320511
v -201.282516 33.376183 -112.679489
v -201.282516 46.896572 -112.679489
v -29.139900 33.376183 87.320511
v -29.139900 46.896572 87.320511
v -29.139900 33.376183 -112.679489
v -29.139900 46.896572 -112.679489
v -201.282516 33.376183 72.430252
v -201.282516 46.896572 72.430252
v -29.139900 33.376183 72.430252
v -29.139900 46.896572 72.430252
v -201.282516 46.896572 45.731812
v -29.139900 33.376183 45.731812
v -201.282516 33.376183 45.731812
v -29.139900 46.896572 45.731812
v -201.282516 46.896572 -49.348282
v -29.139900 33.376183 -49.348282
v -201.282516 33.376183 -49.348282
v -29.139900 46.896572 -49.348282
v -201.282516 33.376183 11.541565
v -29.139900 46.896572 11.541565
v -201.282516 46.896572 11.541565
v -29.139900 33.376183 11.541565
v -201.282516 46.896572 -8.067663
v -29.139900 33.376183 -8.067663
v -201.282516 33.376183 -8.067663
v -29.139900 46.896572 -8.067663
v 0.904060 46.896572 -112.679489
v 0.904060 33.376183 -112.679489
v 0.904060 33.376183 -49.348282
v 0.904060 46.896572 45.731812
v 0.904060 46.896572 72.430252
v 0.904060 33.376183 72.430252
v 0.904060 33.376183 45.731812
v 0.904060 46.896572 -49.348282
v 0.904060 46.896572 -8.067663
v 0.904060 46.896572 11.541565
v 0.904060 33.376183 11.541565
v 0.904060 33.376183 -8.067663
vn -1.0000 -0.0000 -0.0000
vn -0.0000 -0.0000 -1.0000
vn 1.0000 -0.0000 -0.0000
vn -0.0000 -0.0000 1.0000
vn -0.0000 -1.0000 -0.0000
vn -0.0000 1.0000 -0.0000
vt 0.375000 0.170836
vt 0.625000 0.170836
vt 0.625000 0.250000
vt 0.375000 0.250000
vt 0.625000 0.500000
vt 0.375000 0.500000
vt 0.375000 0.731387
vt 0.625000 0.731387
vt 0.625000 0.750000
vt 0.375000 0.750000
vt 0.625000 1.000000
vt 0.375000 1.000000
vt 0.125000 0.731387
vt 0.125000 0.750000
vt 0.875000 0.731387
vt 0.875000 0.750000
vt 0.625000 0.698014
vt 0.875000 0.698014
vt 0.125000 0.698014
vt 0.375000 0.698014
vt 0.375000 0.000000
vt 0.625000 0.000000
vt 0.625000 0.018613
vt 0.375000 0.018613
vt 0.375000 0.669953
vt 0.625000 0.669953
vt 0.125000 0.669953
vt 0.875000 0.669953
vt 0.625000 0.051986
vt 0.375000 0.051986
vt 0.875000 0.500000
vt 0.875000 0.579164
vt 0.625000 0.579164
vt 0.125000 0.500000
vt 0.375000 0.579164
vt 0.125000 0.579164
vt 0.375000 0.640715
vt 0.375000 0.109285
vt 0.625000 0.109285
vt 0.625000 0.080047
vt 0.375000 0.080047
vt 0.625000 0.640715
vt 0.875000 0.640715
vt 0.125000 0.640715
s 0
f 19/1/1 17/2/1 4/3/1 3/4/1
f 3/4/2 4/3/2 8/5/2 7/6/2
f 11/7/3 12/8/3 6/9/3 5/10/3
f 5/10/4 6/9/4 2/11/4 1/12/4
f 9/13/5 11/7/5 5/10/5 1/14/5
f 12/8/6 10/15/6 2/16/6 6/9/6
f 16/17/6 13/18/6 10/15/6 12/8/6
f 15/19/5 14/20/5 11/7/5 9/13/5
f 12/8/4 11/7/4 34/7/4 33/8/4
f 1/21/1 2/22/1 10/23/1 9/24/1
f 24/25/3 22/26/3 16/17/3 14/20/3
f 21/27/5 24/25/5 14/20/5 15/19/5
f 22/26/6 23/28/6 13/18/6 16/17/6
f 9/24/1 10/23/1 13/29/1 15/30/1
f 8/5/6 4/31/6 17/32/6 20/33/6
f 3/34/5 7/6/5 18/35/5 19/36/5
f 24/25/5 26/37/5 40/37/5 39/25/5
f 27/38/1 25/39/1 17/2/1 19/1/1
f 15/30/1 13/29/1 23/40/1 21/41/1
f 28/42/6 25/43/6 23/28/6 22/26/6
f 27/44/5 26/37/5 24/25/5 21/27/5
f 11/7/5 14/20/5 35/20/5 34/7/5
f 18/35/3 20/33/3 28/42/3 26/37/3
f 19/36/5 18/35/5 26/37/5 27/44/5
f 20/33/6 17/32/6 25/43/6 28/42/6
f 21/41/1 23/40/1 25/39/1 27/38/1
f 35/20/3 32/17/3 33/8/3 34/7/3
f 30/6/3 29/5/3 36/33/3 31/35/3
f 40/37/3 37/42/3 38/26/3 39/25/3
f 16/17/6 12/8/6 33/8/6 32/17/6
f 22/26/4 24/25/4 39/25/4 38/26/4
f 7/6/2 8/5/2 29/5/2 30/6/2
f 28/42/6 22/26/6 38/26/6 37/42/6
f 20/33/4 18/35/4 31/35/4 36/33/4
f 18/35/5 7/6/5 30/6/5 31/35/5
f 14/20/2 16/17/2 32/17/2 35/20/2
f 26/37/2 28/42/2 37/42/2 40/37/2
f 8/5/6 20/33/6 36/33/6 29/5/6
