# Blender 4.5.3 LTS
# www.blender.org
mtllib Wooden Box.mtl
o Cube
v 10.940364 -4.021813 1.955904
v 10.940364 -3.151838 1.955904
v 10.940364 -4.021813 1.085929
v 10.940364 -3.151838 1.085929
v 11.810338 -4.021813 1.955904
v 11.810338 -3.151838 1.955904
v 11.810338 -4.021813 1.085929
v 11.810338 -3.151838 1.085929
v 10.940364 -3.215401 1.157178
v 10.940364 -3.215401 1.878732
v 10.940364 -3.971117 1.878732
v 10.940364 -3.971117 1.157178
v 11.737218 -3.215401 1.085929
v 11.015663 -3.215401 1.085929
v 11.015663 -3.971117 1.085929
v 11.737218 -3.971117 1.085929
v 11.810338 -3.215401 1.878732
v 11.810338 -3.215401 1.157178
v 11.810338 -3.971117 1.878732
v 11.810338 -3.971117 1.157178
v 11.015663 -3.215401 1.955904
v 11.737217 -3.215401 1.955904
v 11.015663 -3.971117 1.955904
v 11.737217 -3.971117 1.955904
vn -1.0000 -0.0000 -0.0000
vn -0.0000 -0.0000 -1.0000
vn 1.0000 -0.0000 -0.0000
vn -0.0000 -0.0000 1.0000
vn -0.0000 -1.0000 -0.0000
vn -0.0000 1.0000 -0.0000
vt 0.375000 0.000000
vt 0.625000 0.000000
vt 0.625000 0.250000
vt 0.375000 0.250000
vt 0.389568 0.229526
vt 0.606734 0.229526
vt 0.606734 0.022177
vt 0.389568 0.022177
vt 0.625000 0.500000
vt 0.375000 0.500000
vt 0.389568 0.478988
vt 0.606734 0.478988
vt 0.606734 0.271639
vt 0.389568 0.271639
vt 0.389568 0.520474
vt 0.625000 0.750000
vt 0.375000 0.750000
vt 0.389568 0.727823
vt 0.606734 0.727823
vt 0.606734 0.520474
vt 0.389568 0.771012
vt 0.625000 1.000000
vt 0.375000 1.000000
vt 0.389568 0.978361
vt 0.606734 0.978361
vt 0.606734 0.771012
vt 0.125000 0.500000
vt 0.125000 0.750000
vt 0.875000 0.500000
vt 0.875000 0.750000
vt 0.375000 0.546788
vt 0.125000 0.546788
vt 0.125000 0.708175
vt 0.375000 0.708175
vt 0.875000 0.708175
vt 0.875000 0.546788
vt 0.625000 0.546788
vt 0.625000 0.708175
vt 0.375000 0.712983
vt 0.375000 0.551595
vt 0.125000 0.551595
vt 0.125000 0.712983
vt 0.875000 0.551595
vt 0.625000 0.551595
vt 0.625000 0.712983
vt 0.875000 0.712983
s 0
f 1/1/1 2/2/1 4/3/1 3/4/1 12/5/1 9/6/1 10/7/1 11/8/1
f 3/4/1 1/1/1 11/8/1 12/5/1
f 3/4/2 4/3/2 8/9/2 7/10/2 16/11/2 13/12/2 14/13/2 15/14/2
f 7/10/2 3/4/2 15/14/2 16/11/2
f 20/15/3 7/10/3 8/9/3 6/16/3 5/17/3 19/18/3 17/19/3 18/20/3
f 19/18/3 5/17/3 7/10/3 20/15/3
f 24/21/4 5/17/4 6/16/4 2/22/4 1/23/4 23/24/4 21/25/4 22/26/4
f 23/24/4 1/23/4 5/17/4 24/21/4
f 3/27/5 7/10/5 5/17/5 1/28/5
f 8/9/6 4/29/6 2/30/6 6/16/6
f 10/2/2 17/2/2 19/4/2 11/4/2
f 18/9/4 9/9/4 12/17/4 20/17/4
f 12/31/6 11/32/6 19/33/6 20/34/6
f 17/35/5 10/36/5 9/37/5 18/38/5
f 23/4/3 15/4/3 14/2/3 21/2/3
f 16/17/1 24/17/1 22/9/1 13/9/1
f 24/39/6 16/40/6 15/41/6 23/42/6
f 14/43/5 13/44/5 22/45/5 21/46/5
