# Blender 4.4.3
# www.blender.org
mtllib Ejian_Floor_texture.mtl
o maps
v -90.034950 9.067749 50.633732
v -90.034950 13.010664 50.633732
v 46.340912 9.067749 50.633732
v 46.340912 13.010664 50.633732
v 46.340912 9.067749 -71.305740
v 46.340912 13.010664 -71.305740
v -90.034950 9.067749 36.008331
v -90.034950 13.010664 36.008331
v 46.340912 9.067749 36.008331
v 46.340912 13.010664 36.008331
v -90.034950 13.010664 12.310338
v 46.340912 9.067749 10.971761
v -90.034950 9.067749 12.310338
v 46.340912 13.010664 10.971761
v -90.034950 13.010664 -0.996407
v 46.340912 9.067749 -2.334983
v -90.034950 9.067749 -0.996407
v 46.340912 13.010664 -2.334983
v -90.034950 13.010664 -20.836456
v 46.340912 9.067749 -22.175032
v -90.034950 9.067749 -20.836456
v 46.340912 13.010664 -22.175032
v 78.570160 13.010664 -71.305740
v 78.570160 9.067749 -71.305740
v 78.570160 9.067749 -22.175032
v 78.570160 13.010664 -22.175032
v 78.565674 13.010664 -2.334983
v 78.565674 13.010664 10.971761
v 78.565674 9.067749 10.971761
v 78.565674 9.067749 -2.334983
v 77.608002 13.010664 36.008331
v 77.608002 13.010664 50.633732
v 77.608002 9.067749 50.633732
v 77.608002 9.067749 36.008331
v -90.034950 9.067749 61.907639
v -90.034950 13.010664 61.907639
v 46.340912 13.010664 61.907639
v 46.340912 9.067749 61.907639
v -90.034950 9.067749 -35.610004
v -45.812084 9.067749 -71.305740
v -45.812084 13.010664 -71.305740
v -90.034950 13.010664 -35.610001
vn -0.0000 1.0000 -0.0000
vn -0.0000 -1.0000 -0.0000
vn -0.0000 -0.0000 1.0000
vn 1.0000 -0.0000 -0.0000
vn -1.0000 -0.0000 -0.0000
vn -0.0000 -0.0000 -1.0000
vn -0.6281 -0.0000 -0.7781
vt 0.670176 0.243109
vt 0.668628 0.726543
vt 0.554665 0.957545
vt 0.507806 0.957135
vt 0.514342 0.241745
vt 0.283405 0.239723
vt 0.283930 0.075696
vt 0.281115 0.955150
vt 0.245356 0.954837
vt 0.247646 0.239410
vt 0.327504 0.955556
vt 0.330935 0.240129
vt 0.409206 0.240824
vt 0.402670 0.956214
vt 0.409747 0.071773
vt 0.444877 0.956584
vt 0.451412 0.241194
vt 0.670717 0.074035
vt 0.514883 0.072670
vt 0.451954 0.072143
vt 0.331459 0.076102
s 0
usemtl Material.002
f 6/1/1 41/2/1 42/3/1 19/4/1 22/5/1
f 39/3/2 40/2/2 5/1/2 20/5/2 21/4/2
f 4/6/3 3/6/3 33/7/3 32/7/3
f 4/6/1 2/8/1 36/9/1 37/10/1
f 7/11/2 9/12/2 3/6/2 1/8/2
f 10/12/1 8/11/1 2/8/1 4/6/1
f 14/13/1 11/14/1 8/11/1 10/12/1
f 13/14/2 12/13/2 9/12/2 7/11/2
f 14/13/4 10/12/4 9/12/4 12/13/4
f 1/8/5 2/8/5 8/11/5 7/11/5
f 14/13/3 12/13/3 29/15/3 28/15/3
f 17/16/2 16/17/2 12/13/2 13/14/2
f 18/17/1 15/16/1 11/14/1 14/13/1
f 7/11/5 8/11/5 11/14/5 13/14/5
f 22/5/1 19/4/1 15/16/1 18/17/1
f 21/4/2 20/5/2 16/17/2 17/16/2
f 13/14/5 11/14/5 15/16/5 17/16/5
f 5/1/6 6/1/6 23/18/6 24/18/6
f 21/4/5 19/4/5 42/3/5 39/3/5
f 17/16/5 15/16/5 19/4/5 21/4/5
f 24/18/4 23/18/4 26/19/4 25/19/4
f 6/1/1 22/5/1 26/19/1 23/18/1
f 20/5/2 5/1/2 24/18/2 25/19/2
f 22/5/3 20/5/3 25/19/3 26/19/3
f 30/20/4 27/20/4 28/15/4 29/15/4
f 12/13/2 16/17/2 30/20/2 29/15/2
f 18/17/1 14/13/1 28/15/1 27/20/1
f 16/17/6 18/17/6 27/20/6 30/20/6
f 34/21/4 31/21/4 32/7/4 33/7/4
f 9/12/6 10/12/6 31/21/6 34/21/6
f 3/6/2 9/12/2 34/21/2 33/7/2
f 10/12/1 4/6/1 32/7/1 31/21/1
f 38/10/3 37/10/3 36/9/3 35/9/3
f 22/5/4 18/17/4 16/17/4 20/5/4
f 2/8/5 1/8/5 35/9/5 36/9/5
f 1/8/2 3/6/2 38/10/2 35/9/2
f 3/6/4 4/6/4 37/10/4 38/10/4
f 41/2/7 40/2/7 39/3/7 42/3/7
f 40/2/6 41/2/6 6/1/6 5/1/6
