# Blender 4.4.3
# www.blender.org
mtllib Entance.mtl
o Cube.003
o Cube.013
v 7.812314 5.658618 -2.265749
v 7.780023 5.658618 -2.262568
v 7.812314 6.459722 -2.265749
v 7.844605 5.658618 -2.262568
v 7.875655 5.658618 -2.253149
v 7.844605 6.459722 -2.262568
v 7.875655 6.459722 -2.253150
v 7.904271 6.459722 -2.237854
v 7.929354 6.459722 -2.217269
v 7.904271 5.658618 -2.237854
v 7.929354 5.658618 -2.217269
v 7.949938 5.658618 -2.192187
v 7.965234 5.658618 -2.163571
v 7.949938 6.459722 -2.192187
v 7.965234 6.459722 -2.163571
v 7.974652 6.459722 -2.132521
v 7.977833 6.459722 -2.100230
v 7.974652 5.658618 -2.132521
v 7.977833 5.658618 -2.100230
v 7.974652 5.658618 -2.067938
v 7.965234 5.658618 -2.036888
v 7.974652 6.459722 -2.067939
v 7.965234 6.459722 -2.036888
v 7.949938 6.459722 -2.008272
v 7.929354 6.459722 -1.983190
v 7.949938 5.658618 -2.008272
v 7.929354 5.658618 -1.983190
v 7.904271 5.658618 -1.962605
v 7.875655 5.658618 -1.947310
v 7.904271 6.459722 -1.962606
v 7.875655 6.459722 -1.947310
v 7.844605 6.459722 -1.937891
v 7.812314 6.459722 -1.934711
v 7.844605 5.658618 -1.937891
v 7.812314 5.658618 -1.934710
v 7.780023 5.658618 -1.937891
v 7.748973 5.658618 -1.947310
v 7.780023 6.459722 -1.937891
v 7.748973 6.459722 -1.947310
v 7.720356 6.459722 -1.962606
v 7.695274 6.459722 -1.983190
v 7.720356 5.658618 -1.962605
v 7.695274 5.658618 -1.983190
v 7.674689 5.658618 -2.008272
v 7.659394 5.658618 -2.036888
v 7.674689 6.459722 -2.008272
v 7.659394 6.459722 -2.036888
v 7.649975 6.459722 -2.067939
v 7.646794 6.459722 -2.100230
v 7.649975 5.658618 -2.067938
v 7.646794 5.658618 -2.100230
v 7.649975 5.658618 -2.132521
v 7.659394 5.658618 -2.163571
v 7.649975 6.459722 -2.132521
v 7.659394 6.459722 -2.163571
v 7.674689 6.459722 -2.192187
v 7.695274 6.459722 -2.217269
v 7.674689 5.658618 -2.192187
v 7.695274 5.658618 -2.217269
v 7.720356 5.658618 -2.237854
v 7.748973 5.658618 -2.253149
v 7.720356 6.459722 -2.237854
v 7.748973 6.459722 -2.253150
v 7.780023 6.459722 -2.262568
v 3.575293 1.986808 -1.729759
v 3.575293 1.987501 -2.246605
v 3.575293 1.853970 -1.729938
v 3.575293 1.854662 -2.246783
v 3.741513 1.986808 -1.729759
v 3.741513 1.987501 -2.246605
v 3.741513 1.853970 -1.729938
v 3.741513 1.854662 -2.246783
v 3.575294 1.986938 -1.729061
v 3.575294 1.892232 -1.828632
v 3.575294 2.325935 -2.097534
v 3.741513 1.986938 -1.729061
v 3.741513 1.892232 -1.828632
v 3.741513 2.325935 -2.097534
v 3.741513 2.231229 -2.197175
v 3.741513 2.231212 -1.997876
v 3.741513 1.987002 -2.465944
v 3.741513 1.892279 -2.366356
v 3.575294 1.987002 -2.465944
v 3.575294 1.892279 -2.366356
v 3.575294 2.231212 -1.997876
v 3.575294 2.231229 -2.197175
v 3.575294 1.986872 -2.465246
v 3.575294 1.854033 -2.465043
v 3.575294 1.987476 -1.948400
v 3.741513 1.986872 -2.465246
v 3.741513 1.854033 -2.465043
v 3.741513 1.987476 -1.948400
v 3.741513 1.854637 -1.948197
v 3.575294 1.854637 -1.948197
v 3.369124 1.390718 -1.555410
v 3.369124 1.390717 -2.645702
v 3.462148 1.876983 -1.728833
v 3.953954 1.390718 -1.555410
v 3.953954 1.390717 -2.645702
v 3.860931 1.876983 -1.728833
v 3.860931 1.876982 -2.472279
v 3.462148 1.876982 -2.472279
v 8.084944 1.390718 -1.555410
v 8.084944 1.390717 -2.645702
v 7.991920 1.876983 -1.728833
v 7.500113 1.390718 -1.555410
v 7.500113 1.390717 -2.645702
v 7.593137 1.876983 -1.728833
v 7.593137 1.876982 -2.472279
v 7.991920 1.876982 -2.472279
v 3.661212 6.124254 -2.175127
v 3.677186 6.124253 -2.173882
v 3.661212 2.000940 -2.175126
v 3.645238 6.124253 -2.173882
v 3.629878 6.124253 -2.170194
v 3.645238 2.000940 -2.173880
v 3.629878 2.000940 -2.170193
v 3.615721 2.000940 -2.164204
v 3.603314 2.000940 -2.156145
v 3.615721 6.124254 -2.164206
v 3.603314 6.124253 -2.156147
v 3.593131 6.124254 -2.146327
v 3.585564 6.124253 -2.135123
v 3.593131 2.000940 -2.146325
v 3.585564 2.000940 -2.135121
v 3.580904 2.000940 -2.122965
v 3.579331 2.000940 -2.110322
v 3.580904 6.124253 -2.122966
v 3.579331 6.124254 -2.110324
v 3.580904 6.124253 -2.097681
v 3.585564 6.124254 -2.085525
v 3.580904 2.000940 -2.097680
v 3.585564 2.000940 -2.085523
v 3.593131 2.000940 -2.074319
v 3.603314 2.000940 -2.064499
v 3.593131 6.124254 -2.074321
v 3.603314 6.124254 -2.064501
v 3.615721 6.124254 -2.056442
v 3.629878 6.124253 -2.050453
v 3.615721 2.000940 -2.056440
v 3.629878 2.000940 -2.050452
v 3.645238 2.000940 -2.046764
v 3.661212 2.000940 -2.045519
v 3.645238 6.124254 -2.046766
v 3.661212 6.124254 -2.045520
v 3.677186 6.124254 -2.046766
v 3.692547 6.124253 -2.050453
v 3.677186 2.000940 -2.046764
v 3.692547 2.000940 -2.050452
v 3.706703 2.000940 -2.056440
v 3.719111 2.000940 -2.064499
v 3.706703 6.124254 -2.056442
v 3.719111 6.124254 -2.064501
v 3.729294 6.124254 -2.074321
v 3.736860 6.124254 -2.085525
v 3.729294 2.000940 -2.074319
v 3.736860 2.000940 -2.085523
v 3.741520 2.000940 -2.097680
v 3.743093 2.000940 -2.110322
v 3.741520 6.124253 -2.097681
v 3.743093 6.124254 -2.110324
v 3.741520 6.124253 -2.122966
v 3.736860 6.124253 -2.135123
v 3.741520 2.000940 -2.122965
v 3.736860 2.000940 -2.135121
v 3.729294 2.000940 -2.146325
v 3.719111 2.000940 -2.156145
v 3.729294 6.124254 -2.146327
v 3.719111 6.124253 -2.156147
v 3.706703 6.124254 -2.164206
v 3.692547 6.124253 -2.170194
v 3.706703 2.000940 -2.164204
v 3.692547 2.000940 -2.170193
v 3.677186 2.000940 -2.173880
v 7.792854 6.124254 -2.175127
v 7.776880 6.124253 -2.173882
v 7.792854 2.000940 -2.175126
v 7.808828 6.124253 -2.173882
v 7.824189 6.124253 -2.170194
v 7.808828 2.000940 -2.173880
v 7.824189 2.000940 -2.170193
v 7.838346 2.000940 -2.164204
v 7.850754 2.000940 -2.156145
v 7.838346 6.124253 -2.164206
v 7.850754 6.124253 -2.156147
v 7.860936 6.124253 -2.146327
v 7.868503 6.124253 -2.135123
v 7.860936 2.000940 -2.146325
v 7.868503 2.000940 -2.135121
v 7.873162 2.000940 -2.122965
v 7.874736 2.000940 -2.110322
v 7.873162 6.124253 -2.122966
v 7.874736 6.124254 -2.110324
v 7.873162 6.124253 -2.097681
v 7.868503 6.124254 -2.085525
v 7.873162 2.000940 -2.097680
v 7.868503 2.000940 -2.085523
v 7.860936 2.000941 -2.074319
v 7.850754 2.000940 -2.064499
v 7.860936 6.124253 -2.074321
v 7.850754 6.124253 -2.064501
v 7.838346 6.124254 -2.056442
v 7.824189 6.124253 -2.050453
v 7.838346 2.000940 -2.056440
v 7.824189 2.000940 -2.050452
v 7.808828 2.000940 -2.046764
v 7.792854 2.000940 -2.045519
v 7.808828 6.124253 -2.046766
v 7.792854 6.124253 -2.045520
v 7.776880 6.124253 -2.046766
v 7.761520 6.124253 -2.050453
v 7.776880 2.000940 -2.046764
v 7.761520 2.000940 -2.050452
v 7.747364 2.000940 -2.056440
v 7.734956 2.000940 -2.064499
v 7.747364 6.124254 -2.056442
v 7.734956 6.124253 -2.064501
v 7.724773 6.124253 -2.074321
v 7.717206 6.124254 -2.085525
v 7.724773 2.000941 -2.074319
v 7.717206 2.000940 -2.085523
v 7.712546 2.000940 -2.097680
v 7.710974 2.000940 -2.110322
v 7.712546 6.124253 -2.097681
v 7.710974 6.124254 -2.110324
v 7.712546 6.124253 -2.122966
v 7.717206 6.124253 -2.135123
v 7.712546 2.000940 -2.122965
v 7.717206 2.000940 -2.135121
v 7.724773 2.000940 -2.146325
v 7.734956 2.000940 -2.156145
v 7.724773 6.124253 -2.146327
v 7.734956 6.124253 -2.156147
v 7.747364 6.124253 -2.164206
v 7.761520 6.124253 -2.170194
v 7.747364 2.000940 -2.164204
v 7.761520 2.000940 -2.170193
v 7.776880 2.000940 -2.173880
v 3.641753 5.658619 -2.265749
v 3.674044 5.658619 -2.262568
v 3.641753 6.459722 -2.265749
v 3.609462 5.658619 -2.262568
v 3.578411 5.658619 -2.253149
v 3.609462 6.459722 -2.262568
v 3.578411 6.459722 -2.253149
v 3.549795 6.459722 -2.237854
v 3.524713 6.459723 -2.217269
v 3.549795 5.658619 -2.237854
v 3.524713 5.658619 -2.217269
v 3.504129 5.658619 -2.192187
v 3.488833 5.658619 -2.163571
v 3.504129 6.459723 -2.192187
v 3.488833 6.459722 -2.163571
v 3.479414 6.459722 -2.132521
v 3.476234 6.459723 -2.100230
v 3.479414 5.658619 -2.132520
v 3.476234 5.658619 -2.100229
v 3.479414 5.658619 -2.067938
v 3.488833 5.658619 -2.036888
v 3.479414 6.459722 -2.067939
v 3.488833 6.459722 -2.036888
v 3.504129 6.459722 -2.008272
v 3.524713 6.459723 -1.983190
v 3.504129 5.658619 -2.008272
v 3.524713 5.658619 -1.983190
v 3.549795 5.658619 -1.962605
v 3.578411 5.658619 -1.947310
v 3.549795 6.459722 -1.962606
v 3.578411 6.459722 -1.947310
v 3.609462 6.459722 -1.937891
v 3.641753 6.459722 -1.934711
v 3.609462 5.658619 -1.937891
v 3.641753 5.658619 -1.934710
v 3.674044 5.658619 -1.937891
v 3.705094 5.658619 -1.947310
v 3.674044 6.459722 -1.937891
v 3.705094 6.459722 -1.947310
v 3.733710 6.459722 -1.962606
v 3.758793 6.459723 -1.983190
v 3.733710 5.658619 -1.962605
v 3.758793 5.658619 -1.983190
v 3.779377 5.658619 -2.008272
v 3.794672 5.658619 -2.036888
v 3.779377 6.459722 -2.008272
v 3.794672 6.459722 -2.036888
v 3.804091 6.459722 -2.067939
v 3.807272 6.459723 -2.100230
v 3.804091 5.658619 -2.067938
v 3.807272 5.658619 -2.100229
v 3.804091 5.658619 -2.132520
v 3.794672 5.658619 -2.163571
v 3.804091 6.459722 -2.132521
v 3.794672 6.459722 -2.163571
v 3.779377 6.459723 -2.192187
v 3.758793 6.459723 -2.217269
v 3.779377 5.658619 -2.192187
v 3.758793 5.658619 -2.217269
v 3.733710 5.658619 -2.237854
v 3.705094 5.658619 -2.253149
v 3.733710 6.459722 -2.237854
v 3.705094 6.459722 -2.253149
v 3.674044 6.459722 -2.262568
v 3.694687 5.139338 -2.056581
v 3.694687 5.139338 -2.155920
v 3.694687 6.331295 -2.056581
v 7.759380 5.139338 -2.056581
v 7.759380 5.139338 -2.155920
v 7.759380 6.331295 -2.056581
v 7.759380 6.331296 -2.155920
v 3.694687 6.331296 -2.155920
v 7.706065 1.986808 -1.729759
v 7.706065 1.987501 -2.246605
v 7.706065 1.853970 -1.729938
v 7.706065 1.854662 -2.246783
v 7.872284 1.986808 -1.729759
v 7.872284 1.987501 -2.246605
v 7.872284 1.853970 -1.729938
v 7.872284 1.854662 -2.246783
v 7.706065 1.986938 -1.729061
v 7.706065 1.892232 -1.828632
v 7.706065 2.325935 -2.097534
v 7.872285 1.986938 -1.729061
v 7.872285 1.892232 -1.828632
v 7.872285 2.325935 -2.097534
v 7.872285 2.231229 -2.197175
v 7.872285 2.231212 -1.997876
v 7.872285 1.987002 -2.465944
v 7.872285 1.892279 -2.366356
v 7.706065 1.987002 -2.465944
v 7.706065 1.892279 -2.366356
v 7.706065 2.231212 -1.997876
v 7.706065 2.231229 -2.197175
v 7.706065 1.986872 -2.465246
v 7.706065 1.854033 -2.465043
v 7.706065 1.987476 -1.948400
v 7.872285 1.986872 -2.465246
v 7.872285 1.854033 -2.465043
v 7.872285 1.987476 -1.948400
v 7.872285 1.854637 -1.948197
v 7.706065 1.854637 -1.948197
vn -0.0000 -1.0000 -0.0000
vn -0.0980 -0.0000 -0.9952
vn 0.0980 -0.0000 -0.9952
vn 0.2903 -0.0000 -0.9569
vn -0.0000 1.0000 -0.0000
vn 0.4714 -0.0000 -0.8819
vn 0.6344 -0.0000 -0.7730
vn 0.7730 -0.0000 -0.6344
vn 0.8819 -0.0000 -0.4714
vn 0.9569 -0.0000 -0.2903
vn 0.9952 -0.0000 -0.0980
vn 0.9952 -0.0000 0.0980
vn 0.9569 -0.0000 0.2903
vn 0.8819 -0.0000 0.4714
vn 0.7730 -0.0000 0.6344
vn 0.6344 -0.0000 0.7730
vn 0.4714 -0.0000 0.8819
vn 0.2903 -0.0000 0.9569
vn 0.0980 -0.0000 0.9952
vn -0.0980 -0.0000 0.9952
vn -0.2903 -0.0000 0.9569
vn -0.4714 -0.0000 0.8819
vn -0.6344 -0.0000 0.7730
vn -0.7730 -0.0000 0.6344
vn -0.8819 -0.0000 0.4714
vn -0.9569 -0.0000 0.2903
vn -0.9952 -0.0000 0.0980
vn -0.9952 -0.0000 -0.0980
vn -0.9569 -0.0000 -0.2903
vn -0.8819 -0.0000 -0.4714
vn -0.7730 -0.0000 -0.6344
vn -0.6344 -0.0000 -0.7730
vn -0.4714 -0.0000 -0.8819
vn -0.2903 -0.0000 -0.9569
vn -1.0000 -0.0000 -0.0000
vn -0.0000 -1.0000 -0.0013
vn 1.0000 -0.0000 -0.0000
vn -0.0000 1.0000 0.0013
vn -0.0000 -0.0013 1.0000
vn -0.0000 0.0013 -1.0000
vn -0.0000 -0.7246 0.6892
vn -0.0000 0.7359 0.6771
vn -0.0000 0.7248 -0.6889
vn -0.0000 0.7248 0.6889
vn -0.0000 0.7359 -0.6771
vn -0.0000 -0.7246 -0.6892
vn -0.0000 -0.7360 0.6770
vn -0.0000 -0.7360 -0.6770
vn -0.0000 -0.0015 -1.0000
vn -0.0000 1.0000 -0.0012
vn -0.0000 0.0015 1.0000
vn -0.0000 -1.0000 0.0012
vn -0.9822 0.1879 -0.0000
vn -0.0000 0.3359 0.9419
vn 0.9822 0.1879 -0.0000
vn -0.0000 0.3359 -0.9419
vn 0.0777 -0.0000 -0.9970
vn -0.0777 -0.0000 -0.9970
vn -0.2334 -0.0000 -0.9724
vn -0.3896 -0.0000 -0.9210
vn -0.5447 -0.0000 -0.8386
vn -0.6942 -0.0000 -0.7198
vn -0.8287 -0.0000 -0.5597
vn -0.9338 -0.0000 -0.3579
vn -0.9923 -0.0000 -0.1235
vn -0.9923 -0.0000 0.1235
vn -0.9338 -0.0000 0.3579
vn -0.8287 -0.0000 0.5597
vn -0.6942 -0.0000 0.7198
vn -0.5447 -0.0000 0.8386
vn -0.3896 -0.0000 0.9210
vn -0.2334 -0.0000 0.9724
vn -0.0777 -0.0000 0.9970
vn 0.0777 -0.0000 0.9970
vn 0.2334 -0.0000 0.9724
vn 0.3896 -0.0000 0.9210
vn 0.5447 -0.0000 0.8386
vn 0.6942 -0.0000 0.7198
vn 0.8287 -0.0000 0.5597
vn 0.9338 -0.0000 0.3579
vn 0.9923 -0.0000 0.1235
vn 0.9923 -0.0000 -0.1235
vn 0.9338 -0.0000 -0.3579
vn 0.8287 -0.0000 -0.5597
vn 0.6942 -0.0000 -0.7198
vn 0.5447 -0.0000 -0.8386
vn 0.3896 -0.0000 -0.9210
vn 0.2334 -0.0000 -0.9724
vn -0.0000 -0.0000 1.0000
vn -0.0000 -0.0000 -1.0000
vt 0.737610 0.607089
vt 0.740425 0.605108
vt 0.742516 0.602847
vt 0.743804 0.600394
vt 0.744238 0.597843
vt 0.743804 0.595291
vt 0.742516 0.592838
vt 0.740425 0.590578
vt 0.737610 0.588596
vt 0.734181 0.586970
vt 0.730269 0.585761
vt 0.726024 0.585017
vt 0.721609 0.584766
vt 0.717194 0.585017
vt 0.712949 0.585761
vt 0.709037 0.586970
vt 0.705607 0.588596
vt 0.702793 0.590578
vt 0.700702 0.592838
vt 0.699414 0.595291
vt 0.698979 0.597843
vt 0.699414 0.600394
vt 0.700702 0.602847
vt 0.702793 0.605108
vt 0.705607 0.607089
vt 0.709036 0.608716
vt 0.712949 0.609924
vt 0.717194 0.610668
vt 0.721609 0.610919
vt 0.726024 0.610668
vt 0.730269 0.609924
vt 0.734181 0.608715
vt 0.734181 0.698104
vt 0.737610 0.696477
vt 0.740425 0.694496
vt 0.742516 0.692235
vt 0.730269 0.699312
vt 0.726024 0.700056
vt 0.721609 0.700307
vt 0.717194 0.700056
vt 0.712949 0.699312
vt 0.709037 0.698104
vt 0.705607 0.696477
vt 0.702793 0.694496
vt 0.700702 0.692235
vt 0.699414 0.689782
vt 0.698979 0.687231
vt 0.699414 0.684680
vt 0.700702 0.682227
vt 0.702793 0.679966
vt 0.705607 0.677984
vt 0.709037 0.676358
vt 0.712949 0.675150
vt 0.717194 0.674405
vt 0.721609 0.674154
vt 0.726024 0.674405
vt 0.730269 0.675150
vt 0.734181 0.676358
vt 0.737610 0.677984
vt 0.740425 0.679966
vt 0.742516 0.682227
vt 0.743804 0.684680
vt 0.744238 0.687231
vt 0.743804 0.689782
vt 0.276181 0.404139
vt 0.326147 0.433090
vt 0.326164 0.418277
vt 0.276198 0.389327
vt 0.342233 0.408992
vt 0.292267 0.380041
vt 0.342216 0.423804
vt 0.292250 0.394853
vt 0.285739 0.399110
vt 0.301809 0.389824
vt 0.292183 0.394829
vt 0.276113 0.404115
vt 0.311735 0.462525
vt 0.321368 0.457524
vt 0.327805 0.453239
vt 0.337437 0.448238
vt 0.318170 0.437102
vt 0.302101 0.446388
vt 0.363421 0.436001
vt 0.347351 0.445287
vt 0.353793 0.419869
vt 0.337724 0.429154
vt 0.347264 0.430400
vt 0.347284 0.445234
vt 0.363353 0.435948
vt 0.363333 0.421114
vt 0.297298 0.401594
vt 0.297318 0.416428
vt 0.313387 0.407142
vt 0.313368 0.392308
vt 0.344798 0.400312
vt 0.401336 0.367641
vt 0.295933 0.306733
vt 0.239394 0.339404
vt 0.265153 0.398154
vt 0.337025 0.439686
vt 0.303705 0.375876
vt 0.375578 0.417408
vt 0.800699 0.136867
vt 0.695295 0.075958
vt 0.638757 0.108630
vt 0.744160 0.169538
vt 0.774940 0.186633
vt 0.703068 0.145101
vt 0.664515 0.167379
vt 0.736388 0.208911
vt 0.327543 0.885881
vt 0.325878 0.886704
vt 0.324037 0.887356
vt 0.322089 0.887812
vt 0.320111 0.888055
vt 0.318177 0.888076
vt 0.316362 0.887872
vt 0.314736 0.887453
vt 0.313362 0.886835
vt 0.312292 0.886041
vt 0.311567 0.885102
vt 0.311216 0.884053
vt 0.311251 0.882936
vt 0.311671 0.881792
vt 0.312461 0.880667
vt 0.313589 0.879603
vt 0.315013 0.878641
vt 0.316678 0.877818
vt 0.318519 0.877166
vt 0.320467 0.876710
vt 0.322445 0.876467
vt 0.324379 0.876446
vt 0.326194 0.876649
vt 0.327819 0.877068
vt 0.329194 0.877687
vt 0.330264 0.878481
vt 0.330989 0.879420
vt 0.331340 0.880469
vt 0.331305 0.881586
vt 0.330885 0.882730
vt 0.330095 0.883855
vt 0.328967 0.884919
vt 0.328967 0.424834
vt 0.327543 0.425796
vt 0.325878 0.426619
vt 0.324037 0.427271
vt 0.330095 0.423770
vt 0.330885 0.422645
vt 0.331305 0.421501
vt 0.331340 0.420384
vt 0.330989 0.419335
vt 0.330264 0.418396
vt 0.329194 0.417602
vt 0.327819 0.416983
vt 0.326194 0.416565
vt 0.324379 0.416361
vt 0.322445 0.416382
vt 0.320467 0.416625
vt 0.318519 0.417081
vt 0.316678 0.417733
vt 0.315013 0.418556
vt 0.313589 0.419518
vt 0.312461 0.420582
vt 0.311671 0.421707
vt 0.311251 0.422851
vt 0.311216 0.423968
vt 0.311567 0.425017
vt 0.312292 0.425956
vt 0.313362 0.426750
vt 0.314736 0.427369
vt 0.316362 0.427787
vt 0.318177 0.427991
vt 0.320110 0.427970
vt 0.322089 0.427727
vt 0.726968 0.655070
vt 0.725304 0.655893
vt 0.723462 0.656545
vt 0.721515 0.657001
vt 0.719536 0.657244
vt 0.717602 0.657264
vt 0.715788 0.657061
vt 0.714162 0.656642
vt 0.712788 0.656024
vt 0.711717 0.655230
vt 0.710993 0.654291
vt 0.710641 0.653242
vt 0.710676 0.652124
vt 0.711097 0.650981
vt 0.711886 0.649856
vt 0.713015 0.648792
vt 0.714439 0.647830
vt 0.716103 0.647007
vt 0.717945 0.646355
vt 0.719892 0.645899
vt 0.721871 0.645655
vt 0.723805 0.645635
vt 0.725619 0.645838
vt 0.727245 0.646257
vt 0.728619 0.646876
vt 0.729689 0.647670
vt 0.730414 0.648609
vt 0.730766 0.649658
vt 0.730731 0.650775
vt 0.730310 0.651919
vt 0.729521 0.653044
vt 0.728392 0.654108
vt 0.726968 0.194985
vt 0.725304 0.195808
vt 0.728392 0.194023
vt 0.729521 0.192959
vt 0.730310 0.191834
vt 0.730731 0.190690
vt 0.730766 0.189573
vt 0.730414 0.188524
vt 0.729689 0.187585
vt 0.728619 0.186791
vt 0.727245 0.186172
vt 0.725619 0.185754
vt 0.723805 0.185550
vt 0.721871 0.185571
vt 0.719892 0.185814
vt 0.717945 0.186270
vt 0.716103 0.186922
vt 0.714438 0.187745
vt 0.713015 0.188707
vt 0.711886 0.189771
vt 0.711097 0.190896
vt 0.710676 0.192040
vt 0.710641 0.193157
vt 0.710993 0.194206
vt 0.711717 0.195145
vt 0.712788 0.195939
vt 0.714162 0.196558
vt 0.715788 0.196976
vt 0.717602 0.197180
vt 0.719536 0.197159
vt 0.721515 0.196916
vt 0.723462 0.196460
vt 0.334422 0.840075
vt 0.337237 0.838093
vt 0.339328 0.835832
vt 0.340616 0.833379
vt 0.341050 0.830828
vt 0.340616 0.828277
vt 0.339328 0.825824
vt 0.337237 0.823563
vt 0.334422 0.821581
vt 0.330993 0.819955
vt 0.327081 0.818747
vt 0.322836 0.818002
vt 0.318421 0.817751
vt 0.314006 0.818002
vt 0.309761 0.818747
vt 0.305849 0.819955
vt 0.302419 0.821581
vt 0.299605 0.823563
vt 0.297514 0.825824
vt 0.296226 0.828277
vt 0.295791 0.830828
vt 0.296226 0.833379
vt 0.297514 0.835832
vt 0.299605 0.838093
vt 0.302419 0.840075
vt 0.305849 0.841701
vt 0.309761 0.842909
vt 0.314006 0.843653
vt 0.318421 0.843905
vt 0.322836 0.843653
vt 0.327081 0.842909
vt 0.330993 0.841701
vt 0.334422 0.929463
vt 0.337237 0.927481
vt 0.330993 0.931089
vt 0.327081 0.932297
vt 0.322836 0.933041
vt 0.318421 0.933293
vt 0.314006 0.933042
vt 0.309761 0.932297
vt 0.305849 0.931089
vt 0.302419 0.929463
vt 0.299605 0.927481
vt 0.297514 0.925220
vt 0.296226 0.922767
vt 0.295791 0.920216
vt 0.296226 0.917665
vt 0.297514 0.915212
vt 0.299605 0.912951
vt 0.302419 0.910969
vt 0.305849 0.909343
vt 0.309761 0.908135
vt 0.314006 0.907391
vt 0.318421 0.907139
vt 0.322836 0.907391
vt 0.327081 0.908135
vt 0.330993 0.909343
vt 0.334422 0.910969
vt 0.337237 0.912951
vt 0.339328 0.915212
vt 0.340616 0.917665
vt 0.341050 0.920216
vt 0.340616 0.922767
vt 0.339328 0.925220
vt 0.328922 0.773040
vt 0.721875 0.545969
vt 0.712272 0.540419
vt 0.319319 0.767490
vt 0.319319 0.900491
vt 0.328922 0.906040
vt 0.712272 0.673419
vt 0.721875 0.678969
vt 0.675522 0.173377
vt 0.725488 0.202327
vt 0.725505 0.187515
vt 0.675539 0.158564
vt 0.741575 0.178229
vt 0.691609 0.149279
vt 0.741557 0.193042
vt 0.691591 0.164091
vt 0.685081 0.168347
vt 0.701150 0.159061
vt 0.691524 0.164066
vt 0.675455 0.173352
vt 0.711077 0.231762
vt 0.720709 0.226761
vt 0.727146 0.222477
vt 0.736779 0.217476
vt 0.717512 0.206340
vt 0.701442 0.215626
vt 0.762762 0.205239
vt 0.746693 0.214525
vt 0.753134 0.189106
vt 0.737065 0.198392
vt 0.746606 0.199638
vt 0.746625 0.214471
vt 0.762694 0.205185
vt 0.762675 0.190352
vt 0.696640 0.170832
vt 0.696659 0.185665
vt 0.712729 0.176380
vt 0.712709 0.161546
s 0
g Cube.013_Material.002
usemtl Material.002
f 1/1/1 4/2/1 5/3/1 10/4/1 11/5/1 12/6/1 13/7/1 18/8/1 19/9/1 20/10/1 21/11/1 26/12/1 27/13/1 28/14/1 29/15/1 34/16/1 35/17/1 36/18/1 37/19/1 42/20/1 43/21/1 44/22/1 45/23/1 50/24/1 51/25/1 52/26/1 53/27/1 58/28/1 59/29/1 60/30/1 61/31/1 2/32/1
f 1/1/2 2/32/2 64/33/2 3/34/2
f 4/2/3 1/1/3 3/34/3 6/35/3
f 5/3/4 4/2/4 6/35/4 7/36/4
f 64/33/5 63/37/5 62/38/5 57/39/5 56/40/5 55/41/5 54/42/5 49/43/5 48/44/5 47/45/5 46/46/5 41/47/5 40/48/5 39/49/5 38/50/5 33/51/5 32/52/5 31/53/5 30/54/5 25/55/5 24/56/5 23/57/5 22/58/5 17/59/5 16/60/5 15/61/5 14/62/5 9/63/5 8/64/5 7/36/5 6/35/5 3/34/5
f 10/4/6 5/3/6 7/36/6 8/64/6
f 11/5/7 10/4/7 8/64/7 9/63/7
f 12/6/8 11/5/8 9/63/8 14/62/8
f 13/7/9 12/6/9 14/62/9 15/61/9
f 18/8/10 13/7/10 15/61/10 16/60/10
f 19/9/11 18/8/11 16/60/11 17/59/11
f 20/10/12 19/9/12 17/59/12 22/58/12
f 21/11/13 20/10/13 22/58/13 23/57/13
f 26/12/14 21/11/14 23/57/14 24/56/14
f 27/13/15 26/12/15 24/56/15 25/55/15
f 28/14/16 27/13/16 25/55/16 30/54/16
f 29/15/17 28/14/17 30/54/17 31/53/17
f 34/16/18 29/15/18 31/53/18 32/52/18
f 35/17/19 34/16/19 32/52/19 33/51/19
f 36/18/20 35/17/20 33/51/20 38/50/20
f 37/19/21 36/18/21 38/50/21 39/49/21
f 42/20/22 37/19/22 39/49/22 40/48/22
f 43/21/23 42/20/23 40/48/23 41/47/23
f 44/22/24 43/21/24 41/47/24 46/46/24
f 45/23/25 44/22/25 46/46/25 47/45/25
f 50/24/26 45/23/26 47/45/26 48/44/26
f 51/25/27 50/24/27 48/44/27 49/43/27
f 52/26/28 51/25/28 49/43/28 54/42/28
f 53/27/29 52/26/29 54/42/29 55/41/29
f 58/28/30 53/27/30 55/41/30 56/40/30
f 59/29/31 58/28/31 56/40/31 57/39/31
f 60/30/32 59/29/32 57/39/32 62/38/32
f 61/31/33 60/30/33 62/38/33 63/37/33
f 2/32/34 61/31/34 63/37/34 64/33/34
f 65/65/35 66/66/35 68/67/35 67/68/35
f 67/68/36 68/67/36 72/69/36 71/70/36
f 71/70/37 72/69/37 70/71/37 69/72/37
f 69/72/38 70/71/38 66/66/38 65/65/38
f 67/68/39 71/70/39 69/72/39 65/65/39
f 72/69/40 68/67/40 66/66/40 70/71/40
f 74/73/41 77/74/41 76/75/41 73/76/41
f 73/76/35 75/77/35 86/78/35 74/73/35
f 76/75/42 78/79/42 75/77/42 73/76/42
f 77/74/37 79/80/37 78/79/37 76/75/37
f 79/80/43 86/78/43 75/77/43 78/79/43
f 80/81/44 78/79/44 75/77/44 85/82/44
f 81/83/45 83/84/45 75/77/45 78/79/45
f 82/85/37 81/83/37 78/79/37 80/81/37
f 84/86/46 83/84/46 81/83/46 82/85/46
f 83/84/35 84/86/35 85/82/35 75/77/35
f 84/86/47 82/85/47 80/81/47 85/82/47
f 74/73/48 86/78/48 79/80/48 77/74/48
f 88/87/49 87/88/49 90/89/49 91/90/49
f 87/88/35 88/87/35 94/91/35 89/92/35
f 90/89/50 87/88/50 89/92/50 92/93/50
f 91/90/37 90/89/37 92/93/37 93/94/37
f 93/94/51 92/93/51 89/92/51 94/91/51
f 88/87/52 91/90/52 93/94/52 94/91/52
f 96/95/1 99/96/1 98/97/1 95/98/1
f 95/98/53 97/99/53 102/100/53 96/95/53
f 98/97/54 100/101/54 97/99/54 95/98/54
f 99/96/55 101/102/55 100/101/55 98/97/55
f 101/102/5 102/100/5 97/99/5 100/101/5
f 96/95/56 102/100/56 101/102/56 99/96/56
f 104/103/1 103/104/1 106/105/1 107/106/1
f 103/104/55 104/103/55 110/107/55 105/108/55
f 106/105/54 103/104/54 105/108/54 108/109/54
f 107/106/53 106/105/53 108/109/53 109/110/53
f 109/110/5 108/109/5 105/108/5 110/107/5
f 104/103/56 107/106/56 109/110/56 110/107/56
f 111/111/5 114/112/5 115/113/5 120/114/5 121/115/5 122/116/5 123/117/5 128/118/5 129/119/5 130/120/5 131/121/5 136/122/5 137/123/5 138/124/5 139/125/5 144/126/5 145/127/5 146/128/5 147/129/5 152/130/5 153/131/5 154/132/5 155/133/5 160/134/5 161/135/5 162/136/5 163/137/5 168/138/5 169/139/5 170/140/5 171/141/5 112/142/5
f 111/111/57 112/142/57 174/143/57 113/144/57
f 114/112/58 111/111/58 113/144/58 116/145/58
f 115/113/59 114/112/59 116/145/59 117/146/59
f 174/143/1 173/147/1 172/148/1 167/149/1 166/150/1 165/151/1 164/152/1 159/153/1 158/154/1 157/155/1 156/156/1 151/157/1 150/158/1 149/159/1 148/160/1 143/161/1 142/162/1 141/163/1 140/164/1 135/165/1 134/166/1 133/167/1 132/168/1 127/169/1 126/170/1 125/171/1 124/172/1 119/173/1 118/174/1 117/146/1 116/145/1 113/144/1
f 120/114/60 115/113/60 117/146/60 118/174/60
f 121/115/61 120/114/61 118/174/61 119/173/61
f 122/116/62 121/115/62 119/173/62 124/172/62
f 123/117/63 122/116/63 124/172/63 125/171/63
f 128/118/64 123/117/64 125/171/64 126/170/64
f 129/119/65 128/118/65 126/170/65 127/169/65
f 130/120/66 129/119/66 127/169/66 132/168/66
f 131/121/67 130/120/67 132/168/67 133/167/67
f 136/122/68 131/121/68 133/167/68 134/166/68
f 137/123/69 136/122/69 134/166/69 135/165/69
f 138/124/70 137/123/70 135/165/70 140/164/70
f 139/125/71 138/124/71 140/164/71 141/163/71
f 144/126/72 139/125/72 141/163/72 142/162/72
f 145/127/73 144/126/73 142/162/73 143/161/73
f 146/128/74 145/127/74 143/161/74 148/160/74
f 147/129/75 146/128/75 148/160/75 149/159/75
f 152/130/76 147/129/76 149/159/76 150/158/76
f 153/131/77 152/130/77 150/158/77 151/157/77
f 154/132/78 153/131/78 151/157/78 156/156/78
f 155/133/79 154/132/79 156/156/79 157/155/79
f 160/134/80 155/133/80 157/155/80 158/154/80
f 161/135/81 160/134/81 158/154/81 159/153/81
f 162/136/82 161/135/82 159/153/82 164/152/82
f 163/137/83 162/136/83 164/152/83 165/151/83
f 168/138/84 163/137/84 165/151/84 166/150/84
f 169/139/85 168/138/85 166/150/85 167/149/85
f 170/140/86 169/139/86 167/149/86 172/148/86
f 171/141/87 170/140/87 172/148/87 173/147/87
f 112/142/88 171/141/88 173/147/88 174/143/88
f 175/175/5 176/176/5 235/177/5 234/178/5 233/179/5 232/180/5 227/181/5 226/182/5 225/183/5 224/184/5 219/185/5 218/186/5 217/187/5 216/188/5 211/189/5 210/190/5 209/191/5 208/192/5 203/193/5 202/194/5 201/195/5 200/196/5 195/197/5 194/198/5 193/199/5 192/200/5 187/201/5 186/202/5 185/203/5 184/204/5 179/205/5 178/206/5
f 175/175/58 177/207/58 238/208/58 176/176/58
f 178/206/57 180/209/57 177/207/57 175/175/57
f 179/205/88 181/210/88 180/209/88 178/206/88
f 238/208/1 177/207/1 180/209/1 181/210/1 182/211/1 183/212/1 188/213/1 189/214/1 190/215/1 191/216/1 196/217/1 197/218/1 198/219/1 199/220/1 204/221/1 205/222/1 206/223/1 207/224/1 212/225/1 213/226/1 214/227/1 215/228/1 220/229/1 221/230/1 222/231/1 223/232/1 228/233/1 229/234/1 230/235/1 231/236/1 236/237/1 237/238/1
f 184/204/87 182/211/87 181/210/87 179/205/87
f 185/203/86 183/212/86 182/211/86 184/204/86
f 186/202/85 188/213/85 183/212/85 185/203/85
f 187/201/84 189/214/84 188/213/84 186/202/84
f 192/200/83 190/215/83 189/214/83 187/201/83
f 193/199/82 191/216/82 190/215/82 192/200/82
f 194/198/81 196/217/81 191/216/81 193/199/81
f 195/197/80 197/218/80 196/217/80 194/198/80
f 200/196/79 198/219/79 197/218/79 195/197/79
f 201/195/78 199/220/78 198/219/78 200/196/78
f 202/194/77 204/221/77 199/220/77 201/195/77
f 203/193/76 205/222/76 204/221/76 202/194/76
f 208/192/75 206/223/75 205/222/75 203/193/75
f 209/191/74 207/224/74 206/223/74 208/192/74
f 210/190/73 212/225/73 207/224/73 209/191/73
f 211/189/72 213/226/72 212/225/72 210/190/72
f 216/188/71 214/227/71 213/226/71 211/189/71
f 217/187/70 215/228/70 214/227/70 216/188/70
f 218/186/69 220/229/69 215/228/69 217/187/69
f 219/185/68 221/230/68 220/229/68 218/186/68
f 224/184/67 222/231/67 221/230/67 219/185/67
f 225/183/66 223/232/66 222/231/66 224/184/66
f 226/182/65 228/233/65 223/232/65 225/183/65
f 227/181/64 229/234/64 228/233/64 226/182/64
f 232/180/63 230/235/63 229/234/63 227/181/63
f 233/179/62 231/236/62 230/235/62 232/180/62
f 234/178/61 236/237/61 231/236/61 233/179/61
f 235/177/60 237/238/60 236/237/60 234/178/60
f 176/176/59 238/208/59 237/238/59 235/177/59
f 239/239/1 240/240/1 299/241/1 298/242/1 297/243/1 296/244/1 291/245/1 290/246/1 289/247/1 288/248/1 283/249/1 282/250/1 281/251/1 280/252/1 275/253/1 274/254/1 273/255/1 272/256/1 267/257/1 266/258/1 265/259/1 264/260/1 259/261/1 258/262/1 257/263/1 256/264/1 251/265/1 250/266/1 249/267/1 248/268/1 243/269/1 242/270/1
f 239/239/3 241/271/3 302/272/3 240/240/3
f 242/270/2 244/273/2 241/271/2 239/239/2
f 243/269/34 245/274/34 244/273/34 242/270/34
f 302/272/5 241/271/5 244/273/5 245/274/5 246/275/5 247/276/5 252/277/5 253/278/5 254/279/5 255/280/5 260/281/5 261/282/5 262/283/5 263/284/5 268/285/5 269/286/5 270/287/5 271/288/5 276/289/5 277/290/5 278/291/5 279/292/5 284/293/5 285/294/5 286/295/5 287/296/5 292/297/5 293/298/5 294/299/5 295/300/5 300/301/5 301/302/5
f 248/268/33 246/275/33 245/274/33 243/269/33
f 249/267/32 247/276/32 246/275/32 248/268/32
f 250/266/31 252/277/31 247/276/31 249/267/31
f 251/265/30 253/278/30 252/277/30 250/266/30
f 256/264/29 254/279/29 253/278/29 251/265/29
f 257/263/28 255/280/28 254/279/28 256/264/28
f 258/262/27 260/281/27 255/280/27 257/263/27
f 259/261/26 261/282/26 260/281/26 258/262/26
f 264/260/25 262/283/25 261/282/25 259/261/25
f 265/259/24 263/284/24 262/283/24 264/260/24
f 266/258/23 268/285/23 263/284/23 265/259/23
f 267/257/22 269/286/22 268/285/22 266/258/22
f 272/256/21 270/287/21 269/286/21 267/257/21
f 273/255/20 271/288/20 270/287/20 272/256/20
f 274/254/19 276/289/19 271/288/19 273/255/19
f 275/253/18 277/290/18 276/289/18 274/254/18
f 280/252/17 278/291/17 277/290/17 275/253/17
f 281/251/16 279/292/16 278/291/16 280/252/16
f 282/250/15 284/293/15 279/292/15 281/251/15
f 283/249/14 285/294/14 284/293/14 282/250/14
f 288/248/13 286/295/13 285/294/13 283/249/13
f 289/247/12 287/296/12 286/295/12 288/248/12
f 290/246/11 292/297/11 287/296/11 289/247/11
f 291/245/10 293/298/10 292/297/10 290/246/10
f 296/244/9 294/299/9 293/298/9 291/245/9
f 297/243/8 295/300/8 294/299/8 296/244/8
f 298/242/7 300/301/7 295/300/7 297/243/7
f 299/241/6 301/302/6 300/301/6 298/242/6
f 240/240/4 302/272/4 301/302/4 299/241/4
f 304/303/1 307/304/1 306/305/1 303/306/1
f 303/306/35 305/307/35 310/308/35 304/303/35
f 306/305/89 308/309/89 305/307/89 303/306/89
f 307/304/37 309/310/37 308/309/37 306/305/37
f 309/310/5 310/308/5 305/307/5 308/309/5
f 304/303/90 310/308/90 309/310/90 307/304/90
f 311/311/35 312/312/35 314/313/35 313/314/35
f 313/314/36 314/313/36 318/315/36 317/316/36
f 317/316/37 318/315/37 316/317/37 315/318/37
f 315/318/38 316/317/38 312/312/38 311/311/38
f 313/314/39 317/316/39 315/318/39 311/311/39
f 318/315/40 314/313/40 312/312/40 316/317/40
f 320/319/41 323/320/41 322/321/41 319/322/41
f 319/322/35 321/323/35 332/324/35 320/319/35
f 322/321/42 324/325/42 321/323/42 319/322/42
f 323/320/37 325/326/37 324/325/37 322/321/37
f 325/326/43 332/324/43 321/323/43 324/325/43
f 326/327/44 324/325/44 321/323/44 331/328/44
f 327/329/45 329/330/45 321/323/45 324/325/45
f 328/331/37 327/329/37 324/325/37 326/327/37
f 330/332/46 329/330/46 327/329/46 328/331/46
f 329/330/35 330/332/35 331/328/35 321/323/35
f 330/332/47 328/331/47 326/327/47 331/328/47
f 320/319/48 332/324/48 325/326/48 323/320/48
f 334/333/49 333/334/49 336/335/49 337/336/49
f 333/334/35 334/333/35 340/337/35 335/338/35
f 336/335/50 333/334/50 335/338/50 338/339/50
f 337/336/37 336/335/37 338/339/37 339/340/37
f 339/340/51 338/339/51 335/338/51 340/337/51
f 334/333/52 337/336/52 339/340/52 340/337/52
