# Blender 4.4.3
# www.blender.org
mtllib door close.mtl
o Gate_opened.002
v 0.328278 0.068478 -3.318160
v 0.153229 0.068478 -3.318160
v 0.328278 0.173291 -3.318160
v 0.153229 0.173291 -3.318160
v 0.328278 0.173291 -0.495228
v 0.153229 0.173291 -0.495228
v 0.328278 0.068478 -0.495228
v 0.153229 0.068478 -0.495228
v 0.176961 0.145663 -0.659900
v 0.296340 0.145663 -0.659900
v 0.176961 1.967921 -0.659901
v 0.296340 1.967921 -0.659901
v 0.176961 1.967920 -0.728668
v 0.296340 1.967920 -0.728668
v 0.176961 0.145662 -0.728668
v 0.296340 0.145662 -0.728668
v 0.176961 0.145663 -0.852450
v 0.296340 0.145663 -0.852450
v 0.176961 1.967921 -0.852450
v 0.296340 1.967921 -0.852450
v 0.176961 1.967920 -0.921218
v 0.296340 1.967920 -0.921218
v 0.176961 0.145662 -0.921218
v 0.296340 0.145662 -0.921218
v 0.176961 0.145663 -1.045000
v 0.296340 0.145663 -1.045000
v 0.176961 1.967921 -1.045000
v 0.296340 1.967921 -1.045000
v 0.176961 1.967920 -1.113768
v 0.296340 1.967920 -1.113768
v 0.176961 0.145662 -1.113768
v 0.296340 0.145662 -1.113768
v 0.176961 0.145662 -1.237550
v 0.296341 0.145662 -1.237550
v 0.176961 1.967921 -1.237550
v 0.296341 1.967921 -1.237550
v 0.176961 1.967920 -1.306318
v 0.296341 1.967920 -1.306318
v 0.176961 0.145662 -1.306318
v 0.296341 0.145662 -1.306318
v 0.176961 0.145662 -1.564884
v 0.296340 0.145662 -1.564884
v 0.176961 1.967921 -1.564884
v 0.296340 1.967921 -1.564884
v 0.176961 1.967920 -1.633652
v 0.296340 1.967920 -1.633652
v 0.176961 0.145662 -1.633652
v 0.296340 0.145662 -1.633652
v 0.176961 0.145662 -1.757434
v 0.296340 0.145662 -1.757434
v 0.176961 1.967921 -1.757434
v 0.296340 1.967921 -1.757434
v 0.176961 1.967920 -1.826202
v 0.296340 1.967920 -1.826202
v 0.176961 0.145662 -1.826202
v 0.296340 0.145662 -1.826202
v 0.176961 0.145662 -1.949984
v 0.296340 0.145662 -1.949984
v 0.176961 1.967921 -1.949984
v 0.296340 1.967921 -1.949984
v 0.176961 1.967920 -2.018751
v 0.296340 1.967920 -2.018751
v 0.176961 0.145662 -2.018751
v 0.296340 0.145662 -2.018751
v 0.176961 0.145662 -2.142533
v 0.296340 0.145662 -2.142533
v 0.176961 1.967921 -2.142534
v 0.296341 1.967921 -2.142534
v 0.176961 1.967920 -2.211301
v 0.296341 1.967920 -2.211301
v 0.176961 0.145662 -2.211301
v 0.296341 0.145662 -2.211301
v 0.176961 0.145662 -2.469868
v 0.296340 0.145662 -2.469868
v 0.176961 1.967921 -2.469868
v 0.296340 1.967921 -2.469868
v 0.176961 1.967920 -2.538636
v 0.296340 1.967920 -2.538636
v 0.176961 0.145662 -2.538636
v 0.296340 0.145662 -2.538636
v 0.176961 0.145662 -2.662418
v 0.296340 0.145662 -2.662418
v 0.176961 1.967921 -2.662418
v 0.296340 1.967921 -2.662418
v 0.176961 1.967920 -2.731185
v 0.296340 1.967920 -2.731185
v 0.176961 0.145662 -2.731185
v 0.296340 0.145662 -2.731185
v 0.176961 0.145662 -2.854967
v 0.296340 0.145662 -2.854967
v 0.176961 1.967921 -2.854967
v 0.296340 1.967921 -2.854967
v 0.176961 1.967920 -2.923735
v 0.296340 1.967920 -2.923735
v 0.176961 0.145662 -2.923735
v 0.296340 0.145662 -2.923735
v 0.176961 0.145662 -3.047517
v 0.296340 0.145662 -3.047517
v 0.176961 1.967921 -3.047517
v 0.296341 1.967921 -3.047517
v 0.176961 1.967920 -3.116285
v 0.296341 1.967920 -3.116285
v 0.176961 0.145662 -3.116285
v 0.296341 0.145662 -3.116285
v 0.328278 1.922289 -3.318160
v 0.153229 1.922289 -3.318160
v 0.328278 2.027103 -3.318160
v 0.153229 2.027103 -3.318160
v 0.328278 2.027103 -0.495228
v 0.153229 2.027103 -0.495228
v 0.328278 1.922289 -0.495228
v 0.153229 1.922289 -0.495228
v 0.328278 0.125283 -0.579510
v 0.153229 0.125283 -0.579510
v 0.328278 2.000105 -0.579510
v 0.153229 2.000105 -0.579510
v 0.328278 2.000105 -0.498323
v 0.153229 2.000105 -0.498323
v 0.328278 0.125283 -0.498323
v 0.153229 0.125283 -0.498323
v 0.328278 0.125283 -1.492855
v 0.153229 0.125283 -1.492855
v 0.328278 2.000105 -1.492855
v 0.153229 2.000105 -1.492855
v 0.328278 2.000105 -1.411669
v 0.153229 2.000105 -1.411669
v 0.328278 0.125283 -1.411669
v 0.153229 0.125283 -1.411669
v 0.328278 0.125283 -2.406201
v 0.153229 0.125283 -2.406201
v 0.328278 2.000105 -2.406201
v 0.153229 2.000105 -2.406201
v 0.328278 2.000105 -2.325015
v 0.153229 2.000105 -2.325015
v 0.328278 0.125283 -2.325015
v 0.153229 0.125283 -2.325015
v 0.328278 0.125283 -3.319547
v 0.153229 0.125283 -3.319547
v 0.328278 2.000105 -3.319547
v 0.153229 2.000105 -3.319547
v 0.328278 2.000105 -3.238361
v 0.153229 2.000105 -3.238361
v 0.328278 0.125283 -3.238361
v 0.153229 0.125283 -3.238361
v 0.331361 -0.000000 -0.452603
v 0.144874 -0.000000 -0.452603
v 0.331361 2.070399 -0.452603
v 0.144874 2.070399 -0.452603
v 0.333644 2.070399 -0.361566
v 0.142591 2.070399 -0.361566
v 0.333644 -0.000000 -0.361566
v 0.142590 -0.000000 -0.361566
v -5.794351 0.000000 -0.361567
v 0.161498 0.231086 -0.377488
v 0.161498 0.427575 -0.377488
v 0.161498 0.231086 -0.566093
v 0.161498 0.427575 -0.566093
v 0.310856 0.231086 -0.377488
v 0.310856 0.427575 -0.377488
v 0.310856 0.231086 -0.566093
v 0.310856 0.427575 -0.566093
v 0.161498 1.589064 -0.377488
v 0.161498 1.785553 -0.377488
v 0.161498 1.589064 -0.566093
v 0.161498 1.785553 -0.566093
v 0.310856 1.589064 -0.377488
v 0.310856 1.785553 -0.377488
v 0.310856 1.589064 -0.566093
v 0.310856 1.785553 -0.566093
vn -0.0000 -0.0000 -1.0000
vn -0.0000 1.0000 -0.0000
vn -0.0000 -0.0000 1.0000
vn -0.0000 -1.0000 -0.0000
vn -1.0000 -0.0000 -0.0000
vn 1.0000 -0.0000 -0.0000
vn -0.9997 -0.0000 -0.0251
vn 0.9997 -0.0000 -0.0251
vt 0.375000 0.000000
vt 0.625000 0.000000
vt 0.625000 0.250000
vt 0.375000 0.250000
vt 0.625000 0.500000
vt 0.375000 0.500000
vt 0.625000 0.750000
vt 0.375000 0.750000
vt 0.625000 1.000000
vt 0.375000 1.000000
vt 0.875000 0.000000
vt 0.875000 0.250000
vt 0.125000 0.000000
vt 0.125000 0.250000
vt 0.125000 0.500000
vt 0.125000 0.750000
vt 0.875000 0.500000
vt 0.875000 0.750000
s 1
usemtl initialShadingGroup.001
f 1/1/1 2/2/1 4/3/1 3/4/1
f 3/4/2 4/3/2 6/5/2 5/6/2
f 5/6/3 6/5/3 8/7/3 7/8/3
f 7/8/4 8/7/4 2/9/4 1/10/4
f 2/2/5 8/11/5 6/12/5 4/3/5
f 7/13/6 1/1/6 3/4/6 5/14/6
f 105/1/1 106/2/1 108/3/1 107/4/1
f 107/4/2 108/3/2 110/5/2 109/6/2
f 109/6/3 110/5/3 112/7/3 111/8/3
f 111/8/4 112/7/4 106/9/4 105/10/4
f 106/2/5 112/11/5 110/12/5 108/3/5
f 111/13/6 105/1/6 107/4/6 109/14/6
f 113/1/1 114/2/1 116/3/1 115/4/1
f 115/4/2 116/3/2 118/5/2 117/6/2
f 117/6/3 118/5/3 120/7/3 119/8/3
f 119/8/4 120/7/4 114/9/4 113/10/4
f 114/2/5 120/11/5 118/12/5 116/3/5
f 119/13/6 113/1/6 115/4/6 117/14/6
f 121/1/1 122/2/1 124/3/1 123/4/1
f 123/4/2 124/3/2 126/5/2 125/6/2
f 125/6/3 126/5/3 128/7/3 127/8/3
f 127/8/4 128/7/4 122/9/4 121/10/4
f 122/2/5 128/11/5 126/12/5 124/3/5
f 127/13/6 121/1/6 123/4/6 125/14/6
f 129/1/1 130/2/1 132/3/1 131/4/1
f 131/4/2 132/3/2 134/5/2 133/6/2
f 133/6/3 134/5/3 136/7/3 135/8/3
f 135/8/4 136/7/4 130/9/4 129/10/4
f 130/2/5 136/11/5 134/12/5 132/3/5
f 135/13/6 129/1/6 131/4/6 133/14/6
f 137/1/1 138/2/1 140/3/1 139/4/1
f 139/4/2 140/3/2 142/5/2 141/6/2
f 141/6/3 142/5/3 144/7/3 143/8/3
f 143/8/4 144/7/4 138/9/4 137/10/4
f 138/2/5 144/11/5 142/12/5 140/3/5
f 143/13/6 137/1/6 139/4/6 141/14/6
f 145/1/1 146/2/1 148/3/1 147/4/1
f 147/4/2 148/3/2 150/5/2 149/6/2
f 149/6/3 150/5/3 152/7/3 151/8/3
f 151/8/4 152/7/4 146/9/4 145/10/4
f 146/2/7 152/11/7 150/12/7 148/3/7
f 151/13/8 145/1/8 147/4/8 149/14/8
usemtl initialShadingGroup
f 9/1/3 10/2/3 12/3/3 11/4/3
f 11/4/2 12/3/2 14/5/2 13/6/2
f 13/6/1 14/5/1 16/7/1 15/8/1
f 15/8/4 16/7/4 10/9/4 9/10/4
f 10/2/6 16/11/6 14/12/6 12/3/6
f 15/13/5 9/1/5 11/4/5 13/14/5
f 17/1/3 18/2/3 20/3/3 19/4/3
f 19/4/2 20/3/2 22/5/2 21/6/2
f 21/6/1 22/5/1 24/7/1 23/8/1
f 23/8/4 24/7/4 18/9/4 17/10/4
f 18/2/6 24/11/6 22/12/6 20/3/6
f 23/13/5 17/1/5 19/4/5 21/14/5
f 25/1/3 26/2/3 28/3/3 27/4/3
f 27/4/2 28/3/2 30/5/2 29/6/2
f 29/6/1 30/5/1 32/7/1 31/8/1
f 31/8/4 32/7/4 26/9/4 25/10/4
f 26/2/6 32/11/6 30/12/6 28/3/6
f 31/13/5 25/1/5 27/4/5 29/14/5
f 33/1/3 34/2/3 36/3/3 35/4/3
f 35/4/2 36/3/2 38/5/2 37/6/2
f 37/6/1 38/5/1 40/7/1 39/8/1
f 39/8/4 40/7/4 34/9/4 33/10/4
f 34/2/6 40/11/6 38/12/6 36/3/6
f 39/13/5 33/1/5 35/4/5 37/14/5
f 41/1/3 42/2/3 44/3/3 43/4/3
f 43/4/2 44/3/2 46/5/2 45/6/2
f 45/6/1 46/5/1 48/7/1 47/8/1
f 47/8/4 48/7/4 42/9/4 41/10/4
f 42/2/6 48/11/6 46/12/6 44/3/6
f 47/13/5 41/1/5 43/4/5 45/14/5
f 49/1/3 50/2/3 52/3/3 51/4/3
f 51/4/2 52/3/2 54/5/2 53/6/2
f 53/6/1 54/5/1 56/7/1 55/8/1
f 55/8/4 56/7/4 50/9/4 49/10/4
f 50/2/6 56/11/6 54/12/6 52/3/6
f 55/13/5 49/1/5 51/4/5 53/14/5
f 57/1/3 58/2/3 60/3/3 59/4/3
f 59/4/2 60/3/2 62/5/2 61/6/2
f 61/6/1 62/5/1 64/7/1 63/8/1
f 63/8/4 64/7/4 58/9/4 57/10/4
f 58/2/6 64/11/6 62/12/6 60/3/6
f 63/13/5 57/1/5 59/4/5 61/14/5
f 65/1/3 66/2/3 68/3/3 67/4/3
f 67/4/2 68/3/2 70/5/2 69/6/2
f 69/6/1 70/5/1 72/7/1 71/8/1
f 71/8/4 72/7/4 66/9/4 65/10/4
f 66/2/6 72/11/6 70/12/6 68/3/6
f 71/13/5 65/1/5 67/4/5 69/14/5
f 73/1/3 74/2/3 76/3/3 75/4/3
f 75/4/2 76/3/2 78/5/2 77/6/2
f 77/6/1 78/5/1 80/7/1 79/8/1
f 79/8/4 80/7/4 74/9/4 73/10/4
f 74/2/6 80/11/6 78/12/6 76/3/6
f 79/13/5 73/1/5 75/4/5 77/14/5
f 81/1/3 82/2/3 84/3/3 83/4/3
f 83/4/2 84/3/2 86/5/2 85/6/2
f 85/6/1 86/5/1 88/7/1 87/8/1
f 87/8/4 88/7/4 82/9/4 81/10/4
f 82/2/6 88/11/6 86/12/6 84/3/6
f 87/13/5 81/1/5 83/4/5 85/14/5
f 89/1/3 90/2/3 92/3/3 91/4/3
f 91/4/2 92/3/2 94/5/2 93/6/2
f 93/6/1 94/5/1 96/7/1 95/8/1
f 95/8/4 96/7/4 90/9/4 89/10/4
f 90/2/6 96/11/6 94/12/6 92/3/6
f 95/13/5 89/1/5 91/4/5 93/14/5
f 97/1/3 98/2/3 100/3/3 99/4/3
f 99/4/2 100/3/2 102/5/2 101/6/2
f 101/6/1 102/5/1 104/7/1 103/8/1
f 103/8/4 104/7/4 98/9/4 97/10/4
f 98/2/6 104/11/6 102/12/6 100/3/6
f 103/13/5 97/1/5 99/4/5 101/14/5
s 0
usemtl 
f 154/1/5 155/2/5 157/3/5 156/4/5
f 156/4/1 157/3/1 161/5/1 160/6/1
f 160/6/6 161/5/6 159/7/6 158/8/6
f 158/8/3 159/7/3 155/9/3 154/10/3
f 156/15/4 160/6/4 158/8/4 154/16/4
f 161/5/2 157/17/2 155/18/2 159/7/2
f 162/1/5 163/2/5 165/3/5 164/4/5
f 164/4/1 165/3/1 169/5/1 168/6/1
f 168/6/6 169/5/6 167/7/6 166/8/6
f 166/8/3 167/7/3 163/9/3 162/10/3
f 164/15/4 168/6/4 166/8/4 162/16/4
f 169/5/2 165/17/2 163/18/2 167/7/2
o Gate_opened.003
v 0.328278 0.068478 -3.327254
v 0.153229 0.068478 -3.327254
v 0.328278 0.173291 -3.327254
v 0.153229 0.173291 -3.327254
v 0.328278 0.173291 -6.150186
v 0.153229 0.173291 -6.150186
v 0.328278 0.068478 -6.150186
v 0.153229 0.068478 -6.150186
v 0.176961 0.145663 -5.985514
v 0.296341 0.145663 -5.985514
v 0.176961 1.967921 -5.985513
v 0.296341 1.967921 -5.985513
v 0.176961 1.967920 -5.916746
v 0.296341 1.967920 -5.916746
v 0.176961 0.145662 -5.916746
v 0.296341 0.145662 -5.916746
v 0.176961 0.145663 -5.792964
v 0.296341 0.145663 -5.792964
v 0.176961 1.967921 -5.792964
v 0.296341 1.967921 -5.792964
v 0.176961 1.967920 -5.724196
v 0.296341 1.967920 -5.724196
v 0.176961 0.145662 -5.724196
v 0.296341 0.145662 -5.724196
v 0.176961 0.145663 -5.600414
v 0.296341 0.145663 -5.600414
v 0.176961 1.967921 -5.600414
v 0.296341 1.967921 -5.600414
v 0.176961 1.967920 -5.531646
v 0.296341 1.967920 -5.531646
v 0.176961 0.145662 -5.531646
v 0.296341 0.145662 -5.531646
v 0.176961 0.145662 -5.407864
v 0.296341 0.145662 -5.407864
v 0.176961 1.967921 -5.407864
v 0.296341 1.967921 -5.407864
v 0.176961 1.967920 -5.339096
v 0.296341 1.967920 -5.339096
v 0.176961 0.145662 -5.339097
v 0.296341 0.145662 -5.339097
v 0.176961 0.145662 -5.080530
v 0.296341 0.145662 -5.080530
v 0.176961 1.967921 -5.080530
v 0.296341 1.967921 -5.080530
v 0.176961 1.967920 -5.011762
v 0.296341 1.967920 -5.011762
v 0.176961 0.145662 -5.011762
v 0.296341 0.145662 -5.011762
v 0.176961 0.145662 -4.887980
v 0.296341 0.145662 -4.887980
v 0.176961 1.967921 -4.887980
v 0.296341 1.967921 -4.887980
v 0.176961 1.967920 -4.819212
v 0.296341 1.967920 -4.819212
v 0.176961 0.145662 -4.819212
v 0.296341 0.145662 -4.819212
v 0.176961 0.145662 -4.695430
v 0.296340 0.145662 -4.695430
v 0.176961 1.967921 -4.695430
v 0.296340 1.967921 -4.695430
v 0.176961 1.967920 -4.626662
v 0.296340 1.967920 -4.626662
v 0.176961 0.145662 -4.626663
v 0.296340 0.145662 -4.626663
v 0.176961 0.145662 -4.502881
v 0.296340 0.145662 -4.502881
v 0.176961 1.967921 -4.502880
v 0.296340 1.967921 -4.502880
v 0.176961 1.967920 -4.434113
v 0.296340 1.967920 -4.434113
v 0.176961 0.145662 -4.434113
v 0.296340 0.145662 -4.434113
v 0.176961 0.145662 -4.175546
v 0.296340 0.145662 -4.175546
v 0.176961 1.967921 -4.175546
v 0.296340 1.967921 -4.175546
v 0.176961 1.967920 -4.106778
v 0.296340 1.967920 -4.106778
v 0.176961 0.145662 -4.106778
v 0.296340 0.145662 -4.106778
v 0.176961 0.145662 -3.982996
v 0.296340 0.145662 -3.982996
v 0.176961 1.967921 -3.982996
v 0.296340 1.967921 -3.982996
v 0.176961 1.967920 -3.914228
v 0.296340 1.967920 -3.914228
v 0.176961 0.145662 -3.914228
v 0.296340 0.145662 -3.914228
v 0.176961 0.145662 -3.790447
v 0.296340 0.145662 -3.790447
v 0.176961 1.967921 -3.790447
v 0.296340 1.967921 -3.790447
v 0.176961 1.967920 -3.721679
v 0.296340 1.967920 -3.721679
v 0.176961 0.145662 -3.721679
v 0.296340 0.145662 -3.721679
v 0.176961 0.145662 -3.597897
v 0.296340 0.145662 -3.597897
v 0.176961 1.967921 -3.597897
v 0.296340 1.967921 -3.597897
v 0.176961 1.967920 -3.529129
v 0.296340 1.967920 -3.529129
v 0.176961 0.145662 -3.529129
v 0.296340 0.145662 -3.529129
v 0.328278 1.922289 -3.327254
v 0.153229 1.922289 -3.327254
v 0.328278 2.027103 -3.327254
v 0.153229 2.027103 -3.327254
v 0.328278 2.027103 -6.150186
v 0.153229 2.027103 -6.150186
v 0.328278 1.922289 -6.150186
v 0.153229 1.922289 -6.150186
v 0.328278 0.125283 -6.065904
v 0.153229 0.125283 -6.065904
v 0.328278 2.000105 -6.065904
v 0.153229 2.000105 -6.065904
v 0.328278 2.000105 -6.147090
v 0.153229 2.000105 -6.147090
v 0.328278 0.125283 -6.147090
v 0.153229 0.125283 -6.147090
v 0.328278 0.125283 -5.152558
v 0.153229 0.125283 -5.152558
v 0.328278 2.000105 -5.152558
v 0.153229 2.000105 -5.152558
v 0.328278 2.000105 -5.233745
v 0.153229 2.000105 -5.233745
v 0.328278 0.125283 -5.233745
v 0.153229 0.125283 -5.233745
v 0.328278 0.125283 -4.239213
v 0.153229 0.125283 -4.239213
v 0.328278 2.000105 -4.239213
v 0.153229 2.000105 -4.239213
v 0.328278 2.000105 -4.320399
v 0.153229 2.000105 -4.320399
v 0.328278 0.125283 -4.320399
v 0.153229 0.125283 -4.320399
v 0.328278 0.125283 -3.325867
v 0.153229 0.125283 -3.325867
v 0.328278 2.000105 -3.325867
v 0.153229 2.000105 -3.325867
v 0.328278 2.000105 -3.407053
v 0.153229 2.000105 -3.407053
v 0.328278 0.125283 -3.407053
v 0.153229 0.125283 -3.407053
v 0.331361 -0.000000 -6.192811
v 0.144874 -0.000000 -6.192811
v 0.331361 2.070399 -6.192811
v 0.144874 2.070399 -6.192811
v 0.333644 2.070399 -6.283848
v 0.142591 2.070399 -6.283848
v 0.333644 -0.000000 -6.283848
v 0.142591 -0.000000 -6.283848
v -5.794351 0.000000 -6.283848
v 0.161498 0.231086 -6.267926
v 0.161498 0.427575 -6.267926
v 0.161498 0.231086 -6.079321
v 0.161498 0.427575 -6.079321
v 0.310856 0.231086 -6.267926
v 0.310856 0.427575 -6.267926
v 0.310856 0.231086 -6.079321
v 0.310856 0.427575 -6.079321
v 0.161498 1.589064 -6.267926
v 0.161498 1.785553 -6.267926
v 0.161498 1.589064 -6.079321
v 0.161498 1.785553 -6.079321
v 0.310856 1.589064 -6.267926
v 0.310856 1.785553 -6.267926
v 0.310856 1.589064 -6.079320
v 0.310856 1.785553 -6.079320
vn -0.0000 -0.0000 1.0000
vn -0.0000 1.0000 -0.0000
vn -0.0000 -0.0000 -1.0000
vn -0.0000 -1.0000 -0.0000
vn -1.0000 -0.0000 -0.0000
vn 1.0000 -0.0000 -0.0000
vn -0.9997 -0.0000 0.0251
vn 0.9997 -0.0000 0.0251
vt 0.375000 0.000000
vt 0.625000 0.000000
vt 0.625000 0.250000
vt 0.375000 0.250000
vt 0.625000 0.500000
vt 0.375000 0.500000
vt 0.625000 0.750000
vt 0.375000 0.750000
vt 0.625000 1.000000
vt 0.375000 1.000000
vt 0.875000 0.000000
vt 0.875000 0.250000
vt 0.125000 0.000000
vt 0.125000 0.250000
vt 0.125000 0.500000
vt 0.125000 0.750000
vt 0.875000 0.500000
vt 0.875000 0.750000
s 1
usemtl initialShadingGroup.001
f 170/19/9 172/22/9 173/21/9 171/20/9
f 172/22/10 174/24/10 175/23/10 173/21/10
f 174/24/11 176/26/11 177/25/11 175/23/11
f 176/26/12 170/28/12 171/27/12 177/25/12
f 171/20/13 173/21/13 175/30/13 177/29/13
f 176/31/14 174/32/14 172/22/14 170/19/14
f 274/19/9 276/22/9 277/21/9 275/20/9
f 276/22/10 278/24/10 279/23/10 277/21/10
f 278/24/11 280/26/11 281/25/11 279/23/11
f 280/26/12 274/28/12 275/27/12 281/25/12
f 275/20/13 277/21/13 279/30/13 281/29/13
f 280/31/14 278/32/14 276/22/14 274/19/14
f 282/19/9 284/22/9 285/21/9 283/20/9
f 284/22/10 286/24/10 287/23/10 285/21/10
f 286/24/11 288/26/11 289/25/11 287/23/11
f 288/26/12 282/28/12 283/27/12 289/25/12
f 283/20/13 285/21/13 287/30/13 289/29/13
f 288/31/14 286/32/14 284/22/14 282/19/14
f 290/19/9 292/22/9 293/21/9 291/20/9
f 292/22/10 294/24/10 295/23/10 293/21/10
f 294/24/11 296/26/11 297/25/11 295/23/11
f 296/26/12 290/28/12 291/27/12 297/25/12
f 291/20/13 293/21/13 295/30/13 297/29/13
f 296/31/14 294/32/14 292/22/14 290/19/14
f 298/19/9 300/22/9 301/21/9 299/20/9
f 300/22/10 302/24/10 303/23/10 301/21/10
f 302/24/11 304/26/11 305/25/11 303/23/11
f 304/26/12 298/28/12 299/27/12 305/25/12
f 299/20/13 301/21/13 303/30/13 305/29/13
f 304/31/14 302/32/14 300/22/14 298/19/14
f 306/19/9 308/22/9 309/21/9 307/20/9
f 308/22/10 310/24/10 311/23/10 309/21/10
f 310/24/11 312/26/11 313/25/11 311/23/11
f 312/26/12 306/28/12 307/27/12 313/25/12
f 307/20/13 309/21/13 311/30/13 313/29/13
f 312/31/14 310/32/14 308/22/14 306/19/14
f 314/19/9 316/22/9 317/21/9 315/20/9
f 316/22/10 318/24/10 319/23/10 317/21/10
f 318/24/11 320/26/11 321/25/11 319/23/11
f 320/26/12 314/28/12 315/27/12 321/25/12
f 315/20/15 317/21/15 319/30/15 321/29/15
f 320/31/16 318/32/16 316/22/16 314/19/16
usemtl initialShadingGroup
f 178/19/11 180/22/11 181/21/11 179/20/11
f 180/22/10 182/24/10 183/23/10 181/21/10
f 182/24/9 184/26/9 185/25/9 183/23/9
f 184/26/12 178/28/12 179/27/12 185/25/12
f 179/20/14 181/21/14 183/30/14 185/29/14
f 184/31/13 182/32/13 180/22/13 178/19/13
f 186/19/11 188/22/11 189/21/11 187/20/11
f 188/22/10 190/24/10 191/23/10 189/21/10
f 190/24/9 192/26/9 193/25/9 191/23/9
f 192/26/12 186/28/12 187/27/12 193/25/12
f 187/20/14 189/21/14 191/30/14 193/29/14
f 192/31/13 190/32/13 188/22/13 186/19/13
f 194/19/11 196/22/11 197/21/11 195/20/11
f 196/22/10 198/24/10 199/23/10 197/21/10
f 198/24/9 200/26/9 201/25/9 199/23/9
f 200/26/12 194/28/12 195/27/12 201/25/12
f 195/20/14 197/21/14 199/30/14 201/29/14
f 200/31/13 198/32/13 196/22/13 194/19/13
f 202/19/11 204/22/11 205/21/11 203/20/11
f 204/22/10 206/24/10 207/23/10 205/21/10
f 206/24/9 208/26/9 209/25/9 207/23/9
f 208/26/12 202/28/12 203/27/12 209/25/12
f 203/20/14 205/21/14 207/30/14 209/29/14
f 208/31/13 206/32/13 204/22/13 202/19/13
f 210/19/11 212/22/11 213/21/11 211/20/11
f 212/22/10 214/24/10 215/23/10 213/21/10
f 214/24/9 216/26/9 217/25/9 215/23/9
f 216/26/12 210/28/12 211/27/12 217/25/12
f 211/20/14 213/21/14 215/30/14 217/29/14
f 216/31/13 214/32/13 212/22/13 210/19/13
f 218/19/11 220/22/11 221/21/11 219/20/11
f 220/22/10 222/24/10 223/23/10 221/21/10
f 222/24/9 224/26/9 225/25/9 223/23/9
f 224/26/12 218/28/12 219/27/12 225/25/12
f 219/20/14 221/21/14 223/30/14 225/29/14
f 224/31/13 222/32/13 220/22/13 218/19/13
f 226/19/11 228/22/11 229/21/11 227/20/11
f 228/22/10 230/24/10 231/23/10 229/21/10
f 230/24/9 232/26/9 233/25/9 231/23/9
f 232/26/12 226/28/12 227/27/12 233/25/12
f 227/20/14 229/21/14 231/30/14 233/29/14
f 232/31/13 230/32/13 228/22/13 226/19/13
f 234/19/11 236/22/11 237/21/11 235/20/11
f 236/22/10 238/24/10 239/23/10 237/21/10
f 238/24/9 240/26/9 241/25/9 239/23/9
f 240/26/12 234/28/12 235/27/12 241/25/12
f 235/20/14 237/21/14 239/30/14 241/29/14
f 240/31/13 238/32/13 236/22/13 234/19/13
f 242/19/11 244/22/11 245/21/11 243/20/11
f 244/22/10 246/24/10 247/23/10 245/21/10
f 246/24/9 248/26/9 249/25/9 247/23/9
f 248/26/12 242/28/12 243/27/12 249/25/12
f 243/20/14 245/21/14 247/30/14 249/29/14
f 248/31/13 246/32/13 244/22/13 242/19/13
f 250/19/11 252/22/11 253/21/11 251/20/11
f 252/22/10 254/24/10 255/23/10 253/21/10
f 254/24/9 256/26/9 257/25/9 255/23/9
f 256/26/12 250/28/12 251/27/12 257/25/12
f 251/20/14 253/21/14 255/30/14 257/29/14
f 256/31/13 254/32/13 252/22/13 250/19/13
f 258/19/11 260/22/11 261/21/11 259/20/11
f 260/22/10 262/24/10 263/23/10 261/21/10
f 262/24/9 264/26/9 265/25/9 263/23/9
f 264/26/12 258/28/12 259/27/12 265/25/12
f 259/20/14 261/21/14 263/30/14 265/29/14
f 264/31/13 262/32/13 260/22/13 258/19/13
f 266/19/11 268/22/11 269/21/11 267/20/11
f 268/22/10 270/24/10 271/23/10 269/21/10
f 270/24/9 272/26/9 273/25/9 271/23/9
f 272/26/12 266/28/12 267/27/12 273/25/12
f 267/20/14 269/21/14 271/30/14 273/29/14
f 272/31/13 270/32/13 268/22/13 266/19/13
s 0
usemtl 
f 323/19/13 325/22/13 326/21/13 324/20/13
f 325/22/9 329/24/9 330/23/9 326/21/9
f 329/24/14 327/26/14 328/25/14 330/23/14
f 327/26/11 323/28/11 324/27/11 328/25/11
f 325/33/12 323/34/12 327/26/12 329/24/12
f 330/23/10 328/25/10 324/36/10 326/35/10
f 331/19/13 333/22/13 334/21/13 332/20/13
f 333/22/9 337/24/9 338/23/9 334/21/9
f 337/24/14 335/26/14 336/25/14 338/23/14
f 335/26/11 331/28/11 332/27/11 336/25/11
f 333/33/12 331/34/12 335/26/12 337/24/12
f 338/23/10 336/25/10 332/36/10 334/35/10
