# Blender 4.4.3
# www.blender.org
mtllib door close_v2.mtl
o Gate_opened.002
v 2.907464 0.068478 -3.318160
v 2.732415 0.068478 -3.318160
v 2.907464 0.173291 -3.318160
v 2.732415 0.173291 -3.318160
v 2.907464 0.173291 -0.495228
v 2.732415 0.173291 -0.495228
v 2.907464 0.068478 -0.495228
v 2.732415 0.068478 -0.495228
v 2.756147 0.145663 -0.659900
v 2.875527 0.145663 -0.659900
v 2.756147 1.967921 -0.659901
v 2.875527 1.967921 -0.659901
v 2.756147 1.967920 -0.728668
v 2.875527 1.967920 -0.728668
v 2.756147 0.145662 -0.728668
v 2.875527 0.145662 -0.728668
v 2.756147 0.145663 -0.852450
v 2.875527 0.145663 -0.852450
v 2.756147 1.967921 -0.852450
v 2.875527 1.967921 -0.852450
v 2.756147 1.967920 -0.921218
v 2.875527 1.967920 -0.921218
v 2.756147 0.145662 -0.921218
v 2.875527 0.145662 -0.921218
v 2.756147 0.145663 -1.045000
v 2.875527 0.145663 -1.045000
v 2.756147 1.967921 -1.045000
v 2.875527 1.967921 -1.045000
v 2.756147 1.967920 -1.113768
v 2.875527 1.967920 -1.113768
v 2.756147 0.145662 -1.113768
v 2.875527 0.145662 -1.113768
v 2.756147 0.145662 -1.237550
v 2.875527 0.145662 -1.237550
v 2.756147 1.967921 -1.237550
v 2.875527 1.967921 -1.237550
v 2.756147 1.967920 -1.306318
v 2.875527 1.967920 -1.306318
v 2.756147 0.145662 -1.306318
v 2.875527 0.145662 -1.306318
v 2.756147 0.145662 -1.564884
v 2.875527 0.145662 -1.564884
v 2.756147 1.967921 -1.564884
v 2.875527 1.967921 -1.564884
v 2.756147 1.967920 -1.633652
v 2.875527 1.967920 -1.633652
v 2.756147 0.145662 -1.633652
v 2.875527 0.145662 -1.633652
v 2.756147 0.145662 -1.757434
v 2.875527 0.145662 -1.757434
v 2.756147 1.967921 -1.757434
v 2.875527 1.967921 -1.757434
v 2.756147 1.967920 -1.826202
v 2.875527 1.967920 -1.826202
v 2.756147 0.145662 -1.826202
v 2.875527 0.145662 -1.826202
v 2.756147 0.145662 -1.949984
v 2.875527 0.145662 -1.949984
v 2.756147 1.967921 -1.949984
v 2.875527 1.967921 -1.949984
v 2.756147 1.967920 -2.018751
v 2.875527 1.967920 -2.018751
v 2.756147 0.145662 -2.018751
v 2.875527 0.145662 -2.018751
v 2.756147 0.145662 -2.142533
v 2.875527 0.145662 -2.142533
v 2.756147 1.967921 -2.142534
v 2.875527 1.967921 -2.142534
v 2.756147 1.967920 -2.211301
v 2.875527 1.967920 -2.211301
v 2.756147 0.145662 -2.211301
v 2.875527 0.145662 -2.211301
v 2.756147 0.145662 -2.469868
v 2.875527 0.145662 -2.469868
v 2.756147 1.967921 -2.469868
v 2.875527 1.967921 -2.469868
v 2.756147 1.967920 -2.538636
v 2.875527 1.967920 -2.538636
v 2.756147 0.145662 -2.538636
v 2.875527 0.145662 -2.538636
v 2.756147 0.145662 -2.662418
v 2.875527 0.145662 -2.662418
v 2.756147 1.967921 -2.662418
v 2.875527 1.967921 -2.662418
v 2.756147 1.967920 -2.731185
v 2.875527 1.967920 -2.731185
v 2.756147 0.145662 -2.731185
v 2.875527 0.145662 -2.731185
v 2.756147 0.145662 -2.854967
v 2.875527 0.145662 -2.854967
v 2.756147 1.967921 -2.854967
v 2.875527 1.967921 -2.854967
v 2.756147 1.967920 -2.923735
v 2.875527 1.967920 -2.923735
v 2.756147 0.145662 -2.923735
v 2.875527 0.145662 -2.923735
v 2.756147 0.145662 -3.047517
v 2.875527 0.145662 -3.047517
v 2.756147 1.967921 -3.047517
v 2.875527 1.967921 -3.047517
v 2.756147 1.967920 -3.116285
v 2.875527 1.967920 -3.116285
v 2.756147 0.145662 -3.116285
v 2.875527 0.145662 -3.116285
v 2.907464 1.922289 -3.318160
v 2.732415 1.922289 -3.318160
v 2.907464 2.027103 -3.318160
v 2.732415 2.027103 -3.318160
v 2.907464 2.027103 -0.495228
v 2.732415 2.027103 -0.495228
v 2.907464 1.922289 -0.495228
v 2.732415 1.922289 -0.495228
v 2.907464 0.125283 -0.579510
v 2.732415 0.125283 -0.579510
v 2.907464 2.000105 -0.579510
v 2.732415 2.000105 -0.579510
v 2.907464 2.000105 -0.498323
v 2.732415 2.000105 -0.498323
v 2.907464 0.125283 -0.498323
v 2.732415 0.125283 -0.498323
v 2.907464 0.125283 -1.492855
v 2.732415 0.125283 -1.492855
v 2.907464 2.000105 -1.492855
v 2.732415 2.000105 -1.492855
v 2.907464 2.000105 -1.411669
v 2.732415 2.000105 -1.411669
v 2.907464 0.125283 -1.411669
v 2.732415 0.125283 -1.411669
v 2.907464 0.125283 -2.406201
v 2.732415 0.125283 -2.406201
v 2.907464 2.000105 -2.406201
v 2.732415 2.000105 -2.406201
v 2.907464 2.000105 -2.325015
v 2.732415 2.000105 -2.325015
v 2.907464 0.125283 -2.325015
v 2.732415 0.125283 -2.325015
v 2.907464 0.125283 -3.319547
v 2.732415 0.125283 -3.319547
v 2.907464 2.000105 -3.319547
v 2.732415 2.000105 -3.319547
v 2.907464 2.000105 -3.238361
v 2.732415 2.000105 -3.238361
v 2.907464 0.125283 -3.238361
v 2.732415 0.125283 -3.238361
v 2.910547 -0.000000 -0.452603
v 2.724060 -0.000000 -0.452603
v 2.910547 2.070399 -0.452603
v 2.724061 2.070399 -0.452603
v 2.912830 2.070399 -0.361566
v 2.721777 2.070399 -0.361566
v 2.912830 -0.000000 -0.361566
v 2.721776 -0.000000 -0.361566
v -3.215165 0.000000 -0.361567
v 2.740684 0.231086 -0.377488
v 2.740684 0.427575 -0.377488
v 2.740684 0.231086 -0.566093
v 2.740684 0.427575 -0.566093
v 2.890042 0.231086 -0.377488
v 2.890042 0.427575 -0.377488
v 2.890042 0.231086 -0.566093
v 2.890042 0.427575 -0.566093
v 2.740684 1.589064 -0.377488
v 2.740684 1.785553 -0.377488
v 2.740684 1.589064 -0.566093
v 2.740684 1.785553 -0.566093
v 2.890042 1.589064 -0.377488
v 2.890042 1.785553 -0.377488
v 2.890042 1.589064 -0.566093
v 2.890042 1.785553 -0.566093
vn -0.0000 -0.0000 -1.0000
vn -0.0000 1.0000 -0.0000
vn -0.0000 -0.0000 1.0000
vn -0.0000 -1.0000 -0.0000
vn -1.0000 -0.0000 -0.0000
vn 1.0000 -0.0000 -0.0000
vn -0.9997 -0.0000 -0.0251
vn 0.9997 -0.0000 -0.0251
vt 0.520712 0.399769
vt 0.501414 0.410920
vt 0.501414 0.424256
vt 0.520712 0.413105
vt 0.190216 0.244428
vt 0.209513 0.233277
vt 0.190216 0.231092
vt 0.209513 0.219941
vt 0.210986 0.249891
vt 0.224146 0.242286
vt 0.224146 0.474146
vt 0.210986 0.481751
vt 0.231727 0.478527
vt 0.218567 0.486131
vt 0.231727 0.246667
vt 0.218567 0.254272
vt 0.232212 0.262157
vt 0.245373 0.254552
vt 0.245373 0.486412
vt 0.232212 0.494017
vt 0.252954 0.490792
vt 0.239793 0.498397
vt 0.252953 0.258933
vt 0.239793 0.266538
vt 0.253439 0.274423
vt 0.266599 0.266818
vt 0.266599 0.498678
vt 0.253439 0.506282
vt 0.274180 0.503058
vt 0.261020 0.510663
vt 0.274180 0.271199
vt 0.261020 0.278804
vt 0.274665 0.286689
vt 0.287826 0.279084
vt 0.287826 0.510944
vt 0.274665 0.518548
vt 0.295407 0.515324
vt 0.282246 0.522929
vt 0.295407 0.283465
vt 0.282246 0.291069
vt 0.310751 0.307541
vt 0.323911 0.299936
vt 0.323911 0.531796
vt 0.310751 0.539400
vt 0.331492 0.536176
vt 0.318332 0.543781
vt 0.331492 0.304317
vt 0.318331 0.311922
vt 0.331977 0.319807
vt 0.345137 0.312202
vt 0.345137 0.544062
vt 0.331977 0.551666
vt 0.352718 0.548442
vt 0.339558 0.556047
vt 0.352718 0.316583
vt 0.339558 0.324187
vt 0.353204 0.332073
vt 0.366364 0.324468
vt 0.366364 0.556328
vt 0.353204 0.563932
vt 0.373945 0.560708
vt 0.360785 0.568313
vt 0.373945 0.328849
vt 0.360785 0.336453
vt 0.374430 0.344339
vt 0.387591 0.336734
vt 0.387591 0.568593
vt 0.374430 0.576198
vt 0.395172 0.572974
vt 0.382011 0.580579
vt 0.395171 0.341115
vt 0.382011 0.348719
vt 0.410515 0.365191
vt 0.423676 0.357586
vt 0.423676 0.589446
vt 0.410515 0.597050
vt 0.431257 0.593826
vt 0.418096 0.601431
vt 0.431257 0.361967
vt 0.418096 0.369571
vt 0.431742 0.377457
vt 0.444902 0.369852
vt 0.444902 0.601711
vt 0.431742 0.609316
vt 0.452483 0.606092
vt 0.439323 0.613697
vt 0.452483 0.374233
vt 0.439323 0.381837
vt 0.452969 0.389723
vt 0.466129 0.382118
vt 0.466129 0.613977
vt 0.452969 0.621582
vt 0.473710 0.618358
vt 0.460549 0.625963
vt 0.473710 0.386498
vt 0.460549 0.394103
vt 0.474195 0.401988
vt 0.487355 0.394384
vt 0.487355 0.626243
vt 0.474195 0.633848
vt 0.494936 0.630624
vt 0.481776 0.638229
vt 0.494936 0.398764
vt 0.481776 0.406369
vt 0.520712 0.635643
vt 0.501414 0.646795
vt 0.501414 0.660131
vt 0.520712 0.648980
vt 0.190216 0.480303
vt 0.209513 0.469151
vt 0.190216 0.466966
vt 0.209513 0.455815
vt 0.218805 0.232538
vt 0.199507 0.243689
vt 0.199507 0.482236
vt 0.218805 0.471085
vt 0.190557 0.477065
vt 0.209855 0.465914
vt 0.190557 0.238517
vt 0.209855 0.227366
vt 0.319491 0.290720
vt 0.300194 0.301871
vt 0.300194 0.540419
vt 0.319491 0.529268
vt 0.291244 0.535247
vt 0.310541 0.524096
vt 0.291244 0.296699
vt 0.310541 0.285548
vt 0.420178 0.348903
vt 0.400881 0.360054
vt 0.400881 0.598601
vt 0.420178 0.587450
vt 0.391931 0.593430
vt 0.411228 0.582279
vt 0.391931 0.354882
vt 0.411228 0.343731
vt 0.520865 0.407085
vt 0.501567 0.418236
vt 0.501567 0.656784
vt 0.520865 0.645633
vt 0.492617 0.651612
vt 0.511915 0.640461
vt 0.492617 0.413064
vt 0.511915 0.401913
vt 0.205154 0.208316
vt 0.184596 0.220196
vt 0.184596 0.483628
vt 0.205154 0.471749
vt 0.174309 0.477975
vt 0.195370 0.465804
vt 0.174309 0.214542
vt 0.195370 0.202372
vt 0.178148 0.243755
vt 0.178148 0.268755
vt 0.198940 0.280770
vt 0.198940 0.255769
vt 0.215405 0.271256
vt 0.215405 0.246255
vt 0.194613 0.259241
vt 0.194613 0.234240
vt 0.178148 0.416541
vt 0.178148 0.441541
vt 0.198940 0.453556
vt 0.198940 0.428555
vt 0.215405 0.444041
vt 0.215405 0.419041
vt 0.194613 0.432027
vt 0.194613 0.407026
s 1
usemtl initialShadingGroup.001
f 1/1/1 2/2/1 4/3/1 3/4/1
f 3/4/2 4/3/2 6/5/2 5/6/2
f 5/6/3 6/5/3 8/7/3 7/8/3
f 7/8/4 8/7/4 2/2/4 1/1/4
f 2/2/5 8/7/5 6/5/5 4/3/5
f 7/8/6 1/1/6 3/4/6 5/6/6
f 105/105/1 106/106/1 108/107/1 107/108/1
f 107/108/2 108/107/2 110/109/2 109/110/2
f 109/110/3 110/109/3 112/111/3 111/112/3
f 111/112/4 112/111/4 106/106/4 105/105/4
f 106/106/5 112/111/5 110/109/5 108/107/5
f 111/112/6 105/105/6 107/108/6 109/110/6
f 113/113/1 114/114/1 116/115/1 115/116/1
f 115/116/2 116/115/2 118/117/2 117/118/2
f 117/118/3 118/117/3 120/119/3 119/120/3
f 119/120/4 120/119/4 114/114/4 113/113/4
f 114/114/5 120/119/5 118/117/5 116/115/5
f 119/120/6 113/113/6 115/116/6 117/118/6
f 121/121/1 122/122/1 124/123/1 123/124/1
f 123/124/2 124/123/2 126/125/2 125/126/2
f 125/126/3 126/125/3 128/127/3 127/128/3
f 127/128/4 128/127/4 122/122/4 121/121/4
f 122/122/5 128/127/5 126/125/5 124/123/5
f 127/128/6 121/121/6 123/124/6 125/126/6
f 129/129/1 130/130/1 132/131/1 131/132/1
f 131/132/2 132/131/2 134/133/2 133/134/2
f 133/134/3 134/133/3 136/135/3 135/136/3
f 135/136/4 136/135/4 130/130/4 129/129/4
f 130/130/5 136/135/5 134/133/5 132/131/5
f 135/136/6 129/129/6 131/132/6 133/134/6
f 137/137/1 138/138/1 140/139/1 139/140/1
f 139/140/2 140/139/2 142/141/2 141/142/2
f 141/142/3 142/141/3 144/143/3 143/144/3
f 143/144/4 144/143/4 138/138/4 137/137/4
f 138/138/5 144/143/5 142/141/5 140/139/5
f 143/144/6 137/137/6 139/140/6 141/142/6
f 145/145/1 146/146/1 148/147/1 147/148/1
f 147/148/2 148/147/2 150/149/2 149/150/2
f 149/150/3 150/149/3 152/151/3 151/152/3
f 151/152/4 152/151/4 146/146/4 145/145/4
f 146/146/7 152/151/7 150/149/7 148/147/7
f 151/152/8 145/145/8 147/148/8 149/150/8
usemtl initialShadingGroup
f 9/9/3 10/10/3 12/11/3 11/12/3
f 11/12/2 12/11/2 14/13/2 13/14/2
f 13/14/1 14/13/1 16/15/1 15/16/1
f 15/16/4 16/15/4 10/10/4 9/9/4
f 10/10/6 16/15/6 14/13/6 12/11/6
f 15/16/5 9/9/5 11/12/5 13/14/5
f 17/17/3 18/18/3 20/19/3 19/20/3
f 19/20/2 20/19/2 22/21/2 21/22/2
f 21/22/1 22/21/1 24/23/1 23/24/1
f 23/24/4 24/23/4 18/18/4 17/17/4
f 18/18/6 24/23/6 22/21/6 20/19/6
f 23/24/5 17/17/5 19/20/5 21/22/5
f 25/25/3 26/26/3 28/27/3 27/28/3
f 27/28/2 28/27/2 30/29/2 29/30/2
f 29/30/1 30/29/1 32/31/1 31/32/1
f 31/32/4 32/31/4 26/26/4 25/25/4
f 26/26/6 32/31/6 30/29/6 28/27/6
f 31/32/5 25/25/5 27/28/5 29/30/5
f 33/33/3 34/34/3 36/35/3 35/36/3
f 35/36/2 36/35/2 38/37/2 37/38/2
f 37/38/1 38/37/1 40/39/1 39/40/1
f 39/40/4 40/39/4 34/34/4 33/33/4
f 34/34/6 40/39/6 38/37/6 36/35/6
f 39/40/5 33/33/5 35/36/5 37/38/5
f 41/41/3 42/42/3 44/43/3 43/44/3
f 43/44/2 44/43/2 46/45/2 45/46/2
f 45/46/1 46/45/1 48/47/1 47/48/1
f 47/48/4 48/47/4 42/42/4 41/41/4
f 42/42/6 48/47/6 46/45/6 44/43/6
f 47/48/5 41/41/5 43/44/5 45/46/5
f 49/49/3 50/50/3 52/51/3 51/52/3
f 51/52/2 52/51/2 54/53/2 53/54/2
f 53/54/1 54/53/1 56/55/1 55/56/1
f 55/56/4 56/55/4 50/50/4 49/49/4
f 50/50/6 56/55/6 54/53/6 52/51/6
f 55/56/5 49/49/5 51/52/5 53/54/5
f 57/57/3 58/58/3 60/59/3 59/60/3
f 59/60/2 60/59/2 62/61/2 61/62/2
f 61/62/1 62/61/1 64/63/1 63/64/1
f 63/64/4 64/63/4 58/58/4 57/57/4
f 58/58/6 64/63/6 62/61/6 60/59/6
f 63/64/5 57/57/5 59/60/5 61/62/5
f 65/65/3 66/66/3 68/67/3 67/68/3
f 67/68/2 68/67/2 70/69/2 69/70/2
f 69/70/1 70/69/1 72/71/1 71/72/1
f 71/72/4 72/71/4 66/66/4 65/65/4
f 66/66/6 72/71/6 70/69/6 68/67/6
f 71/72/5 65/65/5 67/68/5 69/70/5
f 73/73/3 74/74/3 76/75/3 75/76/3
f 75/76/2 76/75/2 78/77/2 77/78/2
f 77/78/1 78/77/1 80/79/1 79/80/1
f 79/80/4 80/79/4 74/74/4 73/73/4
f 74/74/6 80/79/6 78/77/6 76/75/6
f 79/80/5 73/73/5 75/76/5 77/78/5
f 81/81/3 82/82/3 84/83/3 83/84/3
f 83/84/2 84/83/2 86/85/2 85/86/2
f 85/86/1 86/85/1 88/87/1 87/88/1
f 87/88/4 88/87/4 82/82/4 81/81/4
f 82/82/6 88/87/6 86/85/6 84/83/6
f 87/88/5 81/81/5 83/84/5 85/86/5
f 89/89/3 90/90/3 92/91/3 91/92/3
f 91/92/2 92/91/2 94/93/2 93/94/2
f 93/94/1 94/93/1 96/95/1 95/96/1
f 95/96/4 96/95/4 90/90/4 89/89/4
f 90/90/6 96/95/6 94/93/6 92/91/6
f 95/96/5 89/89/5 91/92/5 93/94/5
f 97/97/3 98/98/3 100/99/3 99/100/3
f 99/100/2 100/99/2 102/101/2 101/102/2
f 101/102/1 102/101/1 104/103/1 103/104/1
f 103/104/4 104/103/4 98/98/4 97/97/4
f 98/98/6 104/103/6 102/101/6 100/99/6
f 103/104/5 97/97/5 99/100/5 101/102/5
s 0
usemtl 
f 154/153/5 155/154/5 157/155/5 156/156/5
f 156/156/1 157/155/1 161/157/1 160/158/1
f 160/158/6 161/157/6 159/159/6 158/160/6
f 158/160/3 159/159/3 155/154/3 154/153/3
f 156/156/4 160/158/4 158/160/4 154/153/4
f 161/157/2 157/155/2 155/154/2 159/159/2
f 162/161/5 163/162/5 165/163/5 164/164/5
f 164/164/1 165/163/1 169/165/1 168/166/1
f 168/166/6 169/165/6 167/167/6 166/168/6
f 166/168/3 167/167/3 163/162/3 162/161/3
f 164/164/4 168/166/4 166/168/4 162/161/4
f 169/165/2 165/163/2 163/162/2 167/167/2
o Gate_opened.003
v 2.907464 0.068478 -3.327254
v 2.732415 0.068478 -3.327254
v 2.907464 0.173291 -3.327254
v 2.732415 0.173291 -3.327254
v 2.907464 0.173291 -6.150186
v 2.732415 0.173291 -6.150186
v 2.907464 0.068478 -6.150186
v 2.732415 0.068478 -6.150186
v 2.756147 0.145663 -5.985514
v 2.875527 0.145663 -5.985514
v 2.756147 1.967921 -5.985513
v 2.875527 1.967921 -5.985513
v 2.756147 1.967920 -5.916746
v 2.875527 1.967920 -5.916746
v 2.756147 0.145662 -5.916746
v 2.875527 0.145662 -5.916746
v 2.756147 0.145663 -5.792964
v 2.875527 0.145663 -5.792964
v 2.756147 1.967921 -5.792964
v 2.875527 1.967921 -5.792964
v 2.756147 1.967920 -5.724196
v 2.875527 1.967920 -5.724196
v 2.756147 0.145662 -5.724196
v 2.875527 0.145662 -5.724196
v 2.756147 0.145663 -5.600414
v 2.875527 0.145663 -5.600414
v 2.756147 1.967921 -5.600414
v 2.875527 1.967921 -5.600414
v 2.756147 1.967920 -5.531646
v 2.875527 1.967920 -5.531646
v 2.756147 0.145662 -5.531646
v 2.875527 0.145662 -5.531646
v 2.756147 0.145662 -5.407864
v 2.875527 0.145662 -5.407864
v 2.756147 1.967921 -5.407864
v 2.875527 1.967921 -5.407864
v 2.756147 1.967920 -5.339096
v 2.875527 1.967920 -5.339096
v 2.756147 0.145662 -5.339097
v 2.875527 0.145662 -5.339097
v 2.756147 0.145662 -5.080530
v 2.875527 0.145662 -5.080530
v 2.756147 1.967921 -5.080530
v 2.875527 1.967921 -5.080530
v 2.756147 1.967920 -5.011762
v 2.875527 1.967920 -5.011762
v 2.756147 0.145662 -5.011762
v 2.875527 0.145662 -5.011762
v 2.756147 0.145662 -4.887980
v 2.875527 0.145662 -4.887980
v 2.756147 1.967921 -4.887980
v 2.875527 1.967921 -4.887980
v 2.756147 1.967920 -4.819212
v 2.875527 1.967920 -4.819212
v 2.756147 0.145662 -4.819212
v 2.875527 0.145662 -4.819212
v 2.756147 0.145662 -4.695430
v 2.875527 0.145662 -4.695430
v 2.756147 1.967921 -4.695430
v 2.875527 1.967921 -4.695430
v 2.756147 1.967920 -4.626662
v 2.875527 1.967920 -4.626662
v 2.756147 0.145662 -4.626663
v 2.875527 0.145662 -4.626663
v 2.756147 0.145662 -4.502881
v 2.875527 0.145662 -4.502881
v 2.756147 1.967921 -4.502880
v 2.875527 1.967921 -4.502880
v 2.756147 1.967920 -4.434113
v 2.875527 1.967920 -4.434113
v 2.756147 0.145662 -4.434113
v 2.875527 0.145662 -4.434113
v 2.756147 0.145662 -4.175546
v 2.875526 0.145662 -4.175546
v 2.756147 1.967921 -4.175546
v 2.875526 1.967921 -4.175546
v 2.756147 1.967920 -4.106778
v 2.875526 1.967920 -4.106778
v 2.756147 0.145662 -4.106778
v 2.875526 0.145662 -4.106778
v 2.756147 0.145662 -3.982996
v 2.875526 0.145662 -3.982996
v 2.756147 1.967921 -3.982996
v 2.875526 1.967921 -3.982996
v 2.756147 1.967920 -3.914228
v 2.875526 1.967920 -3.914228
v 2.756147 0.145662 -3.914228
v 2.875526 0.145662 -3.914228
v 2.756147 0.145662 -3.790447
v 2.875526 0.145662 -3.790447
v 2.756147 1.967921 -3.790447
v 2.875526 1.967921 -3.790447
v 2.756147 1.967920 -3.721679
v 2.875526 1.967920 -3.721679
v 2.756147 0.145662 -3.721679
v 2.875526 0.145662 -3.721679
v 2.756147 0.145662 -3.597897
v 2.875526 0.145662 -3.597897
v 2.756147 1.967921 -3.597897
v 2.875526 1.967921 -3.597897
v 2.756147 1.967920 -3.529129
v 2.875526 1.967920 -3.529129
v 2.756147 0.145662 -3.529129
v 2.875526 0.145662 -3.529129
v 2.907464 1.922289 -3.327254
v 2.732415 1.922289 -3.327254
v 2.907464 2.027103 -3.327254
v 2.732415 2.027103 -3.327254
v 2.907464 2.027103 -6.150186
v 2.732415 2.027103 -6.150186
v 2.907464 1.922289 -6.150186
v 2.732415 1.922289 -6.150186
v 2.907464 0.125283 -6.065904
v 2.732415 0.125283 -6.065904
v 2.907464 2.000105 -6.065904
v 2.732415 2.000105 -6.065904
v 2.907464 2.000105 -6.147090
v 2.732415 2.000105 -6.147090
v 2.907464 0.125283 -6.147090
v 2.732415 0.125283 -6.147090
v 2.907464 0.125283 -5.152558
v 2.732415 0.125283 -5.152558
v 2.907464 2.000105 -5.152558
v 2.732415 2.000105 -5.152558
v 2.907464 2.000105 -5.233745
v 2.732415 2.000105 -5.233745
v 2.907464 0.125283 -5.233745
v 2.732415 0.125283 -5.233745
v 2.907464 0.125283 -4.239213
v 2.732415 0.125283 -4.239213
v 2.907464 2.000105 -4.239213
v 2.732415 2.000105 -4.239213
v 2.907464 2.000105 -4.320399
v 2.732415 2.000105 -4.320399
v 2.907464 0.125283 -4.320399
v 2.732415 0.125283 -4.320399
v 2.907464 0.125283 -3.325867
v 2.732415 0.125283 -3.325867
v 2.907464 2.000105 -3.325867
v 2.732415 2.000105 -3.325867
v 2.907464 2.000105 -3.407053
v 2.732415 2.000105 -3.407053
v 2.907464 0.125283 -3.407053
v 2.732415 0.125283 -3.407053
v 2.910547 -0.000000 -6.192811
v 2.724061 -0.000000 -6.192811
v 2.910547 2.070399 -6.192811
v 2.724061 2.070399 -6.192811
v 2.912830 2.070399 -6.283848
v 2.721777 2.070399 -6.283848
v 2.912830 -0.000000 -6.283848
v 2.721777 -0.000000 -6.283848
v -3.215165 0.000000 -6.283848
v 2.740684 0.231086 -6.267926
v 2.740684 0.427575 -6.267926
v 2.740684 0.231086 -6.079321
v 2.740684 0.427575 -6.079321
v 2.890042 0.231086 -6.267926
v 2.890042 0.427575 -6.267926
v 2.890042 0.231086 -6.079321
v 2.890042 0.427575 -6.079321
v 2.740684 1.589064 -6.267926
v 2.740684 1.785553 -6.267926
v 2.740684 1.589064 -6.079321
v 2.740684 1.785553 -6.079321
v 2.890042 1.589064 -6.267926
v 2.890042 1.785553 -6.267926
v 2.890042 1.589064 -6.079320
v 2.890042 1.785553 -6.079320
vn -0.0000 -0.0000 1.0000
vn -0.0000 1.0000 -0.0000
vn -0.0000 -0.0000 -1.0000
vn -0.0000 -1.0000 -0.0000
vn -1.0000 -0.0000 -0.0000
vn 1.0000 -0.0000 -0.0000
vn -0.9997 -0.0000 0.0251
vn 0.9997 -0.0000 0.0251
vt 0.521714 0.400348
vt 0.502417 0.411500
vt 0.502417 0.424836
vt 0.521714 0.413685
vt 0.813615 0.604664
vt 0.832912 0.593513
vt 0.813615 0.591328
vt 0.832912 0.580177
vt 0.798078 0.589147
vt 0.811238 0.581542
vt 0.811238 0.813401
vt 0.798078 0.821006
vt 0.803657 0.809021
vt 0.790497 0.816625
vt 0.803657 0.577161
vt 0.790497 0.584766
vt 0.776852 0.576881
vt 0.790012 0.569276
vt 0.790012 0.801135
vt 0.776851 0.808740
vt 0.782431 0.796755
vt 0.769271 0.804359
vt 0.782431 0.564895
vt 0.769271 0.572500
vt 0.755625 0.564615
vt 0.768785 0.557010
vt 0.768785 0.788870
vt 0.755625 0.796474
vt 0.761204 0.784489
vt 0.748044 0.792094
vt 0.761204 0.552629
vt 0.748044 0.560234
vt 0.734398 0.552349
vt 0.747559 0.544744
vt 0.747559 0.776604
vt 0.734398 0.784208
vt 0.739978 0.772223
vt 0.726817 0.779828
vt 0.739978 0.540363
vt 0.726817 0.547968
vt 0.698313 0.531497
vt 0.711474 0.523892
vt 0.711474 0.755751
vt 0.698313 0.763356
vt 0.703892 0.751371
vt 0.690732 0.758976
vt 0.703893 0.519511
vt 0.690732 0.527116
vt 0.677087 0.519231
vt 0.690247 0.511626
vt 0.690247 0.743486
vt 0.677087 0.751090
vt 0.682666 0.739105
vt 0.669506 0.746710
vt 0.682666 0.507245
vt 0.669506 0.514850
vt 0.655860 0.506965
vt 0.669020 0.499360
vt 0.669020 0.731220
vt 0.655860 0.738824
vt 0.661439 0.726839
vt 0.648279 0.734444
vt 0.661440 0.494979
vt 0.648279 0.502584
vt 0.634634 0.494699
vt 0.647794 0.487094
vt 0.647794 0.718954
vt 0.634633 0.726558
vt 0.640213 0.714573
vt 0.627053 0.722178
vt 0.640213 0.482713
vt 0.627053 0.490318
vt 0.598548 0.473847
vt 0.611709 0.466242
vt 0.611709 0.698102
vt 0.598548 0.705706
vt 0.604128 0.693721
vt 0.590967 0.701326
vt 0.604128 0.461861
vt 0.590967 0.469466
vt 0.577322 0.461581
vt 0.590482 0.453976
vt 0.590482 0.685836
vt 0.577322 0.693440
vt 0.582901 0.681455
vt 0.569741 0.689060
vt 0.582901 0.449595
vt 0.569741 0.457200
vt 0.556095 0.449315
vt 0.569256 0.441710
vt 0.569256 0.673570
vt 0.556095 0.681175
vt 0.561675 0.669189
vt 0.548514 0.676794
vt 0.561675 0.437330
vt 0.548514 0.444934
vt 0.534869 0.437049
vt 0.548029 0.429444
vt 0.548029 0.661304
vt 0.534869 0.668909
vt 0.540448 0.656923
vt 0.527288 0.664528
vt 0.540448 0.425064
vt 0.527288 0.432668
vt 0.521714 0.636223
vt 0.502417 0.647374
vt 0.502417 0.660710
vt 0.521714 0.649559
vt 0.813615 0.840538
vt 0.832912 0.829387
vt 0.813615 0.827202
vt 0.832912 0.816051
vt 0.823621 0.582035
vt 0.804324 0.593186
vt 0.804324 0.831734
vt 0.823621 0.820583
vt 0.813274 0.836906
vt 0.832571 0.825755
vt 0.813274 0.598358
vt 0.832571 0.587207
vt 0.722935 0.523853
vt 0.703637 0.535004
vt 0.703637 0.773552
vt 0.722935 0.762400
vt 0.712587 0.778723
vt 0.731885 0.767572
vt 0.712587 0.540176
vt 0.731885 0.529025
vt 0.622248 0.465670
vt 0.602951 0.476821
vt 0.602951 0.715369
vt 0.622248 0.704218
vt 0.611901 0.720541
vt 0.631198 0.709390
vt 0.611901 0.481993
vt 0.631198 0.470842
vt 0.521561 0.407488
vt 0.502264 0.418639
vt 0.502264 0.657187
vt 0.521561 0.646035
vt 0.511214 0.662358
vt 0.530511 0.651207
vt 0.511214 0.423811
vt 0.530511 0.412660
vt 0.837951 0.573983
vt 0.817393 0.585862
vt 0.817393 0.849295
vt 0.837951 0.837415
vt 0.827177 0.855239
vt 0.848239 0.843069
vt 0.827177 0.591807
vt 0.848239 0.579636
vt 0.827506 0.618991
vt 0.827506 0.643992
vt 0.806715 0.631977
vt 0.806715 0.606976
vt 0.823180 0.622463
vt 0.823180 0.597462
vt 0.843972 0.634477
vt 0.843972 0.609477
vt 0.827506 0.791777
vt 0.827506 0.816778
vt 0.806715 0.804763
vt 0.806715 0.779762
vt 0.823180 0.795248
vt 0.823180 0.770248
vt 0.843972 0.807263
vt 0.843972 0.782262
s 1
usemtl initialShadingGroup.001
f 170/169/9 172/172/9 173/171/9 171/170/9
f 172/172/10 174/174/10 175/173/10 173/171/10
f 174/174/11 176/176/11 177/175/11 175/173/11
f 176/176/12 170/169/12 171/170/12 177/175/12
f 171/170/13 173/171/13 175/173/13 177/175/13
f 176/176/14 174/174/14 172/172/14 170/169/14
f 274/273/9 276/276/9 277/275/9 275/274/9
f 276/276/10 278/278/10 279/277/10 277/275/10
f 278/278/11 280/280/11 281/279/11 279/277/11
f 280/280/12 274/273/12 275/274/12 281/279/12
f 275/274/13 277/275/13 279/277/13 281/279/13
f 280/280/14 278/278/14 276/276/14 274/273/14
f 282/281/9 284/284/9 285/283/9 283/282/9
f 284/284/10 286/286/10 287/285/10 285/283/10
f 286/286/11 288/288/11 289/287/11 287/285/11
f 288/288/12 282/281/12 283/282/12 289/287/12
f 283/282/13 285/283/13 287/285/13 289/287/13
f 288/288/14 286/286/14 284/284/14 282/281/14
f 290/289/9 292/292/9 293/291/9 291/290/9
f 292/292/10 294/294/10 295/293/10 293/291/10
f 294/294/11 296/296/11 297/295/11 295/293/11
f 296/296/12 290/289/12 291/290/12 297/295/12
f 291/290/13 293/291/13 295/293/13 297/295/13
f 296/296/14 294/294/14 292/292/14 290/289/14
f 298/297/9 300/300/9 301/299/9 299/298/9
f 300/300/10 302/302/10 303/301/10 301/299/10
f 302/302/11 304/304/11 305/303/11 303/301/11
f 304/304/12 298/297/12 299/298/12 305/303/12
f 299/298/13 301/299/13 303/301/13 305/303/13
f 304/304/14 302/302/14 300/300/14 298/297/14
f 306/305/9 308/308/9 309/307/9 307/306/9
f 308/308/10 310/310/10 311/309/10 309/307/10
f 310/310/11 312/312/11 313/311/11 311/309/11
f 312/312/12 306/305/12 307/306/12 313/311/12
f 307/306/13 309/307/13 311/309/13 313/311/13
f 312/312/14 310/310/14 308/308/14 306/305/14
f 314/313/9 316/316/9 317/315/9 315/314/9
f 316/316/10 318/318/10 319/317/10 317/315/10
f 318/318/11 320/320/11 321/319/11 319/317/11
f 320/320/12 314/313/12 315/314/12 321/319/12
f 315/314/15 317/315/15 319/317/15 321/319/15
f 320/320/16 318/318/16 316/316/16 314/313/16
usemtl initialShadingGroup
f 178/177/11 180/180/11 181/179/11 179/178/11
f 180/180/10 182/182/10 183/181/10 181/179/10
f 182/182/9 184/184/9 185/183/9 183/181/9
f 184/184/12 178/177/12 179/178/12 185/183/12
f 179/178/14 181/179/14 183/181/14 185/183/14
f 184/184/13 182/182/13 180/180/13 178/177/13
f 186/185/11 188/188/11 189/187/11 187/186/11
f 188/188/10 190/190/10 191/189/10 189/187/10
f 190/190/9 192/192/9 193/191/9 191/189/9
f 192/192/12 186/185/12 187/186/12 193/191/12
f 187/186/14 189/187/14 191/189/14 193/191/14
f 192/192/13 190/190/13 188/188/13 186/185/13
f 194/193/11 196/196/11 197/195/11 195/194/11
f 196/196/10 198/198/10 199/197/10 197/195/10
f 198/198/9 200/200/9 201/199/9 199/197/9
f 200/200/12 194/193/12 195/194/12 201/199/12
f 195/194/14 197/195/14 199/197/14 201/199/14
f 200/200/13 198/198/13 196/196/13 194/193/13
f 202/201/11 204/204/11 205/203/11 203/202/11
f 204/204/10 206/206/10 207/205/10 205/203/10
f 206/206/9 208/208/9 209/207/9 207/205/9
f 208/208/12 202/201/12 203/202/12 209/207/12
f 203/202/14 205/203/14 207/205/14 209/207/14
f 208/208/13 206/206/13 204/204/13 202/201/13
f 210/209/11 212/212/11 213/211/11 211/210/11
f 212/212/10 214/214/10 215/213/10 213/211/10
f 214/214/9 216/216/9 217/215/9 215/213/9
f 216/216/12 210/209/12 211/210/12 217/215/12
f 211/210/14 213/211/14 215/213/14 217/215/14
f 216/216/13 214/214/13 212/212/13 210/209/13
f 218/217/11 220/220/11 221/219/11 219/218/11
f 220/220/10 222/222/10 223/221/10 221/219/10
f 222/222/9 224/224/9 225/223/9 223/221/9
f 224/224/12 218/217/12 219/218/12 225/223/12
f 219/218/14 221/219/14 223/221/14 225/223/14
f 224/224/13 222/222/13 220/220/13 218/217/13
f 226/225/11 228/228/11 229/227/11 227/226/11
f 228/228/10 230/230/10 231/229/10 229/227/10
f 230/230/9 232/232/9 233/231/9 231/229/9
f 232/232/12 226/225/12 227/226/12 233/231/12
f 227/226/14 229/227/14 231/229/14 233/231/14
f 232/232/13 230/230/13 228/228/13 226/225/13
f 234/233/11 236/236/11 237/235/11 235/234/11
f 236/236/10 238/238/10 239/237/10 237/235/10
f 238/238/9 240/240/9 241/239/9 239/237/9
f 240/240/12 234/233/12 235/234/12 241/239/12
f 235/234/14 237/235/14 239/237/14 241/239/14
f 240/240/13 238/238/13 236/236/13 234/233/13
f 242/241/11 244/244/11 245/243/11 243/242/11
f 244/244/10 246/246/10 247/245/10 245/243/10
f 246/246/9 248/248/9 249/247/9 247/245/9
f 248/248/12 242/241/12 243/242/12 249/247/12
f 243/242/14 245/243/14 247/245/14 249/247/14
f 248/248/13 246/246/13 244/244/13 242/241/13
f 250/249/11 252/252/11 253/251/11 251/250/11
f 252/252/10 254/254/10 255/253/10 253/251/10
f 254/254/9 256/256/9 257/255/9 255/253/9
f 256/256/12 250/249/12 251/250/12 257/255/12
f 251/250/14 253/251/14 255/253/14 257/255/14
f 256/256/13 254/254/13 252/252/13 250/249/13
f 258/257/11 260/260/11 261/259/11 259/258/11
f 260/260/10 262/262/10 263/261/10 261/259/10
f 262/262/9 264/264/9 265/263/9 263/261/9
f 264/264/12 258/257/12 259/258/12 265/263/12
f 259/258/14 261/259/14 263/261/14 265/263/14
f 264/264/13 262/262/13 260/260/13 258/257/13
f 266/265/11 268/268/11 269/267/11 267/266/11
f 268/268/10 270/270/10 271/269/10 269/267/10
f 270/270/9 272/272/9 273/271/9 271/269/9
f 272/272/12 266/265/12 267/266/12 273/271/12
f 267/266/14 269/267/14 271/269/14 273/271/14
f 272/272/13 270/270/13 268/268/13 266/265/13
s 0
usemtl 
f 323/321/13 325/324/13 326/323/13 324/322/13
f 325/324/9 329/326/9 330/325/9 326/323/9
f 329/326/14 327/328/14 328/327/14 330/325/14
f 327/328/11 323/321/11 324/322/11 328/327/11
f 325/324/12 323/321/12 327/328/12 329/326/12
f 330/325/10 328/327/10 324/322/10 326/323/10
f 331/329/13 333/332/13 334/331/13 332/330/13
f 333/332/9 337/334/9 338/333/9 334/331/9
f 337/334/14 335/336/14 336/335/14 338/333/14
f 335/336/11 331/329/11 332/330/11 336/335/11
f 333/332/12 331/329/12 335/336/12 337/334/12
f 338/333/10 336/335/10 332/330/10 334/331/10
