# Blender 4.2.3 LTS
# www.blender.org
mtllib Warehouse2_.mtl
o warehouse_2
v -0.698833 0.647448 1.045606
v -0.635232 0.647448 1.045606
v -1.398433 0.567228 1.292755
v -1.398433 0.587283 1.230968
v -1.271233 0.647448 1.045606
v -1.207633 0.647448 1.045606
v -0.126432 0.487008 1.539904
v -0.380832 0.487008 1.539904
v 0.127968 0.547173 1.354542
v 0.127968 0.527118 1.416330
v -1.398433 0.487008 1.539904
v -1.398433 0.507063 1.478117
v 0.127968 0.507063 1.478117
v -1.334833 0.487008 1.539904
v 0.127968 0.587283 1.230968
v 0.127968 0.567228 1.292755
v -0.126432 0.647448 1.045606
v -0.062832 0.647448 1.045606
v -0.571632 0.647448 1.045606
v -0.508032 0.647448 1.045606
v -0.508032 0.487008 1.539904
v -0.571632 0.487008 1.539904
v -0.062832 0.487008 1.539904
v 0.127968 0.647448 1.045606
v -0.380832 0.647448 1.045606
v -1.144033 0.647448 1.045606
v -0.889633 0.647448 1.045606
v 0.064368 0.647448 1.045606
v 0.127968 0.487008 1.539904
v -1.398433 0.547173 1.354542
v -0.444432 0.647448 1.045606
v -1.398433 0.627393 1.107393
v -1.398433 0.647448 1.045606
v -0.635232 0.487008 1.539904
v 0.064368 0.487008 1.539904
v 0.127968 0.607338 1.169180
v -0.698833 0.487008 1.539904
v -1.144033 0.487008 1.539904
v -1.207633 0.487008 1.539904
v 0.127968 0.627393 1.107393
v -0.826033 0.647448 1.045606
v -0.762433 0.647448 1.045606
v -1.398433 0.607338 1.169180
v -1.334833 0.647448 1.045606
v -0.889633 0.487008 1.539904
v -1.398433 0.527118 1.416330
v 0.000768 0.647448 1.045606
v 0.000768 0.487008 1.539904
v -1.271233 0.487008 1.539904
v -0.444432 0.487008 1.539904
v -0.762433 0.487008 1.539904
v -0.826033 0.487008 1.539904
v -1.398433 0.528137 1.286554
v -1.398433 0.548192 1.224767
v -0.126432 0.447917 1.533703
v -0.380832 0.447917 1.533703
v 0.127968 0.508082 1.348341
v 0.127968 0.488027 1.410128
v -1.398433 0.447917 1.533703
v -1.398433 0.467972 1.471916
v 0.127968 0.467972 1.471916
v -1.334833 0.447917 1.533703
v 0.127968 0.548192 1.224767
v 0.127968 0.528137 1.286554
v -0.508032 0.447917 1.533703
v -0.571632 0.447917 1.533703
v -0.062832 0.447917 1.533703
v 0.127968 0.608357 1.039405
v 0.127968 0.447917 1.533703
v -1.398433 0.508082 1.348341
v -1.398433 0.588302 1.101192
v -1.398433 0.608357 1.039405
v -0.635232 0.447917 1.533703
v 0.064368 0.447917 1.533703
v 0.127968 0.568247 1.162979
v -0.698833 0.447917 1.533703
v -1.144033 0.447917 1.533703
v -1.207633 0.447917 1.533703
v 0.127968 0.588302 1.101192
v -1.398433 0.568247 1.162979
v -0.889633 0.447917 1.533703
v -1.398433 0.488027 1.410128
v 0.000768 0.447917 1.533703
v -1.271233 0.447917 1.533703
v -0.444432 0.447917 1.533703
v -0.762433 0.447917 1.533703
v -0.826033 0.447917 1.533703
v -1.765030 1.115717 -1.356184
v -2.134008 1.272407 -0.873438
v -0.658095 1.533558 -0.068862
v 1.924752 1.533558 -0.068862
v 0.448839 1.115717 1.218460
v 0.448839 1.533558 -0.068862
v 2.293730 1.324637 -0.712523
v 0.817817 1.115717 -1.356184
v 0.817817 1.115717 1.218460
v 1.555773 1.115717 -1.356184
v -0.658095 1.115717 1.218460
v 2.293730 1.272407 0.735714
v -0.104628 1.533558 -0.068862
v 2.293730 1.481328 -0.229777
v -2.134008 1.481328 0.092053
v -2.134008 1.481328 -0.229777
v 2.293730 1.481328 0.092053
v 1.555773 1.115717 1.218460
v 0.079861 1.115717 1.218460
v 2.293730 1.324637 0.574799
v 2.293730 1.533558 -0.068862
v 2.293730 1.115717 1.218460
v -2.134008 1.115717 1.218460
v -2.134008 1.324637 -0.712523
v -2.134008 1.533558 -0.068862
v -2.134008 1.115717 -1.356184
v 0.079861 1.533558 -0.068862
v -2.134008 1.324637 0.574799
v 2.293730 1.115717 -1.356184
v 0.264350 1.533558 -0.068862
v 1.740263 1.115717 1.218460
v 1.924752 1.115717 -1.356184
v 2.293730 1.167947 -1.195269
v 2.293730 1.167947 1.057545
v -1.396051 1.115717 1.218460
v 1.740263 1.533558 -0.068862
v -2.134008 1.167947 -1.195269
v 2.293730 1.220177 0.896630
v 0.633328 1.115717 1.218460
v 2.109241 1.115717 -1.356184
v -2.134008 1.220177 -1.034353
v 2.293730 1.429097 0.252969
v -2.134008 1.429097 0.252969
v 2.293730 1.376867 -0.551608
v -0.104628 1.115717 -1.356184
v -1.765030 1.533558 -0.068862
v -1.580541 1.115717 1.218460
v 0.264350 1.115717 1.218460
v -0.289117 1.533558 -0.068862
v -1.949519 1.533558 -0.068862
v 0.633328 1.533558 -0.068862
v 2.293730 1.429097 -0.390692
v -0.473606 1.533558 -0.068862
v -1.580541 1.115717 -1.356184
v -0.289117 1.115717 -1.356184
v -0.289117 1.115717 1.218460
v -2.134008 1.429097 -0.390692
v -2.134008 1.272407 0.735714
v 2.293730 1.272407 -0.873438
v 2.109241 1.533558 -0.068862
v 1.740263 1.115717 -1.356184
v 2.109241 1.115717 1.218460
v 0.264350 1.115717 -1.356184
v 0.079861 1.115717 -1.356184
v 0.817817 1.533558 -0.068862
v -1.396051 1.115717 -1.356184
v 1.555773 1.533558 -0.068862
v -0.658095 1.115717 -1.356184
v -2.134008 1.167947 1.057545
v -1.396051 1.533558 -0.068862
v -2.134008 1.220177 0.896630
v 2.293730 1.220177 -1.034353
v 1.924752 1.115717 1.218460
v 0.448839 1.115717 -1.356184
v -1.765030 1.115717 1.218460
v 0.633328 1.115717 -1.356184
v -1.949519 1.115717 1.218460
v -1.580541 1.533558 -0.068862
v -1.949519 1.115717 -1.356184
v -0.473606 1.115717 -1.356184
v -0.104628 1.115717 1.218460
v -0.473606 1.115717 1.218460
v -2.134008 1.376867 -0.551608
v 2.293730 1.376867 0.413884
v -2.134008 1.376867 0.413884
v -0.104628 1.586595 -0.068862
v 0.079861 1.586595 -0.068862
v -2.134008 1.377674 0.574799
v -2.134008 1.429904 0.413884
v -0.658095 1.168753 -1.356184
v -0.473606 1.168753 -1.356184
v 0.079861 1.168753 -1.356184
v 0.264350 1.168753 -1.356184
v -1.765030 1.586595 -0.068862
v -1.580541 1.586595 -0.068862
v 1.555773 1.168753 1.218460
v 0.817817 1.168753 1.218460
v 2.293730 1.325444 0.735714
v 2.293730 1.273214 0.896630
v 2.293730 1.273214 -1.034353
v 2.293730 1.325444 -0.873438
v -2.134008 1.168753 1.218460
v -2.134008 1.220984 1.057545
v 1.740263 1.168753 -1.356184
v 1.924752 1.168753 -1.356184
v 0.448839 1.168753 -1.356184
v 0.633328 1.168753 -1.356184
v 2.293730 1.220984 1.057545
v 1.555773 1.168753 -1.356184
v 2.109241 1.168753 -1.356184
v 2.293730 1.168753 -1.356184
v -1.949519 1.168753 1.218460
v 2.293730 1.429904 0.413884
v 2.293730 1.377674 0.574799
v 1.555773 1.586595 -0.068862
v 1.740263 1.586595 -0.068862
v 0.264350 1.586595 -0.068862
v 0.448839 1.586595 -0.068862
v -0.289117 1.168753 -1.356184
v -0.104628 1.168753 -1.356184
v 0.448839 1.168753 1.218460
v 0.264350 1.168753 1.218460
v 2.293730 1.220984 -1.195269
v -1.396051 1.168753 -1.356184
v 1.740263 1.168753 1.218460
v 2.293730 1.534364 -0.229777
v 2.293730 1.586595 -0.068862
v 0.817817 1.586595 -0.068862
v -2.134008 1.429904 -0.551608
v -2.134008 1.377674 -0.712523
v -1.396051 1.586595 -0.068862
v -0.658095 1.586595 -0.068862
v 0.817817 1.168753 -1.356184
v 2.109241 1.586595 -0.068862
v 2.293730 1.168753 1.218460
v -2.134008 1.325444 0.735714
v 0.633328 1.586595 -0.068862
v -2.134008 1.220984 -1.195269
v -2.134008 1.168753 -1.356184
v -2.134008 1.534364 0.092053
v -2.134008 1.586595 -0.068862
v 2.293730 1.377674 -0.712523
v 0.079861 1.168753 1.218460
v -1.580541 1.168753 -1.356184
v -2.134008 1.273214 -1.034353
v 2.109241 1.168753 1.218460
v -1.949519 1.168753 -1.356184
v 2.293730 1.429904 -0.551608
v 2.293730 1.482134 0.252969
v -0.104628 1.168753 1.218460
v -1.396051 1.168753 1.218460
v -1.580541 1.168753 1.218460
v 2.293730 1.534364 0.092053
v -0.473606 1.586595 -0.068862
v -0.289117 1.586595 -0.068862
v -2.134008 1.482134 0.252969
v -2.134008 1.482134 -0.390692
v -1.949519 1.586595 -0.068862
v 2.293730 1.482134 -0.390692
v -2.134008 1.534364 -0.229777
v -0.658095 1.168753 1.218460
v -2.134008 1.273214 0.896630
v 1.924752 1.586595 -0.068862
v -2.134008 1.325444 -0.873438
v 1.924752 1.168753 1.218460
v -1.765030 1.168753 1.218460
v 0.633328 1.168753 1.218460
v -1.765030 1.168753 -1.356184
v -0.289117 1.168753 1.218460
v -0.473606 1.168753 1.218460
v -1.754326 1.084871 -1.334020
v -2.121164 1.238864 -0.859586
v -0.653814 1.495518 -0.068862
v 1.914048 1.495518 -0.068862
v 0.446699 1.084871 1.196296
v 0.446699 1.495518 -0.068862
v 2.280886 1.290195 -0.701441
v 0.813536 1.084871 -1.334020
v 0.813536 1.084871 1.196296
v 1.547211 1.084871 -1.334020
v -0.653814 1.084871 1.196296
v 2.280886 1.238864 0.721862
v -0.103557 1.495518 -0.068862
v 2.280886 1.444187 -0.227007
v -2.121164 1.444187 0.089283
v -2.121164 1.444187 -0.227007
v 2.280886 1.444187 0.089283
v 1.547211 1.084871 1.196296
v 0.079861 1.084871 1.196296
v 2.280886 1.290195 0.563717
v 2.280886 1.495518 -0.068862
v 2.280886 1.084871 1.196296
v -2.121164 1.084871 1.196296
v -2.121164 1.290195 -0.701441
v -2.121164 1.495518 -0.068862
v -2.121164 1.084871 -1.334020
v 0.079861 1.495518 -0.068862
v -2.121164 1.290195 0.563717
v 2.280886 1.084871 -1.334020
v 0.263280 1.495518 -0.068862
v 1.730630 1.084871 1.196296
v 1.914048 1.084871 -1.334020
v 2.280886 1.136202 -1.175875
v 2.280886 1.136202 1.038151
v -1.387488 1.084871 1.196296
v 1.730630 1.495518 -0.068862
v -2.121164 1.136202 -1.175875
v 2.280886 1.187533 0.880007
v 0.630117 1.084871 1.196296
v 2.097467 1.084871 -1.334020
v -2.121164 1.187533 -1.017730
v 2.280886 1.392856 0.247428
v -2.121164 1.392856 0.247428
v 2.280886 1.341526 -0.543296
v -0.103557 1.084871 -1.334020
v -1.754326 1.495518 -0.068862
v -1.570907 1.084871 1.196296
v 0.263280 1.084871 1.196296
v -0.286976 1.495518 -0.068862
v -1.937745 1.495518 -0.068862
v 0.630117 1.495518 -0.068862
v 2.280886 1.392856 -0.385151
v -0.470395 1.495518 -0.068862
v -1.570907 1.084871 -1.334020
v -0.286976 1.084871 -1.334020
v -0.286976 1.084871 1.196296
v -2.121164 1.392856 -0.385151
v -2.121164 1.238864 0.721862
v 2.280886 1.238864 -0.859586
v 2.097467 1.495518 -0.068862
v 1.730630 1.084871 -1.334020
v 2.097467 1.084871 1.196296
v 0.263280 1.084871 -1.334020
v 0.079861 1.084871 -1.334020
v 0.813536 1.495518 -0.068862
v -1.387488 1.084871 -1.334020
v 1.547211 1.495518 -0.068862
v -0.653814 1.084871 -1.334020
v -2.121164 1.136202 1.038151
v -1.387488 1.495518 -0.068862
v -2.121164 1.187533 0.880007
v 2.280886 1.187533 -1.017730
v 1.914048 1.084871 1.196296
v 0.446699 1.084871 -1.334020
v -1.754326 1.084871 1.196296
v 0.630117 1.084871 -1.334020
v -1.937745 1.084871 1.196296
v -1.570907 1.495518 -0.068862
v -1.937745 1.084871 -1.334020
v -0.470395 1.084871 -1.334020
v -0.103557 1.084871 1.196296
v -0.470395 1.084871 1.196296
v -2.121164 1.341526 -0.543296
v 2.280886 1.341526 0.405572
v -2.121164 1.341526 0.405572
v -2.121164 1.342318 0.563717
v -2.121164 1.393649 0.405572
v -0.653814 1.136995 -1.334020
v -0.470395 1.136995 -1.334020
v 0.079861 1.136995 -1.334020
v 0.263280 1.136995 -1.334020
v 1.547211 1.136995 1.196296
v 0.813536 1.136995 1.196296
v 2.280886 1.290987 0.721862
v 2.280886 1.239657 0.880007
v 2.280886 1.239657 -1.017730
v 2.280886 1.290987 -0.859586
v -2.121164 1.136995 1.196296
v -2.121164 1.188326 1.038151
v 1.730630 1.136995 -1.334020
v 1.914048 1.136995 -1.334020
v 0.446699 1.136995 -1.334020
v 0.630117 1.136995 -1.334020
v 2.280886 1.188326 1.038151
v 1.547211 1.136995 -1.334020
v 2.097467 1.136995 -1.334020
v 2.280886 1.136995 -1.334020
v -1.937745 1.136995 1.196296
v 2.280886 1.393649 0.405572
v 2.280886 1.342318 0.563717
v -0.286976 1.136995 -1.334020
v -0.103557 1.136995 -1.334020
v 0.446699 1.136995 1.196296
v 0.263280 1.136995 1.196296
v 2.280886 1.188326 -1.175875
v -1.387488 1.136995 -1.334020
v 1.730630 1.136995 1.196296
v 2.280886 1.496311 -0.227007
v 2.280886 1.547642 -0.068862
v -2.121164 1.393649 -0.543296
v -2.121164 1.342318 -0.701441
v 0.813536 1.136995 -1.334020
v 2.280886 1.136995 1.196296
v -2.121164 1.290987 0.721862
v -2.121164 1.188326 -1.175875
v -2.121164 1.136995 -1.334020
v -2.121164 1.496311 0.089283
v -2.121164 1.547642 -0.068862
v 2.280886 1.342318 -0.701441
v 0.079861 1.136995 1.196296
v -1.570907 1.136995 -1.334020
v -2.121164 1.239657 -1.017730
v 2.097467 1.136995 1.196296
v -1.937745 1.136995 -1.334020
v 2.280886 1.393649 -0.543296
v 2.280886 1.444980 0.247428
v -0.103557 1.136995 1.196296
v -1.387488 1.136995 1.196296
v -1.570907 1.136995 1.196296
v 2.280886 1.496311 0.089283
v -2.121164 1.444980 0.247428
v -2.121164 1.444980 -0.385151
v 2.280886 1.444980 -0.385151
v -2.121164 1.496311 -0.227007
v -0.653814 1.136995 1.196296
v -2.121164 1.239657 0.880007
v -2.121164 1.290987 -0.859586
v 1.914048 1.136995 1.196296
v -1.754326 1.136995 1.196296
v 0.630117 1.136995 1.196296
v -1.754326 1.136995 -1.334020
v -0.286976 1.136995 1.196296
v -0.470395 1.136995 1.196296
v -2.054829 -0.000150 1.149504
v -2.054829 1.151346 1.149504
v -2.054829 -0.000150 -1.287228
v -2.054829 1.151346 -1.287228
v 2.214550 -0.000150 1.149504
v 2.214550 1.151346 1.149504
v 2.214550 -0.000150 -1.287228
v 2.214550 1.151346 -1.287228
v -2.054829 -0.000150 -0.068862
v -2.054829 1.546805 -0.068862
v 2.214550 1.546805 -0.068862
v -2.054829 1.014905 1.149504
v -2.054829 1.014905 -1.287228
v 2.214550 1.014905 -1.287228
v 2.214550 1.014905 1.149504
v -2.054829 -0.000150 0.540321
v 2.214550 1.349075 0.540321
v -2.054829 1.349075 0.540321
v 2.214550 -0.000150 0.540321
v -2.054829 1.349075 -0.678045
v 2.214550 -0.000150 -0.678045
v -2.054829 -0.000150 -0.678045
v 2.214550 1.349075 -0.678045
v -2.054829 0.637901 -1.287228
v 2.214550 0.637901 -1.287228
v 2.214550 0.637901 1.149504
v 2.214550 0.637901 -0.068862
v -2.054829 0.637901 -0.068862
v -2.054829 0.637901 1.149504
v 2.214550 0.637901 0.540321
v -2.054829 0.637901 0.540321
v -2.054829 0.637901 -0.678045
v 2.214550 0.637901 -0.678045
v 0.079861 -0.000150 -1.287228
v 0.079861 1.151346 -1.287228
v 0.079861 -0.000150 1.149504
v 0.079861 1.151346 1.149504
v 0.079861 1.546805 -0.068862
v 0.079861 0.637901 -1.287228
v 0.079861 0.637901 1.149504
v 0.791424 1.151346 -1.287228
v 1.502987 1.151346 -1.287228
v 0.791424 -0.000150 1.149504
v 1.502987 -0.000150 1.149504
v 0.791424 1.546805 -0.068862
v 1.502987 1.546805 -0.068862
v 0.791424 0.637901 -1.287228
v 1.502987 0.637901 -1.287228
v 1.502987 -0.000150 -1.287228
v 0.791424 -0.000150 -1.287228
v 1.502987 1.151346 1.149504
v 0.791424 1.151346 1.149504
v 1.502987 0.637901 1.149504
v 0.791424 0.637901 1.149504
v -0.631702 -0.000150 -1.287228
v -1.343265 -0.000150 -1.287228
v -0.631702 1.151346 1.149504
v -1.343265 1.151346 1.149504
v -0.631702 0.637901 1.149504
v -1.343265 0.637901 1.149504
v -1.343265 1.151346 -1.287228
v -0.631702 1.151346 -1.287228
v -1.343265 -0.000150 1.149504
v -1.343265 1.546805 -0.068862
v -0.631702 1.546805 -0.068862
v -1.343265 0.637901 -1.287228
v -0.631702 0.637901 -1.287228
v 2.182907 -0.000150 0.540321
v 1.502987 -0.000150 -1.253043
v 2.182907 0.637901 -0.068862
v 2.182907 0.637901 0.540321
v 2.182907 -0.000150 -0.678045
v 2.182907 0.637901 -0.678045
v -2.054829 0.561832 -1.287228
v 2.214550 0.561832 -1.287228
v 2.214550 0.561832 1.149504
v -2.054829 0.561832 -0.068862
v 2.214550 0.561832 0.540321
v -2.054829 0.561832 0.540321
v -2.054829 0.561832 -0.678045
v 2.214550 0.561832 -0.678045
v -2.054829 0.561832 1.149504
v 0.079861 0.561832 1.149504
v 0.079861 0.561832 -1.287228
v 1.502987 0.561832 1.149504
v 0.791424 0.561832 1.149504
v 0.791424 0.561832 -1.287228
v 1.502987 0.561832 -1.287228
v -1.343265 0.561832 -1.287228
v -0.631702 0.561832 -1.287228
v -0.631702 0.561832 1.149504
v -1.343265 0.561832 1.149504
v 2.182907 0.561832 -0.068862
v 2.182907 0.561832 0.540321
v 2.182907 0.561832 -0.678045
v 2.153059 -0.000150 0.540321
v 2.153059 -0.000150 -0.068862
v 2.153059 0.561832 -0.068862
v 2.153059 0.561832 0.540321
v 2.153059 -0.000150 -0.678045
v 2.153059 0.561832 -0.678045
v 0.791424 -0.000150 -1.253043
v 0.791424 0.561832 -1.253043
v 1.502987 0.561832 -1.253043
v -0.631702 -0.000150 -1.253043
v -1.343265 -0.000150 -1.253043
v -1.343265 0.561832 -1.253043
v -0.631702 0.561832 -1.253043
v 0.791424 -0.000150 1.107192
v 1.502987 -0.000150 1.107192
v 1.502987 0.561832 1.107192
v 0.791424 0.561832 1.107192
v 0.079861 -0.000150 1.041641
v 0.079861 0.561832 1.041641
v -1.343265 -0.000150 1.041641
v -0.631702 0.561832 1.041641
v -1.343265 0.561832 1.041641
v -2.054829 0.763569 1.149504
v -2.054829 0.889237 1.149504
v -2.054829 0.889237 -1.287228
v -2.054829 0.763569 -1.287228
v 2.214550 0.889237 -1.287228
v 2.214550 0.763569 -1.287228
v 2.214550 0.889237 1.149504
v 2.214550 0.763569 1.149504
v 2.214550 0.889237 -0.068862
v -2.054829 0.889237 -0.068862
v 2.214550 0.889237 0.540321
v -2.054829 0.889237 0.540321
v -2.054829 0.763569 0.540321
v -2.054829 0.889237 -0.678045
v -2.054829 0.763569 -0.678045
v 2.214550 0.889237 -0.678045
v 0.079861 0.889237 -1.287228
v 0.079861 0.889237 1.149504
v 1.502987 0.889237 1.149504
v 0.791424 0.889237 1.149504
v 0.791424 0.889237 -1.287228
v 1.502987 0.889237 -1.287228
v -1.343265 0.889237 -1.287228
v -0.631702 0.889237 -1.287228
v -0.631702 0.889237 1.149504
v -1.343265 0.889237 1.149504
v -2.054829 -0.000150 0.692617
v -2.054829 -0.000150 0.844913
v -2.054829 -0.000150 0.997209
v 2.214550 1.299643 0.692617
v 2.214550 1.250211 0.844913
v 2.214550 1.200778 0.997209
v -2.054829 1.200778 0.997209
v -2.054829 1.250211 0.844913
v -2.054829 1.299643 0.692617
v 2.214550 -0.000150 0.997209
v 2.214550 -0.000150 0.844913
v 2.214550 -0.000150 0.692617
v -2.054829 0.637901 0.997209
v -2.054829 0.637901 0.844913
v -2.054829 0.637901 0.692617
v 2.214550 0.637901 0.692617
v 2.214550 0.637901 0.844913
v 2.214550 0.637901 0.997209
v 2.214550 0.561832 0.692617
v 2.214550 0.561832 0.844913
v 2.214550 0.561832 0.997209
v -2.054829 0.561832 0.997209
v -2.054829 0.561832 0.844913
v -2.054829 0.561832 0.692617
v -2.054829 0.763569 0.997209
v -2.054829 0.763569 0.844913
v -2.054829 0.763569 0.692617
v -2.054829 0.889237 0.997209
v -2.054829 0.889237 0.844913
v -2.054829 0.889237 0.692617
v 2.214550 0.763569 0.692617
v 2.214550 0.763569 0.844913
v 2.214550 0.763569 0.997209
v 2.214550 0.889237 0.692617
v 2.214550 0.889237 0.844913
v 2.214550 0.889237 0.997209
v -2.054829 1.299643 -0.830341
v -2.054829 1.250211 -0.982637
v -2.054829 1.200778 -1.134932
v 2.214550 -0.000150 -0.830341
v 2.214550 -0.000150 -0.982637
v 2.214550 -0.000150 -1.134932
v -2.054829 -0.000150 -1.134932
v -2.054829 -0.000150 -0.982637
v -2.054829 -0.000150 -0.830341
v 2.214550 1.200778 -1.134932
v 2.214550 1.250211 -0.982637
v 2.214550 1.299643 -0.830341
v 2.214550 0.637901 -1.134932
v 2.214550 0.637901 -0.982637
v 2.214550 0.637901 -0.830341
v -2.054829 0.637901 -0.830341
v -2.054829 0.637901 -0.982637
v -2.054829 0.637901 -1.134932
v -2.054829 0.561832 -0.830341
v -2.054829 0.561832 -0.982637
v -2.054829 0.561832 -1.134932
v 2.214550 0.561832 -1.134932
v 2.214550 0.561832 -0.982637
v 2.214550 0.561832 -0.830341
v 2.214550 0.763569 -1.134932
v 2.214550 0.763569 -0.982637
v 2.214550 0.763569 -0.830341
v 2.214550 0.889237 -1.134932
v 2.214550 0.889237 -0.982637
v 2.214550 0.889237 -0.830341
v -2.054829 0.763569 -0.830341
v -2.054829 0.763569 -0.982637
v -2.054829 0.763569 -1.134932
v -2.054829 0.889237 -0.830341
v -2.054829 0.889237 -0.982637
v -2.054829 0.889237 -1.134932
v 1.680878 1.151346 -1.287228
v 1.858769 1.151346 -1.287228
v 2.036659 1.151346 -1.287228
v 1.680878 -0.000150 1.149504
v 1.858769 -0.000150 1.149504
v 2.036659 -0.000150 1.149504
v 1.680878 1.546805 -0.068862
v 1.858769 1.546805 -0.068862
v 2.036659 1.546805 -0.068862
v 1.680878 0.637901 -1.287228
v 1.858769 0.637901 -1.287228
v 2.036659 0.637901 -1.287228
v 2.036659 -0.000150 -1.287228
v 1.858769 -0.000150 -1.287228
v 1.680878 -0.000150 -1.287228
v 2.036659 1.151346 1.149504
v 1.858769 1.151346 1.149504
v 1.680878 1.151346 1.149504
v 2.036659 0.637901 1.149504
v 1.858769 0.637901 1.149504
v 1.680878 0.637901 1.149504
v 2.036659 0.561832 1.149504
v 1.858769 0.561832 1.149504
v 1.680878 0.561832 1.149504
v 1.680878 0.561832 -1.287228
v 1.858769 0.561832 -1.287228
v 2.036659 0.561832 -1.287228
v 2.036659 0.763569 1.149504
v 1.858769 0.763569 1.149504
v 1.680878 0.763569 1.149504
v 2.036659 0.889237 1.149504
v 1.858769 0.889237 1.149504
v 1.680878 0.889237 1.149504
v 1.680878 0.763569 -1.287228
v 1.858769 0.763569 -1.287228
v 2.036659 0.763569 -1.287228
v 1.680878 0.889237 -1.287228
v 1.858769 0.889237 -1.287228
v 2.036659 0.889237 -1.287228
v 0.613533 -0.000150 -1.287228
v 0.435643 -0.000150 -1.287228
v 0.257752 -0.000150 -1.287228
v 0.613533 1.151346 1.149504
v 0.435643 1.151346 1.149504
v 0.257752 1.151346 1.149504
v 0.613533 0.637901 1.149504
v 0.435643 0.637901 1.149504
v 0.257752 0.637901 1.149504
v 0.257752 1.151346 -1.287228
v 0.435643 1.151346 -1.287228
v 0.613533 1.151346 -1.287228
v 0.257752 -0.000150 1.149504
v 0.435643 -0.000150 1.149504
v 0.613533 -0.000150 1.149504
v 0.257752 1.546805 -0.068862
v 0.435643 1.546805 -0.068862
v 0.613533 1.546805 -0.068862
v 0.257752 0.637901 -1.287228
v 0.435643 0.637901 -1.287228
v 0.613533 0.637901 -1.287228
v 0.257752 0.561832 -1.287228
v 0.435643 0.561832 -1.287228
v 0.613533 0.561832 -1.287228
v 0.613533 0.561832 1.149504
v 0.435643 0.561832 1.149504
v 0.257752 0.561832 1.149504
v 0.257752 0.763569 -1.287228
v 0.435643 0.763569 -1.287228
v 0.613533 0.763569 -1.287228
v 0.257752 0.889237 -1.287228
v 0.435643 0.889237 -1.287228
v 0.613533 0.889237 -1.287228
v 0.613533 0.763569 1.149504
v 0.435643 0.763569 1.149504
v 0.257752 0.763569 1.149504
v 0.613533 0.889237 1.149504
v 0.435643 0.889237 1.149504
v 0.257752 0.889237 1.149504
v -1.521156 -0.000150 -1.287228
v -1.699047 -0.000150 -1.287228
v -1.876938 -0.000150 -1.287228
v -1.521156 1.151346 1.149504
v -1.699047 1.151346 1.149504
v -1.876938 1.151346 1.149504
v -1.521156 0.637901 1.149504
v -1.699047 0.637901 1.149504
v -1.876938 0.637901 1.149504
v -1.876938 1.151346 -1.287228
v -1.699047 1.151346 -1.287228
v -1.521156 1.151346 -1.287228
v -1.876938 -0.000150 1.149504
v -1.699047 -0.000150 1.149504
v -1.521156 -0.000150 1.149504
v -1.876938 1.546805 -0.068862
v -1.699047 1.546805 -0.068862
v -1.521156 1.546805 -0.068862
v -1.876938 0.637901 -1.287228
v -1.699047 0.637901 -1.287228
v -1.521156 0.637901 -1.287228
v -1.876938 0.561832 -1.287228
v -1.699047 0.561832 -1.287228
v -1.521156 0.561832 -1.287228
v -1.521156 0.561832 1.149504
v -1.699047 0.561832 1.149504
v -1.876938 0.561832 1.149504
v -1.876938 0.763569 -1.287228
v -1.699047 0.763569 -1.287228
v -1.521156 0.763569 -1.287228
v -1.876938 0.889237 -1.287228
v -1.699047 0.889237 -1.287228
v -1.521156 0.889237 -1.287228
v -1.521156 0.763569 1.149504
v -1.699047 0.763569 1.149504
v -1.876938 0.763569 1.149504
v -1.521156 0.889237 1.149504
v -1.699047 0.889237 1.149504
v -1.876938 0.889237 1.149504
v -0.453811 1.151346 -1.287228
v -0.275921 1.151346 -1.287228
v -0.098030 1.151346 -1.287228
v -0.453811 1.546805 -0.068862
v -0.275921 1.546805 -0.068862
v -0.098030 1.546805 -0.068862
v -0.453811 0.637901 -1.287228
v -0.275921 0.637901 -1.287228
v -0.098030 0.637901 -1.287228
v -0.098030 -0.000150 -1.287228
v -0.275921 -0.000150 -1.287228
v -0.453811 -0.000150 -1.287228
v -0.098030 1.151346 1.149504
v -0.275921 1.151346 1.149504
v -0.453811 1.151346 1.149504
v -0.098030 0.637901 1.149504
v -0.275921 0.637901 1.149504
v -0.453811 0.637901 1.149504
v -0.098030 0.561832 1.149504
v -0.275921 0.561832 1.149504
v -0.453811 0.561832 1.149504
v -0.453811 0.561832 -1.287228
v -0.275921 0.561832 -1.287228
v -0.098030 0.561832 -1.287228
v -0.098030 0.561832 1.041641
v -0.275921 0.561832 1.041641
v -0.453811 0.561832 1.041641
v -0.098030 0.889237 1.149504
v -0.275921 0.889237 1.149504
v -0.453811 0.889237 1.149504
v -0.453811 0.763569 -1.287228
v -0.275921 0.763569 -1.287228
v -0.098030 0.763569 -1.287228
v -0.453811 0.889237 -1.287228
v -0.275921 0.889237 -1.287228
v -0.098030 0.889237 -1.287228
v -2.054829 0.774067 0.676262
v -2.054829 0.878740 0.676262
v -2.054829 0.878740 0.556676
v -2.054829 0.774067 0.556676
v 2.214550 0.774067 0.708972
v 2.214550 0.878740 0.708972
v 2.214550 0.878740 0.828558
v 2.214550 0.774067 0.828558
v 2.214550 0.774067 0.861268
v 2.214550 0.878740 0.861268
v 2.214550 0.878740 0.980854
v 2.214550 0.774067 0.980854
v -2.054829 0.774067 0.980854
v -2.054829 0.878740 0.980854
v -2.054829 0.878740 0.861268
v -2.054829 0.774067 0.861268
v -2.054829 0.774067 0.828558
v -2.054829 0.878740 0.828558
v -2.054829 0.878740 0.708972
v -2.054829 0.774067 0.708972
v -2.054829 0.774067 -0.694400
v -2.054829 0.878740 -0.694400
v -2.054829 0.878740 -0.813986
v -2.054829 0.774067 -0.813986
v -2.054829 0.774067 -0.846696
v -2.054829 0.878740 -0.846696
v -2.054829 0.878740 -0.966282
v -2.054829 0.774067 -0.966282
v -2.054829 0.774067 -0.998991
v -2.054829 0.878740 -0.998991
v -2.054829 0.878740 -1.118578
v -2.054829 0.774067 -1.118578
v 2.214550 0.774067 -1.118578
v 2.214550 0.878740 -1.118578
v 2.214550 0.878740 -0.998991
v 2.214550 0.774067 -0.998991
v 2.214550 0.774067 -0.966282
v 2.214550 0.878740 -0.966282
v 2.214550 0.878740 -0.846696
v 2.214550 0.774067 -0.846696
v 1.703287 0.774067 -1.287228
v 1.703287 0.878740 -1.287228
v 1.836360 0.878740 -1.287228
v 1.836360 0.774067 -1.287228
v 1.881178 0.774067 -1.287228
v 1.881178 0.878740 -1.287228
v 2.014250 0.878740 -1.287228
v 2.014250 0.774067 -1.287228
v 2.014250 0.774067 1.149504
v 2.014250 0.878740 1.149504
v 1.881178 0.878740 1.149504
v 1.881178 0.774067 1.149504
v 1.836360 0.774067 1.149504
v 1.836360 0.878740 1.149504
v 1.703287 0.878740 1.149504
v 1.703287 0.774067 1.149504
v 0.591124 0.774067 1.149504
v 0.591124 0.878740 1.149504
v 0.458052 0.878740 1.149504
v 0.458052 0.774067 1.149504
v 0.413233 0.774067 1.149504
v 0.413233 0.878740 1.149504
v 0.280161 0.878740 1.149504
v 0.280161 0.774067 1.149504
v 0.280161 0.774067 -1.287228
v 0.280161 0.878740 -1.287228
v 0.413233 0.878740 -1.287228
v 0.413233 0.774067 -1.287228
v 0.458052 0.774067 -1.287228
v 0.458052 0.878740 -1.287228
v 0.591124 0.878740 -1.287228
v 0.591124 0.774067 -1.287228
v -1.543566 0.774067 1.149504
v -1.543566 0.878740 1.149504
v -1.676638 0.878740 1.149504
v -1.676638 0.774067 1.149504
v -1.721456 0.774067 1.149504
v -1.721456 0.878740 1.149504
v -1.854528 0.878740 1.149504
v -1.854528 0.774067 1.149504
v -1.854528 0.774067 -1.287228
v -1.854528 0.878740 -1.287228
v -1.721456 0.878740 -1.287228
v -1.721456 0.774067 -1.287228
v -1.676638 0.774067 -1.287228
v -1.676638 0.878740 -1.287228
v -1.543566 0.878740 -1.287228
v -1.543566 0.774067 -1.287228
v -0.431402 0.774067 -1.287228
v -0.431402 0.878740 -1.287228
v -0.298330 0.878740 -1.287228
v -0.298330 0.774067 -1.287228
v -0.253511 0.774067 -1.287228
v -0.253511 0.878740 -1.287228
v -0.120439 0.878740 -1.287228
v -0.120439 0.774067 -1.287228
v 1.703287 0.878740 -1.220746
v 1.703287 0.774067 -1.220746
v 1.836360 0.774067 -1.220746
v 1.836360 0.878740 -1.220746
v 1.881178 0.878740 -1.220746
v 1.881178 0.774067 -1.220746
v 2.014250 0.774067 -1.220746
v 2.014250 0.878740 -1.220746
v 2.014250 0.878740 1.060861
v 2.014250 0.774067 1.060861
v 1.881178 0.774067 1.060861
v 1.881178 0.878740 1.060861
v 1.836360 0.878740 1.060861
v 1.836360 0.774067 1.060861
v 1.703287 0.774067 1.060861
v 1.703287 0.878740 1.060861
v 0.591124 0.878740 1.060861
v 0.591124 0.774067 1.060861
v 0.458052 0.774067 1.060861
v 0.458052 0.878740 1.060861
v 0.413233 0.878740 1.060861
v 0.413233 0.774067 1.060861
v 0.280161 0.774067 1.060861
v 0.280161 0.878740 1.060861
v 0.280161 0.878740 -1.220746
v 0.280161 0.774067 -1.220746
v 0.413233 0.774067 -1.220746
v 0.413233 0.878740 -1.220746
v 0.458052 0.878740 -1.220746
v 0.458052 0.774067 -1.220746
v 0.591124 0.774067 -1.220746
v 0.591124 0.878740 -1.220746
v -1.543566 0.878740 1.060861
v -1.543566 0.774067 1.060861
v -1.676638 0.774067 1.060861
v -1.676638 0.878740 1.060861
v -1.721456 0.878740 1.060861
v -1.721456 0.774067 1.060861
v -1.854528 0.774067 1.060861
v -1.854528 0.878740 1.060861
v -1.854528 0.878740 -1.220746
v -1.854528 0.774067 -1.220746
v -1.721456 0.774067 -1.220746
v -1.721456 0.878740 -1.220746
v -1.676638 0.878740 -1.220746
v -1.676638 0.774067 -1.220746
v -1.543566 0.774067 -1.220746
v -1.543566 0.878740 -1.220746
v -0.431402 0.878740 -1.220746
v -0.431402 0.774067 -1.220746
v -0.298330 0.774067 -1.220746
v -0.298330 0.878740 -1.220746
v -0.253511 0.878740 -1.220746
v -0.253511 0.774067 -1.220746
v -0.120439 0.774067 -1.220746
v -0.120439 0.878740 -1.220746
v -2.014606 0.878740 0.676262
v -2.014606 0.774067 0.676262
v -2.014606 0.774067 0.556676
v -2.014606 0.878740 0.556676
v 2.154217 0.878740 0.708972
v 2.154217 0.774067 0.708972
v 2.154217 0.774067 0.828558
v 2.154217 0.878740 0.828558
v 2.154217 0.878740 0.861268
v 2.154217 0.774067 0.861268
v 2.154217 0.774067 0.980854
v 2.154217 0.878740 0.980854
v -2.014606 0.878740 0.980854
v -2.014606 0.774067 0.980854
v -2.014606 0.774067 0.861268
v -2.014606 0.878740 0.861268
v -2.014606 0.878740 0.828558
v -2.014606 0.774067 0.828558
v -2.014606 0.774067 0.708972
v -2.014606 0.878740 0.708972
v -2.014606 0.878740 -0.694400
v -2.014606 0.774067 -0.694400
v -2.014606 0.774067 -0.813986
v -2.014606 0.878740 -0.813986
v -2.014606 0.878740 -0.846696
v -2.014606 0.774067 -0.846696
v -2.014606 0.774067 -0.966282
v -2.014606 0.878740 -0.966282
v -2.014606 0.878740 -0.998991
v -2.014606 0.774067 -0.998991
v -2.014606 0.774067 -1.118578
v -2.014606 0.878740 -1.118578
v 2.154217 0.878740 -1.118578
v 2.154217 0.774067 -1.118578
v 2.154217 0.774067 -0.998991
v 2.154217 0.878740 -0.998991
v 2.154217 0.878740 -0.966282
v 2.154217 0.774067 -0.966282
v 2.154217 0.774067 -0.846696
v 2.154217 0.878740 -0.846696
v -2.054829 -0.000150 -0.525749
v -2.054829 -0.000150 -0.373453
v -2.054829 -0.000150 -0.221158
v 2.214550 1.398508 -0.525749
v 2.214550 1.447940 -0.373453
v 2.214550 1.497373 -0.221158
v -2.054829 1.497373 -0.221158
v -2.054829 1.447940 -0.373453
v -2.054829 1.398508 -0.525749
v -2.054829 0.637901 -0.221158
v -2.054829 0.637901 -0.373453
v -2.054829 0.637901 -0.525749
v 2.214550 0.637901 -0.525749
v 2.214550 0.637901 -0.373453
v 2.214550 0.637901 -0.221158
v 2.182907 0.637901 -0.525749
v 2.182907 0.637901 -0.373453
v 2.182907 0.637901 -0.221158
v 2.182907 0.561832 -0.525749
v 2.182907 0.561832 -0.373453
v 2.182907 0.561832 -0.221158
v -2.054829 0.561832 -0.221158
v -2.054829 0.561832 -0.373453
v -2.054829 0.561832 -0.525749
v 2.153059 -0.000150 -0.221158
v 2.153059 -0.000150 -0.373453
v 2.153059 -0.000150 -0.525749
v 2.153059 0.561832 -0.525749
v 2.153059 0.561832 -0.373453
v 2.153059 0.561832 -0.221158
v -2.054829 0.763569 -0.221158
v -2.054829 0.763569 -0.373453
v -2.054829 0.763569 -0.525749
v -2.054829 0.889237 -0.221158
v -2.054829 0.889237 -0.373453
v -2.054829 0.889237 -0.525749
v 2.214550 0.889237 -0.525749
v 2.214550 0.889237 -0.373453
v 2.214550 0.889237 -0.221158
v -2.054829 1.398508 0.388025
v -2.054829 1.447940 0.235730
v -2.054829 1.497373 0.083434
v -2.054829 -0.000150 0.083434
v -2.054829 -0.000150 0.235730
v -2.054829 -0.000150 0.388025
v 2.214550 1.497373 0.083434
v 2.214550 1.447940 0.235730
v 2.214550 1.398508 0.388025
v 2.214550 0.637901 0.083434
v 2.214550 0.637901 0.235730
v 2.214550 0.637901 0.388025
v -2.054829 0.637901 0.388025
v -2.054829 0.637901 0.235730
v -2.054829 0.637901 0.083434
v 2.182907 0.637901 0.083434
v 2.182907 0.637901 0.235730
v 2.182907 0.637901 0.388025
v 2.182907 0.561832 0.083434
v 2.182907 0.561832 0.235730
v 2.182907 0.561832 0.388025
v -2.054829 0.561832 0.388025
v -2.054829 0.561832 0.235730
v -2.054829 0.561832 0.083434
v 2.153059 -0.000150 0.388025
v 2.153059 -0.000150 0.235730
v 2.153059 -0.000150 0.083434
v 2.153059 0.561832 0.083434
v 2.153059 0.561832 0.235730
v 2.153059 0.561832 0.388025
v 2.214550 0.889237 0.083434
v 2.214550 0.889237 0.235730
v 2.214550 0.889237 0.388025
v -2.054829 0.763569 0.388025
v -2.054829 0.763569 0.235730
v -2.054829 0.763569 0.083434
v -2.054829 0.889237 0.388025
v -2.054829 0.889237 0.235730
v -2.054829 0.889237 0.083434
v -2.054829 0.774977 -0.238930
v -2.054829 0.877830 -0.238930
v -2.054829 0.877830 -0.355681
v -2.054829 0.774977 -0.355681
v -2.054829 0.774977 -0.391226
v -2.054829 0.877830 -0.391226
v -2.054829 0.877830 -0.507977
v -2.054829 0.774977 -0.507977
v -2.054829 0.774977 0.370253
v -2.054829 0.877830 0.370253
v -2.054829 0.877830 0.253502
v -2.054829 0.774977 0.253502
v -2.054829 0.774977 0.217957
v -2.054829 0.877830 0.217957
v -2.054829 0.877830 0.101206
v -2.054829 0.774977 0.101206
v -2.016752 0.877830 -0.238930
v -2.016752 0.774977 -0.238930
v -2.016752 0.774977 -0.355681
v -2.016752 0.877830 -0.355681
v -2.016752 0.877830 -0.391226
v -2.016752 0.774977 -0.391226
v -2.016752 0.774977 -0.507977
v -2.016752 0.877830 -0.507977
v -2.016752 0.877830 0.370253
v -2.016752 0.774977 0.370253
v -2.016752 0.774977 0.253502
v -2.016752 0.877830 0.253502
v -2.016752 0.877830 0.217957
v -2.016752 0.774977 0.217957
v -2.016752 0.774977 0.101206
v -2.016752 0.877830 0.101206
v -2.067528 0.561576 1.160676
v -2.067528 0.638157 1.160676
v 2.230542 0.638157 -0.837323
v 2.230542 0.638157 -0.683631
v -2.067528 0.638157 -0.529939
v -2.067528 0.638157 -0.683631
v -2.067528 0.638157 0.699600
v -2.067528 0.638157 0.545907
v -2.067528 0.638157 -1.144708
v -2.067528 0.638157 -1.298400
v 2.051456 0.638157 -1.298400
v 2.230542 0.638157 -1.298400
v 2.230542 0.638157 1.006984
v 2.230542 0.638157 1.160676
v -1.888441 0.638157 1.160676
v -2.067528 0.638157 0.084830
v -2.067528 0.638157 -0.068862
v -0.097579 0.638157 -1.298400
v 0.081507 0.638157 -1.298400
v 0.260593 0.638157 1.160676
v 0.081507 0.638157 1.160676
v 0.618766 0.638157 -1.298400
v 0.797852 0.638157 -1.298400
v 1.514197 0.638157 -1.298400
v 1.693283 0.638157 1.160676
v 1.514197 0.638157 1.160676
v 0.797852 0.638157 1.160676
v -0.455752 0.638157 1.160676
v -0.634838 0.638157 1.160676
v -1.351183 0.638157 1.160676
v -1.530269 0.638157 -1.298400
v -1.351183 0.638157 -1.298400
v -0.634838 0.638157 -1.298400
v -2.067528 0.561576 -1.298400
v 2.230542 0.561576 -1.298400
v 2.230542 0.561576 1.160676
v -2.067528 0.561576 -0.068862
v 2.230542 0.638157 0.545907
v 2.230542 0.561576 0.545907
v -2.067528 0.561576 0.545907
v -2.067528 0.561576 -0.683631
v 2.230542 0.561576 -0.683631
v 0.081507 0.561576 1.160676
v 0.081507 0.561576 -1.298400
v 1.514197 0.561576 1.160676
v 0.797852 0.561576 1.160676
v 0.797852 0.561576 -1.298400
v 1.514197 0.561576 -1.298400
v -1.351183 0.561576 -1.298400
v -0.634838 0.561576 -1.298400
v -0.634838 0.561576 1.160676
v -1.351183 0.561576 1.160676
v -0.455752 0.561576 1.160676
v -1.530269 0.561576 -1.298400
v 0.618766 0.561576 -1.298400
v 1.693283 0.561576 1.160676
v -0.097579 0.561576 -1.298400
v 0.260593 0.561576 1.160676
v -2.067528 0.561576 0.084830
v -1.888441 0.561576 1.160676
v 2.230542 0.561576 1.006984
v 2.051456 0.561576 -1.298400
v -2.067528 0.561576 -1.144708
v -2.067528 0.561576 0.699600
v -2.067528 0.561576 -0.529939
v 2.230542 0.561576 -0.837323
v -2.067528 0.638157 1.006984
v -2.067528 0.638157 0.853292
v 2.230542 0.638157 0.699600
v 2.230542 0.638157 0.853292
v 2.230542 0.561576 0.699600
v 2.230542 0.561576 0.853292
v -2.067528 0.561576 1.006984
v -2.067528 0.561576 0.853292
v 2.230542 0.638157 -1.144708
v 2.230542 0.638157 -0.991016
v -2.067528 0.638157 -0.837323
v -2.067528 0.638157 -0.991016
v -2.067528 0.561576 -0.837323
v -2.067528 0.561576 -0.991016
v 2.230542 0.561576 -1.144708
v 2.230542 0.561576 -0.991016
v 1.693283 0.638157 -1.298400
v 1.872370 0.638157 -1.298400
v 2.051456 0.638157 1.160676
v 1.872370 0.638157 1.160676
v 2.051456 0.561576 1.160676
v 1.872370 0.561576 1.160676
v 1.693283 0.561576 -1.298400
v 1.872370 0.561576 -1.298400
v 0.618766 0.638157 1.160676
v 0.439680 0.638157 1.160676
v 0.260593 0.638157 -1.298400
v 0.439680 0.638157 -1.298400
v 0.260593 0.561576 -1.298400
v 0.439680 0.561576 -1.298400
v 0.618766 0.561576 1.160676
v 0.439680 0.561576 1.160676
v -1.530269 0.638157 1.160676
v -1.709355 0.638157 1.160676
v -1.888441 0.638157 -1.298400
v -1.709355 0.638157 -1.298400
v -1.888441 0.561576 -1.298400
v -1.709355 0.561576 -1.298400
v -1.530269 0.561576 1.160676
v -1.709355 0.561576 1.160676
v -0.455752 0.638157 -1.298400
v -0.276665 0.638157 -1.298400
v -0.097579 0.638157 1.160676
v -0.276665 0.638157 1.160676
v -0.097579 0.561576 1.160676
v -0.276665 0.561576 1.160676
v -0.455752 0.561576 -1.298400
v -0.276665 0.561576 -1.298400
v -2.067528 0.638157 -0.222554
v -2.067528 0.638157 -0.376246
v -2.067528 0.561576 -0.222554
v -2.067528 0.561576 -0.376246
v -2.067528 0.638157 0.392215
v -2.067528 0.638157 0.238523
v -2.067528 0.561576 0.392215
v -2.067528 0.561576 0.238523
vn -0.0000 0.9512 0.3087
vn -1.0000 -0.0000 -0.0000
vn -0.0000 0.9997 -0.0229
vn 1.0000 -0.0000 -0.0000
vn -0.0000 -0.9512 -0.3087
vn -0.0000 -0.9512 0.3087
vn -0.0000 0.9512 -0.3087
vn -0.0000 -0.0000 1.0000
vn -0.0000 -0.0000 -1.0000
vn 0.0201 -0.9998 -0.0000
vn -0.0000 0.9997 0.0229
vn -0.0160 -0.9999 -0.0000
vn -0.0000 -0.9997 -0.0229
vn -0.0000 -1.0000 -0.0000
vn -0.0000 1.0000 -0.0000
vn -0.0000 -0.9997 0.0229
vn 0.0112 -0.0000 0.9999
vn 0.0201 0.9998 -0.0000
vn -0.0160 0.9999 -0.0000
vn 0.0112 -0.0000 -0.9999
vn -0.0000 -0.1567 0.9877
vt 0.072764 0.434417
vt 0.064051 0.426117
vt 0.073019 0.420935
vt 0.081988 0.415752
vt 0.090957 0.410569
vt 0.099926 0.405387
vt 0.135801 0.384656
vt 0.144770 0.379473
vt 0.153738 0.374291
vt 0.162707 0.369108
vt 0.171676 0.363925
vt 0.180645 0.358743
vt 0.189613 0.353560
vt 0.198582 0.348377
vt 0.207551 0.343195
vt 0.243426 0.322464
vt 0.252395 0.317281
vt 0.261364 0.312099
vt 0.270332 0.306916
vt 0.279301 0.301733
vt 0.288014 0.310032
vt 0.296727 0.318332
vt 0.305441 0.326631
vt 0.314154 0.334930
vt 0.322867 0.343229
vt 0.331580 0.351528
vt 0.340293 0.359827
vt 0.349006 0.368126
vt 0.340038 0.373309
vt 0.331069 0.378492
vt 0.322100 0.383674
vt 0.313131 0.388857
vt 0.277256 0.409588
vt 0.268287 0.414771
vt 0.259319 0.419953
vt 0.250350 0.425136
vt 0.241381 0.430319
vt 0.232412 0.435501
vt 0.223443 0.440684
vt 0.214475 0.445867
vt 0.205506 0.451049
vt 0.169631 0.471780
vt 0.160662 0.476963
vt 0.151693 0.482145
vt 0.142724 0.487328
vt 0.133756 0.492511
vt 0.125043 0.484212
vt 0.116329 0.475912
vt 0.107616 0.467613
vt 0.098903 0.459314
vt 0.090190 0.451015
vt 0.081477 0.442716
vt 0.091065 0.445158
vt 0.082351 0.436858
vt 0.352657 0.347530
vt 0.327571 0.362026
vt 0.302485 0.376522
vt 0.277399 0.391018
vt 0.252313 0.405514
vt 0.227227 0.420011
vt 0.126884 0.477995
vt 0.101798 0.492491
vt 0.076712 0.506987
vt 0.051626 0.521483
vt 0.026540 0.535979
vt 0.023174 0.536145
vt 0.048429 0.521552
vt 0.073683 0.506958
vt 0.098937 0.492365
vt 0.124192 0.477771
vt 0.225210 0.419397
vt 0.250464 0.404804
vt 0.275719 0.390210
vt 0.300973 0.375617
vt 0.326227 0.361023
vt 0.351482 0.346430
vt 0.376736 0.331836
vt 0.401991 0.317243
vt 0.427245 0.302649
vt 0.528263 0.244276
vt 0.553517 0.229682
vt 0.578772 0.215089
vt 0.604026 0.200495
vt 0.629281 0.185902
vt 0.628601 0.188074
vt 0.603515 0.202570
vt 0.578429 0.217066
vt 0.553344 0.231562
vt 0.528258 0.246058
vt 0.427914 0.304042
vt 0.402828 0.318538
vt 0.377742 0.333034
vt 0.099778 0.453457
vt 0.134630 0.486653
vt 0.125917 0.478354
vt 0.073638 0.428559
vt 0.306315 0.320773
vt 0.315028 0.329073
vt 0.323741 0.337372
vt 0.332455 0.345671
vt 0.280176 0.295876
vt 0.288889 0.304175
vt 0.297602 0.312474
vt 0.341168 0.353970
vt 0.108491 0.461756
vt 0.117204 0.470055
vt 0.064925 0.420260
vt 0.349881 0.362269
vt 0.028343 0.636196
vt 0.051035 0.657810
vt 0.073727 0.679424
vt 0.096419 0.701038
vt 0.119111 0.722652
vt 0.141803 0.744265
vt 0.164495 0.765879
vt 0.187187 0.787493
vt 0.213203 0.772459
vt 0.239219 0.757426
vt 0.265236 0.742392
vt 0.291252 0.727358
vt 0.395317 0.667223
vt 0.421334 0.652189
vt 0.447350 0.637156
vt 0.473366 0.622122
vt 0.499383 0.607088
vt 0.525399 0.592055
vt 0.551415 0.577021
vt 0.577432 0.561987
vt 0.603448 0.546953
vt 0.707513 0.486818
vt 0.733530 0.471785
vt 0.759546 0.456751
vt 0.785562 0.441717
vt 0.811579 0.426683
vt 0.788887 0.405070
vt 0.766195 0.383456
vt 0.743503 0.361842
vt 0.720811 0.340228
vt 0.698119 0.318614
vt 0.675427 0.297000
vt 0.652735 0.275386
vt 0.630043 0.253773
vt 0.604026 0.268806
vt 0.578010 0.283840
vt 0.551994 0.298874
vt 0.525977 0.313908
vt 0.421912 0.374043
vt 0.395896 0.389076
vt 0.369879 0.404110
vt 0.343863 0.419144
vt 0.317847 0.434177
vt 0.291830 0.449211
vt 0.265814 0.464245
vt 0.239798 0.479279
vt 0.213781 0.494312
vt 0.109716 0.554447
vt 0.083700 0.569481
vt 0.057683 0.584515
vt 0.031667 0.599549
vt 0.005651 0.614582
vt 0.209879 0.792105
vt 0.232571 0.796716
vt 0.255263 0.801328
vt 0.277955 0.805940
vt 0.300647 0.810551
vt 0.323339 0.815163
vt 0.346031 0.819775
vt 0.368723 0.824386
vt 0.394739 0.809353
vt 0.420755 0.794319
vt 0.446772 0.779285
vt 0.472788 0.764251
vt 0.576853 0.704116
vt 0.602870 0.689083
vt 0.628886 0.674049
vt 0.654902 0.659015
vt 0.680919 0.643981
vt 0.706935 0.628948
vt 0.732951 0.613914
vt 0.758968 0.598880
vt 0.784984 0.583847
vt 0.889049 0.523712
vt 0.915066 0.508678
vt 0.941082 0.493644
vt 0.967098 0.478610
vt 0.993115 0.463577
vt 0.970423 0.458965
vt 0.947731 0.454353
vt 0.925039 0.449742
vt 0.902347 0.445130
vt 0.879655 0.440518
vt 0.856963 0.435907
vt 0.834271 0.431295
vt 0.028343 0.644829
vt 0.005651 0.623215
vt 0.031667 0.608181
vt 0.057683 0.593147
vt 0.083700 0.578114
vt 0.109716 0.563080
vt 0.213781 0.502945
vt 0.239798 0.487911
vt 0.265814 0.472877
vt 0.291830 0.457844
vt 0.317847 0.442810
vt 0.343863 0.427776
vt 0.369879 0.412742
vt 0.395896 0.397709
vt 0.421912 0.382675
vt 0.525977 0.322540
vt 0.551994 0.307506
vt 0.578010 0.292472
vt 0.604026 0.277439
vt 0.630043 0.262405
vt 0.652735 0.284019
vt 0.675427 0.305633
vt 0.698119 0.327247
vt 0.720811 0.348860
vt 0.743503 0.370474
vt 0.766195 0.392088
vt 0.788887 0.413702
vt 0.811579 0.435316
vt 0.785562 0.450350
vt 0.759546 0.465383
vt 0.733530 0.480417
vt 0.707513 0.495451
vt 0.603448 0.555586
vt 0.577432 0.570619
vt 0.551415 0.585653
vt 0.525399 0.600687
vt 0.499383 0.615721
vt 0.473366 0.630754
vt 0.447350 0.645788
vt 0.421334 0.660822
vt 0.395317 0.675856
vt 0.291252 0.735991
vt 0.265236 0.751024
vt 0.239219 0.766058
vt 0.213203 0.781092
vt 0.187187 0.796126
vt 0.164495 0.774512
vt 0.141803 0.752898
vt 0.119111 0.731284
vt 0.096419 0.709670
vt 0.073727 0.688056
vt 0.051035 0.666442
vt 0.209879 0.800737
vt 0.834271 0.439927
vt 0.856963 0.444539
vt 0.879655 0.449151
vt 0.902347 0.453762
vt 0.925039 0.458374
vt 0.947731 0.462986
vt 0.970423 0.467597
vt 0.993115 0.472209
vt 0.967098 0.487243
vt 0.941082 0.502276
vt 0.915066 0.517310
vt 0.889049 0.532344
vt 0.784984 0.592479
vt 0.758968 0.607513
vt 0.732951 0.622546
vt 0.706935 0.637580
vt 0.680919 0.652614
vt 0.654902 0.667648
vt 0.628886 0.682681
vt 0.602870 0.697715
vt 0.576853 0.712749
vt 0.472788 0.772884
vt 0.446772 0.787917
vt 0.420755 0.802951
vt 0.394739 0.817985
vt 0.368723 0.833019
vt 0.346031 0.828407
vt 0.323339 0.823795
vt 0.300647 0.819184
vt 0.277955 0.814572
vt 0.255263 0.809960
vt 0.232571 0.805349
vt 0.255902 0.793852
vt 0.233601 0.789320
vt 0.211299 0.784787
vt 0.188998 0.780255
vt 0.188998 0.788739
vt 0.211299 0.793271
vt 0.233601 0.797803
vt 0.255902 0.802336
vt 0.278203 0.806868
vt 0.300504 0.811400
vt 0.322806 0.815932
vt 0.345107 0.820465
vt 0.367408 0.824997
vt 0.367408 0.816513
vt 0.345107 0.811981
vt 0.322806 0.807449
vt 0.300504 0.802916
vt 0.278203 0.798384
vt 0.114049 0.550535
vt 0.217511 0.490749
vt 0.243376 0.475803
vt 0.269241 0.460856
vt 0.295107 0.445910
vt 0.320972 0.430963
vt 0.346838 0.416017
vt 0.372703 0.401070
vt 0.398568 0.386124
vt 0.424434 0.371177
vt 0.527896 0.311391
vt 0.553761 0.296444
vt 0.579626 0.281498
vt 0.605492 0.266551
vt 0.631357 0.251605
vt 0.631357 0.260089
vt 0.605492 0.275035
vt 0.579626 0.289982
vt 0.553761 0.304928
vt 0.527896 0.319875
vt 0.424434 0.379661
vt 0.398568 0.394607
vt 0.372703 0.409554
vt 0.346838 0.424500
vt 0.320972 0.439447
vt 0.295107 0.454393
vt 0.269241 0.469340
vt 0.243376 0.484286
vt 0.217511 0.499233
vt 0.114049 0.559019
vt 0.088184 0.573966
vt 0.062318 0.588912
vt 0.036453 0.603859
vt 0.010587 0.618805
vt 0.010587 0.610321
vt 0.036453 0.595375
vt 0.062318 0.580428
vt 0.088184 0.565482
vt 0.936447 0.487690
vt 0.910582 0.502636
vt 0.884716 0.517583
vt 0.781255 0.577369
vt 0.755389 0.592315
vt 0.729524 0.607262
vt 0.703659 0.622208
vt 0.677793 0.637155
vt 0.651928 0.652101
vt 0.626062 0.667048
vt 0.600197 0.681994
vt 0.574332 0.696941
vt 0.470870 0.756727
vt 0.445005 0.771674
vt 0.419139 0.786620
vt 0.393274 0.801567
vt 0.393274 0.810050
vt 0.419139 0.795104
vt 0.445005 0.780157
vt 0.470870 0.765211
vt 0.574332 0.705425
vt 0.600197 0.690478
vt 0.626062 0.675532
vt 0.651928 0.660585
vt 0.677793 0.645639
vt 0.703659 0.630692
vt 0.729524 0.615746
vt 0.755389 0.600799
vt 0.781255 0.585853
vt 0.884716 0.526066
vt 0.910582 0.511120
vt 0.936447 0.496173
vt 0.962313 0.481227
vt 0.988178 0.466280
vt 0.988178 0.457797
vt 0.962313 0.472743
vt 0.653658 0.272847
vt 0.675960 0.294088
vt 0.698261 0.315330
vt 0.720562 0.336572
vt 0.742864 0.357813
vt 0.765165 0.379055
vt 0.787466 0.400297
vt 0.809768 0.421539
vt 0.809768 0.430022
vt 0.787466 0.408781
vt 0.765165 0.387539
vt 0.742864 0.366297
vt 0.720562 0.345055
vt 0.698261 0.323814
vt 0.675960 0.302572
vt 0.653658 0.281330
vt 0.032889 0.631563
vt 0.055190 0.652805
vt 0.077491 0.674047
vt 0.099793 0.695288
vt 0.122094 0.716530
vt 0.144395 0.737772
vt 0.166697 0.759013
vt 0.214863 0.765309
vt 0.240729 0.750362
vt 0.266594 0.735416
vt 0.292460 0.720469
vt 0.395921 0.660683
vt 0.421787 0.645736
vt 0.447652 0.630790
vt 0.473517 0.615843
vt 0.499383 0.600897
vt 0.525248 0.585950
vt 0.551114 0.571004
vt 0.576979 0.556057
vt 0.602844 0.541111
vt 0.706306 0.481325
vt 0.732171 0.466378
vt 0.758037 0.451432
vt 0.783902 0.436485
vt 0.965877 0.453264
vt 0.943576 0.448732
vt 0.921274 0.444200
vt 0.898973 0.439668
vt 0.876672 0.435135
vt 0.854370 0.430603
vt 0.832069 0.426071
vt 0.032889 0.640047
vt 0.055190 0.661289
vt 0.077491 0.682530
vt 0.099793 0.703772
vt 0.122094 0.725014
vt 0.144395 0.746255
vt 0.166697 0.767497
vt 0.348688 0.813749
vt 0.370164 0.818114
vt 0.370164 0.795907
vt 0.370164 0.775453
vt 0.348688 0.763042
vt 0.327211 0.750632
vt 0.305735 0.738222
vt 0.284258 0.725811
vt 0.262782 0.713401
vt 0.241305 0.700991
vt 0.219829 0.688580
vt 0.198352 0.676170
vt 0.176876 0.663760
vt 0.155399 0.651349
vt 0.133923 0.638939
vt 0.112446 0.626528
vt 0.090970 0.614118
vt 0.069493 0.601708
vt 0.048017 0.589297
vt 0.026540 0.576887
vt 0.026540 0.597341
vt 0.026540 0.619548
vt 0.048017 0.640004
vt 0.069493 0.660461
vt 0.090970 0.680917
vt 0.112446 0.701373
vt 0.133923 0.721829
vt 0.155399 0.742285
vt 0.176876 0.762741
vt 0.198352 0.783197
vt 0.219829 0.787562
vt 0.241305 0.791926
vt 0.262782 0.796291
vt 0.284258 0.800656
vt 0.305735 0.805020
vt 0.327211 0.809385
vt 0.051626 0.605052
vt 0.051626 0.562391
vt 0.076712 0.547895
vt 0.101798 0.533399
vt 0.126884 0.518903
vt 0.227227 0.460919
vt 0.252313 0.446422
vt 0.277399 0.431926
vt 0.302485 0.417430
vt 0.327571 0.402934
vt 0.352657 0.388438
vt 0.377742 0.373942
vt 0.402828 0.359446
vt 0.427914 0.344950
vt 0.528258 0.286966
vt 0.553344 0.272470
vt 0.578429 0.257974
vt 0.603515 0.243478
vt 0.628601 0.228982
vt 0.628601 0.249436
vt 0.628601 0.271643
vt 0.603515 0.286139
vt 0.578429 0.300635
vt 0.553344 0.315131
vt 0.528258 0.329627
vt 0.427914 0.387611
vt 0.402828 0.402107
vt 0.377742 0.416604
vt 0.352657 0.431100
vt 0.327571 0.445596
vt 0.302485 0.460092
vt 0.277399 0.474588
vt 0.252313 0.489084
vt 0.227227 0.503580
vt 0.126884 0.561564
vt 0.101798 0.576060
vt 0.076712 0.590556
vt 0.947139 0.484705
vt 0.972225 0.470209
vt 0.972225 0.448001
vt 0.972225 0.427547
vt 0.947139 0.442043
vt 0.922053 0.456539
vt 0.896967 0.471035
vt 0.871882 0.485532
vt 0.771538 0.543516
vt 0.746452 0.558012
vt 0.721366 0.572508
vt 0.696281 0.587004
vt 0.671195 0.601500
vt 0.646109 0.615996
vt 0.621023 0.630492
vt 0.595937 0.644988
vt 0.570851 0.659484
vt 0.470508 0.717469
vt 0.445422 0.731965
vt 0.420336 0.746461
vt 0.395250 0.760957
vt 0.395250 0.803618
vt 0.420336 0.789122
vt 0.445422 0.774626
vt 0.470508 0.760130
vt 0.570851 0.702146
vt 0.595937 0.687650
vt 0.621023 0.673154
vt 0.646109 0.658657
vt 0.671195 0.644161
vt 0.696281 0.629665
vt 0.721366 0.615169
vt 0.746452 0.600673
vt 0.771538 0.586177
vt 0.871882 0.528193
vt 0.896967 0.513697
vt 0.922053 0.499201
vt 0.650078 0.292099
vt 0.650078 0.241392
vt 0.671554 0.253802
vt 0.693031 0.266213
vt 0.714507 0.278623
vt 0.735984 0.291033
vt 0.757460 0.303444
vt 0.778937 0.315854
vt 0.800413 0.328264
vt 0.821890 0.340675
vt 0.843366 0.353085
vt 0.864843 0.365496
vt 0.886319 0.377906
vt 0.907796 0.390316
vt 0.929272 0.402727
vt 0.950749 0.415137
vt 0.950749 0.465844
vt 0.929272 0.461479
vt 0.907796 0.457115
vt 0.886319 0.452750
vt 0.864843 0.448386
vt 0.843366 0.444021
vt 0.821890 0.439656
vt 0.800413 0.435292
vt 0.778937 0.414836
vt 0.757460 0.394380
vt 0.735984 0.373923
vt 0.714507 0.353467
vt 0.693031 0.333011
vt 0.671554 0.312555
vt 0.965877 0.461748
vt 0.943576 0.457216
vt 0.921274 0.452684
vt 0.898973 0.448151
vt 0.876672 0.443619
vt 0.854370 0.439087
vt 0.832069 0.434555
vt 0.907796 0.337027
vt 0.886319 0.324617
vt 0.886319 0.233147
vt 0.907796 0.245557
vt 0.929272 0.257968
vt 0.950749 0.270378
vt 0.972225 0.282789
vt 0.972225 0.374258
vt 0.950749 0.361848
vt 0.929272 0.349437
vt 0.048017 0.536008
vt 0.026540 0.523598
vt 0.023174 0.523681
vt 0.044848 0.536205
vt 0.671195 0.560592
vt 0.696281 0.546096
vt 0.698257 0.546816
vt 0.673002 0.561410
vt 0.650078 0.188103
vt 0.671554 0.200513
vt 0.672628 0.198485
vt 0.650954 0.185961
vt 0.646109 0.575088
vt 0.647748 0.576003
vt 0.693031 0.212923
vt 0.694301 0.211010
vt 0.714507 0.225334
vt 0.715974 0.223534
vt 0.470508 0.676560
vt 0.570851 0.618576
vt 0.571985 0.619784
vt 0.470967 0.678158
vt 0.922053 0.415631
vt 0.947139 0.401135
vt 0.950801 0.400882
vt 0.925547 0.415475
vt 0.445422 0.691057
vt 0.445712 0.692751
vt 0.051626 0.509102
vt 0.076712 0.494606
vt 0.073683 0.494494
vt 0.048429 0.509087
vt 0.896967 0.430127
vt 0.900292 0.430069
vt 0.101798 0.480110
vt 0.098937 0.479900
vt 0.871882 0.444624
vt 0.875038 0.444662
vt 0.932709 0.348775
vt 0.911035 0.336251
vt 0.126884 0.465613
vt 0.124192 0.465307
vt 0.954382 0.361300
vt 0.735984 0.250125
vt 0.714507 0.237715
vt 0.710045 0.240294
vt 0.731521 0.252704
vt 0.470508 0.572710
vt 0.470508 0.664179
vt 0.465687 0.661393
vt 0.465687 0.569924
vt 0.821890 0.299767
vt 0.800413 0.287356
vt 0.795951 0.289935
vt 0.817427 0.302345
vt 0.766717 0.395971
vt 0.766717 0.487441
vt 0.867061 0.429457
vt 0.867061 0.337987
vt 0.566031 0.603409
vt 0.566031 0.511940
vt 0.871882 0.432242
vt 0.871882 0.340773
vt 0.570851 0.606195
vt 0.528258 0.142207
vt 0.528258 0.233677
vt 0.534225 0.237125
vt 0.534225 0.145655
vt 0.261582 0.673911
vt 0.283255 0.686435
vt 0.304929 0.698959
vt 0.326602 0.711483
vt 0.348276 0.724007
vt 0.369949 0.736531
vt 0.369949 0.724067
vt 0.348276 0.711543
vt 0.326602 0.699019
vt 0.304929 0.686495
vt 0.283255 0.673970
vt 0.261582 0.661446
vt 0.239908 0.648922
vt 0.218235 0.636398
vt 0.196562 0.623874
vt 0.174888 0.611350
vt 0.153215 0.598825
vt 0.131541 0.586301
vt 0.109868 0.573777
vt 0.088194 0.561253
vt 0.066521 0.548729
vt 0.044848 0.548669
vt 0.066521 0.561193
vt 0.088194 0.573717
vt 0.109868 0.586242
vt 0.131541 0.598766
vt 0.153215 0.611290
vt 0.174888 0.623814
vt 0.196562 0.636338
vt 0.218235 0.648862
vt 0.239908 0.661387
vt 0.817427 0.289964
vt 0.795951 0.277554
vt 0.791742 0.279986
vt 0.813218 0.292396
vt 0.731521 0.240323
vt 0.710045 0.227912
vt 0.705836 0.230345
vt 0.727312 0.242755
vt 0.433881 0.295109
vt 0.433881 0.203639
vt 0.771538 0.490226
vt 0.570851 0.514725
vt 0.771538 0.398757
vt 0.427914 0.291661
vt 0.427914 0.200191
vt 0.227227 0.407629
vt 0.142095 0.474403
vt 0.242438 0.416419
vt 0.327571 0.258175
vt 0.327571 0.349645
vt 0.342781 0.358435
vt 0.342781 0.266965
vt 0.252313 0.393133
vt 0.267524 0.401923
vt 0.126884 0.374144
vt 0.142095 0.382934
vt 0.628601 0.208528
vt 0.603515 0.223024
vt 0.578429 0.237520
vt 0.553344 0.252016
vt 0.402828 0.338992
vt 0.377742 0.353488
vt 0.352657 0.367984
vt 0.101798 0.512945
vt 0.076712 0.527441
vt 0.051626 0.541937
vt 0.026540 0.556433
vt 0.976056 0.386288
vt 0.976056 0.373824
vt 0.950801 0.388417
vt 0.925547 0.403011
vt 0.900292 0.417604
vt 0.875038 0.432198
vt 0.774020 0.490571
vt 0.748766 0.505165
vt 0.723511 0.519758
vt 0.698257 0.534352
vt 0.673002 0.548945
vt 0.647748 0.563539
vt 0.622493 0.578132
vt 0.597239 0.592726
vt 0.571985 0.607319
vt 0.470967 0.665693
vt 0.445712 0.680287
vt 0.420458 0.694880
vt 0.395203 0.709474
vt 0.395203 0.721938
vt 0.420458 0.707345
vt 0.597239 0.605190
vt 0.622493 0.590597
vt 0.723511 0.532223
vt 0.748766 0.517629
vt 0.774020 0.503036
vt 0.931578 0.385314
vt 0.948442 0.395059
vt 0.939934 0.399975
vt 0.923070 0.390230
vt 0.176876 0.610470
vt 0.198352 0.622881
vt 0.219829 0.635291
vt 0.241305 0.647701
vt 0.262782 0.660112
vt 0.284258 0.672522
vt 0.305735 0.684932
vt 0.327211 0.697343
vt 0.348688 0.709753
vt 0.370164 0.722163
vt 0.370164 0.630694
vt 0.348688 0.618284
vt 0.327211 0.605873
vt 0.305735 0.593463
vt 0.284258 0.581052
vt 0.262782 0.568642
vt 0.241305 0.556232
vt 0.219829 0.543821
vt 0.198352 0.531411
vt 0.176876 0.519001
vt 0.155399 0.506590
vt 0.133923 0.494180
vt 0.112446 0.481770
vt 0.090970 0.469359
vt 0.069493 0.456949
vt 0.048017 0.444539
vt 0.026540 0.432128
vt 0.069493 0.548418
vt 0.090970 0.560829
vt 0.112446 0.573239
vt 0.133923 0.585649
vt 0.155399 0.598060
vt 0.911035 0.348716
vt 0.889362 0.336192
vt 0.889362 0.323727
vt 0.954382 0.373764
vt 0.932709 0.361240
vt 0.673860 0.253426
vt 0.673860 0.236390
vt 0.665352 0.241306
vt 0.665352 0.258343
vt 0.324905 0.747591
vt 0.324905 0.730554
vt 0.330577 0.727276
vt 0.330577 0.744313
vt 0.050323 0.571885
vt 0.050323 0.588921
vt 0.055995 0.585644
vt 0.055995 0.568607
vt 0.948442 0.412096
vt 0.939934 0.417012
vt 0.262782 0.692947
vt 0.284258 0.705357
vt 0.305735 0.717768
vt 0.327211 0.730178
vt 0.348688 0.742588
vt 0.370164 0.754999
vt 0.370164 0.734545
vt 0.348688 0.722134
vt 0.327211 0.709724
vt 0.305735 0.697314
vt 0.284258 0.684903
vt 0.262782 0.672493
vt 0.241305 0.660083
vt 0.219829 0.647672
vt 0.198352 0.635262
vt 0.176876 0.622851
vt 0.155399 0.610441
vt 0.133923 0.598031
vt 0.112446 0.585620
vt 0.090970 0.573210
vt 0.069493 0.560800
vt 0.048017 0.548389
vt 0.048017 0.568843
vt 0.069493 0.581254
vt 0.090970 0.593664
vt 0.112446 0.606074
vt 0.133923 0.618485
vt 0.155399 0.630895
vt 0.176876 0.643305
vt 0.219829 0.668126
vt 0.241305 0.680537
vt 0.650954 0.198426
vt 0.629281 0.173437
vt 0.715974 0.235998
vt 0.694301 0.223474
vt 0.672628 0.210950
vt 0.445422 0.678675
vt 0.420336 0.693171
vt 0.395250 0.707667
vt 0.690724 0.263171
vt 0.682216 0.268088
vt 0.308041 0.737846
vt 0.313713 0.734568
vt 0.690724 0.246135
vt 0.682216 0.251051
vt 0.308041 0.720809
vt 0.313713 0.717531
vt 0.088664 0.611077
vt 0.088664 0.594040
vt 0.094336 0.590762
vt 0.094336 0.607799
vt 0.628601 0.175692
vt 0.628601 0.084223
vt 0.650078 0.096633
vt 0.671554 0.109044
vt 0.693031 0.121454
vt 0.714507 0.133864
vt 0.886319 0.336998
vt 0.881857 0.339576
vt 0.881857 0.327195
vt 0.877648 0.329627
vt 0.877648 0.238158
vt 0.881857 0.235726
vt 0.420336 0.705553
vt 0.395250 0.720049
vt 0.907796 0.349408
vt 0.929272 0.361819
vt 0.950749 0.374229
vt 0.972225 0.386639
vt 0.972225 0.407093
vt 0.950749 0.394683
vt 0.929272 0.382273
vt 0.907796 0.369862
vt 0.693031 0.245759
vt 0.671554 0.233348
vt 0.650078 0.220938
vt 0.650078 0.200484
vt 0.671554 0.212894
vt 0.693031 0.225305
vt 0.757460 0.262536
vt 0.778937 0.274946
vt 0.843366 0.312177
vt 0.864843 0.324587
vt 0.595937 0.624534
vt 0.621023 0.610038
vt 0.646109 0.595542
vt 0.696281 0.566550
vt 0.721366 0.552054
vt 0.746452 0.537558
vt 0.896967 0.450581
vt 0.922053 0.436085
vt 0.947139 0.421589
vt 0.771538 0.502608
vt 0.746452 0.517104
vt 0.721366 0.531600
vt 0.621023 0.589584
vt 0.595937 0.604080
vt 0.395250 0.740503
vt 0.420336 0.726007
vt 0.445422 0.711511
vt 0.943979 0.425124
vt 0.925213 0.435968
vt 0.915838 0.430550
vt 0.934604 0.419707
vt 0.380903 0.370407
vt 0.380903 0.353371
vt 0.393403 0.360594
vt 0.393403 0.377631
vt 0.925213 0.453005
vt 0.915838 0.447587
vt 0.399668 0.359564
vt 0.412169 0.366787
vt 0.746452 0.504723
vt 0.746452 0.413253
vt 0.721366 0.427749
vt 0.696281 0.442245
vt 0.671195 0.456741
vt 0.646109 0.471237
vt 0.621023 0.485733
vt 0.595937 0.500229
vt 0.595937 0.591699
vt 0.621023 0.577203
vt 0.646109 0.562707
vt 0.671195 0.548211
vt 0.696281 0.533715
vt 0.721366 0.519219
vt 0.399668 0.342527
vt 0.412169 0.349750
vt 0.743292 0.558129
vt 0.743292 0.541093
vt 0.733917 0.535675
vt 0.733917 0.552712
vt 0.724527 0.568973
vt 0.715151 0.563556
vt 0.553344 0.219180
vt 0.553344 0.127711
vt 0.578429 0.113215
vt 0.603515 0.098719
vt 0.603515 0.190188
vt 0.578429 0.204684
vt 0.724527 0.551936
vt 0.715151 0.546519
vt 0.417176 0.746578
vt 0.417176 0.729541
vt 0.407801 0.724124
vt 0.407801 0.741161
vt 0.398410 0.757422
vt 0.389035 0.752004
vt 0.352657 0.335149
vt 0.352657 0.243679
vt 0.377742 0.229183
vt 0.402828 0.214687
vt 0.402828 0.306157
vt 0.377742 0.320653
vt 0.918893 0.456657
vt 0.918893 0.439620
vt 0.909518 0.434203
vt 0.909518 0.451239
vt 0.398410 0.740385
vt 0.389035 0.734968
vt 0.302485 0.364141
vt 0.317696 0.372931
vt 0.277399 0.378637
vt 0.292610 0.387427
vt 0.445422 0.587206
vt 0.420336 0.601702
vt 0.395250 0.616198
vt 0.275719 0.377746
vt 0.250464 0.392339
vt 0.093276 0.613742
vt 0.093276 0.596705
vt 0.110140 0.623487
vt 0.110140 0.606450
vt 0.669248 0.250761
vt 0.669248 0.233724
vt 0.652384 0.241016
vt 0.652384 0.223979
vt 0.067187 0.598666
vt 0.067187 0.581630
vt 0.071800 0.601332
vt 0.071800 0.584295
vt 0.286565 0.725435
vt 0.286565 0.708399
vt 0.303429 0.735180
vt 0.303429 0.718144
vt 0.329518 0.750256
vt 0.329518 0.733219
vt 0.346382 0.760001
vt 0.346382 0.742964
vt 0.931578 0.402351
vt 0.926966 0.399685
vt 0.926966 0.382648
vt 0.910102 0.389940
vt 0.910102 0.372904
vt 0.900128 0.467501
vt 0.900128 0.450464
vt 0.943979 0.442161
vt 0.600355 0.243595
vt 0.600355 0.226558
vt 0.581589 0.254439
vt 0.581589 0.237402
vt 0.575269 0.258091
vt 0.575269 0.241054
vt 0.556504 0.268935
vt 0.556504 0.251898
vt 0.374582 0.374060
vt 0.374582 0.357023
vt 0.355817 0.384904
vt 0.355817 0.367867
vt 0.699441 0.583469
vt 0.699441 0.566432
vt 0.718206 0.572625
vt 0.718206 0.555589
vt 0.098638 0.533516
vt 0.098638 0.516480
vt 0.079872 0.544360
vt 0.079872 0.527323
vt 0.073552 0.548012
vt 0.073552 0.530976
vt 0.054786 0.558856
vt 0.054786 0.541819
vt 0.423496 0.742926
vt 0.423496 0.725889
vt 0.442262 0.732082
vt 0.442262 0.715045
vt 0.599097 0.641454
vt 0.599097 0.624417
vt 0.617863 0.630610
vt 0.617863 0.613573
vt 0.624183 0.626957
vt 0.624183 0.609921
vt 0.642949 0.616114
vt 0.642949 0.599077
vt 0.890752 0.445046
vt 0.890752 0.462083
vt 0.934604 0.436743
vt 0.612855 0.233782
vt 0.612855 0.250819
vt 0.594090 0.261662
vt 0.594090 0.244626
vt 0.587770 0.248278
vt 0.587770 0.265315
vt 0.569004 0.276158
vt 0.569004 0.259122
vt 0.387083 0.364246
vt 0.387083 0.381283
vt 0.368317 0.392127
vt 0.368317 0.375090
vt 0.690066 0.561015
vt 0.690066 0.578052
vt 0.708831 0.567208
vt 0.708831 0.550171
vt 0.111138 0.523703
vt 0.111138 0.540740
vt 0.092373 0.551584
vt 0.092373 0.534547
vt 0.086052 0.538199
vt 0.086052 0.555236
vt 0.067287 0.566080
vt 0.067287 0.549043
vt 0.414121 0.720472
vt 0.414121 0.737508
vt 0.432887 0.726664
vt 0.432887 0.709628
vt 0.589722 0.618999
vt 0.589722 0.636036
vt 0.608488 0.625192
vt 0.608488 0.608155
vt 0.614808 0.604503
vt 0.614808 0.621540
vt 0.633574 0.610696
vt 0.633574 0.593659
vt 0.098948 0.593428
vt 0.098948 0.610465
vt 0.115812 0.620209
vt 0.115812 0.603173
vt 0.660740 0.238641
vt 0.660740 0.255677
vt 0.643876 0.245933
vt 0.643876 0.228896
vt 0.072859 0.595389
vt 0.072859 0.578352
vt 0.077472 0.581017
vt 0.077472 0.598054
vt 0.292237 0.705121
vt 0.292237 0.722158
vt 0.309101 0.731903
vt 0.309101 0.714866
vt 0.335190 0.729942
vt 0.335190 0.746978
vt 0.352054 0.756723
vt 0.352054 0.739687
vt 0.923070 0.407267
vt 0.918458 0.387565
vt 0.918458 0.404602
vt 0.901594 0.394857
vt 0.901594 0.377820
vt 0.136429 0.621790
vt 0.136429 0.638530
vt 0.141799 0.635427
vt 0.141799 0.618687
vt 0.238799 0.680945
vt 0.222335 0.671431
vt 0.227705 0.668328
vt 0.244169 0.677842
vt 0.860380 0.314785
vt 0.856171 0.317217
vt 0.838904 0.302374
vt 0.834695 0.304807
vt 0.860380 0.327166
vt 0.838904 0.314756
vt 0.770265 0.267576
vt 0.748789 0.255165
vt 0.705836 0.138875
vt 0.727312 0.151285
vt 0.748789 0.163696
vt 0.770265 0.176106
vt 0.791742 0.188516
vt 0.813218 0.200927
vt 0.834695 0.213337
vt 0.856171 0.225748
vt 0.223438 0.768701
vt 0.248524 0.754205
vt 0.273610 0.739709
vt 0.298696 0.725213
vt 0.399039 0.667229
vt 0.424125 0.652733
vt 0.449211 0.638237
vt 0.474297 0.623740
vt 0.499383 0.609244
vt 0.524469 0.594748
vt 0.549554 0.580252
vt 0.574640 0.565756
vt 0.599726 0.551260
vt 0.700070 0.493276
vt 0.725155 0.478780
vt 0.750241 0.464284
vt 0.775327 0.449788
vt 0.243812 0.683842
vt 0.243812 0.700582
vt 0.249181 0.697479
vt 0.249181 0.680739
vt 0.222335 0.688172
vt 0.227705 0.685069
vt 0.774474 0.265143
vt 0.752998 0.252733
vt 0.774474 0.277525
vt 0.752998 0.265114
vt 0.300973 0.363152
vt 0.238799 0.697686
vt 0.260276 0.710096
vt 0.260276 0.693355
vt 0.152893 0.648044
vt 0.152893 0.631304
vt 0.157906 0.650941
vt 0.157906 0.634200
vt 0.174370 0.660454
vt 0.174370 0.643714
vt 0.244169 0.694583
vt 0.265645 0.706993
vt 0.265645 0.690253
vt 0.158263 0.644941
vt 0.158263 0.628201
vt 0.163275 0.631097
vt 0.163275 0.647838
vt 0.179739 0.657352
vt 0.179739 0.640611
vt 0.710045 0.136443
vt 0.051626 0.417632
vt 0.076712 0.403136
vt 0.101798 0.388640
vt 0.947139 0.388754
vt 0.947139 0.297285
vt 0.922053 0.311781
vt 0.896967 0.326277
vt 0.896967 0.417746
vt 0.922053 0.403250
vt 0.427245 0.290185
vt 0.401991 0.304778
vt 0.376736 0.319372
vt 0.351482 0.333965
vt 0.225210 0.406933
vt 0.528263 0.231811
vt 0.553517 0.217218
vt 0.604026 0.188031
vt 0.578772 0.202624
vt 0.326227 0.348559
vt 0.100800 0.399529
vt 0.136675 0.378799
vt 0.145644 0.373616
vt 0.154613 0.368433
vt 0.163582 0.363251
vt 0.172550 0.358068
vt 0.181519 0.352885
vt 0.190488 0.347703
vt 0.199457 0.342520
vt 0.208425 0.337337
vt 0.244301 0.316607
vt 0.253269 0.311424
vt 0.262238 0.306241
vt 0.271207 0.301059
vt 0.073894 0.415077
vt 0.082863 0.409895
vt 0.091831 0.404712
s 0
usemtl Material.001
f 12/1/1 11/2/1 14/3/1 49/4/1 39/5/1 38/6/1 45/7/1 52/8/1 51/9/1 37/10/1 34/11/1 22/12/1 21/13/1 50/14/1 8/15/1 7/16/1 23/17/1 48/18/1 35/19/1 29/20/1 13/21/1 10/22/1 9/23/1 16/24/1 15/25/1 36/26/1 40/27/1 24/28/1 28/29/1 47/30/1 18/31/1 17/32/1 25/33/1 31/34/1 20/35/1 19/36/1 2/37/1 1/38/1 42/39/1 41/40/1 27/41/1 26/42/1 6/43/1 5/44/1 44/45/1 33/46/1 32/47/1 43/48/1 4/49/1 3/50/1 30/51/1 46/52/1
f 30/51/2 70/53/2 82/54/2 46/52/2
f 673/55/3 450/56/3 758/57/3 759/58/3 760/59/3 469/60/3 470/61/3 710/62/3 711/63/3 712/64/3 439/65/3 1082/66/3 1095/67/3 1180/68/3 1179/69/3 1110/70/3 1109/71/3 1108/72/3 1190/73/3 1189/74/3 1101/75/3 1100/76/3 1172/77/3 1171/78/3 1107/79/3 1106/80/3 1105/81/3 1166/82/3 1165/83/3 1094/84/3 436/85/3 644/86/3 645/87/3 646/88/3 463/89/3 464/90/3 671/91/3 672/92/3
f 3/50/2 53/93/2 70/53/2 30/51/2
f 33/46/2 72/94/2 71/95/2 32/47/2
f 46/52/2 82/54/2 60/96/2 12/1/2
f 57/97/4 64/98/4 63/99/4 75/100/4 36/26/4 15/25/4 16/24/4 9/23/4 10/22/4 13/21/4 29/20/4 69/101/4 61/102/4 58/103/4
f 36/26/4 75/100/4 79/104/4 40/27/4
f 4/49/2 54/105/2 53/93/2 3/50/2
f 32/47/2 71/95/2 80/106/2 43/48/2
f 43/48/2 80/106/2 54/105/2 4/49/2
f 12/1/2 60/96/2 59/107/2 11/2/2
f 40/27/4 79/104/4 68/108/4 24/28/4
f 156/109/5 158/110/5 145/111/5 115/112/5 172/113/5 130/114/5 102/115/5 112/116/5 137/117/5 133/118/5 165/119/5 157/120/5 90/121/5 140/122/5 136/123/5 100/124/5 114/125/5 117/126/5 93/127/5 138/128/5 152/129/5 154/130/5 123/131/5 91/132/5 147/133/5 108/134/5 104/135/5 129/136/5 171/137/5 107/138/5 99/139/5 125/140/5 121/141/5 109/142/5 149/143/5 160/144/5 118/145/5 105/146/5 96/147/5 126/148/5 92/149/5 135/150/5 106/151/5 168/152/5 143/153/5 169/154/5 98/155/5 122/156/5 134/157/5 162/158/5 164/159/5 110/160/5
f 103/161/6 144/162/6 170/163/6 111/164/6 89/165/6 128/166/6 124/167/6 113/168/6 166/169/6 88/170/6 141/171/6 153/172/6 155/173/6 167/174/6 142/175/6 132/176/6 151/177/6 150/178/6 161/179/6 163/180/6 95/181/6 97/182/6 148/183/6 119/184/6 127/185/6 116/186/6 120/187/6 159/188/6 146/189/6 94/190/6 131/191/6 139/192/6 101/193/6 108/134/6 147/133/6 91/132/6 123/131/6 154/130/6 152/129/6 138/128/6 93/127/6 117/126/6 114/125/6 100/124/6 136/123/6 140/122/6 90/121/6 157/120/6 165/119/6 133/118/6 137/117/6 112/116/6
f 190/194/1 189/195/1 199/196/1 253/197/1 239/198/1 238/199/1 248/200/1 257/201/1 256/202/1 237/203/1 230/204/1 209/205/1 208/206/1 254/207/1 184/208/1 183/209/1 212/210/1 252/211/1 233/212/1 222/213/1 195/214/1 186/215/1 185/216/1 201/217/1 200/218/1 236/219/1 240/220/1 214/221/1 221/222/1 250/223/1 203/224/1 202/225/1 215/226/1 224/227/1 205/228/1 204/229/1 174/230/1 173/231/1 242/232/1 241/233/1 219/234/1 218/235/1 182/236/1 181/237/1 245/238/1 228/239/1 227/240/1 243/241/1 176/242/1 175/243/1 223/244/1 249/245/1
f 247/246/7 228/239/7 245/238/7 181/237/7 182/236/7 218/235/7 219/234/7 241/233/7 242/232/7 173/231/7 174/230/7 204/229/7 205/228/7 224/227/7 215/226/7 202/225/7 203/224/7 250/223/7 221/222/7 214/221/7 213/247/7 246/248/7 235/249/7 229/250/7 188/251/7 187/252/7 210/253/7 198/254/7 197/255/7 192/256/7 191/257/7 196/258/7 220/259/7 194/260/7 193/261/7 180/262/7 179/263/7 207/264/7 206/265/7 178/266/7 177/267/7 211/268/7 231/269/7 255/270/7 234/271/7 226/272/7 225/273/7 232/274/7 251/275/7 217/276/7 216/277/7 244/278/7
f 340/279/2 314/280/2 273/281/2 282/282/2 385/283/2 401/284/2 399/285/2 377/286/2 378/287/2 404/288/2 389/289/2 382/290/2 383/291/2 283/292/2 294/293/2 298/294/2 259/295/2 281/296/2
f 170/163/2 144/162/2 103/161/2 112/116/2 228/239/2 247/246/2 244/278/2 216/277/2 217/276/2 251/275/2 232/274/2 225/273/2 226/272/2 113/168/2 124/167/2 128/166/2 89/165/2 111/164/2
f 292/297/8 268/298/8 339/299/8 313/300/8 338/301/8 276/302/8 305/303/8 262/304/8 296/305/8 266/306/8 275/307/8 288/308/8 330/309/8 319/310/8 279/311/8 380/312/8 390/313/8 405/314/8 374/315/8 349/316/8 350/317/8 407/318/8 370/319/8 371/320/8 387/321/8 394/322/8 409/323/8 410/324/8 402/325/8 395/326/8 396/327/8 406/328/8 365/329/8 355/330/8 280/331/8 334/332/8 332/333/8 304/334/8
f 289/335/9 318/336/9 267/337/9 265/338/9 333/339/9 331/340/9 320/341/9 321/342/9 302/343/9 312/344/9 337/345/9 325/346/9 323/347/9 311/348/9 258/349/9 336/350/9 283/292/9 383/291/9 391/351/9 408/352/9 388/353/9 373/354/9 345/355/9 346/356/9 368/357/9 369/358/9 347/359/9 348/360/9 359/361/9 360/362/9 379/363/9 362/364/9 357/365/9 358/366/9 363/367/9 364/368/9 286/369/9 297/370/9
f 109/142/4 121/141/4 125/140/4 99/139/4 107/138/4 171/137/4 129/136/4 104/135/4 108/134/4 214/221/4 240/220/4 236/219/4 200/218/4 201/217/4 185/216/4 186/215/4 195/214/4 222/213/4
f 279/311/4 291/371/4 295/372/4 269/373/4 277/374/4 341/375/4 299/376/4 274/377/4 278/378/4 376/379/4 397/380/4 393/381/4 366/382/4 367/383/4 351/384/4 352/385/4 361/386/4 380/312/4
f 326/387/5 328/388/5 315/389/5 285/390/5 342/391/5 300/392/5 272/393/5 282/282/5 307/394/5 303/395/5 335/396/5 327/397/5 260/398/5 310/399/5 306/400/5 270/401/5 284/402/5 287/403/5 263/404/5 308/405/5 322/406/5 324/407/5 293/408/5 261/409/5 317/410/5 278/378/5 274/377/5 299/376/5 341/375/5 277/374/5 269/373/5 295/372/5 291/371/5 279/311/5 319/310/5 330/309/5 288/308/5 275/307/5 266/306/5 296/305/5 262/304/5 305/303/5 276/302/5 338/301/5 313/300/5 339/299/5 268/298/5 292/297/5 304/334/5 332/333/5 334/332/5 280/331/5
f 273/281/6 314/280/6 340/279/6 281/296/6 259/295/6 298/294/6 294/293/6 283/292/6 336/350/6 258/349/6 311/348/6 323/347/6 325/346/6 337/345/6 312/344/6 302/343/6 321/342/6 320/341/6 331/340/6 333/339/6 265/338/6 267/337/6 318/336/6 289/335/6 297/370/6 286/369/6 290/411/6 329/412/6 316/413/6 264/414/6 301/415/6 309/416/6 271/417/6 278/378/6 317/410/6 261/409/6 293/408/6 324/407/6 322/406/6 308/405/6 263/404/6 287/403/6 284/402/6 270/401/6 306/400/6 310/399/6 260/398/6 327/397/6 335/396/6 303/395/6 307/394/6 282/282/6
f 285/390/2 315/389/2 328/388/2 326/387/2 280/331/2 355/330/2 356/418/2 403/419/2 381/420/2 343/421/2 344/422/2 398/423/2 384/424/2 385/283/2 282/282/2 272/393/2 300/392/2 342/391/2
f 592/425/2 414/426/2 423/427/2 530/428/2 625/429/2 624/430/2 623/431/2 541/432/2 1006/433/2 1005/434/2 1004/435/2 537/436/2 1048/437/2 1047/438/2 1046/439/2 539/440/2 583/441/2 582/442/2 581/443/2 529/444/2 422/445/2 412/446/2 560/447/2 561/448/2 562/449/2 428/450/2 1010/451/2 1011/452/2 1012/453/2 420/454/2 977/455/2 978/456/2 979/457/2 430/458/2 590/459/2 591/460/2
f 709/461/8 412/446/8 422/445/8 529/444/8 742/462/8 741/463/8 740/464/8 553/465/8 552/466/8 772/467/8 771/468/8 770/469/8 545/470/8 703/471/8 702/472/8 701/473/8 547/474/8 546/475/8 658/476/8 657/477/8 656/478/8 534/479/8 425/480/8 416/481/8 641/482/8 642/483/8 643/484/8 461/485/8 462/486/8 668/487/8 669/488/8 670/489/8 447/490/8 755/491/8 756/492/8 757/493/8 467/494/8 468/495/8 707/496/8 708/497/8
f 628/498/9 418/499/9 424/500/9 532/501/9 664/502/9 663/503/9 662/504/9 549/505/9 548/506/9 697/507/9 696/508/9 695/509/9 544/510/9 778/511/9 777/512/9 776/513/9 551/514/9 550/515/9 736/516/9 735/517/9 734/518/9 530/428/9 423/427/9 414/426/9 713/519/9 714/520/9 715/521/9 471/522/9 472/523/9 743/524/9 744/525/9 745/526/9 445/527/9 674/528/9 675/529/9 676/530/9 451/531/9 452/532/9 626/533/9 627/534/9
f 559/535/4 416/481/4 425/480/4 534/479/4 589/536/4 588/537/4 587/538/4 538/539/4 1042/540/4 1041/541/4 1040/542/4 536/543/4 1009/544/4 1008/545/4 1007/546/4 543/547/4 619/548/4 618/549/4 617/550/4 532/501/4 424/500/4 418/499/4 599/551/4 600/552/4 601/553/4 433/554/4 974/555/4 975/556/4 976/557/4 421/558/4 1016/559/4 1017/560/4 1018/561/4 427/562/4 557/563/4 558/564/4
f 271/417/4 309/416/4 301/415/4 264/414/4 316/413/4 329/412/4 290/411/4 286/369/4 364/368/4 372/565/4 353/566/4 354/567/4 386/568/4 392/569/4 400/570/4 375/571/4 376/379/4 278/378/4
f 613/572/4 491/573/4 431/574/4 593/575/4 594/576/4 595/577/4 417/578/4 485/579/4 611/580/4 612/581/4
f 575/582/10 492/583/10 1081/584/10 1153/585/10
f 449/586/11 683/587/11 1173/588/11 1099/589/11
f 574/590/12 573/591/12 1152/592/12 1141/593/12
f 751/594/11 449/586/11 1099/589/11 1098/595/11
f 573/591/12 572/596/12 1151/597/12 1152/592/12
f 572/596/12 488/598/12 1119/599/12 1151/597/12
f 476/600/11 477/601/11 1113/602/11 1112/603/11
f 636/604/11 637/605/11 1091/606/11 1164/607/11
f 724/608/11 476/600/11 1112/603/11 1111/609/11
f 730/610/13 729/611/13 1186/612/13 1140/613/13
f 635/614/11 636/604/11 1164/607/11 1163/615/11
f 729/611/13 728/616/13 1185/617/13 1186/612/13
f 458/618/11 635/614/11 1163/615/11 1104/619/11
f 613/572/12 612/581/12 1162/620/12 1146/621/12
f 728/616/13 502/622/13 1132/623/13 1185/617/13
f 612/581/12 611/580/12 1161/624/12 1162/620/12
f 1021/625/14 440/626/14 481/627/14 1027/628/14
f 466/629/4 499/630/4 517/631/4 516/632/4
f 985/633/14 437/634/14 480/635/14 988/636/14
f 512/637/9 513/638/9 514/639/9 479/640/9
f 516/632/9 517/631/9 518/641/9 515/642/9
f 498/643/2 459/644/2 479/640/2 514/639/2
f 499/630/14 500/645/14 518/641/14 517/631/14
f 454/646/2 495/647/2 521/648/2 520/649/2
f 1085/650/2 1086/651/2 1157/652/2 1158/653/2 1089/654/2 1090/655/2 1114/656/2 1143/657/2 1160/658/2 1159/659/2 1121/660/2 1145/661/2 1198/662/2 1197/663/2 1117/664/2 1139/665/2 1202/666/2 1201/667/2 1120/668/2 1144/669/2 1154/670/2 1153/585/2 1081/584/2 1082/66/2 1147/671/2 1148/672/2 1087/673/2 1088/674/2 1199/675/2 1200/676/2 1096/677/2 1097/678/2 1195/679/2 1196/680/2
f 991/681/14 503/682/14 508/683/14 1000/684/14
f 119/184/9 148/183/9 97/182/9 95/181/9 163/180/9 161/179/9 150/178/9 151/177/9 132/176/9 142/175/9 167/174/9 155/173/9 153/172/9 141/171/9 88/170/9 166/169/9 113/168/9 226/272/9 234/271/9 255/270/9 231/269/9 211/268/9 177/267/9 178/266/9 206/265/9 207/264/9 179/263/9 180/262/9 193/261/9 194/260/9 220/259/9 196/258/9 191/257/9 192/256/9 197/255/9 198/254/9 116/186/9 127/185/9
f 1030/685/14 504/686/14 509/687/14 1039/688/14
f 520/649/8 521/648/8 522/689/8 519/690/8
f 497/691/14 498/643/14 514/639/14 513/638/14
f 500/645/2 465/692/2 515/642/2 518/641/2
f 460/693/4 497/691/4 513/638/4 512/637/4
f 496/694/4 453/695/4 519/690/4 522/689/4
f 495/647/14 496/694/14 522/689/14 521/648/14
f 501/696/14 502/622/14 527/697/14 526/698/14
f 446/699/2 493/700/2 524/701/2 523/702/2
f 763/703/14 501/696/14 526/698/14 769/704/14
f 502/622/4 473/705/4 525/706/4 527/697/4
f 535/707/8 534/479/8 656/478/8 653/708/8 654/709/8 655/710/8 658/476/8 546/475/8 547/474/8 701/473/8 698/711/8 699/712/8 700/713/8 703/471/8 545/470/8 770/469/8 771/468/8 772/467/8 552/466/8 553/465/8 740/464/8 737/714/8 738/715/8 739/716/8 742/462/8 529/444/8 528/717/8 439/65/8 712/64/8 711/63/8 710/62/8 470/61/8 469/60/8 760/59/8 759/58/8 758/57/8 450/56/8 673/55/8 672/92/8 671/91/8 464/90/8 463/89/8 646/88/8 645/87/8 644/86/8 436/85/8
f 1091/606/9 1092/718/9 1115/719/9 1142/720/9 1170/721/9 1169/722/9 1128/723/9 1127/724/9 1135/725/9 1176/726/9 1175/727/9 1124/728/9 1137/729/9 1194/730/9 1193/731/9 1130/732/9 1129/733/9 1134/734/9 1184/735/9 1183/736/9 1114/656/9 1090/655/9 1181/737/9 1182/738/9 1111/609/9 1112/603/9 1113/602/9 1187/739/9 1188/740/9 1098/595/9 1099/589/9 1173/588/9 1174/741/9 1102/742/9 1103/743/9 1104/619/9 1163/615/9 1164/607/9
f 814/744/15 811/745/15 964/746/15 965/747/15
f 1033/748/2 487/749/2 992/750/2 993/751/2 994/752/2 490/753/2 608/754/2 609/755/2 610/756/2 484/757/2 413/758/2 596/759/2 597/760/2 598/761/2 432/762/2 971/763/2 972/764/2 973/765/2 419/766/2 1013/767/2 1014/768/2 1015/769/2 426/770/2 554/771/2 555/772/2 556/773/2 411/774/2 492/583/2 575/582/2 576/775/2 577/776/2 489/777/2 1031/778/2 1032/779/2
f 1083/780/4 1084/781/4 1122/782/4 1146/621/4 1162/620/4 1161/624/4 1115/719/4 1092/718/4 1155/783/4 1156/784/4
f 785/785/9 786/786/9 937/787/9 938/788/9
f 805/789/8 806/790/8 957/791/8 958/792/8
f 791/793/9 792/794/9 943/795/9 944/796/9
f 811/745/8 812/797/8 963/798/8 964/746/8
f 1003/799/2 1006/433/2 541/432/2 542/800/2 620/801/2 621/802/2 622/803/2 625/429/2 530/428/2 531/804/2 434/805/2 607/806/2 606/807/2 605/808/2 442/809/2 982/810/2 981/811/2 980/812/2 438/813/2 1024/814/2 1023/815/2 1022/816/2 441/817/2 568/818/2 567/819/2 566/820/2 439/65/2 528/717/2 529/444/2 581/443/2 578/821/2 579/822/2 580/823/2 540/824/2 539/440/2 1046/439/2 1043/825/2 1044/826/2 1045/827/2 1048/437/2 537/436/2 1004/435/2 1001/828/2 1002/829/2
f 1093/830/4 1094/84/4 1116/831/4 1141/593/4 1152/592/4 1151/597/4 1119/599/4 1118/832/4 1149/833/4 1150/834/4
f 727/835/16 726/836/16 1184/735/16 1134/734/16
f 611/580/12 485/579/12 1115/719/12 1161/624/12
f 726/836/16 725/837/16 1183/736/16 1184/735/16
f 610/756/10 609/755/10 1160/658/10 1143/657/10
f 784/838/14 785/785/14 938/788/14 935/839/14
f 804/840/14 805/789/14 958/792/14 955/841/14
f 786/786/15 783/842/15 936/843/15 937/787/15
f 806/790/15 803/844/15 956/845/15 957/791/15
f 797/846/8 798/847/8 949/848/8 950/849/8
f 574/590/4 486/850/4 415/851/4 563/852/4 564/853/4 565/854/4 429/855/4 488/598/4 572/596/4 573/591/4
f 725/837/16 484/757/16 1114/656/16 1183/736/16
f 443/856/17 483/857/17 505/858/17 511/859/17 510/860/17 482/861/17 431/574/17 491/573/17 1122/782/17 1084/781/17
f 609/755/10 608/754/10 1159/659/10 1160/658/10
f 723/862/11 724/608/11 1111/609/11 1182/738/11
f 722/863/11 723/862/11 1182/738/11 1181/737/11
f 608/754/10 490/753/10 1121/660/10 1159/659/10
f 443/856/4 604/864/4 603/865/4 602/866/4 435/867/4 533/868/4 532/501/4 617/550/4 614/869/4 615/870/4 616/871/4 619/548/4 543/547/4 1007/546/4 1008/545/4 1009/544/4 536/543/4 1040/542/4 1041/541/4 1042/540/4 538/539/4 587/538/4 584/872/4 585/873/4 586/874/4 589/536/4 534/479/4 535/707/4 436/85/4 571/875/4 570/876/4 569/877/4 440/626/4 1021/625/4 1020/878/4 1019/879/4 437/634/4 985/633/4 984/880/4 983/881/4
f 550/515/9 551/514/9 776/513/9 773/882/9 774/883/9 775/884/9 778/511/9 544/510/9 695/509/9 692/885/9 693/886/9 694/887/9 697/507/9 548/506/9 549/505/9 662/504/9 659/888/9 660/889/9 661/890/9 664/502/9 532/501/9 533/868/9 435/867/9 637/605/9 636/604/9 635/614/9 458/618/9 457/891/9 685/892/9 684/893/9 683/587/9 449/586/9 751/594/9 750/894/9 749/895/9 477/601/9 476/600/9 724/608/9 723/862/9 722/863/9 434/805/9 531/804/9 530/428/9 734/518/9 731/896/9 732/897/9 733/898/9 736/516/9
f 826/899/15 823/900/15 880/901/15 881/902/15
f 837/903/4 838/904/4 893/905/4 894/906/4
f 823/900/4 824/907/4 879/908/4 880/901/4
f 836/909/14 837/903/14 894/906/14 891/910/14
f 688/911/9 497/691/9 460/693/9 665/912/9 666/913/9 667/914/9 444/915/9 752/916/9 753/917/9 754/918/9 465/692/9 500/645/9 764/919/9 765/920/9 766/921/9 494/922/9 686/923/9 687/924/9
f 115/112/2 145/111/2 158/110/2 156/109/2 110/160/2 189/195/2 190/194/2 249/245/2 223/244/2 175/243/2 176/242/2 243/241/2 227/240/2 228/239/2 112/116/2 102/115/2 130/114/2 172/113/2
f 981/811/18 982/810/18 1085/650/18 1196/680/18
f 1024/814/18 438/813/18 1097/678/18 1096/677/18
f 434/805/11 722/863/11 1181/737/11 1090/655/11
f 980/812/18 981/811/18 1196/680/18 1195/679/18
f 438/813/18 980/812/18 1195/679/18 1097/678/18
f 571/875/19 436/85/19 1094/84/19 1093/830/19 1150/834/19 1149/833/19 1118/832/19 440/626/19 569/877/19 570/876/19
f 838/904/15 835/925/15 892/926/15 893/905/15
f 849/927/2 850/928/2 905/929/2 906/930/2
f 835/925/2 836/909/2 891/910/2 892/926/2
f 848/931/14 849/927/14 906/930/14 903/932/14
f 649/933/8 495/647/8 454/646/8 629/934/8 630/935/8 631/936/8 415/851/8 486/850/8 647/937/8 648/938/8
f 1023/815/18 1024/814/18 1096/677/18 1200/676/18
f 1022/816/18 1023/815/18 1200/676/18 1199/675/18
f 637/605/11 435/867/11 1092/718/11 1091/606/11
f 441/817/18 1022/816/18 1199/675/18 1088/674/18
f 850/928/15 847/939/15 904/940/15 905/929/15
f 861/941/2 862/942/2 917/943/2 918/944/2
f 847/939/4 848/931/4 903/932/4 904/940/4
f 860/945/14 861/941/14 918/944/14 915/946/14
f 691/947/8 493/700/8 446/699/8 677/948/8 678/949/8 679/950/8 453/695/8 496/694/8 689/951/8 690/952/8
f 122/156/8 98/155/8 169/154/8 143/153/8 168/152/8 106/151/8 135/150/8 92/149/8 126/148/8 96/147/8 105/146/8 118/145/8 160/144/8 149/143/8 109/142/8 222/213/8 233/212/8 252/211/8 212/210/8 183/209/8 184/208/8 254/207/8 208/206/8 209/205/8 230/204/8 237/203/8 256/202/8 257/201/8 248/200/8 238/199/8 239/198/8 253/197/8 199/196/8 189/195/8 110/160/8 164/159/8 162/158/8 134/157/8
f 607/806/18 434/805/18 1090/655/18 1089/654/18
f 766/921/16 765/920/16 1194/730/16 1137/729/16
f 765/920/16 764/919/16 1193/731/16 1194/730/16
f 821/953/2 822/954/2 877/955/2 878/956/2
f 862/942/15 859/957/15 916/958/15 917/943/15
f 493/700/14 761/959/14 767/960/14 524/701/14
f 761/959/14 762/961/14 768/962/14 767/960/14
f 762/961/14 763/703/14 769/704/14 768/962/14
f 727/835/9 499/630/9 466/629/9 704/963/9 705/964/9 706/965/9 413/758/9 484/757/9 725/837/9 726/836/9
f 568/818/18 441/817/18 1088/674/18 1087/673/18
f 764/919/16 500/645/16 1130/732/16 1193/731/16
f 982/810/18 442/809/18 1086/651/18 1085/650/18
f 763/703/13 762/961/13 1192/966/13 1133/967/13
f 580/823/2 583/441/2 780/968/2 779/969/2
f 583/441/2 539/440/2 781/970/2 780/968/2
f 539/440/2 540/824/2 782/971/2 781/970/2
f 540/824/2 580/823/2 779/969/2 782/971/2
f 584/872/4 587/538/4 784/838/4 783/842/4
f 587/538/4 588/537/4 785/785/4 784/838/4
f 588/537/4 585/873/4 786/786/4 785/785/4
f 585/873/4 584/872/4 783/842/4 786/786/4
f 585/873/4 588/537/4 788/972/4 787/973/4
f 588/537/4 589/536/4 789/974/4 788/972/4
f 589/536/4 586/874/4 790/975/4 789/974/4
f 586/874/4 585/873/4 787/973/4 790/975/4
f 578/821/2 581/443/2 792/794/2 791/793/2
f 581/443/2 582/442/2 793/976/2 792/794/2
f 582/442/2 579/822/2 794/977/2 793/976/2
f 579/822/2 578/821/2 791/793/2 794/977/2
f 579/822/2 582/442/2 796/978/2 795/979/2
f 582/442/2 583/441/2 797/846/2 796/978/2
f 583/441/2 580/823/2 798/847/2 797/846/2
f 580/823/2 579/822/2 795/979/2 798/847/2
f 542/800/2 541/432/2 800/980/2 799/981/2
f 541/432/2 623/431/2 801/982/2 800/980/2
f 623/431/2 620/801/2 802/983/2 801/982/2
f 620/801/2 542/800/2 799/981/2 802/983/2
f 620/801/2 623/431/2 804/840/2 803/844/2
f 623/431/2 624/430/2 805/789/2 804/840/2
f 624/430/2 621/802/2 806/790/2 805/789/2
f 621/802/2 620/801/2 803/844/2 806/790/2
f 621/802/2 624/430/2 808/984/2 807/985/2
f 624/430/2 625/429/2 809/986/2 808/984/2
f 625/429/2 622/803/2 810/987/2 809/986/2
f 622/803/2 621/802/2 807/985/2 810/987/2
f 614/869/4 617/550/4 812/797/4 811/745/4
f 617/550/4 618/549/4 813/988/4 812/797/4
f 618/549/4 615/870/4 814/744/4 813/988/4
f 615/870/4 614/869/4 811/745/4 814/744/4
f 615/870/4 618/549/4 816/989/4 815/990/4
f 618/549/4 619/548/4 817/991/4 816/989/4
f 619/548/4 616/871/4 818/992/4 817/991/4
f 616/871/4 615/870/4 815/990/4 818/992/4
f 659/888/9 662/504/9 820/993/9 819/994/9
f 662/504/9 663/503/9 821/953/9 820/993/9
f 663/503/9 660/889/9 822/954/9 821/953/9
f 660/889/9 659/888/9 819/994/9 822/954/9
f 660/889/9 663/503/9 824/907/9 823/900/9
f 663/503/9 664/502/9 825/995/9 824/907/9
f 664/502/9 661/890/9 826/899/9 825/995/9
f 661/890/9 660/889/9 823/900/9 826/899/9
f 653/708/8 656/478/8 828/996/8 827/997/8
f 656/478/8 657/477/8 829/998/8 828/996/8
f 657/477/8 654/709/8 830/999/8 829/998/8
f 654/709/8 653/708/8 827/997/8 830/999/8
f 654/709/8 657/477/8 832/1000/8 831/1001/8
f 657/477/8 658/476/8 833/1002/8 832/1000/8
f 658/476/8 655/710/8 834/1003/8 833/1002/8
f 655/710/8 654/709/8 831/1001/8 834/1003/8
f 698/711/8 701/473/8 836/909/8 835/925/8
f 701/473/8 702/472/8 837/903/8 836/909/8
f 702/472/8 699/712/8 838/904/8 837/903/8
f 699/712/8 698/711/8 835/925/8 838/904/8
f 699/712/8 702/472/8 840/1004/8 839/1005/8
f 702/472/8 703/471/8 841/1006/8 840/1004/8
f 703/471/8 700/713/8 842/1007/8 841/1006/8
f 700/713/8 699/712/8 839/1005/8 842/1007/8
f 692/885/9 695/509/9 844/1008/9 843/1009/9
f 695/509/9 696/508/9 845/1010/9 844/1008/9
f 696/508/9 693/886/9 846/1011/9 845/1010/9
f 693/886/9 692/885/9 843/1009/9 846/1011/9
f 693/886/9 696/508/9 848/931/9 847/939/9
f 696/508/9 697/507/9 849/927/9 848/931/9
f 697/507/9 694/887/9 850/928/9 849/927/9
f 694/887/9 693/886/9 847/939/9 850/928/9
f 737/714/8 740/464/8 852/1012/8 851/1013/8
f 740/464/8 741/463/8 853/1014/8 852/1012/8
f 741/463/8 738/715/8 854/1015/8 853/1014/8
f 738/715/8 737/714/8 851/1013/8 854/1015/8
f 738/715/8 741/463/8 856/1016/8 855/1017/8
f 741/463/8 742/462/8 857/1018/8 856/1016/8
f 742/462/8 739/716/8 858/1019/8 857/1018/8
f 739/716/8 738/715/8 855/1017/8 858/1019/8
f 731/896/9 734/518/9 860/945/9 859/957/9
f 734/518/9 735/517/9 861/941/9 860/945/9
f 735/517/9 732/897/9 862/942/9 861/941/9
f 732/897/9 731/896/9 859/957/9 862/942/9
f 732/897/9 735/517/9 864/1020/9 863/1021/9
f 735/517/9 736/516/9 865/1022/9 864/1020/9
f 736/516/9 733/898/9 866/1023/9 865/1022/9
f 733/898/9 732/897/9 863/1021/9 866/1023/9
f 773/882/9 776/513/9 868/1024/9 867/1025/9
f 776/513/9 777/512/9 869/1026/9 868/1024/9
f 777/512/9 774/883/9 870/1027/9 869/1026/9
f 774/883/9 773/882/9 867/1025/9 870/1027/9
f 774/883/9 777/512/9 872/1028/9 871/1029/9
f 777/512/9 778/511/9 873/1030/9 872/1028/9
f 778/511/9 775/884/9 874/1031/9 873/1030/9
f 775/884/9 774/883/9 871/1029/9 874/1031/9
f 876/1032/9 875/1033/9 878/956/9 877/955/9
f 880/901/9 879/908/9 882/1034/9 881/902/9
f 884/1035/8 883/1036/8 886/1037/8 885/1038/8
f 888/1039/8 887/1040/8 890/1041/8 889/1042/8
f 892/926/8 891/910/8 894/906/8 893/905/8
f 896/1043/8 895/1044/8 898/1045/8 897/1046/8
f 900/1047/9 899/1048/9 902/1049/9 901/1050/9
f 904/940/9 903/932/9 906/930/9 905/929/9
f 908/1051/8 907/1052/8 910/1053/8 909/1054/8
f 912/1055/8 911/1056/8 914/1057/8 913/1058/8
f 916/958/9 915/946/9 918/944/9 917/943/9
f 920/1059/9 919/1060/9 922/1061/9 921/1062/9
f 924/1063/9 923/1064/9 926/1065/9 925/1066/9
f 928/1067/9 927/1068/9 930/1069/9 929/1070/9
f 863/1021/4 864/1020/4 919/1060/4 920/1059/4
f 824/907/14 825/995/14 882/1034/14 879/908/14
f 866/1023/15 863/1021/15 920/1059/15 921/1062/15
f 825/995/2 826/899/2 881/902/2 882/1034/2
f 864/1020/14 865/1022/14 922/1061/14 919/1060/14
f 851/1013/2 852/1012/2 907/1052/2 908/1051/2
f 865/1022/2 866/1023/2 921/1062/2 922/1061/2
f 854/1015/15 851/1013/15 908/1051/15 909/1054/15
f 852/1012/14 853/1014/14 910/1053/14 907/1052/14
f 839/1005/2 840/1004/2 895/1044/2 896/1043/2
f 853/1014/4 854/1015/4 909/1054/4 910/1053/4
f 842/1007/15 839/1005/15 896/1043/15 897/1046/15
f 840/1004/14 841/1006/14 898/1045/14 895/1044/14
f 827/997/2 828/996/2 883/1036/2 884/1035/2
f 841/1006/4 842/1007/4 897/1046/4 898/1045/4
f 830/999/15 827/997/15 884/1035/15 885/1038/15
f 873/1030/2 874/1031/2 929/1070/2 930/1069/2
f 867/1025/4 868/1024/4 923/1064/4 924/1063/4
f 828/996/14 829/998/14 886/1037/14 883/1036/14
f 870/1027/15 867/1025/15 924/1063/15 925/1066/15
f 829/998/4 830/999/4 885/1038/4 886/1037/4
f 868/1024/14 869/1026/14 926/1065/14 923/1064/14
f 855/1017/2 856/1016/2 911/1056/2 912/1055/2
f 869/1026/2 870/1027/2 925/1066/2 926/1065/2
f 858/1019/15 855/1017/15 912/1055/15 913/1058/15
f 856/1016/14 857/1018/14 914/1057/14 911/1056/14
f 843/1009/4 844/1008/4 899/1048/4 900/1047/4
f 857/1018/4 858/1019/4 913/1058/4 914/1057/4
f 846/1011/15 843/1009/15 900/1047/15 901/1050/15
f 844/1008/14 845/1010/14 902/1049/14 899/1048/14
f 831/1001/2 832/1000/2 887/1040/2 888/1039/2
f 845/1010/2 846/1011/2 901/1050/2 902/1049/2
f 834/1003/15 831/1001/15 888/1039/15 889/1042/15
f 871/1029/4 872/1028/4 927/1068/4 928/1067/4
f 832/1000/14 833/1002/14 890/1041/14 887/1040/14
f 819/994/4 820/993/4 875/1033/4 876/1032/4
f 874/1031/15 871/1029/15 928/1067/15 929/1070/15
f 833/1002/4 834/1003/4 889/1042/4 890/1041/4
f 822/954/15 819/994/15 876/1032/15 877/955/15
f 872/1028/14 873/1030/14 930/1069/14 927/1068/14
f 859/957/4 860/945/4 915/946/4 916/958/4
f 820/993/14 821/953/14 878/956/14 875/1033/14
f 932/1071/2 931/1072/2 934/1073/2 933/1074/2
f 936/843/4 935/839/4 938/788/4 937/787/4
f 940/1075/4 939/1076/4 942/1077/4 941/1078/4
f 944/796/2 943/795/2 946/1079/2 945/1080/2
f 948/1081/2 947/1082/2 950/849/2 949/848/2
f 952/1083/2 951/1084/2 954/1085/2 953/1086/2
f 956/845/2 955/841/2 958/792/2 957/791/2
f 960/1087/2 959/1088/2 962/1089/2 961/1090/2
f 964/746/4 963/798/4 966/1091/4 965/747/4
f 968/1092/4 967/1093/4 970/1094/4 969/1095/4
f 794/977/15 791/793/15 944/796/15 945/1080/15
f 812/797/14 813/988/14 966/1091/14 963/798/14
f 792/794/14 793/976/14 946/1079/14 943/795/14
f 799/981/9 800/980/9 951/1084/9 952/1083/9
f 813/988/9 814/744/9 965/747/9 966/1091/9
f 779/969/9 780/968/9 931/1072/9 932/1071/9
f 793/976/8 794/977/8 945/1080/8 946/1079/8
f 802/983/15 799/981/15 952/1083/15 953/1086/15
f 782/971/15 779/969/15 932/1071/15 933/1074/15
f 800/980/14 801/982/14 954/1085/14 951/1084/14
f 780/968/14 781/970/14 934/1073/14 931/1072/14
f 807/985/9 808/984/9 959/1088/9 960/1087/9
f 787/973/8 788/972/8 939/1076/8 940/1075/8
f 801/982/8 802/983/8 953/1086/8 954/1085/8
f 781/970/8 782/971/8 933/1074/8 934/1073/8
f 810/987/15 807/985/15 960/1087/15 961/1090/15
f 790/975/15 787/973/15 940/1075/15 941/1078/15
f 808/984/14 809/986/14 962/1089/14 959/1088/14
f 788/972/14 789/974/14 942/1077/14 939/1076/14
f 815/990/8 816/989/8 967/1093/8 968/1092/8
f 795/979/9 796/978/9 947/1082/9 948/1081/9
f 809/986/8 810/987/8 961/1090/8 962/1089/8
f 789/974/9 790/975/9 941/1078/9 942/1077/9
f 818/992/15 815/990/15 968/1092/15 969/1095/15
f 798/847/15 795/979/15 948/1081/15 949/848/15
f 816/989/14 817/991/14 970/1094/14 967/1093/14
f 796/978/14 797/846/14 950/849/14 947/1082/14
f 803/844/9 804/840/9 955/841/9 956/845/9
f 817/991/9 818/992/9 969/1095/9 970/1094/9
f 783/842/8 784/838/8 935/839/8 936/843/8
f 1057/1096/9 1058/1097/9 1073/1098/9 1074/1099/9
f 1052/1100/15 1049/1101/15 1066/1102/15 1067/1103/15
f 505/858/14 989/1104/14 998/1105/14 511/859/14
f 989/1104/14 990/1106/14 999/1107/14 998/1105/14
f 990/1106/14 991/681/14 1000/684/14 999/1107/14
f 443/856/14 983/881/14 986/1108/14 483/857/14
f 983/881/14 984/880/14 987/1109/14 986/1108/14
f 984/880/14 985/633/14 988/636/14 987/1109/14
f 1000/684/4 508/683/4 1037/1110/4 1038/1111/4 1039/688/4 509/687/4 506/1112/4 1034/1113/4 1035/1114/4 1036/1115/4 507/1116/4 995/1117/4 996/1118/4 997/1119/4 510/860/4 511/859/4 998/1105/4 999/1107/4
f 994/752/10 993/751/10 1198/662/10 1145/661/10
f 457/891/11 458/618/11 1104/619/11 1103/743/11
f 491/573/12 613/572/12 1146/621/12 1122/782/12
f 977/455/7 420/454/7 719/1120/7 720/1121/7 721/1122/7 474/1123/7 475/1124/7 746/1125/7 747/1126/7 748/1127/7 448/1128/7 680/1129/7 681/1130/7 682/1131/7 455/1132/7 456/1133/7 632/1134/7 633/1135/7 634/1136/7 421/558/7 976/557/7 975/556/7 974/555/7 433/554/7 601/553/7 600/552/7 599/551/7 418/499/7 628/498/7 627/534/7 626/533/7 452/532/7 451/531/7 676/530/7 675/529/7 674/528/7 445/527/7 745/526/7 744/525/7 743/524/7 472/523/7 471/522/7 715/521/7 714/520/7 713/519/7 414/426/7 592/425/7 591/460/7 590/459/7 430/458/7 979/457/7 978/456/7
f 1053/1137/9 1054/1138/9 1069/1139/9 1070/1140/9
f 1049/1101/9 1050/1141/9 1065/1142/9 1066/1102/9
f 503/682/14 1028/1143/14 1037/1110/14 508/683/14
f 1028/1143/14 1029/1144/14 1038/1111/14 1037/1110/14
f 1029/1144/14 1030/685/14 1039/688/14 1038/1111/14
f 437/634/14 1019/879/14 1025/1145/14 480/635/14
f 1019/879/14 1020/878/14 1026/1146/14 1025/1145/14
f 1020/878/14 1021/625/14 1027/628/14 1026/1146/14
f 762/961/13 761/959/13 1191/1147/13 1192/966/13
f 993/751/10 992/750/10 1197/663/10 1198/662/10
f 685/892/11 457/891/11 1103/743/11 1102/742/11
f 1001/828/2 1004/435/2 1050/1141/2 1049/1101/2
f 1004/435/2 1005/434/2 1051/1148/2 1050/1141/2
f 1005/434/2 1002/829/2 1052/1100/2 1051/1148/2
f 1002/829/2 1001/828/2 1049/1101/2 1052/1100/2
f 1002/829/2 1005/434/2 1054/1138/2 1053/1137/2
f 1005/434/2 1006/433/2 1055/1149/2 1054/1138/2
f 1006/433/2 1003/799/2 1056/1150/2 1055/1149/2
f 1003/799/2 1002/829/2 1053/1137/2 1056/1150/2
f 1043/825/2 1046/439/2 1058/1097/2 1057/1096/2
f 1046/439/2 1047/438/2 1059/1151/2 1058/1097/2
f 1047/438/2 1044/826/2 1060/1152/2 1059/1151/2
f 1044/826/2 1043/825/2 1057/1096/2 1060/1152/2
f 1044/826/2 1047/438/2 1062/1153/2 1061/1154/2
f 1047/438/2 1048/437/2 1063/1155/2 1062/1153/2
f 1048/437/2 1045/827/2 1064/1156/2 1063/1155/2
f 1045/827/2 1044/826/2 1061/1154/2 1064/1156/2
f 1066/1102/2 1065/1142/2 1068/1157/2 1067/1103/2
f 1070/1140/2 1069/1139/2 1072/1158/2 1071/1159/2
f 1074/1099/2 1073/1098/2 1076/1160/2 1075/1161/2
f 1078/1162/2 1077/1163/2 1080/1164/2 1079/1165/2
f 1056/1150/15 1053/1137/15 1070/1140/15 1071/1159/15
f 1061/1154/9 1062/1153/9 1077/1163/9 1078/1162/9
f 1050/1141/14 1051/1148/14 1068/1157/14 1065/1142/14
f 1060/1152/15 1057/1096/15 1074/1099/15 1075/1161/15
f 1054/1138/14 1055/1149/14 1072/1158/14 1069/1139/14
f 1064/1156/15 1061/1154/15 1078/1162/15 1079/1165/15
f 1051/1148/8 1052/1100/8 1067/1103/8 1068/1157/8
f 1058/1097/14 1059/1151/14 1076/1160/14 1073/1098/14
f 1055/1149/8 1056/1150/8 1071/1159/8 1072/1158/8
f 1062/1153/14 1063/1155/14 1080/1164/14 1077/1163/14
f 1059/1151/8 1060/1152/8 1075/1161/8 1076/1160/8
f 1063/1155/8 1064/1156/8 1079/1165/8 1080/1164/8
f 488/598/20 429/855/20 478/1166/20 506/1112/20 509/687/20 504/686/20 481/627/20 440/626/20 1118/832/20 1119/599/20
f 1027/628/4 481/627/4 504/686/4 1030/685/4 1029/1144/4 1028/1143/4 503/682/4 991/681/4 990/1106/4 989/1104/4 505/858/4 483/857/4 986/1108/4 987/1109/4 988/636/4 480/635/4 1025/1145/4 1026/1146/4
f 730/610/8 492/583/8 411/774/8 716/1167/8 717/1168/8 718/1169/8 473/705/8 502/622/8 728/616/8 729/611/8
f 652/1170/9 485/579/9 417/578/9 638/1171/9 639/1172/9 640/1173/9 459/644/9 498/643/9 650/1174/9 651/1175/9
f 683/587/11 684/893/11 1174/741/11 1173/588/11
f 576/775/10 575/582/10 1153/585/10 1154/670/10
f 684/893/11 685/892/11 1102/742/11 1174/741/11
f 577/776/10 576/775/10 1154/670/10 1144/669/10
f 686/923/16 494/922/16 1124/728/16 1175/727/16
f 477/601/11 749/895/11 1187/739/11 1113/602/11
f 687/924/16 686/923/16 1175/727/16 1176/726/16
f 749/895/11 750/894/11 1188/740/11 1187/739/11
f 688/911/16 687/924/16 1176/726/16 1135/725/16
f 750/894/11 751/594/11 1098/595/11 1188/740/11
f 442/809/18 605/808/18 1157/652/18 1086/651/18
f 689/951/13 496/694/13 1126/1176/13 1177/1177/13
f 605/808/18 606/807/18 1158/653/18 1157/652/18
f 690/952/13 689/951/13 1177/1177/13 1178/1178/13
f 606/807/18 607/806/18 1089/654/18 1158/653/18
f 691/947/13 690/952/13 1178/1178/13 1138/1179/13
f 502/622/13 501/696/13 1131/1180/13 1132/623/13
f 501/696/13 763/703/13 1133/967/13 1131/1180/13
f 500/645/16 499/630/16 1129/733/16 1130/732/16
f 499/630/16 727/835/16 1134/734/16 1129/733/16
f 439/65/18 566/820/18 1147/671/18 1082/66/18
f 498/643/16 497/691/16 1127/724/16 1128/723/16
f 566/820/18 567/819/18 1148/672/18 1147/671/18
f 497/691/16 688/911/16 1135/725/16 1127/724/16
f 567/819/18 568/818/18 1087/673/18 1148/672/18
f 496/694/13 495/647/13 1125/1181/13 1126/1176/13
f 604/864/19 443/856/19 1084/781/19 1083/780/19 1156/784/19 1155/783/19 1092/718/19 435/867/19 602/866/19 603/865/19
f 495/647/13 649/933/13 1136/1182/13 1125/1181/13
f 647/937/13 486/850/13 1116/831/13 1167/1183/13
f 494/922/16 766/921/16 1137/729/16 1124/728/16
f 648/938/13 647/937/13 1167/1183/13 1168/1184/13
f 493/700/13 691/947/13 1138/1179/13 1123/1185/13
f 649/933/13 648/938/13 1168/1184/13 1136/1182/13
f 487/749/10 1033/748/10 1139/665/10 1117/664/10
f 650/1174/16 498/643/16 1128/723/16 1169/722/16
f 651/1175/16 650/1174/16 1169/722/16 1170/721/16
f 492/583/13 730/610/13 1140/613/13 1081/584/13
f 1031/778/10 489/777/10 1120/668/10 1201/667/10
f 652/1170/16 651/1175/16 1170/721/16 1142/720/16
f 486/850/12 574/590/12 1141/593/12 1116/831/12
f 1032/779/10 1031/778/10 1201/667/10 1202/666/10
f 485/579/16 652/1170/16 1142/720/16 1115/719/16
f 1033/748/10 1032/779/10 1202/666/10 1139/665/10
f 484/757/10 610/756/10 1143/657/10 1114/656/10
f 489/777/10 577/776/10 1144/669/10 1120/668/10
f 992/750/10 487/749/10 1117/664/10 1197/663/10
f 761/959/13 493/700/13 1123/1185/13 1191/1147/13
f 490/753/10 994/752/10 1145/661/10 1121/660/10
f 560/447/1 412/446/1 709/461/1 708/497/1 707/496/1 468/495/1 467/494/1 757/493/1 756/492/1 755/491/1 447/490/1 670/489/1 669/488/1 668/487/1 462/486/1 461/485/1 643/484/1 642/483/1 641/482/1 416/481/1 559/535/1 558/564/1 557/563/1 427/562/1 1018/561/1 1017/560/1 1016/559/1 421/558/1 634/1136/1 633/1135/1 632/1134/1 456/1133/1 455/1132/1 682/1131/1 681/1130/1 680/1129/1 448/1128/1 748/1127/1 747/1126/1 746/1125/1 475/1124/1 474/1123/1 721/1122/1 720/1121/1 719/1120/1 420/454/1 1012/453/1 1011/452/1 1010/451/1 428/450/1 562/449/1 561/448/1
f 101/193/4 139/192/4 131/191/4 94/190/4 146/189/4 159/188/4 120/187/4 116/186/4 198/254/4 210/253/4 187/252/4 188/251/4 229/250/4 235/249/4 246/248/4 213/247/4 214/221/4 108/134/4
f 1095/67/8 1082/66/8 1081/584/8 1140/613/8 1186/612/8 1185/617/8 1132/623/8 1131/1180/8 1133/967/8 1192/966/8 1191/1147/8 1123/1185/8 1138/1179/8 1178/1178/8 1177/1177/8 1126/1176/8 1125/1181/8 1136/1182/8 1168/1184/8 1167/1183/8 1116/831/8 1094/84/8 1165/83/8 1166/82/8 1105/81/8 1106/80/8 1107/79/8 1171/78/8 1172/77/8 1100/76/8 1101/75/8 1189/74/8 1190/73/8 1108/72/8 1109/71/8 1110/70/8 1179/69/8 1180/68/8
f 77/1186/21 81/1187/21 87/1188/21 86/1189/21 76/1190/21 73/1191/21 66/1192/21 65/1193/21 85/1194/21 56/1195/21 55/1196/21 67/1197/21 83/1198/21 74/1199/21 69/101/21 29/20/21 35/19/21 48/18/21 23/17/21 7/16/21 8/15/21 50/14/21 21/13/21 22/12/21 34/11/21 37/10/21 51/9/21 52/8/21 45/7/21 38/6/21 39/5/21 49/4/21 14/3/21 11/2/21 59/107/21 62/1200/21 84/1201/21 78/1202/21
