# Blender 4.2.3 LTS
# www.blender.org
o warehouse_1.001
v -1.609257 0.409366 2.455601
v -1.609257 0.520016 2.455601
v -1.609257 0.409366 1.386109
v -1.609257 0.861714 1.386109
v 1.222555 0.409366 2.455601
v 1.222555 0.520016 2.455601
v 1.222555 0.409366 1.386109
v 1.222555 0.861714 1.386109
v -1.609257 0.588531 2.455601
v -1.609257 0.930229 1.386109
v 1.222555 0.930229 1.386109
v 1.222555 0.504833 2.505939
v -1.609257 0.504833 2.505939
v 1.222555 0.573348 2.505939
v -1.609257 0.573348 2.505939
v -1.642564 0.520016 2.455601
v -1.642564 0.861714 1.386109
v 1.255862 0.861714 1.386109
v 1.255862 0.520016 2.455601
v -1.642564 0.588531 2.455601
v -1.642564 0.930229 1.386109
v 1.255862 0.930229 1.386109
v 1.255862 0.588531 2.455601
v 1.255862 0.573348 2.505939
v 1.255862 0.504833 2.505939
v -1.642564 0.504833 2.505939
v -1.642564 0.573348 2.505939
v -1.253095 0.409366 2.455601
v -1.253095 0.520016 2.455601
v -1.253095 0.930229 1.386109
v -1.253095 0.504833 2.505939
v -1.253095 0.573348 2.505939
v -0.634183 0.409366 2.455601
v -0.634183 0.930229 1.386109
v -0.634183 0.520016 2.455601
v -0.634183 0.504833 2.505939
v -0.634183 0.573348 2.505939
v -1.609257 -0.005059 1.386109
v -1.609257 -0.005059 2.455601
v 1.222555 -0.005059 2.455601
v 1.222555 -0.005059 1.386109
v -0.634183 -0.005059 2.455601
v -1.253095 -0.005059 2.455601
v -1.253095 0.409366 2.412755
v -0.634183 0.409366 2.412755
v -1.253095 -0.005059 2.412755
v -0.634183 -0.005059 2.412755
v 1.222555 0.183485 1.386109
v -1.253095 0.183485 2.455601
v -0.634183 0.183485 2.455601
v -1.609257 0.183485 2.455601
v 1.222555 0.183485 2.455601
v -1.609257 0.183485 1.386109
v -1.253095 0.183485 2.412755
v -0.634183 0.183485 2.412755
v -0.486413 0.409366 2.455601
v 0.033987 0.409366 2.455601
v 0.554386 0.409366 2.455601
v 1.074786 0.409366 2.455601
v -0.486413 0.930229 1.386109
v 0.033987 0.930229 1.386109
v 0.554386 0.930229 1.386109
v 1.074786 0.930229 1.386109
v 1.074786 0.520016 2.455601
v 0.554386 0.520016 2.455601
v 0.033987 0.520016 2.455601
v -0.486413 0.520016 2.455601
v 1.074786 0.504833 2.505939
v 0.554386 0.504833 2.505939
v 0.033987 0.504833 2.505939
v -0.486413 0.504833 2.505939
v 1.074786 0.573348 2.505939
v 0.554386 0.573348 2.505939
v 0.033987 0.573348 2.505939
v -0.486413 0.573348 2.505939
v -0.486413 -0.005059 2.455601
v 0.033987 -0.005059 2.455601
v 0.554386 -0.005059 2.455601
v 1.074786 -0.005059 2.455601
v -0.486413 0.183485 2.455601
v 0.033987 0.183485 2.455601
v 0.554386 0.183485 2.455601
v 1.074786 0.183485 2.455601
v -1.609257 0.599972 2.205344
v 1.222555 0.409366 2.205344
v 1.222555 0.599972 2.205344
v -1.609257 0.668487 2.205344
v -1.642564 0.599972 2.205344
v 1.255862 0.599972 2.205344
v -1.642564 0.668487 2.205344
v 1.255862 0.668487 2.205344
v -1.609257 -0.005059 2.205344
v 1.222555 -0.005059 2.205344
v 1.222555 0.183485 2.205344
v -1.609257 0.781483 1.637226
v 1.222555 0.409366 1.637226
v -1.609257 0.849998 1.637226
v -1.642564 0.781483 1.637226
v -1.642564 0.849998 1.637226
v 1.222555 -0.005059 1.637226
v 1.222555 0.183485 1.637226
v 1.222555 0.781483 1.637226
v 1.255862 0.781483 1.637226
v 1.255862 0.849998 1.637226
v -1.609257 -0.005059 1.637226
v 1.045310 0.379890 2.455601
v 0.583862 0.379890 2.455601
v 0.583862 0.212960 2.455601
v 1.045310 0.212960 2.455601
v 0.524910 0.379890 2.455601
v 0.063462 0.379890 2.455601
v 0.063462 0.212960 2.455601
v 0.524910 0.212960 2.455601
v 0.004511 0.379890 2.455601
v -0.456937 0.379890 2.455601
v -0.456937 0.212960 2.455601
v 0.004511 0.212960 2.455601
v 0.583862 0.379890 2.426999
v 1.045310 0.379890 2.426999
v 1.045310 0.212960 2.426999
v 0.583862 0.212960 2.426999
v 0.063462 0.379890 2.426999
v 0.524910 0.379890 2.426999
v 0.524910 0.212960 2.426999
v 0.063462 0.212960 2.426999
v -0.456937 0.379890 2.426999
v 0.004511 0.379890 2.426999
v 0.004511 0.212960 2.426999
v -0.456937 0.212960 2.426999
v 1.222555 0.386251 1.660342
v 1.222555 0.386251 2.182229
v 1.222555 0.206600 2.182229
v 1.222555 0.206600 1.660342
v 1.194854 0.386251 2.182229
v 1.194854 0.386251 1.660342
v 1.194854 0.206600 1.660342
v 1.194854 0.206600 2.182229
v -3.073954 2.542812 -0.667146
v -3.073954 2.595237 -0.667146
v -3.073954 2.373558 -0.667146
v -3.073954 2.195619 -0.166375
v -2.916676 2.373558 -0.667146
v -3.073954 2.196341 -1.165887
v -2.916676 2.196341 -1.165887
v -3.073954 2.107732 -1.415257
v -3.073954 2.019124 -1.664628
v -2.916676 2.107732 -1.415257
v -2.916676 2.019124 -1.664628
v -2.916676 1.664689 -2.662109
v -2.916676 1.501426 -2.662109
v -2.916676 1.617095 -2.796053
v -3.073954 1.664689 -2.662109
v -1.827346 1.664689 -2.662109
v -0.738016 1.664689 -2.662109
v -1.827346 1.617095 -2.796053
v -0.738016 1.617095 -2.796053
v 0.351314 1.617095 -2.796053
v 1.440643 1.617095 -2.796053
v 0.351314 1.664689 -2.662109
v 1.440643 1.664689 -2.662109
v 2.529973 1.664689 -2.662109
v 2.529973 1.617095 -2.796053
v 2.687250 1.664689 -2.662109
v 2.529973 1.501426 -2.662109
v 2.529973 2.019124 -1.664628
v 2.687250 2.019124 -1.664628
v 2.529973 2.107732 -1.415257
v 2.529973 2.196341 -1.165887
v 2.687250 2.107732 -1.415257
v 2.687250 2.196341 -1.165887
v 2.687250 2.373558 -0.667146
v 2.529973 2.373558 -0.667146
v 2.687250 2.542812 -0.667146
v 2.687250 2.195619 -0.166375
v 2.529973 2.195619 -0.166375
v 2.687250 2.106650 0.084011
v 2.687250 2.017681 0.334397
v 2.529973 2.106650 0.084011
v 2.529973 2.017681 0.334397
v 2.529973 1.661803 1.335940
v 2.529973 1.617095 1.461761
v 1.440643 1.661803 1.335940
v 2.687250 1.661803 1.335940
v 2.529973 1.501426 1.335940
v 2.529973 1.501426 1.461761
v 2.687250 1.501426 1.335940
v 2.687250 1.501426 1.461761
v 2.687250 1.501426 1.506934
v 2.529973 1.501426 1.506934
v 2.687250 1.617095 1.506934
v 2.687250 1.786349 1.506934
v 2.529973 1.617095 1.506934
v 2.529973 1.786349 1.506934
v 2.529973 1.838774 1.506934
v 2.529973 1.786349 1.461761
v 2.529973 1.838774 1.461761
v 2.529973 1.831057 1.335940
v 1.440643 1.786349 1.461761
v 0.351313 1.786349 1.461761
v -0.738016 1.786349 1.461761
v -1.827346 1.786349 1.461761
v -2.916676 1.786349 1.461761
v -2.916676 1.617095 1.461761
v -2.916676 1.838774 1.461761
v -2.916676 1.786349 1.506934
v -2.916676 1.831057 1.335940
v -2.916676 1.883482 1.335940
v -2.916676 2.186934 0.334397
v -2.916676 2.239360 0.334397
v -2.916676 2.275904 0.084011
v -2.916676 2.364873 -0.166375
v -2.916676 2.328329 0.084011
v -1.827346 2.275904 0.084011
v -1.827346 2.364873 -0.166375
v -0.738016 2.275904 0.084011
v -1.827346 2.232914 0.084011
v -1.827346 2.321884 -0.166375
v -0.738016 2.232914 0.084011
v -0.738016 2.321884 -0.166375
v -0.738016 2.364873 -0.166375
v 0.351314 2.364873 -0.166375
v 0.351314 2.275904 0.084011
v 1.440643 2.364873 -0.166375
v 0.351314 2.321884 -0.166375
v 0.351314 2.232914 0.084011
v 1.440643 2.321884 -0.166375
v 1.440643 2.232914 0.084011
v 1.440643 2.275904 0.084011
v 2.529973 2.275904 0.084011
v 2.529973 2.364873 -0.166375
v 2.529973 2.186934 0.334397
v 2.529973 2.328329 0.084011
v 2.529973 2.417298 -0.166375
v 2.529973 2.239360 0.334397
v 2.529973 1.883482 1.335940
v 2.529973 2.595237 -0.667146
v 2.687250 2.595237 -0.667146
v 2.529973 2.542812 -0.667146
v 2.529973 2.418020 -1.165887
v 2.529973 2.365594 -1.165887
v 2.529973 2.329412 -1.415257
v 2.529973 2.240803 -1.664628
v 2.529973 2.276986 -1.415257
v 2.529973 2.188377 -1.664628
v 1.440643 2.276986 -1.415257
v 1.440643 2.365594 -1.165887
v 0.351314 2.276986 -1.415257
v 1.440643 2.233997 -1.415257
v 1.440643 2.322605 -1.165887
v 0.351314 2.233997 -1.415257
v 0.351314 2.322605 -1.165887
v 0.351314 2.365594 -1.165887
v -0.738016 2.365594 -1.165887
v -1.827346 2.365594 -1.165887
v -0.738016 2.276986 -1.415257
v -0.738016 2.322605 -1.165887
v -1.827346 2.322605 -1.165887
v -0.738016 2.233997 -1.415257
v -1.827346 2.233997 -1.415257
v -1.827346 2.276986 -1.415257
v -2.916676 2.276986 -1.415257
v -2.916676 2.188377 -1.664628
v -2.916676 2.365594 -1.165887
v -2.916676 2.329412 -1.415257
v -2.916676 2.240803 -1.664628
v -2.916676 2.418020 -1.165887
v -2.916676 2.595237 -0.667146
v -2.916676 2.417298 -0.166375
v -2.916676 2.542812 -0.667146
v -1.827346 2.542812 -0.667146
v -0.738016 2.542812 -0.667146
v 0.351314 2.542812 -0.667146
v 1.440643 2.542812 -0.667146
v -2.916676 1.886368 -2.662109
v -2.916676 1.838774 -2.796053
v -2.916676 1.833943 -2.662109
v -2.916676 1.786349 -2.796053
v -2.916676 1.786349 -2.841226
v -1.827346 1.786349 -2.796053
v -0.738016 1.786349 -2.796053
v 0.351314 1.786349 -2.796053
v 1.440643 1.786349 -2.796053
v 2.529973 1.786349 -2.796053
v 2.529973 1.833943 -2.662109
v 2.529973 1.838774 -2.796053
v 2.529973 1.786349 -2.841226
v 2.529973 1.617095 -2.841226
v 2.529973 1.838774 -2.841226
v 2.687250 1.838774 -2.841226
v 2.687250 1.786349 -2.841226
v 2.687250 1.838774 -2.796053
v 2.687250 1.886368 -2.662109
v 2.687250 2.240803 -1.664628
v 2.687250 2.329412 -1.415257
v 2.687250 2.418020 -1.165887
v 2.687250 1.617095 -2.841226
v 2.687250 1.501426 -2.841226
v 2.687250 1.501426 -2.796053
v 2.529973 1.501426 -2.841226
v 2.529973 1.501426 -2.796053
v 2.687250 1.501426 -2.662109
v 2.529973 1.886368 -2.662109
v -2.916676 1.617095 -2.841226
v -2.916676 1.838774 -2.841226
v -3.073954 1.838774 -2.841226
v -3.073954 1.786349 -2.841226
v -3.073954 1.838774 -2.796053
v -3.073954 1.886368 -2.662109
v -3.073954 2.240803 -1.664628
v -3.073954 2.329412 -1.415257
v -3.073954 2.418020 -1.165887
v -3.073954 1.617095 -2.841226
v -3.073954 1.501426 -2.841226
v -3.073954 1.501426 -2.796053
v -2.916676 1.501426 -2.841226
v -2.916676 1.501426 -2.796053
v -3.073954 1.501426 -2.662109
v 2.687250 2.417298 -0.166375
v 2.687250 2.328329 0.084011
v 2.687250 2.239360 0.334397
v 2.687250 1.883482 1.335940
v 2.687250 1.838774 1.461761
v 2.687250 1.838774 1.506934
v -3.073954 1.786349 1.506934
v -2.916676 1.617095 1.506934
v -2.916676 1.838774 1.506934
v -3.073954 1.838774 1.506934
v -3.073954 1.838774 1.461761
v -3.073954 1.883482 1.335940
v -3.073954 2.239360 0.334397
v -3.073954 2.328329 0.084011
v -3.073954 2.417298 -0.166375
v -3.073954 1.617095 1.506934
v -2.916676 1.501426 1.506934
v -3.073954 1.501426 1.506934
v -2.916676 1.501426 1.461761
v -3.073954 1.501426 1.461761
v -2.916676 1.501426 1.335940
v -3.073954 1.501426 1.335940
v -2.916676 1.661803 1.335940
v -2.916676 2.017681 0.334397
v -3.073954 1.661803 1.335940
v -1.827346 1.661803 1.335940
v -0.738016 1.661803 1.335940
v -1.827346 1.617095 1.461761
v -0.738016 1.617095 1.461761
v 0.351313 1.617095 1.461761
v 1.440643 1.617095 1.461761
v 0.351313 1.661803 1.335940
v -3.073954 2.017681 0.334397
v -3.073954 2.106650 0.084011
v -2.916676 2.106650 0.084011
v -2.916676 2.195619 -0.166375
v -2.987442 1.631691 1.399029
v -2.987442 1.631691 0.366543
v -2.987442 1.711935 1.399029
v -3.044638 1.631691 1.441299
v -2.056078 1.631691 1.399029
v -1.124715 1.631691 1.399029
v -2.094209 1.631691 1.441299
v -2.056079 1.711935 1.399029
v -1.124715 1.711935 1.399029
v -0.193351 1.711935 1.399029
v 0.738012 1.711935 1.399029
v -0.193351 1.631691 1.399029
v 0.738012 1.631691 1.399029
v -0.193351 1.631691 1.441299
v -1.143780 1.631691 1.441299
v 0.757078 1.631691 1.441299
v 1.707506 1.631691 1.441299
v 2.657935 1.631691 1.441299
v 1.669376 1.631691 1.399029
v 2.600739 1.631691 1.399029
v 1.669376 1.711935 1.399029
v 2.600739 1.711935 1.399029
v 2.600739 2.113070 0.366543
v 2.600739 2.514205 -0.665943
v 2.600739 2.113070 -1.698429
v 2.600739 1.711935 -2.730915
v 1.669376 1.711935 -2.730915
v 2.600739 1.631691 -2.730915
v 2.600739 1.631691 -1.698429
v 2.657935 1.631691 -2.773185
v 1.669376 1.631691 -2.730915
v 0.738012 1.631691 -2.730915
v 1.707506 1.631691 -2.773185
v 0.757078 1.631691 -2.773185
v -0.193351 1.631691 -2.773185
v -1.143780 1.631691 -2.773185
v -0.193351 1.631691 -2.730915
v -1.124715 1.631691 -2.730915
v -0.193351 1.711935 -2.730915
v -1.124715 1.711935 -2.730915
v 0.738012 1.711935 -2.730915
v -2.056078 1.711935 -2.730915
v -2.987442 1.711935 -2.730915
v -2.056079 1.631691 -2.730915
v -2.987442 1.631691 -2.730915
v -2.094209 1.631691 -2.773185
v -3.044638 1.631691 -2.773185
v -3.044638 1.498588 -2.773185
v -3.044638 1.631691 -1.719564
v -3.044638 1.631691 -0.665943
v -2.987442 1.631691 -1.698429
v -2.987442 1.631691 -0.665943
v -3.044638 1.631691 0.387678
v -2.987442 1.499930 -2.730915
v -2.094209 1.498588 -2.773185
v -3.044638 1.498588 -1.719564
v -3.044638 1.498588 -0.665943
v -2.987442 1.499930 -1.698429
v -2.987442 1.499930 -0.665943
v -2.987442 1.499930 0.366543
v -2.987442 1.499930 1.399029
v -3.044638 1.498588 0.387678
v -3.044638 1.498588 1.441299
v -2.094209 1.498588 1.441299
v -1.143780 1.498588 1.441299
v -2.056078 1.499930 1.399029
v -1.124715 1.499930 1.399029
v -1.984576 1.428428 1.399029
v -2.056078 1.098322 1.399029
v -2.056078 0.964182 1.399029
v -1.984576 1.134019 1.399029
v -1.984576 1.035684 1.399029
v -1.984576 1.134019 1.319339
v -1.984576 1.035684 1.319339
v -1.984576 1.428428 1.319339
v -1.196217 1.428428 1.319339
v -1.196217 1.428428 1.399029
v -1.196217 1.134019 1.319339
v -1.196217 1.035684 1.319339
v -1.196217 1.134019 1.399029
v -1.196217 1.035684 1.399029
v -1.124715 1.098322 1.399029
v -1.124715 0.964182 1.399029
v -1.053213 1.134019 1.399029
v -1.053213 1.035684 1.399029
v -1.053213 1.428428 1.399029
v -1.053213 1.134019 1.319339
v -1.053213 1.035684 1.319339
v -1.053213 1.428428 1.319339
v -0.264853 1.428428 1.319339
v -0.264853 1.428428 1.399029
v -0.264853 1.134019 1.319339
v -0.264853 1.035684 1.319339
v -0.264853 1.134019 1.399029
v -0.264853 1.035684 1.399029
v -0.193351 1.098322 1.399029
v -0.193351 0.964182 1.399029
v -0.193351 1.499930 1.399029
v -0.121849 1.134019 1.399029
v -0.121849 1.035684 1.399029
v -0.121849 1.428428 1.399029
v -0.121849 1.134019 1.319339
v -0.121849 1.035684 1.319339
v -0.121849 1.428428 1.319339
v 0.666510 1.428428 1.319339
v 0.666510 1.428428 1.399029
v 0.666510 1.134019 1.319339
v 0.666510 1.035684 1.319339
v 0.666510 1.134019 1.399029
v 0.666510 1.035684 1.399029
v 0.738012 1.098322 1.399029
v 0.738012 0.964182 1.399029
v 0.738012 1.499930 1.399029
v 0.809514 1.134019 1.399029
v 0.809514 1.035684 1.399029
v 0.809514 1.428428 1.399029
v 0.809514 1.134019 1.319339
v 0.809514 1.035684 1.319339
v 0.809514 1.428428 1.319339
v 1.597874 1.428428 1.319339
v 1.597874 1.428428 1.399029
v 1.597874 1.134019 1.319339
v 1.597874 1.035684 1.319339
v 1.597874 1.134019 1.399029
v 1.597874 1.035684 1.399029
v 1.669376 1.098322 1.399029
v 1.669376 0.964182 1.399029
v 1.669376 1.499930 1.399029
v 2.600739 1.499930 1.399029
v 1.707507 1.498588 1.441299
v 2.657936 1.498588 1.441299
v 0.757078 1.498588 1.441299
v -0.193351 1.498588 1.441299
v 2.657936 1.498588 0.387678
v 2.657936 1.498588 -0.665943
v 2.600739 1.499930 0.366543
v 2.600739 1.499930 -0.665943
v 2.600739 1.499930 -1.698429
v 2.600739 1.499930 -2.730915
v 2.657936 1.498588 -1.719564
v 2.657936 1.498588 -2.773185
v 1.707507 1.498588 -2.773185
v 0.757078 1.498588 -2.773185
v 1.669376 1.499930 -2.730915
v 0.738012 1.499930 -2.730915
v 1.597874 1.428428 -2.730915
v 1.669376 1.098322 -2.730915
v 1.669376 0.964182 -2.730915
v 1.597874 1.134019 -2.730915
v 1.597874 1.035684 -2.730915
v 1.597874 1.134019 -2.651225
v 1.597874 1.035684 -2.651225
v 1.597874 1.428428 -2.651225
v 0.809514 1.428428 -2.651225
v 0.809514 1.428428 -2.730915
v 0.809514 1.134019 -2.651225
v 0.809514 1.035684 -2.651225
v 0.809514 1.134019 -2.730915
v 0.809514 1.035684 -2.730915
v 0.738012 1.098322 -2.730915
v 0.738012 0.964182 -2.730915
v 0.666510 1.134019 -2.730915
v 0.666510 1.035684 -2.730915
v 0.666510 1.428428 -2.730915
v 0.666510 1.134019 -2.651225
v 0.666510 1.035684 -2.651225
v 0.666510 1.428428 -2.651225
v -0.121849 1.428428 -2.651225
v -0.121849 1.428428 -2.730915
v -0.121849 1.134019 -2.651225
v -0.121849 1.035684 -2.651225
v -0.121849 1.134019 -2.730915
v -0.121849 1.035684 -2.730915
v -0.193351 1.098322 -2.730915
v -0.193351 0.964182 -2.730915
v -0.193351 1.499930 -2.730915
v -0.264853 1.134019 -2.730915
v -0.264853 1.035684 -2.730915
v -0.264853 1.428428 -2.730915
v -0.264853 1.134019 -2.651225
v -0.264853 1.035684 -2.651225
v -0.264853 1.428428 -2.651225
v -1.053213 1.428428 -2.651225
v -1.053213 1.428428 -2.730915
v -1.053213 1.134019 -2.651225
v -1.053213 1.035684 -2.651225
v -1.053213 1.134019 -2.730915
v -1.053213 1.035684 -2.730915
v -1.124715 1.098322 -2.730915
v -1.124715 0.964182 -2.730915
v -1.124715 1.499930 -2.730915
v -1.196217 1.134019 -2.730915
v -1.196217 1.035684 -2.730915
v -1.196217 1.428428 -2.730915
v -1.196217 1.134019 -2.651225
v -1.196217 1.035684 -2.651225
v -1.196217 1.428428 -2.651225
v -1.984576 1.428428 -2.651225
v -1.984576 1.428428 -2.730915
v -1.984576 1.134019 -2.651225
v -1.984576 1.035684 -2.651225
v -1.984576 1.134019 -2.730915
v -1.984576 1.035684 -2.730915
v -2.056079 1.098322 -2.730915
v -2.056079 0.964182 -2.730915
v -2.056079 1.499930 -2.730915
v -2.987442 0.964182 -2.730915
v -2.987442 0.104940 -2.730915
v -2.987442 1.098322 -2.730915
v -2.987442 0.964182 -1.698429
v -2.987442 0.964182 -0.665943
v -2.987442 0.964182 0.366543
v -2.987442 0.964182 1.399029
v -2.987442 1.098322 1.399029
v -2.987442 0.104940 1.399029
v -2.987442 0.104940 0.366543
v -3.022953 0.104940 1.425273
v -2.056078 0.104940 1.399029
v -1.124715 0.104940 1.399029
v -2.079752 0.104940 1.425273
v -1.136552 0.104940 1.425273
v -0.193351 0.104940 1.425273
v 0.749849 0.104940 1.425273
v -0.193351 0.104940 1.399029
v 0.738012 0.104940 1.399029
v 1.669376 0.104940 1.399029
v 2.600739 0.104940 1.399029
v 1.693050 0.104940 1.425273
v 2.636250 0.104940 1.425273
v 2.636250 -0.005340 1.425273
v 2.636250 0.104940 0.344621
v 2.636250 -0.005340 0.344621
v 2.600739 0.104940 0.366543
v 2.394100 0.104940 0.344621
v 2.394100 -0.005340 0.344621
v 2.410001 0.104940 0.366543
v 2.410001 0.964182 0.366543
v 2.600739 0.964182 0.366543
v 2.410001 0.964182 -0.665943
v 2.410001 0.964182 -1.698429
v 2.600739 0.964182 -0.665943
v 2.600739 0.964182 -1.698429
v 2.725260 0.964182 -0.665943
v 2.725260 0.964182 0.366543
v 2.725260 0.964182 -1.698429
v 2.725260 1.098322 -1.698429
v 2.725260 1.098322 -0.665943
v 2.600739 1.098322 -1.698429
v 2.600739 1.098322 -0.665943
v 2.600739 1.098322 -2.730915
v 2.600739 0.964182 -2.730915
v 2.600739 0.104940 -2.730915
v 2.600739 0.104940 -1.698429
v 2.636250 0.104940 -2.757159
v 1.669376 0.104940 -2.730915
v 0.738012 0.104940 -2.730915
v 1.693050 0.104940 -2.757159
v 0.749849 0.104940 -2.757159
v -0.193351 0.104940 -2.757159
v -1.136552 0.104940 -2.757159
v -0.193351 0.104940 -2.730915
v -1.124715 0.104940 -2.730915
v -2.056079 0.104940 -2.730915
v -2.079752 0.104940 -2.757159
v -3.022953 0.104940 -2.757159
v -3.022953 -0.005340 -2.757159
v -3.022953 0.104940 -1.711551
v -3.022953 0.104940 -0.665943
v -2.987442 0.104940 -1.698429
v -2.987442 0.104940 -0.665943
v -3.022953 0.104940 0.379665
v -2.079752 -0.005340 -2.757159
v -3.022953 -0.005340 -1.711551
v -3.022953 -0.005340 -0.665943
v -3.022953 -0.005340 0.379665
v -3.022953 -0.005340 1.425273
v -2.079752 -0.005340 1.425273
v -1.136552 -0.005340 1.425273
v -0.193351 -0.005340 1.425273
v 0.749849 -0.005340 1.425273
v 1.693050 -0.005340 1.425273
v -1.136552 -0.005340 -2.757159
v -0.193351 -0.005340 -2.757159
v 0.749849 -0.005340 -2.757159
v 1.693050 -0.005340 -2.757159
v 2.636250 -0.005340 -2.757159
v 2.636250 -0.005340 -1.676506
v 2.394100 -0.005340 -1.676506
v 2.636250 0.104940 -1.676506
v 2.394100 0.104940 -1.676506
v 2.410001 0.104940 -1.698429
v 2.600739 1.098322 0.366543
v 2.600739 1.098322 1.399029
v 2.725260 1.098322 0.366543
v 2.600739 0.964182 1.399029
v -2.987442 1.098322 0.366543
v -2.987442 1.098322 -0.665943
v -2.987442 1.098322 -1.698429
v -1.143780 1.498588 -2.773185
v -0.193351 1.498588 -2.773185
v -2.987442 2.113070 -1.698429
v -2.987442 2.514205 -0.665943
v -2.987442 2.113070 0.366543
v 2.657935 1.631691 -1.719564
v 2.657935 1.631691 -0.665943
v 2.657935 1.631691 0.387678
v 2.600739 1.631691 -0.665943
v 2.600739 1.631691 0.366543
v 2.595599 0.920130 0.784861
v 2.595599 1.342394 0.784861
v 2.595599 0.920130 0.362597
v 2.595599 1.342394 0.362597
v 2.991064 0.920130 0.784861
v 2.991064 1.034500 0.784861
v 2.991064 0.920130 0.362597
v 2.991064 1.034500 0.362597
v 2.859242 0.920130 0.362597
v 2.727421 0.920130 0.362597
v 2.772487 1.264475 0.362597
v 2.909507 1.156518 0.362597
v 2.727421 0.920130 0.784861
v 2.859242 0.920130 0.784861
v 2.909507 1.156518 0.784861
v 2.772487 1.264475 0.784861
v 2.595599 0.920130 -2.125808
v 2.595599 1.342394 -2.125808
v 2.595599 0.920130 -1.703543
v 2.595599 1.342394 -1.703543
v 2.991064 0.920130 -2.125808
v 2.991064 1.034500 -2.125808
v 2.991064 0.920130 -1.703543
v 2.991064 1.034500 -1.703543
v 2.859242 0.920130 -1.703543
v 2.727421 0.920130 -1.703543
v 2.772487 1.264475 -1.703543
v 2.909507 1.156518 -1.703543
v 2.727421 0.920130 -2.125808
v 2.859242 0.920130 -2.125808
v 2.909507 1.156518 -2.125808
v 2.772487 1.264475 -2.125808
v 2.578117 1.087197 0.279257
v 2.578117 1.572943 0.279257
v 2.578117 1.087197 -1.693500
v 2.578117 1.572943 -1.693500
v 2.686876 1.087197 0.279257
v 2.686876 1.572943 0.279257
v 2.686876 1.087197 -1.693500
v 2.686876 1.572943 -1.693500
vn 1.0000 -0.0000 -0.0000
vn -0.0000 -0.9526 -0.3043
vn -0.0000 0.9526 0.3043
vn -0.0000 -0.9574 -0.2888
vn -1.0000 -0.0000 -0.0000
vn -0.0000 0.9574 0.2888
vn -0.0000 -1.0000 -0.0000
vn -0.0000 -0.0000 1.0000
vn -0.0000 1.0000 -0.0000
vn -0.0000 -0.0000 -1.0000
vn -0.0000 0.9528 0.3036
vn -0.0000 -0.9423 -0.3348
vn -0.0000 -0.9423 0.3348
vn -0.0000 0.9423 0.3348
vn -0.0000 0.9445 0.3286
vn -0.0000 0.9445 -0.3286
vn -0.0000 0.9423 -0.3348
vn 0.0235 -0.9997 -0.0000
vn -0.0000 -0.9995 0.0317
vn -0.0000 -0.9995 -0.0317
vn -0.0235 -0.9997 -0.0000
vn 0.4031 0.9151 -0.0000
vn 0.8314 0.5557 -0.0000
vn 0.6189 0.7855 -0.0000
vt 0.363439 0.248010
vt 0.418362 0.300000
vt 0.442638 0.322981
vt 0.442638 0.330626
vt 0.418362 0.307645
vt 0.363439 0.255655
vt 0.339245 0.232753
vt 0.334379 0.228246
vt 0.334379 0.220601
vt 0.339245 0.225108
vt 0.086455 0.408067
vt 0.062261 0.385165
vt 0.059041 0.387026
vt 0.083235 0.409928
vt 0.141377 0.467703
vt 0.165654 0.490684
vt 0.162434 0.492544
vt 0.138157 0.469564
vt 0.321740 0.235223
vt 0.336026 0.226968
vt 0.331159 0.222462
vt 0.316874 0.230717
vt 0.054175 0.382520
vt 0.054175 0.390165
vt 0.059041 0.394671
vt 0.083235 0.417573
vt 0.162434 0.484899
vt 0.138157 0.461919
vt 0.057395 0.380659
vt 0.057395 0.388304
vt 0.062261 0.392810
vt 0.415142 0.301861
vt 0.439418 0.324842
vt 0.096693 0.365268
vt 0.091826 0.360762
vt 0.156526 0.293143
vt 0.156526 0.318347
vt 0.160668 0.320741
vt 0.160668 0.295536
vt 0.160668 0.274498
vt 0.156526 0.272105
vt 0.156526 0.330693
vt 0.151660 0.326187
vt 0.096693 0.327718
vt 0.096693 0.306680
vt 0.100835 0.309074
vt 0.100835 0.330112
vt 0.100835 0.355316
vt 0.096693 0.352922
vt 0.360219 0.228602
vt 0.336026 0.214622
vt 0.336026 0.189418
vt 0.360219 0.203398
vt 0.062261 0.347615
vt 0.062261 0.326577
vt 0.062261 0.372819
vt 0.318890 0.202608
vt 0.318890 0.221234
vt 0.321656 0.222832
vt 0.321656 0.204206
vt 0.173661 0.305156
vt 0.173661 0.286530
vt 0.176426 0.288128
vt 0.176426 0.306754
vt 0.223971 0.257458
vt 0.268581 0.231680
vt 0.271346 0.233278
vt 0.226736 0.259056
vt 0.170812 0.263850
vt 0.221121 0.234778
vt 0.271431 0.205706
vt 0.321740 0.176635
vt 0.336026 0.168380
vt 0.321740 0.222877
vt 0.321740 0.197673
vt 0.271431 0.226744
vt 0.221121 0.255816
vt 0.170812 0.284888
vt 0.170812 0.310092
vt 0.170812 0.322438
vt 0.165945 0.317932
vt 0.221121 0.293367
vt 0.216255 0.288860
vt 0.271431 0.264295
vt 0.266564 0.259789
vt 0.362454 0.227314
vt 0.362454 0.207269
vt 0.359776 0.208816
vt 0.359776 0.228862
vt 0.221121 0.281020
vt 0.271431 0.251948
vt 0.360219 0.249870
vt 0.086455 0.415712
vt 0.141377 0.460058
vt 0.360219 0.182360
vt 0.415142 0.214098
vt 0.439418 0.228126
vt 0.439418 0.249164
vt 0.415142 0.235136
vt 0.165654 0.483039
vt 0.439418 0.274368
vt 0.415142 0.260340
vt 0.274280 0.247013
vt 0.274280 0.228387
vt 0.223971 0.276085
vt 0.268581 0.250306
vt 0.218272 0.279378
vt 0.218272 0.260752
vt 0.277045 0.248611
vt 0.277045 0.229984
vt 0.271346 0.251904
vt 0.226736 0.277682
vt 0.221037 0.280976
vt 0.221037 0.262349
vt 0.412907 0.256469
vt 0.412907 0.236423
vt 0.410229 0.258017
vt 0.410229 0.237971
vt 0.331159 0.230107
vt 0.439418 0.332487
vt 0.425133 0.340742
vt 0.374823 0.369813
vt 0.324514 0.398885
vt 0.274204 0.427957
vt 0.259919 0.436212
vt 0.200086 0.470787
vt 0.091826 0.368407
vt 0.151660 0.333832
vt 0.165945 0.325577
vt 0.216255 0.296505
vt 0.266564 0.267434
vt 0.316874 0.238362
vt 0.165654 0.432565
vt 0.165654 0.407361
vt 0.165654 0.386323
vt 0.141377 0.372295
vt 0.086455 0.340557
vt 0.432731 0.885306
vt 0.432731 0.872399
vt 0.428364 0.869876
vt 0.415415 0.862393
vt 0.415415 0.880610
vt 0.318984 0.864435
vt 0.294876 0.860391
vt 0.270768 0.856347
vt 0.222553 0.848260
vt 0.222553 0.867145
vt 0.222553 0.872995
vt 0.270768 0.881083
vt 0.294876 0.885126
vt 0.318984 0.889170
vt 0.415415 0.905346
vt 0.428364 0.907518
vt 0.432731 0.910041
vt 0.432731 0.904191
vt 0.012374 0.642399
vt 0.012374 0.661285
vt 0.012374 0.667135
vt 0.016741 0.669658
vt 0.028905 0.681676
vt 0.125729 0.777335
vt 0.149935 0.801250
vt 0.174141 0.825165
vt 0.174141 0.800430
vt 0.149935 0.776515
vt 0.125729 0.752600
vt 0.028905 0.656940
vt 0.028905 0.639045
vt 0.016741 0.632016
vt 0.012374 0.629493
vt 0.237757 0.839473
vt 0.189345 0.791644
vt 0.285973 0.847561
vt 0.310081 0.851605
vt 0.334189 0.855649
vt 0.430620 0.871824
vt 0.430620 0.853607
vt 0.443569 0.861090
vt 0.443569 0.873996
vt 0.548880 0.813142
vt 0.535930 0.810969
vt 0.654190 0.752287
vt 0.641241 0.750115
vt 0.443569 0.892882
vt 0.548880 0.832027
vt 0.654190 0.771173
vt 0.759501 0.710318
vt 0.864811 0.649463
vt 0.970122 0.588609
vt 0.970122 0.569723
vt 0.864811 0.630578
vt 0.759501 0.691432
vt 0.746552 0.689260
vt 0.851862 0.628406
vt 0.957173 0.567551
vt 0.970122 0.556817
vt 0.957173 0.549334
vt 0.972378 0.558765
vt 0.875946 0.542590
vt 0.860742 0.551376
vt 0.972378 0.540548
vt 0.851839 0.538546
vt 0.836634 0.547332
vt 0.827731 0.534502
vt 0.812526 0.543288
vt 0.985327 0.548031
vt 0.989694 0.550554
vt 0.989694 0.563461
vt 0.989694 0.582346
vt 0.989694 0.588196
vt 0.985327 0.585672
vt 0.972378 0.583500
vt 0.875946 0.567325
vt 0.851839 0.563281
vt 0.827731 0.559237
vt 0.779515 0.551150
vt 0.779515 0.545300
vt 0.779515 0.526415
vt 0.764311 0.535201
vt 0.731103 0.478585
vt 0.715899 0.487371
vt 0.731103 0.503320
vt 0.706897 0.479405
vt 0.682691 0.455490
vt 0.585867 0.359830
vt 0.573704 0.347813
vt 0.569337 0.345289
vt 0.569337 0.339440
vt 0.569337 0.320554
vt 0.569337 0.307648
vt 0.573704 0.310171
vt 0.585867 0.317200
vt 0.585867 0.335095
vt 0.682691 0.430755
vt 0.706897 0.454670
vt 0.691693 0.463456
vt 0.667487 0.439541
vt 0.570663 0.343881
vt 0.558499 0.331864
vt 0.453188 0.392718
vt 0.465352 0.404736
vt 0.570663 0.325986
vt 0.558499 0.318957
vt 0.554132 0.316434
vt 0.554132 0.329340
vt 0.554132 0.348226
vt 0.558499 0.350749
vt 0.554132 0.354076
vt 0.558499 0.356599
vt 0.453188 0.411604
vt 0.347878 0.472459
vt 0.242567 0.533313
vt 0.137257 0.594168
vt 0.031946 0.655022
vt 0.031946 0.636137
vt 0.137257 0.575282
vt 0.242567 0.514428
vt 0.347878 0.453573
vt 0.570663 0.368617
vt 0.570663 0.362767
vt 0.044110 0.667040
vt 0.667487 0.458427
vt 0.691693 0.482342
vt 0.586382 0.543196
vt 0.481071 0.604051
vt 0.375761 0.664905
vt 0.270450 0.725760
vt 0.165139 0.786614
vt 0.140933 0.762699
vt 0.027579 0.652499
vt 0.027579 0.633613
vt 0.031946 0.660872
vt 0.027579 0.658348
vt 0.044110 0.672889
vt 0.140933 0.768549
vt 0.165139 0.792464
vt 0.294656 0.749675
vt 0.189345 0.810529
vt 0.189345 0.816379
vt 0.270450 0.720963
vt 0.294656 0.744878
vt 0.375761 0.660108
vt 0.399967 0.684023
vt 0.399967 0.688820
vt 0.505277 0.627966
vt 0.343068 0.797504
vt 0.237757 0.858359
vt 0.610588 0.567111
vt 0.715899 0.506256
vt 0.764311 0.554086
vt 0.659000 0.614941
vt 0.553689 0.675795
vt 0.448379 0.736650
vt 0.481071 0.599254
vt 0.505277 0.623169
vt 0.610588 0.562314
vt 0.586382 0.538399
vt 0.691693 0.488191
vt 0.715899 0.512106
vt 0.667487 0.464276
vt 0.764311 0.559936
vt 0.812526 0.568024
vt 0.974489 0.596982
vt 0.970122 0.594459
vt 0.957173 0.592287
vt 0.860742 0.576111
vt 0.836634 0.572067
vt 0.812526 0.562174
vt 0.836634 0.566218
vt 0.860742 0.570262
vt 0.430620 0.890710
vt 0.334189 0.874534
vt 0.310081 0.870491
vt 0.415391 0.809636
vt 0.520702 0.748781
vt 0.626013 0.687927
vt 0.731323 0.627072
vt 0.957173 0.586437
vt 0.707216 0.623028
vt 0.731323 0.622276
vt 0.707216 0.618232
vt 0.626013 0.683130
vt 0.601905 0.679086
vt 0.601905 0.683883
vt 0.391284 0.805592
vt 0.285973 0.866447
vt 0.496594 0.744738
vt 0.496594 0.739941
vt 0.391284 0.800795
vt 0.520702 0.743985
vt 0.415391 0.804839
vt 0.334189 0.880384
vt 0.310081 0.876340
vt 0.285973 0.872296
vt 0.443569 0.898731
vt 0.447936 0.901255
vt 0.237757 0.864209
vt 0.430620 0.896559
vt 0.447936 0.876520
vt 0.447936 0.895405
vt 0.974489 0.591132
vt 0.974489 0.572247
vt 0.974489 0.559340
vt 0.447936 0.863613
vt 0.027579 0.620707
vt 0.031946 0.623230
vt 0.044110 0.630259
vt 0.044110 0.648154
vt 0.149420 0.587300
vt 0.140933 0.743814
vt 0.254731 0.526445
vt 0.360041 0.465590
vt 0.165139 0.767729
vt 0.031169 0.645223
vt 0.130984 0.702902
vt 0.123412 0.704917
vt 0.021553 0.646057
vt 0.330615 0.871973
vt 0.430430 0.884893
vt 0.430430 0.875939
vt 0.330615 0.818260
vt 0.230800 0.760581
vt 0.031169 0.654177
vt 0.130984 0.756615
vt 0.230800 0.859053
vt 0.121209 0.593193
vt 0.121208 0.602147
vt 0.113436 0.592962
vt 0.211248 0.541163
vt 0.211248 0.550117
vt 0.205318 0.539867
vt 0.301287 0.489133
vt 0.301287 0.498087
vt 0.391326 0.437104
vt 0.391326 0.446057
vt 0.297201 0.486772
vt 0.389083 0.433677
vt 0.021553 0.631205
vt 0.113436 0.578110
vt 0.205318 0.525015
vt 0.297201 0.471920
vt 0.389083 0.418825
vt 0.480965 0.365730
vt 0.572848 0.312635
vt 0.572848 0.327487
vt 0.480965 0.380582
vt 0.481366 0.385074
vt 0.571405 0.333044
vt 0.571405 0.341997
vt 0.481366 0.394027
vt 0.671220 0.444436
vt 0.671220 0.390723
vt 0.771035 0.448402
vt 0.870851 0.506081
vt 0.970666 0.563760
vt 0.970666 0.572713
vt 0.870851 0.559794
vt 0.771035 0.546874
vt 0.880627 0.615790
vt 0.880627 0.624743
vt 0.674706 0.386347
vt 0.776565 0.445207
vt 0.878423 0.504066
vt 0.980282 0.562926
vt 0.888399 0.616021
vt 0.790587 0.667820
vt 0.790587 0.676773
vt 0.796517 0.669116
vt 0.980282 0.548074
vt 0.888399 0.601169
vt 0.796517 0.654264
vt 0.704635 0.707359
vt 0.612752 0.760454
vt 0.520870 0.813549
vt 0.428987 0.866644
vt 0.428987 0.881496
vt 0.520870 0.828401
vt 0.612752 0.775306
vt 0.704635 0.722211
vt 0.700548 0.719849
vt 0.610509 0.771879
vt 0.700548 0.728803
vt 0.610509 0.780833
vt 0.520470 0.823909
vt 0.520470 0.832863
vt 0.327129 0.822636
vt 0.327129 0.807784
vt 0.225270 0.748925
vt 0.123412 0.690065
vt 0.225270 0.763776
vt 0.430430 0.861237
vt 0.330615 0.803558
vt 0.520470 0.809207
vt 0.230800 0.745879
vt 0.430430 0.816425
vt 0.330615 0.758746
vt 0.230800 0.701067
vt 0.130984 0.643388
vt 0.031169 0.585709
vt 0.031169 0.630521
vt 0.130984 0.688200
vt 0.121208 0.578491
vt 0.211248 0.526461
vt 0.031169 0.570742
vt 0.031169 0.474866
vt 0.121208 0.422836
vt 0.211248 0.370807
vt 0.301287 0.318777
vt 0.391326 0.266747
vt 0.481366 0.214717
vt 0.571405 0.162687
vt 0.571405 0.258562
vt 0.571405 0.273530
vt 0.571405 0.318342
vt 0.481366 0.370372
vt 0.481366 0.325560
vt 0.481366 0.310592
vt 0.391326 0.362622
vt 0.301287 0.414652
vt 0.211248 0.466682
vt 0.121208 0.518712
vt 0.121208 0.533679
vt 0.128121 0.566518
vt 0.204335 0.522477
vt 0.128121 0.533668
vt 0.128121 0.522696
vt 0.135825 0.527147
vt 0.135825 0.538120
vt 0.135825 0.570970
vt 0.212039 0.483106
vt 0.212039 0.494079
vt 0.212039 0.526929
vt 0.204335 0.489627
vt 0.204335 0.478655
vt 0.211248 0.481649
vt 0.218160 0.470666
vt 0.218160 0.481638
vt 0.218160 0.514489
vt 0.225864 0.475118
vt 0.225864 0.486090
vt 0.225864 0.518940
vt 0.302079 0.431076
vt 0.302079 0.442049
vt 0.302079 0.474899
vt 0.294375 0.470447
vt 0.294375 0.437597
vt 0.294375 0.426625
vt 0.301287 0.429619
vt 0.301287 0.474431
vt 0.308200 0.418636
vt 0.308200 0.429608
vt 0.308200 0.462459
vt 0.315904 0.423088
vt 0.315904 0.434060
vt 0.315904 0.466910
vt 0.392118 0.379047
vt 0.392118 0.390019
vt 0.392118 0.422869
vt 0.384414 0.418418
vt 0.384414 0.385567
vt 0.384414 0.374595
vt 0.391326 0.377590
vt 0.391326 0.422401
vt 0.398239 0.366606
vt 0.398239 0.377578
vt 0.398239 0.410429
vt 0.405943 0.371058
vt 0.405943 0.382030
vt 0.405943 0.414881
vt 0.482157 0.327017
vt 0.482157 0.337989
vt 0.482157 0.370840
vt 0.474453 0.366388
vt 0.474453 0.333537
vt 0.474453 0.322565
vt 0.674706 0.371495
vt 0.776565 0.430355
vt 0.878423 0.489214
vt 0.671220 0.376021
vt 0.771035 0.433700
vt 0.870851 0.491379
vt 0.671220 0.331209
vt 0.771035 0.388888
vt 0.870851 0.446567
vt 0.970666 0.504246
vt 0.970666 0.549058
vt 0.880627 0.601088
vt 0.790587 0.653117
vt 0.970666 0.489278
vt 0.880627 0.541308
vt 0.880627 0.556276
vt 0.873714 0.597104
vt 0.797500 0.641145
vt 0.873714 0.564253
vt 0.873714 0.553281
vt 0.866010 0.548829
vt 0.866010 0.559801
vt 0.866010 0.592652
vt 0.789796 0.592870
vt 0.789796 0.603842
vt 0.789796 0.636693
vt 0.797500 0.608294
vt 0.797500 0.597322
vt 0.790587 0.593338
vt 0.790587 0.608306
vt 0.783675 0.605311
vt 0.783675 0.616283
vt 0.783675 0.649134
vt 0.775971 0.600859
vt 0.775971 0.611831
vt 0.775971 0.644682
vt 0.699757 0.644900
vt 0.699757 0.655872
vt 0.699757 0.688723
vt 0.707461 0.693175
vt 0.707461 0.660324
vt 0.707461 0.649352
vt 0.700548 0.645368
vt 0.700548 0.660335
vt 0.700548 0.705147
vt 0.693636 0.657341
vt 0.693636 0.668313
vt 0.693636 0.701164
vt 0.685932 0.652889
vt 0.685932 0.663861
vt 0.685932 0.696712
vt 0.609717 0.696930
vt 0.609717 0.707902
vt 0.609717 0.740753
vt 0.617421 0.745205
vt 0.617421 0.712354
vt 0.617421 0.701382
vt 0.610509 0.697398
vt 0.610509 0.712365
vt 0.610509 0.757177
vt 0.603596 0.709371
vt 0.603596 0.720343
vt 0.603596 0.753193
vt 0.595892 0.704919
vt 0.595892 0.715891
vt 0.595892 0.748742
vt 0.519678 0.748960
vt 0.519678 0.759932
vt 0.519678 0.792783
vt 0.527382 0.797235
vt 0.527382 0.764384
vt 0.527382 0.753412
vt 0.520470 0.749428
vt 0.520470 0.764395
vt 0.430430 0.801458
vt 0.970666 0.393403
vt 0.880627 0.445433
vt 0.790587 0.497463
vt 0.700548 0.549493
vt 0.610509 0.601523
vt 0.520470 0.653553
vt 0.430430 0.705582
vt 0.330615 0.743779
vt 0.330615 0.647903
vt 0.230800 0.590224
vt 0.130984 0.532545
vt 0.130984 0.628421
vt 0.230800 0.686100
vt 0.126283 0.533796
vt 0.025199 0.475384
vt 0.116383 0.422693
vt 0.207566 0.370002
vt 0.025199 0.463079
vt 0.116383 0.410388
vt 0.207566 0.357696
vt 0.298750 0.305005
vt 0.389934 0.252314
vt 0.481117 0.199623
vt 0.572301 0.146932
vt 0.572301 0.159237
vt 0.481117 0.211928
vt 0.389934 0.264619
vt 0.298750 0.317311
vt 0.671220 0.220366
vt 0.676773 0.219607
vt 0.676773 0.207302
vt 0.653363 0.220829
vt 0.653363 0.233134
vt 0.652781 0.231021
vt 0.671220 0.316241
vt 0.652781 0.326897
vt 0.771035 0.373920
vt 0.752596 0.384576
vt 0.870851 0.431599
vt 0.852411 0.442255
vt 0.783074 0.366964
vt 0.683258 0.309285
vt 0.882889 0.424643
vt 0.783074 0.381932
vt 0.683258 0.324253
vt 0.882889 0.439611
vt 0.870851 0.335724
vt 0.872164 0.332516
vt 0.976636 0.392885
vt 0.885453 0.445576
vt 0.794269 0.498268
vt 0.976636 0.380580
vt 0.885453 0.433271
vt 0.794269 0.485962
vt 0.703085 0.538654
vt 0.611902 0.591345
vt 0.520718 0.644036
vt 0.429534 0.696727
vt 0.429534 0.709032
vt 0.520718 0.656341
vt 0.611902 0.603650
vt 0.703085 0.550959
vt 0.328451 0.650620
vt 0.227367 0.592208
vt 0.328451 0.638315
vt 0.227367 0.579903
vt 0.126283 0.521491
vt 0.872164 0.320210
vt 0.848755 0.346043
vt 0.848755 0.333738
vt 0.852411 0.346379
vt 0.696592 0.297105
vt 0.701452 0.320674
vt 0.709336 0.302503
vt 0.709336 0.289741
vt 0.668514 0.278913
vt 0.668514 0.266152
vt 0.643026 0.280880
vt 0.647383 0.316785
vt 0.630283 0.335361
vt 0.630283 0.288244
vt 0.655770 0.273516
vt 0.688205 0.340374
vt 0.671105 0.358950
vt 0.660629 0.297084
vt 0.671105 0.311834
vt 0.683849 0.304469
vt 0.896336 0.412529
vt 0.909080 0.405164
vt 0.909080 0.417926
vt 0.901195 0.436097
vt 0.949902 0.428754
vt 0.949902 0.441515
vt 0.924414 0.443482
vt 0.911671 0.450846
vt 0.911671 0.497963
vt 0.928771 0.479387
vt 0.937158 0.436118
vt 0.887949 0.455797
vt 0.870848 0.474374
vt 0.942018 0.459686
vt 0.870848 0.427257
vt 0.883592 0.419893
vt 0.677472 0.336107
vt 0.677472 0.390307
vt 0.868187 0.500514
vt 0.868187 0.446314
vt 0.878702 0.494438
vt 0.878702 0.440238
vt 0.877281 0.441998
vt 0.878150 0.495918
vt 0.687986 0.384232
vt 0.687986 0.330032
vt 0.691892 0.332961
vt 0.691404 0.382889
vt 0.685162 0.386523
vt 0.685650 0.337694
vt 0.878240 0.496130
vt 0.870997 0.498673
vt 0.684674 0.387256
vt 0.691526 0.382767
s 0
f 89/1/1 103/2/1 18/3/1 22/4/1 104/5/1 91/6/1 23/7/1 24/8/1 25/9/1 19/10/1
f 84/11/2 2/12/2 16/13/2 88/14/2
f 97/15/3 10/16/3 21/17/3 99/18/3
f 64/19/4 6/20/4 12/21/4 68/22/4
f 88/14/5 16/13/5 26/23/5 27/24/5 20/25/5 90/26/5 99/18/5 21/17/5 17/27/5 98/28/5
f 12/21/4 6/20/4 19/10/4 25/9/4
f 2/12/4 13/29/4 26/23/4 16/13/4
f 15/30/6 9/31/6 20/25/6 27/24/6
f 102/32/2 8/33/2 18/3/2 103/2/2
f 2/12/4 29/34/4 31/35/4 13/29/4
f 50/36/5 33/37/5 45/38/5 55/39/5 47/40/5 42/41/5
f 29/34/4 35/42/4 36/43/4 31/35/4
f 49/44/1 43/45/1 46/46/1 54/47/1 44/48/1 28/49/1
f 33/37/7 28/49/7 44/48/7 45/38/7
f 85/50/1 5/51/1 52/52/1 94/53/1
f 51/54/8 39/55/8 43/45/8 49/44/8 28/49/8 1/56/8
f 109/57/5 106/58/5 119/59/5 120/60/5
f 115/61/1 116/62/1 129/63/1 126/64/1
f 112/65/9 113/66/9 124/67/9 125/68/9
f 50/36/8 42/41/8 76/69/8 77/70/8 78/71/8 79/72/8 40/73/8 52/52/8 5/51/8 59/74/8 83/75/8 82/76/8 81/77/8 80/78/8 56/79/8 33/37/8
f 35/42/4 67/80/4 71/81/4 36/43/4
f 67/80/4 66/82/4 70/83/4 71/81/4
f 66/82/4 65/84/4 69/85/4 70/83/4
f 65/84/4 64/19/4 68/22/4 69/85/4
f 131/86/10 132/87/10 137/88/10 134/89/10
f 29/34/8 2/12/8 1/56/8 28/49/8 33/37/8 56/79/8 57/90/8 58/91/8 59/74/8 5/51/8 6/20/8 64/19/8 65/84/8 66/82/8 67/80/8 35/42/8
f 6/20/2 86/92/2 89/1/2 19/10/2
f 9/31/3 87/93/3 90/26/3 20/25/3
f 95/94/2 84/11/2 88/14/2 98/28/2
f 94/53/1 52/52/1 40/73/1 93/95/1 100/96/1 41/97/1 48/98/1 101/99/1
f 4/100/2 95/94/2 98/28/2 17/27/2
f 7/101/1 96/102/1 101/99/1 48/98/1
f 86/92/2 102/32/2 103/2/2 89/1/2
f 87/93/3 97/15/3 99/18/3 90/26/3
f 59/74/8 58/91/8 107/103/8 106/58/8
f 58/91/8 82/76/8 108/104/8 107/103/8
f 82/76/8 83/75/8 109/57/8 108/104/8
f 83/75/8 59/74/8 106/58/8 109/57/8
f 58/91/8 57/90/8 111/105/8 110/106/8
f 57/90/8 81/77/8 112/65/8 111/105/8
f 81/77/8 82/76/8 113/66/8 112/65/8
f 82/76/8 58/91/8 110/106/8 113/66/8
f 57/90/8 56/79/8 115/61/8 114/107/8
f 56/79/8 80/78/8 116/62/8 115/61/8
f 80/78/8 81/77/8 117/108/8 116/62/8
f 81/77/8 57/90/8 114/107/8 117/108/8
f 119/59/8 118/109/8 121/110/8 120/60/8
f 123/111/8 122/112/8 125/68/8 124/67/8
f 127/113/8 126/64/8 129/63/8 128/114/8
f 110/106/7 111/105/7 122/112/7 123/111/7
f 116/62/9 117/108/9 128/114/9 129/63/9
f 107/103/1 108/104/1 121/110/1 118/109/1
f 113/66/5 110/106/5 123/111/5 124/67/5
f 114/107/7 115/61/7 126/64/7 127/113/7
f 108/104/9 109/57/9 120/60/9 121/110/9
f 111/105/1 112/65/1 125/68/1 122/112/1
f 117/108/5 114/107/5 127/113/5 128/114/5
f 106/58/7 107/103/7 118/109/7 119/59/7
f 96/102/1 85/50/1 131/86/1 130/115/1
f 85/50/1 94/53/1 132/87/1 131/86/1
f 94/53/1 101/99/1 133/116/1 132/87/1
f 101/99/1 96/102/1 130/115/1 133/116/1
f 135/117/1 134/89/1 137/88/1 136/118/1
f 130/115/7 131/86/7 134/89/7 135/117/7
f 132/87/9 133/116/9 136/118/9 137/88/9
f 133/116/8 130/115/8 135/117/8 136/118/8
f 54/47/8 46/46/8 47/40/8 55/39/8 45/38/8 44/48/8
f 14/119/11 24/8/11 23/7/11 91/6/11 104/5/11 22/4/11 11/120/11 63/121/11 62/122/11 61/123/11 60/124/11 34/125/11 30/126/11 10/16/11 97/15/11 87/93/11 9/31/11 15/30/11 32/127/11 37/128/11 75/129/11 74/130/11 73/131/11 72/132/11
f 95/94/5 4/100/5 3/133/5 53/134/5 38/135/5 105/136/5 92/137/5 39/55/5 51/54/5 1/56/5 2/12/5 84/11/5
f 86/92/1 6/20/1 5/51/1 85/50/1 96/102/1 7/101/1 8/33/1 102/32/1
f 68/22/8 12/21/8 25/9/8 24/8/8 14/119/8 72/132/8 73/131/8 74/130/8 75/129/8 37/128/8 32/127/8 15/30/8 27/24/8 26/23/8 13/29/8 31/35/8 36/43/8 71/81/8 70/83/8 69/85/8
f 312/138/5 313/139/5 314/140/5 317/141/5 152/142/5 146/143/5 145/144/5 143/145/5 140/146/5 138/147/5 139/148/5 311/149/5 310/150/5 309/151/5 308/152/5 307/153/5 305/154/5 306/155/5
f 333/156/5 324/157/5 327/158/5 328/159/5 329/160/5 330/161/5 331/162/5 332/163/5 139/148/5 138/147/5 140/146/5 141/164/5 351/165/5 350/166/5 342/167/5 339/168/5 337/169/5 335/170/5
f 142/171/12 353/172/12 141/164/12 140/146/12
f 144/173/13 142/171/13 140/146/13 143/145/13
f 147/174/13 144/173/13 143/145/13 145/144/13
f 148/175/13 147/174/13 145/144/13 146/143/13
f 149/176/13 148/175/13 146/143/13 152/142/13
f 152/142/8 317/141/8 150/177/8 149/176/8
f 149/176/1 150/177/1 316/178/1 151/179/1
f 155/180/13 153/181/13 149/176/13 151/179/13
f 156/182/13 154/183/13 153/181/13 155/180/13
f 155/180/10 151/179/10 277/184/10 279/185/10 280/186/10 281/187/10 282/188/10 283/189/10 162/190/10 158/191/10 157/192/10 156/182/10
f 157/192/13 159/193/13 154/183/13 156/182/13
f 158/191/13 160/194/13 159/193/13 157/192/13
f 162/190/13 161/195/13 160/194/13 158/191/13
f 162/190/5 300/196/5 164/197/5 161/195/5
f 163/198/13 166/199/13 165/200/13 161/195/13
f 161/195/8 164/197/8 301/201/8 163/198/8
f 166/199/13 169/202/13 167/203/13 165/200/13
f 169/202/13 170/204/13 168/205/13 167/203/13
f 166/199/1 163/198/1 301/201/1 298/206/1 297/207/1 296/208/1 290/209/1 289/210/1 291/211/1 292/212/1 293/213/1 294/214/1 295/215/1 237/216/1 173/217/1 171/218/1 170/204/1 169/202/1
f 170/204/13 171/218/13 172/219/13 168/205/13
f 171/218/12 174/220/12 175/221/12 172/219/12
f 174/220/1 171/218/1 173/217/1 237/216/1 318/222/1 319/223/1 320/224/1 321/225/1 322/226/1 323/227/1 191/228/1 190/229/1 188/230/1 187/231/1 186/232/1 183/233/1 177/234/1 176/235/1
f 174/220/12 176/235/12 178/236/12 175/221/12
f 176/235/12 177/234/12 179/237/12 178/236/12
f 177/234/12 183/233/12 180/238/12 179/237/12
f 180/238/12 181/239/12 348/240/12 182/241/12
f 180/238/5 184/242/5 185/243/5 181/239/5
f 183/233/10 186/232/10 184/242/10 180/238/10
f 186/232/7 187/231/7 185/243/7 184/242/7
f 187/231/7 188/230/7 189/244/7 185/243/7
f 192/245/8 189/244/8 188/230/8 190/229/8
f 193/246/8 192/245/8 190/229/8 191/228/8
f 181/239/5 185/243/5 189/244/5 192/245/5
f 181/239/5 192/245/5 193/246/5 195/247/5
f 191/228/8 323/227/8 194/248/8 193/246/8
f 195/247/5 193/246/5 194/248/5 196/249/5
f 348/240/8 181/239/8 195/247/8 198/250/8 199/251/8 200/252/8 201/253/8 202/254/8 203/255/8 345/256/8 346/257/8 347/258/8
f 195/247/5 196/249/5 235/259/5 197/260/5
f 206/261/14 202/254/14 201/253/14 200/252/14 199/251/14 198/250/14 195/247/14 197/260/14 231/262/14 229/263/14 228/264/14 222/265/14 215/266/14 213/267/14 210/268/14 208/269/14
f 202/254/1 205/270/1 325/271/1 203/255/1
f 204/272/1 326/273/1 205/270/1 202/254/1
f 206/261/1 207/274/1 204/272/1 202/254/1
f 208/269/1 209/275/1 207/274/1 206/261/1
f 210/268/1 212/276/1 209/275/1 208/269/1
f 214/277/14 211/278/14 210/268/14 213/267/14
f 211/278/1 268/279/1 212/276/1 210/268/1
f 213/267/1 216/280/1 217/281/1 214/277/1
f 215/266/10 218/282/10 216/280/10 213/267/10
f 219/283/14 217/281/14 216/280/14 218/282/14
f 220/284/5 219/283/5 218/282/5 215/266/5
f 214/277/8 217/281/8 219/283/8 220/284/8
f 221/285/14 220/284/14 215/266/14 222/265/14
f 270/286/14 269/287/14 211/278/14 214/277/14 220/284/14 221/285/14 223/288/14 230/289/14 238/290/14 273/291/14 272/292/14 271/293/14
f 222/265/1 225/294/1 224/295/1 221/285/1
f 221/285/8 224/295/8 226/296/8 223/288/8
f 226/296/14 224/295/14 225/294/14 227/297/14
f 223/288/5 226/296/5 227/297/5 228/264/5
f 228/264/10 227/297/10 225/294/10 222/265/10
f 230/289/14 223/288/14 228/264/14 229/263/14
f 229/263/5 232/298/5 233/299/5 230/289/5
f 231/262/5 234/300/5 232/298/5 229/263/5
f 235/259/15 196/249/15 194/248/15 323/227/15 322/226/15 321/225/15 320/224/15 319/223/15 318/222/15 237/216/15 236/301/15 233/299/15 232/298/15 234/300/15
f 197/260/5 235/259/5 234/300/5 231/262/5
f 230/289/5 233/299/5 236/301/5 238/290/5
f 239/302/16 236/301/16 237/216/16 295/215/16 294/214/16 293/213/16 292/212/16 291/211/16 289/210/16 288/303/16 285/304/16 302/305/16 242/306/16 241/307/16
f 238/290/5 236/301/5 239/302/5 240/308/5
f 240/308/5 239/302/5 241/307/5 243/309/5
f 243/309/5 241/307/5 242/306/5 244/310/5
f 279/185/17 277/184/17 276/311/17 262/312/17 261/313/17 260/314/17 255/315/17 247/316/17 245/317/17 243/309/17 244/310/17 284/318/17 283/189/17 282/188/17 281/187/17 280/186/17
f 243/309/17 245/317/17 246/319/17 240/308/17
f 245/317/5 248/320/5 249/321/5 246/319/5
f 247/316/8 250/322/8 248/320/8 245/317/8
f 248/320/17 250/322/17 251/323/17 249/321/17
f 252/324/1 251/323/1 250/322/1 247/316/1
f 246/319/10 249/321/10 251/323/10 252/324/10
f 254/325/17 263/326/17 269/287/17 270/286/17 271/293/17 272/292/17 273/291/17 238/290/17 240/308/17 246/319/17 252/324/17 253/327/17
f 247/316/17 255/315/17 253/327/17 252/324/17
f 253/327/10 256/328/10 257/329/10 254/325/10
f 255/315/5 258/330/5 256/328/5 253/327/5
f 258/330/17 259/331/17 257/329/17 256/328/17
f 260/314/8 259/331/8 258/330/8 255/315/8
f 254/325/1 257/329/1 259/331/1 260/314/1
f 260/314/17 261/313/17 263/326/17 254/325/17
f 262/312/1 265/332/1 264/333/1 261/313/1
f 261/313/1 264/333/1 266/334/1 263/326/1
f 275/335/16 304/336/16 305/154/16 307/153/16 308/152/16 309/151/16 310/150/16 311/149/16 139/148/16 267/337/16 266/334/16 264/333/16 265/332/16 274/338/16
f 263/326/1 266/334/1 267/337/1 269/287/1
f 329/160/15 328/159/15 327/158/15 326/273/15 204/272/15 207/274/15 209/275/15 212/276/15 268/279/15 267/337/15 139/148/15 332/163/15 331/162/15 330/161/15
f 269/287/1 267/337/1 268/279/1 211/278/1
f 276/311/1 274/338/1 265/332/1 262/312/1
f 277/184/1 275/335/1 274/338/1 276/311/1
f 151/179/1 303/339/1 278/340/1 277/184/1
f 277/184/1 278/340/1 304/336/1 275/335/1
f 283/189/5 286/341/5 287/342/5 162/190/5
f 284/318/5 302/305/5 285/304/5 283/189/5
f 285/304/5 288/303/5 286/341/5 283/189/5
f 286/341/10 288/303/10 289/210/10 290/209/10 296/208/10 297/207/10 299/343/10 287/342/10
f 300/196/7 299/343/7 297/207/7 298/206/7
f 287/342/5 299/343/5 300/196/5 162/190/5
f 298/206/7 301/201/7 164/197/7 300/196/7
f 244/310/5 242/306/5 302/305/5 284/318/5
f 303/339/10 315/344/10 313/139/10 312/138/10 306/155/10 305/154/10 304/336/10 278/340/10
f 314/140/7 313/139/7 315/344/7 316/178/7
f 151/179/1 316/178/1 315/344/1 303/339/1
f 316/178/7 150/177/7 317/141/7 314/140/7
f 205/270/8 326/273/8 327/158/8 324/157/8
f 324/157/8 333/156/8 325/271/8 205/270/8
f 333/156/8 335/170/8 334/345/8 325/271/8
f 325/271/1 334/345/1 336/346/1 203/255/1
f 336/346/7 334/345/7 335/170/7 337/169/7
f 338/347/7 336/346/7 337/169/7 339/168/7
f 203/255/1 336/346/1 338/347/1 340/348/1
f 340/348/10 338/347/10 339/168/10 342/167/10
f 343/349/12 345/256/12 203/255/12 340/348/12
f 341/350/12 340/348/12 342/167/12 350/166/12
f 344/351/12 346/257/12 345/256/12 343/349/12
f 349/352/12 347/258/12 346/257/12 344/351/12
f 182/241/12 348/240/12 347/258/12 349/352/12
f 352/353/12 341/350/12 350/166/12 351/165/12
f 353/172/12 352/353/12 351/165/12 141/164/12
f 354/354/9 355/355/9 406/356/9 357/357/9
f 654/358/5 396/359/5 398/360/5 404/361/5 405/362/5 355/355/5 354/354/5 356/363/5 656/364/5 655/365/5
f 354/354/8 358/366/8 361/367/8 356/363/8
f 358/366/9 354/354/9 357/357/9 360/368/9
f 358/366/8 359/369/8 362/370/8 361/367/8
f 359/369/9 358/366/9 360/368/9 368/371/9
f 359/369/8 365/372/8 363/373/8 362/370/8
f 365/372/8 366/374/8 364/375/8 363/373/8
f 365/372/9 359/369/9 368/371/9 367/376/9
f 366/374/9 365/372/9 367/376/9 369/377/9
f 360/368/8 357/357/8 416/378/8 417/379/8 418/380/8 486/381/8 485/382/8 483/383/8 484/384/8 371/385/8 370/386/8 369/377/8 367/376/8 368/371/8
f 372/387/9 366/374/9 369/377/9 370/386/9
f 373/388/9 372/387/9 370/386/9 371/385/9
f 372/387/8 373/388/8 375/389/8 374/390/8
f 366/374/8 372/387/8 374/390/8 364/375/8
f 376/391/1 375/389/1 373/388/1 661/392/1 660/393/1 382/394/1 381/395/1 379/396/1 378/397/1 377/398/1
f 381/395/10 384/399/10 380/400/10 379/396/10
f 661/392/9 373/388/9 371/385/9 659/401/9 658/402/9 657/403/9 383/404/9 381/395/9 382/394/9 660/393/9
f 384/399/9 381/395/9 383/404/9 386/405/9
f 384/399/10 385/406/10 394/407/10 380/400/10
f 385/406/9 384/399/9 386/405/9 387/408/9
f 386/405/10 383/404/10 494/409/10 495/410/10 496/411/10 653/412/10 652/413/10 408/414/10 401/415/10 400/416/10 399/417/10 389/418/10 388/419/10 387/408/10
f 390/420/9 385/406/9 387/408/9 388/419/9
f 391/421/9 390/420/9 388/419/9 389/418/9
f 385/406/10 390/420/10 392/422/10 394/407/10
f 390/420/10 391/421/10 393/423/10 392/422/10
f 391/421/10 397/424/10 395/425/10 393/423/10
f 397/424/10 398/360/10 396/359/10 395/425/10
f 398/360/9 397/424/9 399/417/9 400/416/9
f 397/424/9 391/421/9 389/418/9 399/417/9
f 404/361/9 398/360/9 400/416/9 402/426/9
f 402/426/5 400/416/5 401/415/5 409/427/5 410/428/5 415/429/5 416/378/5 357/357/5 406/356/5 403/430/5
f 405/362/9 404/361/9 402/426/9 403/430/9
f 355/355/9 405/362/9 403/430/9 406/356/9
f 407/431/18 411/432/18 409/427/18 401/415/18
f 559/433/19 407/431/19 401/415/19 408/414/19
f 411/432/18 412/434/18 410/428/18 409/427/18
f 411/432/5 407/431/5 562/435/5 651/436/5 650/437/5 649/438/5 567/439/5 414/440/5 413/441/5 412/434/5
f 412/434/18 413/441/18 415/429/18 410/428/18
f 413/441/18 414/440/18 416/378/18 415/429/18
f 414/440/20 419/442/20 417/379/20 416/378/20
f 419/442/20 420/443/20 418/380/20 417/379/20
f 566/444/8 568/445/8 571/446/8 572/447/8 577/448/8 578/449/8 579/450/8 580/451/8 648/452/8 646/453/8 482/454/8 481/455/8 479/456/8 480/457/8 465/458/8 450/459/8 436/460/8 423/461/8 422/462/8 419/442/8 414/440/8 567/439/8
f 420/443/8 419/442/8 421/463/8 430/464/8
f 419/442/8 422/462/8 424/465/8 421/463/8
f 422/462/8 423/461/8 425/466/8 424/465/8
f 424/465/1 425/466/1 427/467/1 426/468/1
f 421/463/1 424/465/1 426/468/1 428/469/1
f 426/468/8 427/467/8 432/470/8 431/471/8 429/472/8 428/469/8
f 430/464/7 421/463/7 428/469/7 429/472/7
f 433/473/5 430/464/5 429/472/5 431/471/5
f 434/474/5 433/473/5 431/471/5 432/470/5
f 436/460/8 435/475/8 433/473/8 434/474/8
f 435/475/8 420/443/8 430/464/8 433/473/8
f 435/475/8 436/460/8 438/476/8 437/477/8
f 420/443/8 435/475/8 437/477/8 439/478/8
f 437/477/1 438/476/1 441/479/1 440/480/1
f 439/478/1 437/477/1 440/480/1 442/481/1
f 440/480/8 441/479/8 446/482/8 445/483/8 443/484/8 442/481/8
f 444/485/7 439/478/7 442/481/7 443/484/7
f 447/486/5 444/485/5 443/484/5 445/483/5
f 448/487/5 447/486/5 445/483/5 446/482/5
f 450/459/8 449/488/8 447/486/8 448/487/8
f 449/488/8 451/489/8 444/485/8 447/486/8
f 449/488/8 450/459/8 453/490/8 452/491/8
f 451/489/8 449/488/8 452/491/8 454/492/8
f 452/491/1 453/490/1 456/493/1 455/494/1
f 454/492/1 452/491/1 455/494/1 457/495/1
f 455/494/8 456/493/8 461/496/8 460/497/8 458/498/8 457/495/8
f 459/499/7 454/492/7 457/495/7 458/498/7
f 462/500/5 459/499/5 458/498/5 460/497/5
f 463/501/5 462/500/5 460/497/5 461/496/5
f 465/458/8 464/502/8 462/500/8 463/501/8
f 464/502/8 466/503/8 459/499/8 462/500/8
f 464/502/8 465/458/8 468/504/8 467/505/8
f 466/503/8 464/502/8 467/505/8 469/506/8
f 467/505/1 468/504/1 471/507/1 470/508/1
f 469/506/1 467/505/1 470/508/1 472/509/1
f 470/508/8 471/507/8 476/510/8 475/511/8 473/512/8 472/509/8
f 474/513/7 469/506/7 472/509/7 473/512/7
f 477/514/5 474/513/5 473/512/5 475/511/5
f 478/515/5 477/514/5 475/511/5 476/510/5
f 480/457/8 479/456/8 477/514/8 478/515/8
f 479/456/8 481/455/8 474/513/8 477/514/8
f 481/455/20 482/454/20 484/384/20 483/383/20
f 481/455/8 466/503/8 469/506/8 474/513/8
f 466/503/20 481/455/20 483/383/20 485/382/20
f 451/489/20 466/503/20 485/382/20 486/381/20
f 420/443/20 451/489/20 486/381/20 418/380/20
f 659/401/1 371/385/1 484/384/1 487/516/1 488/517/1 493/518/1 494/409/1 383/404/1 657/403/1 658/402/1
f 482/454/21 489/519/21 487/516/21 484/384/21
f 489/519/21 490/520/21 488/517/21 487/516/21
f 491/521/1 490/520/1 489/519/1 482/454/1 646/453/1 645/522/1 602/523/1 601/524/1 603/525/1 492/526/1
f 490/520/21 491/521/21 493/518/21 488/517/21
f 491/521/21 492/526/21 494/409/21 493/518/21
f 492/526/19 497/527/19 495/410/19 494/409/19
f 497/527/19 498/528/19 496/411/19 495/410/19
f 603/525/10 604/529/10 501/530/10 500/531/10 497/527/10 492/526/10
f 498/528/10 497/527/10 499/532/10 508/533/10
f 497/527/10 500/531/10 502/534/10 499/532/10
f 500/531/10 501/530/10 503/535/10 502/534/10
f 502/534/5 503/535/5 505/536/5 504/537/5
f 499/532/5 502/534/5 504/537/5 506/538/5
f 504/537/10 505/536/10 510/539/10 509/540/10 507/541/10 506/538/10
f 508/533/7 499/532/7 506/538/7 507/541/7
f 511/542/1 508/533/1 507/541/1 509/540/1
f 512/543/1 511/542/1 509/540/1 510/539/1
f 514/544/10 513/545/10 511/542/10 512/543/10
f 513/545/10 498/528/10 508/533/10 511/542/10
f 513/545/10 514/544/10 516/546/10 515/547/10
f 498/528/10 513/545/10 515/547/10 517/548/10
f 515/547/5 516/546/5 519/549/5 518/550/5
f 517/548/5 515/547/5 518/550/5 520/551/5
f 518/550/10 519/549/10 524/552/10 523/553/10 521/554/10 520/551/10
f 522/555/7 517/548/7 520/551/7 521/554/7
f 525/556/1 522/555/1 521/554/1 523/553/1
f 526/557/1 525/556/1 523/553/1 524/552/1
f 528/558/10 527/559/10 525/556/10 526/557/10
f 527/559/10 529/560/10 522/555/10 525/556/10
f 527/559/10 528/558/10 531/561/10 530/562/10
f 529/560/10 527/559/10 530/562/10 532/563/10
f 530/562/5 531/561/5 534/564/5 533/565/5
f 532/563/5 530/562/5 533/565/5 535/566/5
f 533/565/10 534/564/10 539/567/10 538/568/10 536/569/10 535/566/10
f 537/570/7 532/563/7 535/566/7 536/569/7
f 540/571/1 537/570/1 536/569/1 538/568/1
f 541/572/1 540/571/1 538/568/1 539/567/1
f 543/573/10 542/574/10 540/571/10 541/572/10
f 542/574/10 544/575/10 537/570/10 540/571/10
f 542/574/10 543/573/10 546/576/10 545/577/10
f 544/575/10 542/574/10 545/577/10 547/578/10
f 545/577/5 546/576/5 549/579/5 548/580/5
f 547/578/5 545/577/5 548/580/5 550/581/5
f 548/580/10 549/579/10 554/582/10 553/583/10 551/584/10 550/581/10
f 552/585/7 547/578/7 550/581/7 551/584/7
f 555/586/1 552/585/1 551/584/1 553/583/1
f 556/587/1 555/586/1 553/583/1 554/582/1
f 558/588/10 557/589/10 555/586/10 556/587/10
f 557/589/10 559/433/10 552/585/10 555/586/10
f 557/589/10 558/588/10 560/590/10 562/435/10 407/431/10 559/433/10
f 559/433/10 544/575/10 547/578/10 552/585/10
f 544/575/19 559/433/19 408/414/19 652/413/19
f 501/530/10 604/529/10 605/591/10 608/592/10 609/593/10 614/594/10 615/595/10 616/596/10 561/597/10 560/590/10 558/588/10 543/573/10 528/558/10 514/544/10
f 543/573/10 558/588/10 556/587/10 546/576/10
f 563/598/5 560/590/5 561/597/5 622/599/5 623/600/5 569/601/5 568/445/5 566/444/5 565/602/5 564/603/5
f 567/439/5 649/438/5 650/437/5 651/436/5 562/435/5 560/590/5 563/598/5 564/603/5 565/602/5 566/444/5
f 568/445/9 569/601/9 624/604/9 570/605/9
f 571/446/9 568/445/9 570/605/9 573/606/9
f 572/447/9 571/446/9 573/606/9 574/607/9
f 573/606/8 570/605/8 629/608/8 630/609/8 631/610/8 632/611/8 633/612/8 634/613/8 583/614/8 582/615/8 581/616/8 576/617/8 575/618/8 574/607/8
f 577/448/9 572/447/9 574/607/9 575/618/9
f 578/449/9 577/448/9 575/618/9 576/617/9
f 579/450/9 578/449/9 576/617/9 581/616/9
f 580/451/9 579/450/9 581/616/9 582/615/9
f 586/619/9 580/451/9 582/615/9 584/620/9
f 584/620/1 582/615/1 583/614/1 585/621/1
f 584/620/10 585/621/10 588/622/10 587/623/10
f 586/619/9 584/620/9 587/623/9 589/624/9
f 591/625/10 586/619/10 589/624/10 590/626/10
f 594/627/7 591/625/7 590/626/7 592/628/7
f 595/629/7 594/627/7 592/628/7 593/630/7
f 591/625/7 594/627/7 596/631/7 597/632/7
f 594/627/7 595/629/7 598/633/7 596/631/7
f 600/634/1 647/635/1 597/632/1 596/631/1 598/633/1 599/636/1
f 595/629/10 601/524/10 599/636/10 598/633/10
f 601/524/9 602/523/9 645/522/9 647/635/9 600/634/9 599/636/9
f 603/525/1 601/524/1 595/629/1 604/529/1
f 604/529/1 595/629/1 606/637/1 605/591/1
f 605/591/9 606/637/9 642/638/9 607/639/9
f 608/592/9 605/591/9 607/639/9 610/640/9
f 609/593/9 608/592/9 610/640/9 611/641/9
f 610/640/10 607/639/10 639/642/10 638/643/10 637/644/10 636/645/10 635/646/10 625/647/10 619/648/10 618/649/10 617/650/10 613/651/10 612/652/10 611/641/10
f 614/594/9 609/593/9 611/641/9 612/652/9
f 615/595/9 614/594/9 612/652/9 613/651/9
f 616/596/9 615/595/9 613/651/9 617/650/9
f 561/597/9 616/596/9 617/650/9 618/649/9
f 622/599/9 561/597/9 618/649/9 620/653/9
f 621/654/5 620/653/5 618/649/5 619/648/5 626/655/5 627/656/5 628/657/5 629/608/5 570/605/5 624/604/5
f 623/600/9 622/599/9 620/653/9 621/654/9
f 569/601/9 623/600/9 621/654/9 624/604/9
f 607/639/1 642/638/1 640/658/1 639/642/1
f 640/658/8 642/638/8 643/659/8 641/660/8
f 642/638/9 606/637/9 644/661/9 643/659/9
f 606/637/8 595/629/8 593/630/8 644/661/8
f 645/522/1 646/453/1 648/452/1 591/625/1
f 645/522/8 591/625/8 597/632/8 647/635/8
f 591/625/1 648/452/1 580/451/1 586/619/1
f 546/576/9 556/587/9 554/582/9 549/579/9
f 544/575/10 529/560/10 532/563/10 537/570/10
f 529/560/19 544/575/19 652/413/19 653/412/19
f 498/528/19 529/560/19 653/412/19 496/411/19
f 528/558/10 543/573/10 541/572/10 531/561/10
f 531/561/9 541/572/9 539/567/9 534/564/9
f 529/560/10 498/528/10 517/548/10 522/555/10
f 514/544/10 528/558/10 526/557/10 516/546/10
f 516/546/9 526/557/9 524/552/9 519/549/9
f 501/530/10 514/544/10 512/543/10 503/535/10
f 503/535/9 512/543/9 510/539/9 505/536/9
f 465/458/8 480/457/8 478/515/8 468/504/8
f 468/504/9 478/515/9 476/510/9 471/507/9
f 466/503/8 451/489/8 454/492/8 459/499/8
f 450/459/8 465/458/8 463/501/8 453/490/8
f 453/490/9 463/501/9 461/496/9 456/493/9
f 451/489/8 420/443/8 439/478/8 444/485/8
f 436/460/8 450/459/8 448/487/8 438/476/8
f 438/476/9 448/487/9 446/482/9 441/479/9
f 423/461/8 436/460/8 434/474/8 425/466/8
f 425/466/9 434/474/9 432/470/9 427/467/9
f 670/662/10 673/663/10 669/664/10 668/665/10
f 668/665/1 669/664/1 667/666/1 666/667/1
f 674/668/8 677/669/8 663/670/8 662/671/8
f 670/662/7 668/665/7 666/667/7 675/672/7
f 672/673/22 665/674/22 663/670/22 677/669/22
f 669/664/23 673/663/23 676/675/23 667/666/23
f 673/663/24 672/673/24 677/669/24 676/675/24
f 664/676/7 671/677/7 674/668/7 662/671/7
f 671/677/7 670/662/7 675/672/7 674/668/7
f 666/667/8 667/666/8 676/675/8 675/672/8
f 675/672/8 676/675/8 677/669/8 674/668/8
f 664/676/10 665/674/10 672/673/10 671/677/10
f 671/677/10 672/673/10 673/663/10 670/662/10
f 686/678/8 684/679/8 685/680/8 689/681/8
f 684/679/1 682/682/1 683/683/1 685/680/1
f 690/684/10 678/685/10 679/686/10 693/687/10
f 686/678/7 691/688/7 682/682/7 684/679/7
f 688/689/22 693/687/22 679/686/22 681/690/22
f 685/680/23 683/683/23 692/691/23 689/681/23
f 689/681/24 692/691/24 693/687/24 688/689/24
f 680/692/7 678/685/7 690/684/7 687/693/7
f 687/693/7 690/684/7 691/688/7 686/678/7
f 682/682/10 691/688/10 692/691/10 683/683/10
f 691/688/10 690/684/10 693/687/10 692/691/10
f 680/692/8 687/693/8 688/689/8 681/690/8
f 687/693/8 686/678/8 689/681/8 688/689/8
f 694/694/5 695/695/5 697/696/5 696/697/5
f 696/697/10 697/696/10 701/698/10 700/699/10
f 700/700/1 701/701/1 699/702/1 698/703/1
f 698/704/8 699/705/8 695/706/8 694/707/8
f 696/697/7 700/699/7 698/703/7 694/694/7
f 701/708/9 697/709/9 695/710/9 699/711/9
